M48
METRIC,TZ
T1C0.635
T2C1.016
T3C2.499
%
G90
G05
T1
X167640Y-111125
X167640Y-112395
X167640Y-113665
X167640Y-114935
X167640Y-116205
X174461Y-109857
X174461Y-111127
X174461Y-112397
X174461Y-113667
X174461Y-114937
X174498Y-116205
X178525Y-114429
X178525Y-114429
X178525Y-116969
X178525Y-116969
X178525Y-120144
X178525Y-120144
X178525Y-122684
X178525Y-122684
X178525Y-125859
X178525Y-125859
X178525Y-128399
X178525Y-128399
X178525Y-131574
X178525Y-131574
X178525Y-134114
X178525Y-134114
X178525Y-137289
X178525Y-137289
X178525Y-139829
X178525Y-139829
X178525Y-143004
X178525Y-143004
X178525Y-145544
X178525Y-145544
X181700Y-114429
X181700Y-114429
X181700Y-116969
X181700Y-116969
X181700Y-120144
X181700Y-120144
X181700Y-122684
X181700Y-122684
X181700Y-125859
X181700Y-125859
X181700Y-128399
X181700Y-128399
X181700Y-131574
X181700Y-131574
X181700Y-134114
X181700Y-134114
X181700Y-137289
X181700Y-137289
X181700Y-139829
X181700Y-139829
X181700Y-143004
X181700Y-143004
X181700Y-145544
X181700Y-145544
X184875Y-114429
X184875Y-114429
X184875Y-116969
X184875Y-116969
X184875Y-120144
X184875Y-120144
X184875Y-122684
X184875Y-122684
X184875Y-125859
X184875Y-125859
X184875Y-128399
X184875Y-128399
X184875Y-131574
X184875Y-131574
X184875Y-134114
X184875Y-134114
X184875Y-137289
X184875Y-137289
X184875Y-139829
X184875Y-139829
X184875Y-143004
X184875Y-143004
X184875Y-145544
X184875Y-145544
X188050Y-114429
X188050Y-114429
X188050Y-116969
X188050Y-116969
X188050Y-120144
X188050Y-120144
X188050Y-122684
X188050Y-122684
X188050Y-125859
X188050Y-125859
X188050Y-128399
X188050Y-128399
X188050Y-131574
X188050Y-131574
X188050Y-134114
X188050Y-134114
X188050Y-137289
X188050Y-137289
X188050Y-139829
X188050Y-139829
X188050Y-143004
X188050Y-143004
X188050Y-145544
X188050Y-145544
X189955Y-114429
X189955Y-114429
X189955Y-116969
X189955Y-116969
X189955Y-120144
X189955Y-120144
X189955Y-122684
X189955Y-122684
X189955Y-125859
X189955Y-125859
X189955Y-128399
X189955Y-128399
X189955Y-131574
X189955Y-131574
X189955Y-131574
X189955Y-134114
X189955Y-134114
X189955Y-134114
X189955Y-137289
X189955Y-137289
X189955Y-139829
X189955Y-139829
X189955Y-143004
X189955Y-143004
X189955Y-145544
X189955Y-145544
X192241Y-135765
X194527Y-130304
X194908Y-116461
X195072Y-147701
X195834Y-145923
X196051Y-130304
X196559Y-123954
X197575Y-130304
X197575Y-145925
X198374Y-107188
X198882Y-151892
X200406Y-137160
X200787Y-145923
X201422Y-114173
X202692Y-114173
X203163Y-122176
X204216Y-130048
X205703Y-130050
X205740Y-128588
X205740Y-131509
X206248Y-134874
X207200Y-130048
X208534Y-124460
X208788Y-151892
X209042Y-107188
X209042Y-134874
X210312Y-124460
X210312Y-126746
X210312Y-128270
X210312Y-143256
X210529Y-130304
X211328Y-135890
X212307Y-117350
X212598Y-127000
T2
X172720Y-123190
X172720Y-125730
X172720Y-128270
X172720Y-130810
X172720Y-133350
X172720Y-135890
X172720Y-138430
X172720Y-146050
X172720Y-148590
T3
X190500Y-107950
X190500Y-151130
T0
M30
