G04 #@! TF.FileFunction,Copper,L1,Top,Signal*
%FSLAX46Y46*%
G04 Gerber Fmt 4.6, Leading zero omitted, Abs format (unit mm)*
G04 Created by KiCad (PCBNEW (2014-11-27 BZR 5304)-product) date 12/5/2014 1:18:36 AM*
%MOMM*%
G01*
G04 APERTURE LIST*
%ADD10C,0.100000*%
%ADD11C,0.130000*%
%ADD12R,0.797560X0.797560*%
%ADD13C,0.889000*%
%ADD14R,1.501140X1.950720*%
%ADD15R,0.750000X0.800000*%
%ADD16R,0.800000X0.750000*%
%ADD17R,1.270000X0.965200*%
%ADD18R,0.500000X0.900000*%
%ADD19R,1.600000X1.000000*%
%ADD20R,0.900000X0.500000*%
%ADD21R,1.700000X0.900000*%
%ADD22R,0.762000X0.431800*%
%ADD23R,2.032000X1.727200*%
%ADD24O,2.032000X1.727200*%
%ADD25R,2.032000X2.032000*%
%ADD26O,2.032000X2.032000*%
%ADD27R,1.000760X0.599440*%
%ADD28R,0.599440X0.248920*%
%ADD29R,0.248920X0.599440*%
%ADD30R,5.150000X5.150000*%
%ADD31R,0.700000X1.700000*%
%ADD32R,1.000000X2.600000*%
%ADD33C,0.406400*%
%ADD34C,0.203200*%
%ADD35C,0.254000*%
%ADD36C,0.609600*%
%ADD37C,0.508000*%
%ADD38C,0.304800*%
%ADD39C,0.228600*%
G04 APERTURE END LIST*
D10*
D11*
X167734734Y-152718867D02*
X167501400Y-152385533D01*
X167334734Y-152718867D02*
X167334734Y-152018867D01*
X167601400Y-152018867D01*
X167668067Y-152052200D01*
X167701400Y-152085533D01*
X167734734Y-152152200D01*
X167734734Y-152252200D01*
X167701400Y-152318867D01*
X167668067Y-152352200D01*
X167601400Y-152385533D01*
X167334734Y-152385533D01*
X168301400Y-152685533D02*
X168234734Y-152718867D01*
X168101400Y-152718867D01*
X168034734Y-152685533D01*
X168001400Y-152618867D01*
X168001400Y-152352200D01*
X168034734Y-152285533D01*
X168101400Y-152252200D01*
X168234734Y-152252200D01*
X168301400Y-152285533D01*
X168334734Y-152352200D01*
X168334734Y-152418867D01*
X168001400Y-152485533D01*
X168568067Y-152252200D02*
X168734734Y-152718867D01*
X168901400Y-152252200D01*
X169534733Y-152718867D02*
X169134733Y-152718867D01*
X169334733Y-152718867D02*
X169334733Y-152018867D01*
X169268067Y-152118867D01*
X169201400Y-152185533D01*
X169134733Y-152218867D01*
X171268066Y-152718867D02*
X170868066Y-152718867D01*
X171068066Y-152718867D02*
X171068066Y-152018867D01*
X171001400Y-152118867D01*
X170934733Y-152185533D01*
X170868066Y-152218867D01*
X171934733Y-152718867D02*
X171534733Y-152718867D01*
X171734733Y-152718867D02*
X171734733Y-152018867D01*
X171668067Y-152118867D01*
X171601400Y-152185533D01*
X171534733Y-152218867D01*
X172734734Y-151985533D02*
X172134734Y-152885533D01*
X173334733Y-152718867D02*
X172934733Y-152718867D01*
X173134733Y-152718867D02*
X173134733Y-152018867D01*
X173068067Y-152118867D01*
X173001400Y-152185533D01*
X172934733Y-152218867D01*
X173934734Y-152252200D02*
X173934734Y-152718867D01*
X173768067Y-151985533D02*
X173601400Y-152485533D01*
X174034734Y-152485533D01*
D12*
X168795700Y-109855000D03*
X170294300Y-109855000D03*
D13*
X205703400Y-130050200D03*
D14*
X209640400Y-117769300D03*
X209640400Y-120487100D03*
D15*
X198882000Y-118503000D03*
X198882000Y-120003000D03*
X198882000Y-121678000D03*
X198882000Y-123178000D03*
X198882000Y-124853000D03*
X198882000Y-126353000D03*
X198882000Y-128028000D03*
X198882000Y-129528000D03*
X198882000Y-131203000D03*
X198882000Y-132703000D03*
X198882000Y-134378000D03*
X198882000Y-135878000D03*
D16*
X211340000Y-134620000D03*
X212840000Y-134620000D03*
X211340000Y-125730000D03*
X212840000Y-125730000D03*
D12*
X168795700Y-111125000D03*
X170294300Y-111125000D03*
X168795700Y-112395000D03*
X170294300Y-112395000D03*
X168795700Y-113665000D03*
X170294300Y-113665000D03*
X168795700Y-114935000D03*
X170294300Y-114935000D03*
X168795700Y-116205000D03*
X170294300Y-116205000D03*
D17*
X210312000Y-138938000D03*
X210312000Y-140208000D03*
X210312000Y-141478000D03*
D18*
X173470000Y-109855000D03*
X171970000Y-109855000D03*
X173470000Y-111125000D03*
X171970000Y-111125000D03*
X173470000Y-112395000D03*
X171970000Y-112395000D03*
X173470000Y-113665000D03*
X171970000Y-113665000D03*
X173470000Y-114935000D03*
X171970000Y-114935000D03*
X173470000Y-116205000D03*
X171970000Y-116205000D03*
X193245400Y-130304200D03*
X191745400Y-130304200D03*
D19*
X203163400Y-117628200D03*
X203163400Y-120628200D03*
D18*
X212803400Y-128780200D03*
X211303400Y-128780200D03*
X212803400Y-130304200D03*
X211303400Y-130304200D03*
X212803400Y-131828200D03*
X211303400Y-131828200D03*
D20*
X198845400Y-143119200D03*
X198845400Y-141619200D03*
X198845400Y-114949200D03*
X198845400Y-116449200D03*
D21*
X181700400Y-112979200D03*
X181700400Y-115879200D03*
X178525400Y-112979200D03*
X178525400Y-115879200D03*
X181700400Y-118694200D03*
X181700400Y-121594200D03*
X184875400Y-118694200D03*
X184875400Y-121594200D03*
X188050400Y-118694200D03*
X188050400Y-121594200D03*
X184875400Y-124409200D03*
X184875400Y-127309200D03*
X188050400Y-124409200D03*
X188050400Y-127309200D03*
X181700400Y-124409200D03*
X181700400Y-127309200D03*
X178525400Y-124409200D03*
X178525400Y-127309200D03*
X188050400Y-130124200D03*
X188050400Y-133024200D03*
X184875400Y-130124200D03*
X184875400Y-133024200D03*
X181700400Y-130124200D03*
X181700400Y-133024200D03*
X188050400Y-135839200D03*
X188050400Y-138739200D03*
X178525400Y-135839200D03*
X178525400Y-138739200D03*
X181700400Y-135839200D03*
X181700400Y-138739200D03*
X184875400Y-135839200D03*
X184875400Y-138739200D03*
X184875400Y-141554200D03*
X184875400Y-144454200D03*
X188050400Y-141554200D03*
X188050400Y-144454200D03*
X181700400Y-141554200D03*
X181700400Y-144454200D03*
X178525400Y-141554200D03*
X178525400Y-144454200D03*
X188050400Y-112979200D03*
X188050400Y-115879200D03*
X184875400Y-112979200D03*
X184875400Y-115879200D03*
X178525400Y-118694200D03*
X178525400Y-121594200D03*
D22*
X194908400Y-120380420D03*
X196432400Y-120380420D03*
X194908400Y-121177980D03*
X196432400Y-121177980D03*
X194908400Y-119580320D03*
X194908400Y-121978080D03*
X196432400Y-121978080D03*
X196432400Y-119580320D03*
X194908400Y-126730420D03*
X196432400Y-126730420D03*
X194908400Y-127527980D03*
X196432400Y-127527980D03*
X194908400Y-125930320D03*
X194908400Y-128328080D03*
X196432400Y-128328080D03*
X196432400Y-125930320D03*
X194908400Y-133080420D03*
X196432400Y-133080420D03*
X194908400Y-133877980D03*
X196432400Y-133877980D03*
X194908400Y-132280320D03*
X194908400Y-134678080D03*
X196432400Y-134678080D03*
X196432400Y-132280320D03*
D21*
X178525400Y-130124200D03*
X178525400Y-133024200D03*
D20*
X198845400Y-138444200D03*
X198845400Y-139944200D03*
D23*
X172720000Y-138430000D03*
D24*
X172720000Y-135890000D03*
X172720000Y-133350000D03*
X172720000Y-130810000D03*
X172720000Y-128270000D03*
X172720000Y-125730000D03*
X172720000Y-123190000D03*
D25*
X172720000Y-148590000D03*
D26*
X172720000Y-146050000D03*
D27*
X192084960Y-115046760D03*
X192084960Y-116347240D03*
X190185040Y-115697000D03*
X192084960Y-120761760D03*
X192084960Y-122062240D03*
X190185040Y-121412000D03*
X192084960Y-126476760D03*
X192084960Y-127777240D03*
X190185040Y-127127000D03*
X192084960Y-132191760D03*
X192084960Y-133492240D03*
X190185040Y-132842000D03*
X192084960Y-137906760D03*
X192084960Y-139207240D03*
X190185040Y-138557000D03*
X192084960Y-143621760D03*
X192084960Y-144922240D03*
X190185040Y-144272000D03*
D28*
X202341480Y-127299720D03*
X202341480Y-127800100D03*
X202341480Y-128300480D03*
X202341480Y-128800860D03*
X202341480Y-129298700D03*
X202341480Y-129799080D03*
X202341480Y-130299460D03*
X202341480Y-130799840D03*
X202341480Y-131300220D03*
X202341480Y-131800600D03*
X202341480Y-132300980D03*
X202341480Y-132798820D03*
X209138520Y-128795780D03*
X209138520Y-128297940D03*
X209138520Y-127797560D03*
X209138520Y-127297180D03*
D29*
X204990700Y-133449060D03*
X205490000Y-133448000D03*
X205988920Y-133449060D03*
X206489300Y-133449060D03*
X206989680Y-133449060D03*
X207490060Y-133449060D03*
X207990440Y-133449060D03*
X208490820Y-133449060D03*
X202991720Y-133449060D03*
X203492100Y-133449060D03*
X203992480Y-133449060D03*
X204490320Y-133449060D03*
D28*
X209138520Y-132796280D03*
X209141060Y-132295900D03*
X209141060Y-131798060D03*
X209141060Y-131297680D03*
X209141060Y-130797300D03*
X209141060Y-130296920D03*
X209141060Y-129796540D03*
X209141060Y-129296160D03*
D29*
X208490820Y-126649480D03*
X207990440Y-126649480D03*
X207490060Y-126649480D03*
X206992220Y-126649480D03*
X206491840Y-126649480D03*
X205991460Y-126649480D03*
X205491080Y-126649480D03*
X204990700Y-126649480D03*
X204490320Y-126649480D03*
X203989940Y-126649480D03*
X203492100Y-126649480D03*
X202991720Y-126649480D03*
D30*
X205740000Y-130048000D03*
D31*
X208835000Y-110715000D03*
D32*
X211035000Y-107315000D03*
D31*
X207585000Y-110715000D03*
X206335000Y-110715000D03*
X205085000Y-110715000D03*
X203835000Y-110715000D03*
X202585000Y-110715000D03*
X201335000Y-110715000D03*
X200085000Y-110715000D03*
X198835000Y-110715000D03*
D32*
X196635000Y-107315000D03*
D31*
X198835000Y-148365000D03*
D32*
X196635000Y-151765000D03*
D31*
X200085000Y-148365000D03*
X201335000Y-148365000D03*
X202585000Y-148365000D03*
X203835000Y-148365000D03*
X205085000Y-148365000D03*
X206335000Y-148365000D03*
X207585000Y-148365000D03*
X208835000Y-148365000D03*
D32*
X211035000Y-151765000D03*
D13*
X195834000Y-145923000D03*
X198374000Y-107188000D03*
X194908400Y-116461200D03*
X209042000Y-107188000D03*
X203163400Y-122176200D03*
X196559400Y-123954200D03*
X198882000Y-151892000D03*
X210312000Y-143256000D03*
X197575400Y-130304200D03*
X206248000Y-134874000D03*
X209042000Y-134874000D03*
X212307400Y-117350200D03*
X208788000Y-151892000D03*
X200406000Y-137160000D03*
X212598000Y-127000000D03*
X197575400Y-145925200D03*
X167640000Y-111125000D03*
X167640000Y-112395000D03*
X167640000Y-113665000D03*
X167640000Y-114935000D03*
X167640000Y-116205000D03*
X195072000Y-147701000D03*
X202692000Y-114173000D03*
X208534000Y-124460000D03*
X201422000Y-114173000D03*
X210312000Y-124460000D03*
X181700400Y-114429200D03*
X178525400Y-114429200D03*
X188050400Y-116969200D03*
X189955400Y-116969200D03*
X181700400Y-116969200D03*
X184875400Y-116969200D03*
X178525400Y-116969200D03*
X184875400Y-114429200D03*
X188050400Y-114429200D03*
X189955400Y-114429200D03*
X189955400Y-114429200D03*
X188050400Y-114429200D03*
X184875400Y-114429200D03*
X178525400Y-116969200D03*
X184875400Y-116969200D03*
X181700400Y-116969200D03*
X189955400Y-116969200D03*
X188050400Y-116969200D03*
X178525400Y-114429200D03*
X181700400Y-114429200D03*
X174461400Y-109857200D03*
X181700400Y-120144200D03*
X178525400Y-120144200D03*
X188050400Y-122684200D03*
X189955400Y-122684200D03*
X181700400Y-122684200D03*
X184875400Y-122684200D03*
X178525400Y-122684200D03*
X184875400Y-120144200D03*
X188050400Y-120144200D03*
X189955400Y-120144200D03*
X189955400Y-120144200D03*
X188050400Y-120144200D03*
X184875400Y-120144200D03*
X178525400Y-122684200D03*
X184875400Y-122684200D03*
X181700400Y-122684200D03*
X189955400Y-122684200D03*
X188050400Y-122684200D03*
X178525400Y-120144200D03*
X181700400Y-120144200D03*
X174461400Y-111127200D03*
X188050400Y-128399200D03*
X189955400Y-128399200D03*
X181700400Y-128399200D03*
X184875400Y-128399200D03*
X178525400Y-128399200D03*
X178525400Y-128399200D03*
X184875400Y-128399200D03*
X181700400Y-128399200D03*
X189955400Y-128399200D03*
X188050400Y-128399200D03*
X181700400Y-125859200D03*
X178525400Y-125859200D03*
X184875400Y-125859200D03*
X188050400Y-125859200D03*
X189955400Y-125859200D03*
X189955400Y-125859200D03*
X188050400Y-125859200D03*
X184875400Y-125859200D03*
X178525400Y-125859200D03*
X181700400Y-125859200D03*
X174461400Y-112397200D03*
X181700400Y-131574200D03*
X178525400Y-131574200D03*
X188050400Y-134114200D03*
X189955400Y-134114200D03*
X181700400Y-134114200D03*
X184875400Y-134114200D03*
X178525400Y-134114200D03*
X184875400Y-131574200D03*
X188050400Y-131574200D03*
X189955400Y-131574200D03*
X189955400Y-131574200D03*
X188050400Y-131574200D03*
X184875400Y-131574200D03*
X178525400Y-134114200D03*
X184875400Y-134114200D03*
X181700400Y-134114200D03*
X189955400Y-134114200D03*
X188050400Y-134114200D03*
X178525400Y-131574200D03*
X181700400Y-131574200D03*
X189955400Y-134114200D03*
X189955400Y-131574200D03*
X174461400Y-113667200D03*
X181700400Y-137289200D03*
X178525400Y-137289200D03*
X188050400Y-139829200D03*
X189955400Y-139829200D03*
X181700400Y-139829200D03*
X184875400Y-139829200D03*
X178525400Y-139829200D03*
X184875400Y-137289200D03*
X188050400Y-137289200D03*
X189955400Y-137289200D03*
X189955400Y-137289200D03*
X188050400Y-137289200D03*
X184875400Y-137289200D03*
X178525400Y-139829200D03*
X184875400Y-139829200D03*
X181700400Y-139829200D03*
X189955400Y-139829200D03*
X188050400Y-139829200D03*
X178525400Y-137289200D03*
X181700400Y-137289200D03*
X174461400Y-114937200D03*
X188050400Y-145544200D03*
X189955400Y-145544200D03*
X181700400Y-145544200D03*
X184875400Y-145544200D03*
X178525400Y-145544200D03*
X178525400Y-145544200D03*
X184875400Y-145544200D03*
X181700400Y-145544200D03*
X189955400Y-145544200D03*
X188050400Y-145544200D03*
X181700400Y-143004200D03*
X178525400Y-143004200D03*
X184875400Y-143004200D03*
X188050400Y-143004200D03*
X189955400Y-143004200D03*
X189955400Y-143004200D03*
X188050400Y-143004200D03*
X184875400Y-143004200D03*
X178525400Y-143004200D03*
X181700400Y-143004200D03*
X174498000Y-116205000D03*
X210312000Y-126746000D03*
X200787000Y-145923000D03*
X210312000Y-128270000D03*
X211328000Y-135890000D03*
X210529400Y-130304200D03*
X194527400Y-130304200D03*
X196051400Y-130304200D03*
X192241400Y-135765200D03*
X204216000Y-130048000D03*
X205740000Y-128587500D03*
X207200500Y-130048000D03*
X205740000Y-131508500D03*
D33*
X198845400Y-114949200D02*
X199492400Y-114949200D01*
X202171400Y-117628200D02*
X203163400Y-117628200D01*
X199492400Y-114949200D02*
X202171400Y-117628200D01*
X198835000Y-110715000D02*
X198835000Y-114938800D01*
X198835000Y-114938800D02*
X198845400Y-114949200D01*
D34*
X204490320Y-123972320D02*
X204490320Y-118955120D01*
X204490320Y-118955120D02*
X203163400Y-117628200D01*
X204490320Y-124734320D02*
X204490320Y-123972320D01*
X204490320Y-126649480D02*
X204490320Y-124734320D01*
D35*
X198835000Y-148365000D02*
X198276000Y-148365000D01*
X198276000Y-148365000D02*
X195834000Y-145923000D01*
X213958400Y-115699200D02*
X212307400Y-117350200D01*
X213829200Y-108204000D02*
X212852000Y-108204000D01*
X213958400Y-108333200D02*
X213829200Y-108204000D01*
X213958400Y-114302200D02*
X213958400Y-108333200D01*
D36*
X209550000Y-108204000D02*
X209550000Y-107442000D01*
X212852000Y-108204000D02*
X209550000Y-108204000D01*
D35*
X213958400Y-114302200D02*
X213958400Y-115699200D01*
D36*
X209550000Y-106426000D02*
X212598000Y-106426000D01*
X209550000Y-107442000D02*
X209550000Y-106426000D01*
D37*
X198374000Y-106934000D02*
X197866000Y-106426000D01*
X197866000Y-106426000D02*
X195326000Y-106426000D01*
X198374000Y-107188000D02*
X209042000Y-107188000D01*
D36*
X209296000Y-107442000D02*
X209042000Y-107188000D01*
X209550000Y-107442000D02*
X209296000Y-107442000D01*
D37*
X198374000Y-107188000D02*
X198374000Y-106934000D01*
X198374000Y-107696000D02*
X197866000Y-108204000D01*
X197866000Y-108204000D02*
X195326000Y-108204000D01*
X198374000Y-107188000D02*
X198374000Y-107696000D01*
D35*
X209640400Y-117769300D02*
X211888300Y-117769300D01*
X211888300Y-117769300D02*
X212307400Y-117350200D01*
D33*
X203163400Y-120628200D02*
X203163400Y-122176200D01*
X203163400Y-120628200D02*
X203163400Y-119636200D01*
D34*
X212840000Y-136132000D02*
X212840000Y-134620000D01*
X212840000Y-136132000D02*
X212852000Y-136144000D01*
X212840000Y-134608000D02*
X212840000Y-134620000D01*
X210030060Y-131798060D02*
X212840000Y-134608000D01*
X209141060Y-131798060D02*
X210030060Y-131798060D01*
X209141060Y-131798060D02*
X209141060Y-131297680D01*
D36*
X198628000Y-151892000D02*
X197612000Y-150876000D01*
X197612000Y-150876000D02*
X195326000Y-150876000D01*
X198120000Y-152654000D02*
X198882000Y-151892000D01*
X195326000Y-152654000D02*
X198120000Y-152654000D01*
X194818000Y-152146000D02*
X195326000Y-152654000D01*
X194781400Y-152146000D02*
X194818000Y-152146000D01*
X198882000Y-151892000D02*
X198628000Y-151892000D01*
X198882000Y-151892000D02*
X208788000Y-151892000D01*
X209931000Y-150876000D02*
X212344000Y-150876000D01*
X208915000Y-151892000D02*
X209931000Y-150876000D01*
X208788000Y-151892000D02*
X208915000Y-151892000D01*
X210058000Y-152654000D02*
X212598000Y-152654000D01*
X209804000Y-152908000D02*
X210058000Y-152654000D01*
X208788000Y-151892000D02*
X209804000Y-152908000D01*
D33*
X210312000Y-141478000D02*
X210312000Y-143256000D01*
D35*
X194779200Y-152146000D02*
X191682602Y-149049402D01*
X191682602Y-149049402D02*
X189498198Y-149049402D01*
X194781400Y-152146000D02*
X194779200Y-152146000D01*
X175221200Y-148590000D02*
X175985400Y-149354200D01*
X175985400Y-149354200D02*
X189193400Y-149354200D01*
X189193400Y-149354200D02*
X189498198Y-149049402D01*
X172720000Y-148590000D02*
X175221200Y-148590000D01*
D34*
X206248000Y-134874000D02*
X206242920Y-134868920D01*
X206489300Y-134632700D02*
X206248000Y-134874000D01*
X206489300Y-133449060D02*
X206489300Y-134632700D01*
X208490820Y-134322820D02*
X209042000Y-134874000D01*
X208490820Y-133449060D02*
X208490820Y-134322820D01*
X209529680Y-131297680D02*
X210030060Y-131798060D01*
X209141060Y-131297680D02*
X209529680Y-131297680D01*
D35*
X198845400Y-143119200D02*
X200034800Y-143119200D01*
X200034800Y-143119200D02*
X200406000Y-142748000D01*
X200406000Y-142748000D02*
X200406000Y-137160000D01*
D38*
X211340000Y-125730000D02*
X211340000Y-126250000D01*
X212090000Y-127000000D02*
X212598000Y-127000000D01*
X211340000Y-126250000D02*
X212090000Y-127000000D01*
D35*
X200085000Y-148365000D02*
X200085000Y-147418800D01*
X198591400Y-146941200D02*
X197575400Y-145925200D01*
X199607400Y-146941200D02*
X198591400Y-146941200D01*
X200085000Y-147418800D02*
X199607400Y-146941200D01*
X209138520Y-126395480D02*
X209138520Y-127297180D01*
X209138520Y-126395480D02*
X209804000Y-125730000D01*
X211340000Y-125730000D02*
X209804000Y-125730000D01*
D33*
X211340000Y-122186700D02*
X209640400Y-120487100D01*
X211340000Y-125730000D02*
X211340000Y-122186700D01*
D35*
X188050400Y-112979200D02*
X193482400Y-112979200D01*
X193482400Y-112979200D02*
X196952400Y-116449200D01*
D36*
X172720000Y-123190000D02*
X174209600Y-123190000D01*
X174209600Y-123190000D02*
X175350400Y-122049200D01*
X175350400Y-122049200D02*
X175350400Y-118239200D01*
X175350400Y-118239200D02*
X176620400Y-116969200D01*
X176620400Y-116969200D02*
X176620400Y-113794200D01*
X177191900Y-113222700D02*
X177435400Y-112979200D01*
X176620400Y-113794200D02*
X177191900Y-113222700D01*
X177435400Y-112979200D02*
X178525400Y-112979200D01*
X184875400Y-112979200D02*
X188050400Y-112979200D01*
X181700400Y-112979200D02*
X184875400Y-112979200D01*
X178525400Y-112979200D02*
X181700400Y-112979200D01*
X178070400Y-112979200D02*
X178525400Y-112979200D01*
D34*
X194920400Y-119568320D02*
X194908400Y-119580320D01*
D35*
X196952400Y-116449200D02*
X194908400Y-118493200D01*
X194908400Y-118493200D02*
X194908400Y-119580320D01*
X198845400Y-116449200D02*
X196952400Y-116449200D01*
X175260000Y-108966000D02*
X175729200Y-108966000D01*
X168795700Y-109855000D02*
X168795700Y-109334300D01*
X169164000Y-108966000D02*
X175260000Y-108966000D01*
X168795700Y-109334300D02*
X169164000Y-108966000D01*
X177128400Y-110365200D02*
X175729200Y-108966000D01*
X177191900Y-110428700D02*
X177128400Y-110365200D01*
X177191900Y-113222700D02*
X177191900Y-110428700D01*
X170294300Y-109855000D02*
X171970000Y-109855000D01*
D36*
X190135400Y-118694200D02*
X191135000Y-117694600D01*
D35*
X192258600Y-117621400D02*
X191208200Y-117621400D01*
X191208200Y-117621400D02*
X191135000Y-117694600D01*
D36*
X188050400Y-118694200D02*
X190135400Y-118694200D01*
D33*
X191277240Y-115046760D02*
X191135000Y-115189000D01*
X191277240Y-115046760D02*
X192084960Y-115046760D01*
X191135000Y-115189000D02*
X191135000Y-117694600D01*
D36*
X172720000Y-125730000D02*
X174209600Y-125730000D01*
X174209600Y-125730000D02*
X176620400Y-123319200D01*
X176620400Y-123319200D02*
X176620400Y-119509200D01*
X176620400Y-119509200D02*
X177435400Y-118694200D01*
X177435400Y-118694200D02*
X178525400Y-118694200D01*
X184875400Y-118694200D02*
X188050400Y-118694200D01*
X181700400Y-118694200D02*
X184875400Y-118694200D01*
X178525400Y-118694200D02*
X181700400Y-118694200D01*
D35*
X168795700Y-111125000D02*
X167640000Y-111125000D01*
X193384400Y-120779200D02*
X193783180Y-121177980D01*
X193384400Y-119763200D02*
X193384400Y-120779200D01*
X193783180Y-121177980D02*
X194908400Y-121177980D01*
X192258600Y-117621400D02*
X193384400Y-118747200D01*
X193384400Y-118747200D02*
X193384400Y-119763200D01*
X170294300Y-111125000D02*
X171970000Y-111125000D01*
D36*
X190135400Y-124409200D02*
X191135000Y-123409600D01*
X188050400Y-124409200D02*
X190135400Y-124409200D01*
D33*
X191404240Y-120761760D02*
X191135000Y-121031000D01*
X191135000Y-121031000D02*
X191135000Y-123409600D01*
X191404240Y-120761760D02*
X192084960Y-120761760D01*
D36*
X176620400Y-125224200D02*
X176620400Y-125859200D01*
X176620400Y-125859200D02*
X174209600Y-128270000D01*
X174209600Y-128270000D02*
X172720000Y-128270000D01*
X177435400Y-124409200D02*
X178525400Y-124409200D01*
X176620400Y-125224200D02*
X177435400Y-124409200D01*
X184875400Y-124409200D02*
X188050400Y-124409200D01*
X181700400Y-124409200D02*
X184875400Y-124409200D01*
X178525400Y-124409200D02*
X181700400Y-124409200D01*
D35*
X167640000Y-112395000D02*
X168795700Y-112395000D01*
X194908400Y-124843200D02*
X193384400Y-123319200D01*
X193384400Y-123319200D02*
X191225400Y-123319200D01*
X194908400Y-125930320D02*
X194908400Y-124843200D01*
X170294300Y-112395000D02*
X171970000Y-112395000D01*
X191135000Y-129124600D02*
X192786000Y-129124600D01*
X194382620Y-127527980D02*
X194908400Y-127527980D01*
X193765400Y-128145200D02*
X194382620Y-127527980D01*
X192786000Y-129124600D02*
X193765400Y-128145200D01*
D33*
X192084960Y-126476760D02*
X191404240Y-126476760D01*
X191135000Y-126746000D02*
X191135000Y-129124600D01*
X191404240Y-126476760D02*
X191135000Y-126746000D01*
D36*
X188050400Y-130124200D02*
X190135400Y-130124200D01*
X190135400Y-130124200D02*
X191135000Y-129124600D01*
X178525400Y-130124200D02*
X174895400Y-130124200D01*
X174895400Y-130124200D02*
X174209600Y-130810000D01*
X174209600Y-130810000D02*
X172720000Y-130810000D01*
X184875400Y-130124200D02*
X188050400Y-130124200D01*
X181700400Y-130124200D02*
X184875400Y-130124200D01*
X178525400Y-130124200D02*
X181700400Y-130124200D01*
X178474600Y-130175000D02*
X178525400Y-130124200D01*
D35*
X167640000Y-113665000D02*
X168795700Y-113665000D01*
X170294300Y-113665000D02*
X171970000Y-113665000D01*
D33*
X192084960Y-132191760D02*
X191404240Y-132191760D01*
X191135000Y-132461000D02*
X191135000Y-134839600D01*
X191404240Y-132191760D02*
X191135000Y-132461000D01*
D36*
X188050400Y-135839200D02*
X190135400Y-135839200D01*
X190135400Y-135839200D02*
X191135000Y-134839600D01*
X178525400Y-135839200D02*
X177075400Y-135839200D01*
X177075400Y-135839200D02*
X174586200Y-133350000D01*
X174586200Y-133350000D02*
X172720000Y-133350000D01*
X184875400Y-135839200D02*
X188050400Y-135839200D01*
X181700400Y-135839200D02*
X184875400Y-135839200D01*
X178525400Y-135839200D02*
X181700400Y-135839200D01*
D35*
X168795700Y-114935000D02*
X167640000Y-114935000D01*
X193836520Y-132280320D02*
X193447900Y-131891700D01*
X194908400Y-132280320D02*
X193836520Y-132280320D01*
X170294300Y-114935000D02*
X171970000Y-114935000D01*
D33*
X192084960Y-137906760D02*
X191404240Y-137906760D01*
X191135000Y-138176000D02*
X191135000Y-140554600D01*
X191404240Y-137906760D02*
X191135000Y-138176000D01*
D35*
X194908400Y-133877980D02*
X194382620Y-133877980D01*
X194382620Y-133877980D02*
X194146400Y-134114200D01*
X194146400Y-134114200D02*
X194146400Y-139702200D01*
X194146400Y-139702200D02*
X193384400Y-140464200D01*
X193384400Y-140464200D02*
X191225400Y-140464200D01*
D36*
X188050400Y-141554200D02*
X190135400Y-141554200D01*
X190135400Y-141554200D02*
X191135000Y-140554600D01*
X178525400Y-141554200D02*
X177392900Y-141554200D01*
X177392900Y-141554200D02*
X176620400Y-140781700D01*
X176620400Y-140781700D02*
X176620400Y-139194200D01*
X172720000Y-135890000D02*
X174586200Y-135890000D01*
X174586200Y-135890000D02*
X176620400Y-137924200D01*
X176620400Y-137924200D02*
X176620400Y-139194200D01*
X184875400Y-141554200D02*
X188050400Y-141554200D01*
X181700400Y-141554200D02*
X184875400Y-141554200D01*
X178525400Y-141554200D02*
X181700400Y-141554200D01*
D35*
X167640000Y-116205000D02*
X168795700Y-116205000D01*
X170294300Y-116205000D02*
X171970000Y-116205000D01*
D34*
X204990700Y-138696700D02*
X206502000Y-140208000D01*
X206502000Y-140208000D02*
X210312000Y-140208000D01*
X204990700Y-133449060D02*
X204990700Y-138696700D01*
D33*
X192084960Y-143621760D02*
X191404240Y-143621760D01*
X191135000Y-143891000D02*
X191135000Y-146904600D01*
X191404240Y-143621760D02*
X191135000Y-143891000D01*
D36*
X174713200Y-138430000D02*
X175477400Y-139194200D01*
X175477400Y-139194200D02*
X175477400Y-141734200D01*
X175477400Y-141734200D02*
X175985400Y-142242200D01*
X175985400Y-142242200D02*
X175985400Y-146814200D01*
X175985400Y-146814200D02*
X177001400Y-147830200D01*
X177001400Y-147830200D02*
X190209400Y-147830200D01*
X190209400Y-147830200D02*
X191135000Y-146904600D01*
X172720000Y-138430000D02*
X174713200Y-138430000D01*
D35*
X198845400Y-139944200D02*
X198845400Y-141619200D01*
X192749400Y-146814200D02*
X197944400Y-141619200D01*
X197944400Y-141619200D02*
X198845400Y-141619200D01*
X191225400Y-146814200D02*
X192749400Y-146814200D01*
D34*
X210947000Y-131826000D02*
X210439000Y-131318000D01*
X209918300Y-130797300D02*
X210439000Y-131318000D01*
X209918300Y-130797300D02*
X209141060Y-130797300D01*
X211340000Y-131826000D02*
X210947000Y-131826000D01*
D35*
X195961000Y-148592200D02*
X196686400Y-148592200D01*
X196686400Y-148592200D02*
X196813400Y-148592200D01*
X213868000Y-145796000D02*
X213868000Y-133858000D01*
X197358000Y-149098000D02*
X198374000Y-150114000D01*
X209550000Y-150114000D02*
X213868000Y-145796000D01*
X198374000Y-150114000D02*
X209550000Y-150114000D01*
X213360000Y-133350000D02*
X213868000Y-133858000D01*
X211340000Y-132346000D02*
X212344000Y-133350000D01*
X212344000Y-133350000D02*
X213360000Y-133350000D01*
X211340000Y-132346000D02*
X211340000Y-131826000D01*
X196852200Y-148592200D02*
X197358000Y-149098000D01*
X196813400Y-148592200D02*
X196852200Y-148592200D01*
X195072000Y-147701000D02*
X195961000Y-148590000D01*
X195961000Y-148590000D02*
X195961000Y-148592200D01*
D34*
X208835000Y-110715000D02*
X208835000Y-112475000D01*
X207490060Y-113819940D02*
X208788000Y-112522000D01*
X207490060Y-113819940D02*
X207490060Y-126649480D01*
X208835000Y-112475000D02*
X208788000Y-112522000D01*
X207585000Y-110715000D02*
X207585000Y-112455000D01*
X206992220Y-113047780D02*
X207518000Y-112522000D01*
X206992220Y-113047780D02*
X206992220Y-126649480D01*
X207585000Y-112455000D02*
X207518000Y-112522000D01*
X206491840Y-126649480D02*
X206491840Y-110871840D01*
X206491840Y-110871840D02*
X206335000Y-110715000D01*
X205085000Y-110715000D02*
X205085000Y-112883000D01*
X205991460Y-113789460D02*
X205232000Y-113030000D01*
X205991460Y-113789460D02*
X205991460Y-126649480D01*
X205085000Y-112883000D02*
X205232000Y-113030000D01*
X203835000Y-110715000D02*
X203835000Y-112649000D01*
X205491080Y-114305080D02*
X203962000Y-112776000D01*
X205491080Y-114305080D02*
X205491080Y-126649480D01*
X203835000Y-112649000D02*
X203962000Y-112776000D01*
X202585000Y-110715000D02*
X202585000Y-112415000D01*
X204990700Y-114820700D02*
X202692000Y-112522000D01*
X204990700Y-114820700D02*
X204990700Y-126649480D01*
X202585000Y-112415000D02*
X202692000Y-112522000D01*
D35*
X201335000Y-112816000D02*
X202692000Y-114173000D01*
X201335000Y-110715000D02*
X201335000Y-112816000D01*
D34*
X207990440Y-125003560D02*
X207990440Y-126649480D01*
X207990440Y-125003560D02*
X208534000Y-124460000D01*
D35*
X200085000Y-112836000D02*
X200085000Y-110715000D01*
X200085000Y-112836000D02*
X201422000Y-114173000D01*
D34*
X208490820Y-126027180D02*
X210058000Y-124460000D01*
X208490820Y-126649480D02*
X208490820Y-126027180D01*
X210058000Y-124460000D02*
X210312000Y-124460000D01*
X202341480Y-132300980D02*
X201836020Y-132300980D01*
X201549000Y-132588000D02*
X201549000Y-133477000D01*
X201836020Y-132300980D02*
X201549000Y-132588000D01*
X201676000Y-135636000D02*
X201676000Y-144780000D01*
X201549000Y-133477000D02*
X201676000Y-133604000D01*
X201676000Y-133604000D02*
X201676000Y-135636000D01*
X202585000Y-145689000D02*
X202585000Y-148365000D01*
X201676000Y-144780000D02*
X202585000Y-145689000D01*
X202341480Y-132798820D02*
X202341480Y-144175480D01*
X203835000Y-145669000D02*
X203835000Y-148365000D01*
X202341480Y-144175480D02*
X203835000Y-145669000D01*
X202991720Y-133449060D02*
X202991720Y-143555720D01*
X205085000Y-145649000D02*
X205085000Y-148365000D01*
X202991720Y-143555720D02*
X205085000Y-145649000D01*
X203492100Y-133449060D02*
X203492100Y-142786100D01*
X206335000Y-145629000D02*
X206335000Y-148365000D01*
X203492100Y-142786100D02*
X206335000Y-145629000D01*
X203992480Y-133449060D02*
X203992480Y-142016480D01*
X207585000Y-145609000D02*
X207585000Y-148365000D01*
X203992480Y-142016480D02*
X207585000Y-145609000D01*
X204490320Y-133449060D02*
X204490320Y-141244320D01*
X208835000Y-145589000D02*
X208835000Y-148365000D01*
X204490320Y-141244320D02*
X208835000Y-145589000D01*
X199644000Y-119253000D02*
X198212600Y-119253000D01*
X198212600Y-119253000D02*
X197085180Y-120380420D01*
X197085180Y-120380420D02*
X196432400Y-120380420D01*
X203492100Y-125514100D02*
X200914000Y-122936000D01*
X200914000Y-122936000D02*
X200914000Y-120396000D01*
X200914000Y-120396000D02*
X199898000Y-119380000D01*
X203492100Y-125514100D02*
X203492100Y-126649480D01*
X199771000Y-119253000D02*
X199898000Y-119380000D01*
X199644000Y-119253000D02*
X199771000Y-119253000D01*
X199390000Y-122428000D02*
X196882320Y-122428000D01*
X196882320Y-122428000D02*
X196432400Y-121978080D01*
X199898000Y-122682000D02*
X199898000Y-123952000D01*
X199644000Y-122428000D02*
X199898000Y-122682000D01*
X202341480Y-127299720D02*
X202341480Y-126395480D01*
X199644000Y-122428000D02*
X199390000Y-122428000D01*
X199898000Y-123952000D02*
X202341480Y-126395480D01*
X199644000Y-125603000D02*
X198212600Y-125603000D01*
X198212600Y-125603000D02*
X197085180Y-126730420D01*
X197085180Y-126730420D02*
X196432400Y-126730420D01*
X199898000Y-125984000D02*
X199898000Y-125857000D01*
X201198480Y-128300480D02*
X199898000Y-127000000D01*
X199898000Y-127000000D02*
X199898000Y-125984000D01*
X202341480Y-128300480D02*
X201198480Y-128300480D01*
X199898000Y-125857000D02*
X199644000Y-125603000D01*
X199644000Y-128778000D02*
X196882320Y-128778000D01*
X196882320Y-128778000D02*
X196432400Y-128328080D01*
X200164700Y-129298700D02*
X199644000Y-128778000D01*
X202341480Y-129298700D02*
X200164700Y-129298700D01*
X199517000Y-131953000D02*
X198212600Y-131953000D01*
X198212600Y-131953000D02*
X197085180Y-133080420D01*
X197085180Y-133080420D02*
X196432400Y-133080420D01*
X199771000Y-131699000D02*
X201168000Y-130302000D01*
X199771000Y-131699000D02*
X199517000Y-131953000D01*
X202338940Y-130302000D02*
X201168000Y-130302000D01*
X202338940Y-130302000D02*
X202341480Y-130299460D01*
D35*
X202338940Y-130302000D02*
X202341480Y-130299460D01*
D34*
X199644000Y-135128000D02*
X196882320Y-135128000D01*
X196882320Y-135128000D02*
X196432400Y-134678080D01*
X199834500Y-133032500D02*
X199834500Y-134937500D01*
X199834500Y-134937500D02*
X199644000Y-135128000D01*
X202341480Y-131300220D02*
X201566780Y-131300220D01*
X201566780Y-131300220D02*
X199834500Y-133032500D01*
D33*
X181700400Y-114429200D02*
X184875400Y-114429200D01*
X178525400Y-114429200D02*
X181700400Y-114429200D01*
X190125580Y-116799020D02*
X190125580Y-115699200D01*
X190125580Y-116799020D02*
X189955400Y-116969200D01*
X188050400Y-116969200D02*
X189955400Y-116969200D01*
X186780400Y-116969200D02*
X188050400Y-116969200D01*
X184875400Y-116969200D02*
X186780400Y-116969200D01*
X181700400Y-116969200D02*
X184875400Y-116969200D01*
X178525400Y-116969200D02*
X181700400Y-116969200D01*
X186145400Y-114429200D02*
X186780400Y-115064200D01*
X186780400Y-115064200D02*
X186780400Y-116969200D01*
X184875400Y-114429200D02*
X186145400Y-114429200D01*
X190125580Y-114599380D02*
X190125580Y-115699200D01*
X190125580Y-114599380D02*
X189955400Y-114429200D01*
X188050400Y-114429200D02*
X189955400Y-114429200D01*
X188050400Y-114429200D02*
X189955400Y-114429200D01*
X190125580Y-114599380D02*
X189955400Y-114429200D01*
X190125580Y-114599380D02*
X190125580Y-115699200D01*
X184875400Y-114429200D02*
X186145400Y-114429200D01*
X186780400Y-115064200D02*
X186780400Y-116969200D01*
X186145400Y-114429200D02*
X186780400Y-115064200D01*
X178525400Y-116969200D02*
X181700400Y-116969200D01*
X181700400Y-116969200D02*
X184875400Y-116969200D01*
X184875400Y-116969200D02*
X186780400Y-116969200D01*
X186780400Y-116969200D02*
X188050400Y-116969200D01*
X188050400Y-116969200D02*
X189955400Y-116969200D01*
X190125580Y-116799020D02*
X189955400Y-116969200D01*
X190125580Y-116799020D02*
X190125580Y-115699200D01*
X178525400Y-114429200D02*
X181700400Y-114429200D01*
X181700400Y-114429200D02*
X184875400Y-114429200D01*
D35*
X174459200Y-109855000D02*
X174461400Y-109857200D01*
X173470000Y-109855000D02*
X174459200Y-109855000D01*
D33*
X181700400Y-120144200D02*
X184875400Y-120144200D01*
X178525400Y-120144200D02*
X181700400Y-120144200D01*
X190125580Y-122514020D02*
X190125580Y-121414200D01*
X190125580Y-122514020D02*
X189955400Y-122684200D01*
X188050400Y-122684200D02*
X189955400Y-122684200D01*
X186780400Y-122684200D02*
X188050400Y-122684200D01*
X184875400Y-122684200D02*
X186780400Y-122684200D01*
X181700400Y-122684200D02*
X184875400Y-122684200D01*
X178525400Y-122684200D02*
X181700400Y-122684200D01*
X186145400Y-120144200D02*
X186780400Y-120779200D01*
X186780400Y-120779200D02*
X186780400Y-122684200D01*
X184875400Y-120144200D02*
X186145400Y-120144200D01*
X190125580Y-120314380D02*
X190125580Y-121414200D01*
X190125580Y-120314380D02*
X189955400Y-120144200D01*
X188050400Y-120144200D02*
X189955400Y-120144200D01*
X188050400Y-120144200D02*
X189955400Y-120144200D01*
X190125580Y-120314380D02*
X189955400Y-120144200D01*
X190125580Y-120314380D02*
X190125580Y-121414200D01*
X184875400Y-120144200D02*
X186145400Y-120144200D01*
X186780400Y-120779200D02*
X186780400Y-122684200D01*
X186145400Y-120144200D02*
X186780400Y-120779200D01*
X178525400Y-122684200D02*
X181700400Y-122684200D01*
X181700400Y-122684200D02*
X184875400Y-122684200D01*
X184875400Y-122684200D02*
X186780400Y-122684200D01*
X186780400Y-122684200D02*
X188050400Y-122684200D01*
X188050400Y-122684200D02*
X189955400Y-122684200D01*
X190125580Y-122514020D02*
X189955400Y-122684200D01*
X190125580Y-122514020D02*
X190125580Y-121414200D01*
X178525400Y-120144200D02*
X181700400Y-120144200D01*
X181700400Y-120144200D02*
X184875400Y-120144200D01*
D35*
X174459200Y-111125000D02*
X174461400Y-111127200D01*
X173470000Y-111125000D02*
X174459200Y-111125000D01*
D33*
X181700400Y-125859200D02*
X184875400Y-125859200D01*
X178525400Y-125859200D02*
X181700400Y-125859200D01*
X190125580Y-128229020D02*
X190125580Y-127129200D01*
X190125580Y-128229020D02*
X189955400Y-128399200D01*
X188050400Y-128399200D02*
X189955400Y-128399200D01*
X186780400Y-128399200D02*
X188050400Y-128399200D01*
X184875400Y-128399200D02*
X186780400Y-128399200D01*
X181700400Y-128399200D02*
X184875400Y-128399200D01*
X178525400Y-128399200D02*
X181700400Y-128399200D01*
X186145400Y-125859200D02*
X186780400Y-126494200D01*
X186780400Y-126494200D02*
X186780400Y-128399200D01*
X184875400Y-125859200D02*
X186145400Y-125859200D01*
X190125580Y-126029380D02*
X190125580Y-127129200D01*
X190125580Y-126029380D02*
X189955400Y-125859200D01*
X188050400Y-125859200D02*
X189955400Y-125859200D01*
X188050400Y-125859200D02*
X189955400Y-125859200D01*
X190125580Y-126029380D02*
X189955400Y-125859200D01*
X190125580Y-126029380D02*
X190125580Y-127129200D01*
X184875400Y-125859200D02*
X186145400Y-125859200D01*
X186780400Y-126494200D02*
X186780400Y-128399200D01*
X186145400Y-125859200D02*
X186780400Y-126494200D01*
X178525400Y-128399200D02*
X181700400Y-128399200D01*
X181700400Y-128399200D02*
X184875400Y-128399200D01*
X184875400Y-128399200D02*
X186780400Y-128399200D01*
X186780400Y-128399200D02*
X188050400Y-128399200D01*
X188050400Y-128399200D02*
X189955400Y-128399200D01*
X190125580Y-128229020D02*
X189955400Y-128399200D01*
X190125580Y-128229020D02*
X190125580Y-127129200D01*
X178525400Y-125859200D02*
X181700400Y-125859200D01*
X181700400Y-125859200D02*
X184875400Y-125859200D01*
D35*
X174459200Y-112395000D02*
X173470000Y-112395000D01*
X174459200Y-112395000D02*
X174461400Y-112397200D01*
D33*
X181700400Y-131574200D02*
X184875400Y-131574200D01*
X178525400Y-131574200D02*
X181700400Y-131574200D01*
X190125580Y-133944020D02*
X190125580Y-132844200D01*
X190125580Y-133944020D02*
X189955400Y-134114200D01*
X188050400Y-134114200D02*
X189955400Y-134114200D01*
X186780400Y-134114200D02*
X188050400Y-134114200D01*
X184875400Y-134114200D02*
X186780400Y-134114200D01*
X181700400Y-134114200D02*
X184875400Y-134114200D01*
X178525400Y-134114200D02*
X181700400Y-134114200D01*
X186145400Y-131574200D02*
X186780400Y-132209200D01*
X186780400Y-132209200D02*
X186780400Y-134114200D01*
X184875400Y-131574200D02*
X186145400Y-131574200D01*
X190125580Y-131744380D02*
X190125580Y-132844200D01*
X190125580Y-131744380D02*
X189955400Y-131574200D01*
X188050400Y-131574200D02*
X189955400Y-131574200D01*
X188050400Y-131574200D02*
X189955400Y-131574200D01*
X190125580Y-131744380D02*
X189955400Y-131574200D01*
X190125580Y-131744380D02*
X190125580Y-132844200D01*
X184875400Y-131574200D02*
X186145400Y-131574200D01*
X186780400Y-132209200D02*
X186780400Y-134114200D01*
X186145400Y-131574200D02*
X186780400Y-132209200D01*
X178525400Y-134114200D02*
X181700400Y-134114200D01*
X181700400Y-134114200D02*
X184875400Y-134114200D01*
X184875400Y-134114200D02*
X186780400Y-134114200D01*
X186780400Y-134114200D02*
X188050400Y-134114200D01*
X188050400Y-134114200D02*
X189955400Y-134114200D01*
X190125580Y-133944020D02*
X189955400Y-134114200D01*
X190125580Y-133944020D02*
X190125580Y-132844200D01*
X178525400Y-131574200D02*
X181700400Y-131574200D01*
X181700400Y-131574200D02*
X184875400Y-131574200D01*
X190125580Y-133944020D02*
X189955400Y-134114200D01*
X190125580Y-132844200D02*
X190125580Y-133944020D01*
X190125580Y-131744380D02*
X189955400Y-131574200D01*
X190125580Y-132844200D02*
X190125580Y-131744380D01*
D35*
X174459200Y-113665000D02*
X174461400Y-113667200D01*
X173470000Y-113665000D02*
X174459200Y-113665000D01*
D33*
X181700400Y-137289200D02*
X184875400Y-137289200D01*
X178525400Y-137289200D02*
X181700400Y-137289200D01*
X190125580Y-139659020D02*
X190125580Y-138559200D01*
X190125580Y-139659020D02*
X189955400Y-139829200D01*
X188050400Y-139829200D02*
X189955400Y-139829200D01*
X186780400Y-139829200D02*
X188050400Y-139829200D01*
X184875400Y-139829200D02*
X186780400Y-139829200D01*
X181700400Y-139829200D02*
X184875400Y-139829200D01*
X178525400Y-139829200D02*
X181700400Y-139829200D01*
X186145400Y-137289200D02*
X186780400Y-137924200D01*
X186780400Y-137924200D02*
X186780400Y-139829200D01*
X184875400Y-137289200D02*
X186145400Y-137289200D01*
X190125580Y-137459380D02*
X190125580Y-138559200D01*
X190125580Y-137459380D02*
X189955400Y-137289200D01*
X188050400Y-137289200D02*
X189955400Y-137289200D01*
X188050400Y-137289200D02*
X189955400Y-137289200D01*
X190125580Y-137459380D02*
X189955400Y-137289200D01*
X190125580Y-137459380D02*
X190125580Y-138559200D01*
X184875400Y-137289200D02*
X186145400Y-137289200D01*
X186780400Y-137924200D02*
X186780400Y-139829200D01*
X186145400Y-137289200D02*
X186780400Y-137924200D01*
X178525400Y-139829200D02*
X181700400Y-139829200D01*
X181700400Y-139829200D02*
X184875400Y-139829200D01*
X184875400Y-139829200D02*
X186780400Y-139829200D01*
X186780400Y-139829200D02*
X188050400Y-139829200D01*
X188050400Y-139829200D02*
X189955400Y-139829200D01*
X190125580Y-139659020D02*
X189955400Y-139829200D01*
X190125580Y-139659020D02*
X190125580Y-138559200D01*
X178525400Y-137289200D02*
X181700400Y-137289200D01*
X181700400Y-137289200D02*
X184875400Y-137289200D01*
D35*
X173470000Y-114935000D02*
X174459200Y-114935000D01*
X174459200Y-114935000D02*
X174461400Y-114937200D01*
D33*
X181700400Y-143004200D02*
X184875400Y-143004200D01*
X178525400Y-143004200D02*
X181700400Y-143004200D01*
X190125580Y-145374020D02*
X190125580Y-144274200D01*
X190125580Y-145374020D02*
X189955400Y-145544200D01*
X188050400Y-145544200D02*
X189955400Y-145544200D01*
X186780400Y-145544200D02*
X188050400Y-145544200D01*
X184875400Y-145544200D02*
X186780400Y-145544200D01*
X181700400Y-145544200D02*
X184875400Y-145544200D01*
X178525400Y-145544200D02*
X181700400Y-145544200D01*
X186145400Y-143004200D02*
X186780400Y-143639200D01*
X186780400Y-143639200D02*
X186780400Y-145544200D01*
X184875400Y-143004200D02*
X186145400Y-143004200D01*
X190125580Y-143174380D02*
X190125580Y-144274200D01*
X190125580Y-143174380D02*
X189955400Y-143004200D01*
X188050400Y-143004200D02*
X189955400Y-143004200D01*
X188050400Y-143004200D02*
X189955400Y-143004200D01*
X190125580Y-143174380D02*
X189955400Y-143004200D01*
X190125580Y-143174380D02*
X190125580Y-144274200D01*
X184875400Y-143004200D02*
X186145400Y-143004200D01*
X186780400Y-143639200D02*
X186780400Y-145544200D01*
X186145400Y-143004200D02*
X186780400Y-143639200D01*
X178525400Y-145544200D02*
X181700400Y-145544200D01*
X181700400Y-145544200D02*
X184875400Y-145544200D01*
X184875400Y-145544200D02*
X186780400Y-145544200D01*
X186780400Y-145544200D02*
X188050400Y-145544200D01*
X188050400Y-145544200D02*
X189955400Y-145544200D01*
X190125580Y-145374020D02*
X189955400Y-145544200D01*
X190125580Y-145374020D02*
X190125580Y-144274200D01*
X178525400Y-143004200D02*
X181700400Y-143004200D01*
X181700400Y-143004200D02*
X184875400Y-143004200D01*
D35*
X173470000Y-116205000D02*
X174498000Y-116205000D01*
D34*
X209514440Y-127797560D02*
X209138520Y-127797560D01*
X210312000Y-127000000D02*
X210312000Y-126746000D01*
X209514440Y-127797560D02*
X210312000Y-127000000D01*
X201335000Y-146471000D02*
X200787000Y-145923000D01*
X201335000Y-148365000D02*
X201335000Y-146471000D01*
X198882000Y-134378000D02*
X198093200Y-134378000D01*
X198093200Y-134378000D02*
X197593180Y-133877980D01*
X197593180Y-133877980D02*
X196432400Y-133877980D01*
X202341480Y-130799840D02*
X201305160Y-130799840D01*
X199402000Y-132703000D02*
X198882000Y-132703000D01*
X201305160Y-130799840D02*
X199402000Y-132703000D01*
D35*
X198882000Y-134378000D02*
X198882000Y-132703000D01*
D34*
X202341480Y-131800600D02*
X201701400Y-131800600D01*
X199910000Y-135878000D02*
X198882000Y-135878000D01*
X200406000Y-135382000D02*
X199910000Y-135878000D01*
X200406000Y-133096000D02*
X200406000Y-135382000D01*
X201701400Y-131800600D02*
X200406000Y-133096000D01*
D35*
X198845400Y-135914600D02*
X198882000Y-135878000D01*
X198845400Y-138444200D02*
X198845400Y-135914600D01*
D34*
X198882000Y-131203000D02*
X197946600Y-131203000D01*
X197946600Y-131203000D02*
X196869280Y-132280320D01*
X196869280Y-132280320D02*
X196432400Y-132280320D01*
X202341480Y-129799080D02*
X199649080Y-129799080D01*
X199378000Y-129528000D02*
X198882000Y-129528000D01*
X199649080Y-129799080D02*
X199378000Y-129528000D01*
D35*
X198882000Y-131203000D02*
X198882000Y-129528000D01*
D34*
X198882000Y-128028000D02*
X198093200Y-128028000D01*
X198093200Y-128028000D02*
X197593180Y-127527980D01*
X197593180Y-127527980D02*
X196432400Y-127527980D01*
X202341480Y-128800860D02*
X200682860Y-128800860D01*
X199910000Y-128028000D02*
X198882000Y-128028000D01*
X200682860Y-128800860D02*
X199910000Y-128028000D01*
D35*
X198882000Y-128028000D02*
X198882000Y-126353000D01*
D34*
X198882000Y-124853000D02*
X197946600Y-124853000D01*
X197946600Y-124853000D02*
X196869280Y-125930320D01*
X196869280Y-125930320D02*
X196432400Y-125930320D01*
X198882000Y-124853000D02*
X199783000Y-124853000D01*
X201714100Y-127800100D02*
X200914000Y-127000000D01*
X201714100Y-127800100D02*
X202341480Y-127800100D01*
X200914000Y-125984000D02*
X200914000Y-127000000D01*
X199783000Y-124853000D02*
X200914000Y-125984000D01*
D35*
X198882000Y-124853000D02*
X198882000Y-123178000D01*
D34*
X198882000Y-121678000D02*
X198093200Y-121678000D01*
X198093200Y-121678000D02*
X197593180Y-121177980D01*
X197593180Y-121177980D02*
X196432400Y-121177980D01*
X202991720Y-126649480D02*
X202991720Y-126029720D01*
X199402000Y-121678000D02*
X198882000Y-121678000D01*
X199910000Y-121678000D02*
X199402000Y-121678000D01*
X200406000Y-122174000D02*
X199910000Y-121678000D01*
X200406000Y-123444000D02*
X200406000Y-122174000D01*
X202991720Y-126029720D02*
X200406000Y-123444000D01*
D35*
X198882000Y-121678000D02*
X198882000Y-120003000D01*
D34*
X198882000Y-118503000D02*
X197946600Y-118503000D01*
X197946600Y-118503000D02*
X196869280Y-119580320D01*
X196869280Y-119580320D02*
X196432400Y-119580320D01*
X203989940Y-126649480D02*
X203989940Y-124995940D01*
X200037000Y-118503000D02*
X198882000Y-118503000D01*
X201676000Y-120142000D02*
X200037000Y-118503000D01*
X201676000Y-122682000D02*
X201676000Y-120142000D01*
X203989940Y-124995940D02*
X201676000Y-122682000D01*
X209765900Y-132295900D02*
X210312000Y-132842000D01*
X209141060Y-132295900D02*
X209765900Y-132295900D01*
D35*
X211340000Y-135878000D02*
X211328000Y-135890000D01*
D34*
X210284060Y-128297940D02*
X210312000Y-128270000D01*
X210284060Y-128297940D02*
X209138520Y-128297940D01*
D35*
X211340000Y-134620000D02*
X211340000Y-135878000D01*
D34*
X211328000Y-134608000D02*
X211340000Y-134620000D01*
X211328000Y-133858000D02*
X211328000Y-134608000D01*
X210312000Y-132842000D02*
X211328000Y-133858000D01*
D38*
X210312000Y-137922000D02*
X211328000Y-136906000D01*
X211328000Y-136906000D02*
X211328000Y-135890000D01*
X210312000Y-138938000D02*
X210312000Y-137922000D01*
D34*
X207990440Y-135346440D02*
X208534000Y-135890000D01*
X208534000Y-135890000D02*
X209550000Y-135890000D01*
X209550000Y-135890000D02*
X210820000Y-134620000D01*
X210820000Y-134620000D02*
X211340000Y-134620000D01*
X207990440Y-133449060D02*
X207990440Y-135346440D01*
X211303400Y-129133598D02*
X211303400Y-128780200D01*
X209677000Y-129159000D02*
X209702402Y-129133598D01*
X209539840Y-129296160D02*
X209677000Y-129159000D01*
X209141060Y-129296160D02*
X209539840Y-129296160D01*
X209804000Y-129032000D02*
X211051600Y-129032000D01*
X211051600Y-129032000D02*
X211303400Y-128780200D01*
X209677000Y-129159000D02*
X209804000Y-129032000D01*
X212840000Y-130302000D02*
X212840000Y-131826000D01*
X209767060Y-129796540D02*
X210023600Y-129540000D01*
X210023600Y-129540000D02*
X210820000Y-129540000D01*
X212840000Y-129782000D02*
X212840000Y-130302000D01*
X212598000Y-129540000D02*
X212840000Y-129782000D01*
X210820000Y-129540000D02*
X212598000Y-129540000D01*
X209141060Y-129796540D02*
X209767060Y-129796540D01*
X211334920Y-130296920D02*
X211340000Y-130302000D01*
X209141060Y-130296920D02*
X211334920Y-130296920D01*
D35*
X210529400Y-130304200D02*
X211303400Y-130304200D01*
X193245400Y-130304200D02*
X194527400Y-130304200D01*
X192084960Y-116347240D02*
X192762440Y-116347240D01*
X194128620Y-120380420D02*
X194908400Y-120380420D01*
X194019400Y-117604200D02*
X193066900Y-116651700D01*
X194019400Y-120271200D02*
X194019400Y-117604200D01*
X194128620Y-120380420D02*
X194019400Y-120271200D01*
X192762440Y-116347240D02*
X193066900Y-116651700D01*
X192084960Y-122062240D02*
X192084960Y-122234960D01*
X192084960Y-122234960D02*
X192341840Y-121978080D01*
X192341840Y-121978080D02*
X194908400Y-121978080D01*
X194344520Y-121978080D02*
X194908400Y-121978080D01*
X192084960Y-127777240D02*
X193371360Y-127777240D01*
X193356120Y-127762000D02*
X193386600Y-127762000D01*
X193371360Y-127777240D02*
X193356120Y-127762000D01*
X194418180Y-126730420D02*
X193386600Y-127762000D01*
X194908400Y-126730420D02*
X194418180Y-126730420D01*
X192084960Y-133492240D02*
X192084960Y-135608760D01*
X192084960Y-135608760D02*
X192241400Y-135765200D01*
X194908400Y-129161200D02*
X194908400Y-128328080D01*
X194908400Y-129161200D02*
X196051400Y-130304200D01*
X192325220Y-135681380D02*
X192241400Y-135765200D01*
X192084960Y-139207240D02*
X193244360Y-139207240D01*
X194418180Y-133080420D02*
X194908400Y-133080420D01*
X193384400Y-134114200D02*
X193384400Y-139067200D01*
X194418180Y-133080420D02*
X193384400Y-134114200D01*
X193244360Y-139207240D02*
X193384400Y-139067200D01*
X193625360Y-144922240D02*
X194908400Y-143639200D01*
X194908400Y-143639200D02*
X194908400Y-134678080D01*
X192084960Y-144922240D02*
X193548000Y-144922240D01*
X193548000Y-144922240D02*
X193625360Y-144922240D01*
D34*
X204216000Y-130048000D02*
X205740000Y-130048000D01*
X205740000Y-128587500D02*
X205740000Y-130048000D01*
X207200500Y-130048000D02*
X205740000Y-130048000D01*
X205740000Y-131508500D02*
X205740000Y-130048000D01*
D39*
G36*
X196251940Y-116449200D02*
X194558170Y-118142970D01*
X194514700Y-118208026D01*
X194514700Y-117604200D01*
X194476998Y-117414657D01*
X194476997Y-117414656D01*
X194369630Y-117253970D01*
X193417130Y-116301470D01*
X193112670Y-115997010D01*
X192951984Y-115889642D01*
X192915591Y-115882403D01*
X192897570Y-115838895D01*
X192793965Y-115735291D01*
X192701524Y-115697000D01*
X192793965Y-115658710D01*
X192897569Y-115555105D01*
X192953640Y-115419740D01*
X192953640Y-115273221D01*
X192953640Y-114673781D01*
X192897570Y-114538415D01*
X192793965Y-114434811D01*
X192658600Y-114378740D01*
X192512081Y-114378740D01*
X191511321Y-114378740D01*
X191375955Y-114434810D01*
X191339700Y-114471065D01*
X191339700Y-113474500D01*
X193277240Y-113474500D01*
X196251940Y-116449200D01*
X196251940Y-116449200D01*
G37*
X196251940Y-116449200D02*
X194558170Y-118142970D01*
X194514700Y-118208026D01*
X194514700Y-117604200D01*
X194476998Y-117414657D01*
X194476997Y-117414656D01*
X194369630Y-117253970D01*
X193417130Y-116301470D01*
X193112670Y-115997010D01*
X192951984Y-115889642D01*
X192915591Y-115882403D01*
X192897570Y-115838895D01*
X192793965Y-115735291D01*
X192701524Y-115697000D01*
X192793965Y-115658710D01*
X192897569Y-115555105D01*
X192953640Y-115419740D01*
X192953640Y-115273221D01*
X192953640Y-114673781D01*
X192897570Y-114538415D01*
X192793965Y-114434811D01*
X192658600Y-114378740D01*
X192512081Y-114378740D01*
X191511321Y-114378740D01*
X191375955Y-114434810D01*
X191339700Y-114471065D01*
X191339700Y-113474500D01*
X193277240Y-113474500D01*
X196251940Y-116449200D01*
G36*
X210736223Y-133930761D02*
X210731375Y-133932770D01*
X210627771Y-134036375D01*
X210571700Y-134171740D01*
X210571700Y-134231623D01*
X210487730Y-134287731D01*
X209355361Y-135420100D01*
X208983580Y-135420100D01*
X208983580Y-133822040D01*
X208983580Y-133675521D01*
X208983580Y-133553835D01*
X208891505Y-133461760D01*
X208503520Y-133461760D01*
X208503520Y-134025005D01*
X208595595Y-134117080D01*
X208688539Y-134117080D01*
X208823905Y-134061010D01*
X208927509Y-133957405D01*
X208983580Y-133822040D01*
X208983580Y-135420100D01*
X208728638Y-135420100D01*
X208460340Y-135151801D01*
X208460340Y-134042785D01*
X208478120Y-134025005D01*
X208478120Y-133834303D01*
X208483200Y-133822040D01*
X208483200Y-133675521D01*
X208483200Y-133416360D01*
X208503520Y-133416360D01*
X208503520Y-133436360D01*
X208891505Y-133436360D01*
X208983580Y-133344285D01*
X208983580Y-133289040D01*
X209511499Y-133289040D01*
X209646865Y-133232970D01*
X209750469Y-133129365D01*
X209804466Y-132999004D01*
X209979731Y-133174269D01*
X210736223Y-133930761D01*
X210736223Y-133930761D01*
G37*
X210736223Y-133930761D02*
X210731375Y-133932770D01*
X210627771Y-134036375D01*
X210571700Y-134171740D01*
X210571700Y-134231623D01*
X210487730Y-134287731D01*
X209355361Y-135420100D01*
X208983580Y-135420100D01*
X208983580Y-133822040D01*
X208983580Y-133675521D01*
X208983580Y-133553835D01*
X208891505Y-133461760D01*
X208503520Y-133461760D01*
X208503520Y-134025005D01*
X208595595Y-134117080D01*
X208688539Y-134117080D01*
X208823905Y-134061010D01*
X208927509Y-133957405D01*
X208983580Y-133822040D01*
X208983580Y-135420100D01*
X208728638Y-135420100D01*
X208460340Y-135151801D01*
X208460340Y-134042785D01*
X208478120Y-134025005D01*
X208478120Y-133834303D01*
X208483200Y-133822040D01*
X208483200Y-133675521D01*
X208483200Y-133416360D01*
X208503520Y-133416360D01*
X208503520Y-133436360D01*
X208891505Y-133436360D01*
X208983580Y-133344285D01*
X208983580Y-133289040D01*
X209511499Y-133289040D01*
X209646865Y-133232970D01*
X209750469Y-133129365D01*
X209804466Y-132999004D01*
X209979731Y-133174269D01*
X210736223Y-133930761D01*
G36*
X210807300Y-136690318D02*
X209943809Y-137553809D01*
X209830936Y-137722737D01*
X209791299Y-137922000D01*
X209791300Y-137922005D01*
X209791300Y-138087100D01*
X209603741Y-138087100D01*
X209468375Y-138143170D01*
X209364771Y-138246775D01*
X209308700Y-138382140D01*
X209308700Y-138528659D01*
X209308700Y-139493859D01*
X209341481Y-139573000D01*
X209308700Y-139652140D01*
X209308700Y-139738100D01*
X207482440Y-139738100D01*
X207482440Y-133822040D01*
X207482440Y-133675521D01*
X207482440Y-133553835D01*
X207477360Y-133548755D01*
X207477360Y-133461760D01*
X207390365Y-133461760D01*
X207089375Y-133461760D01*
X207002380Y-133461760D01*
X207002380Y-133548755D01*
X206997300Y-133553835D01*
X206997300Y-133675521D01*
X206997300Y-133822040D01*
X207002380Y-133834303D01*
X207002380Y-134025005D01*
X207094455Y-134117080D01*
X207187399Y-134117080D01*
X207239870Y-134095345D01*
X207292341Y-134117080D01*
X207385285Y-134117080D01*
X207477360Y-134025005D01*
X207477360Y-133834303D01*
X207482440Y-133822040D01*
X207482440Y-139738100D01*
X206982060Y-139738100D01*
X206982060Y-133822040D01*
X206982060Y-133675521D01*
X206982060Y-133553835D01*
X206976980Y-133548755D01*
X206976980Y-133461760D01*
X206889985Y-133461760D01*
X206588995Y-133461760D01*
X206502000Y-133461760D01*
X206502000Y-133548755D01*
X206496920Y-133553835D01*
X206496920Y-133675521D01*
X206496920Y-133822040D01*
X206502000Y-133834303D01*
X206502000Y-134025005D01*
X206594075Y-134117080D01*
X206687019Y-134117080D01*
X206739490Y-134095345D01*
X206791961Y-134117080D01*
X206884905Y-134117080D01*
X206976980Y-134025005D01*
X206976980Y-133834303D01*
X206982060Y-133822040D01*
X206982060Y-139738100D01*
X206696638Y-139738100D01*
X206481680Y-139523141D01*
X206481680Y-133822040D01*
X206481680Y-133675521D01*
X206481680Y-133553835D01*
X206476600Y-133548755D01*
X206476600Y-133461760D01*
X206389605Y-133461760D01*
X206088615Y-133461760D01*
X206001620Y-133461760D01*
X206001620Y-133548755D01*
X205996540Y-133553835D01*
X205996540Y-133675521D01*
X205996540Y-133822040D01*
X206001620Y-133834303D01*
X206001620Y-134025005D01*
X206093695Y-134117080D01*
X206186639Y-134117080D01*
X206239110Y-134095345D01*
X206291581Y-134117080D01*
X206384525Y-134117080D01*
X206476600Y-134025005D01*
X206476600Y-133834303D01*
X206481680Y-133822040D01*
X206481680Y-139523141D01*
X205460600Y-138502061D01*
X205460600Y-134116020D01*
X205687719Y-134116020D01*
X205738180Y-134095118D01*
X205791201Y-134117080D01*
X205884145Y-134117080D01*
X205976220Y-134025005D01*
X205976220Y-133836768D01*
X205982760Y-133820980D01*
X205982760Y-133674461D01*
X205982760Y-133416360D01*
X206001620Y-133416360D01*
X206001620Y-133436360D01*
X206088615Y-133436360D01*
X206389605Y-133436360D01*
X206476600Y-133436360D01*
X206476600Y-133416360D01*
X206502000Y-133416360D01*
X206502000Y-133436360D01*
X206588995Y-133436360D01*
X206889985Y-133436360D01*
X206976980Y-133436360D01*
X206976980Y-133416360D01*
X207002380Y-133416360D01*
X207002380Y-133436360D01*
X207089375Y-133436360D01*
X207390365Y-133436360D01*
X207477360Y-133436360D01*
X207477360Y-133416360D01*
X207497680Y-133416360D01*
X207497680Y-133822039D01*
X207502760Y-133834303D01*
X207502760Y-134025005D01*
X207520540Y-134042785D01*
X207520540Y-135346440D01*
X207556309Y-135526263D01*
X207658171Y-135678709D01*
X208201731Y-136222270D01*
X208354177Y-136324131D01*
X208534000Y-136359900D01*
X209550000Y-136359900D01*
X209550000Y-136359899D01*
X209729823Y-136324131D01*
X209882269Y-136222269D01*
X210613629Y-135490908D01*
X210515341Y-135727615D01*
X210515059Y-136050967D01*
X210638540Y-136349813D01*
X210807300Y-136518868D01*
X210807300Y-136690318D01*
X210807300Y-136690318D01*
G37*
X210807300Y-136690318D02*
X209943809Y-137553809D01*
X209830936Y-137722737D01*
X209791299Y-137922000D01*
X209791300Y-137922005D01*
X209791300Y-138087100D01*
X209603741Y-138087100D01*
X209468375Y-138143170D01*
X209364771Y-138246775D01*
X209308700Y-138382140D01*
X209308700Y-138528659D01*
X209308700Y-139493859D01*
X209341481Y-139573000D01*
X209308700Y-139652140D01*
X209308700Y-139738100D01*
X207482440Y-139738100D01*
X207482440Y-133822040D01*
X207482440Y-133675521D01*
X207482440Y-133553835D01*
X207477360Y-133548755D01*
X207477360Y-133461760D01*
X207390365Y-133461760D01*
X207089375Y-133461760D01*
X207002380Y-133461760D01*
X207002380Y-133548755D01*
X206997300Y-133553835D01*
X206997300Y-133675521D01*
X206997300Y-133822040D01*
X207002380Y-133834303D01*
X207002380Y-134025005D01*
X207094455Y-134117080D01*
X207187399Y-134117080D01*
X207239870Y-134095345D01*
X207292341Y-134117080D01*
X207385285Y-134117080D01*
X207477360Y-134025005D01*
X207477360Y-133834303D01*
X207482440Y-133822040D01*
X207482440Y-139738100D01*
X206982060Y-139738100D01*
X206982060Y-133822040D01*
X206982060Y-133675521D01*
X206982060Y-133553835D01*
X206976980Y-133548755D01*
X206976980Y-133461760D01*
X206889985Y-133461760D01*
X206588995Y-133461760D01*
X206502000Y-133461760D01*
X206502000Y-133548755D01*
X206496920Y-133553835D01*
X206496920Y-133675521D01*
X206496920Y-133822040D01*
X206502000Y-133834303D01*
X206502000Y-134025005D01*
X206594075Y-134117080D01*
X206687019Y-134117080D01*
X206739490Y-134095345D01*
X206791961Y-134117080D01*
X206884905Y-134117080D01*
X206976980Y-134025005D01*
X206976980Y-133834303D01*
X206982060Y-133822040D01*
X206982060Y-139738100D01*
X206696638Y-139738100D01*
X206481680Y-139523141D01*
X206481680Y-133822040D01*
X206481680Y-133675521D01*
X206481680Y-133553835D01*
X206476600Y-133548755D01*
X206476600Y-133461760D01*
X206389605Y-133461760D01*
X206088615Y-133461760D01*
X206001620Y-133461760D01*
X206001620Y-133548755D01*
X205996540Y-133553835D01*
X205996540Y-133675521D01*
X205996540Y-133822040D01*
X206001620Y-133834303D01*
X206001620Y-134025005D01*
X206093695Y-134117080D01*
X206186639Y-134117080D01*
X206239110Y-134095345D01*
X206291581Y-134117080D01*
X206384525Y-134117080D01*
X206476600Y-134025005D01*
X206476600Y-133834303D01*
X206481680Y-133822040D01*
X206481680Y-139523141D01*
X205460600Y-138502061D01*
X205460600Y-134116020D01*
X205687719Y-134116020D01*
X205738180Y-134095118D01*
X205791201Y-134117080D01*
X205884145Y-134117080D01*
X205976220Y-134025005D01*
X205976220Y-133836768D01*
X205982760Y-133820980D01*
X205982760Y-133674461D01*
X205982760Y-133416360D01*
X206001620Y-133416360D01*
X206001620Y-133436360D01*
X206088615Y-133436360D01*
X206389605Y-133436360D01*
X206476600Y-133436360D01*
X206476600Y-133416360D01*
X206502000Y-133416360D01*
X206502000Y-133436360D01*
X206588995Y-133436360D01*
X206889985Y-133436360D01*
X206976980Y-133436360D01*
X206976980Y-133416360D01*
X207002380Y-133416360D01*
X207002380Y-133436360D01*
X207089375Y-133436360D01*
X207390365Y-133436360D01*
X207477360Y-133436360D01*
X207477360Y-133416360D01*
X207497680Y-133416360D01*
X207497680Y-133822039D01*
X207502760Y-133834303D01*
X207502760Y-134025005D01*
X207520540Y-134042785D01*
X207520540Y-135346440D01*
X207556309Y-135526263D01*
X207658171Y-135678709D01*
X208201731Y-136222270D01*
X208354177Y-136324131D01*
X208534000Y-136359900D01*
X209550000Y-136359900D01*
X209550000Y-136359899D01*
X209729823Y-136324131D01*
X209882269Y-136222269D01*
X210613629Y-135490908D01*
X210515341Y-135727615D01*
X210515059Y-136050967D01*
X210638540Y-136349813D01*
X210807300Y-136518868D01*
X210807300Y-136690318D01*
G36*
X214515700Y-153555700D02*
X214363300Y-153555700D01*
X214363300Y-145796000D01*
X214363300Y-133858000D01*
X214325598Y-133668457D01*
X214325597Y-133668456D01*
X214218230Y-133507770D01*
X213710230Y-132999770D01*
X213549544Y-132892402D01*
X213360000Y-132854700D01*
X212549160Y-132854700D01*
X211921700Y-132227240D01*
X211921700Y-132204941D01*
X211921700Y-131304941D01*
X211865630Y-131169575D01*
X211762254Y-131066200D01*
X211865629Y-130962825D01*
X211921700Y-130827460D01*
X211921700Y-130680941D01*
X211921700Y-130009900D01*
X212185100Y-130009900D01*
X212185100Y-130827459D01*
X212241170Y-130962825D01*
X212344545Y-131066199D01*
X212241171Y-131169575D01*
X212185100Y-131304940D01*
X212185100Y-131451459D01*
X212185100Y-132351459D01*
X212241170Y-132486825D01*
X212344775Y-132590429D01*
X212480140Y-132646500D01*
X212626659Y-132646500D01*
X213126659Y-132646500D01*
X213262025Y-132590430D01*
X213365629Y-132486825D01*
X213421700Y-132351460D01*
X213421700Y-132204941D01*
X213421700Y-131304941D01*
X213365630Y-131169575D01*
X213309900Y-131113845D01*
X213309900Y-131018554D01*
X213365629Y-130962825D01*
X213421700Y-130827460D01*
X213421700Y-130680941D01*
X213421700Y-129780941D01*
X213365630Y-129645575D01*
X213262254Y-129542200D01*
X213365629Y-129438825D01*
X213421700Y-129303460D01*
X213421700Y-129156941D01*
X213421700Y-128884975D01*
X213421700Y-128675425D01*
X213421700Y-128403459D01*
X213421700Y-128256940D01*
X213365629Y-128121575D01*
X213262025Y-128017970D01*
X213126659Y-127961900D01*
X212908175Y-127961900D01*
X212816100Y-128053975D01*
X212816100Y-128767500D01*
X213329625Y-128767500D01*
X213421700Y-128675425D01*
X213421700Y-128884975D01*
X213329625Y-128792900D01*
X212816100Y-128792900D01*
X212816100Y-128812900D01*
X212790700Y-128812900D01*
X212790700Y-128792900D01*
X212790700Y-128767500D01*
X212790700Y-128053975D01*
X212698625Y-127961900D01*
X212480141Y-127961900D01*
X212344775Y-128017970D01*
X212241171Y-128121575D01*
X212185100Y-128256940D01*
X212185100Y-128403459D01*
X212185100Y-128675425D01*
X212277175Y-128767500D01*
X212790700Y-128767500D01*
X212790700Y-128792900D01*
X212277175Y-128792900D01*
X212185100Y-128884975D01*
X212185100Y-129070100D01*
X211921700Y-129070100D01*
X211921700Y-128256941D01*
X211865630Y-128121575D01*
X211762025Y-128017971D01*
X211626660Y-127961900D01*
X211480141Y-127961900D01*
X211064146Y-127961900D01*
X211001460Y-127810187D01*
X210773016Y-127581343D01*
X210596319Y-127507972D01*
X210771813Y-127435460D01*
X211000657Y-127207016D01*
X211124659Y-126908385D01*
X211124778Y-126771160D01*
X211721806Y-127368187D01*
X211721809Y-127368191D01*
X211823073Y-127435853D01*
X211890736Y-127481064D01*
X211890737Y-127481064D01*
X211939421Y-127490748D01*
X212136984Y-127688657D01*
X212435615Y-127812659D01*
X212758967Y-127812941D01*
X213057813Y-127689460D01*
X213286657Y-127461016D01*
X213410659Y-127162385D01*
X213410941Y-126839033D01*
X213287460Y-126540187D01*
X213220689Y-126473300D01*
X213313259Y-126473300D01*
X213448625Y-126417230D01*
X213552229Y-126313625D01*
X213608300Y-126178260D01*
X213608300Y-126031741D01*
X213608300Y-125834775D01*
X213608300Y-125625225D01*
X213608300Y-125428259D01*
X213608300Y-125281740D01*
X213552229Y-125146375D01*
X213448625Y-125042770D01*
X213313259Y-124986700D01*
X212944775Y-124986700D01*
X212852700Y-125078775D01*
X212852700Y-125717300D01*
X213516225Y-125717300D01*
X213608300Y-125625225D01*
X213608300Y-125834775D01*
X213516225Y-125742700D01*
X212852700Y-125742700D01*
X212852700Y-125762700D01*
X212827300Y-125762700D01*
X212827300Y-125742700D01*
X212807300Y-125742700D01*
X212807300Y-125717300D01*
X212827300Y-125717300D01*
X212827300Y-125078775D01*
X212735225Y-124986700D01*
X212366741Y-124986700D01*
X212231375Y-125042770D01*
X212127771Y-125146375D01*
X212090000Y-125237560D01*
X212052230Y-125146375D01*
X211948625Y-125042771D01*
X211911500Y-125027393D01*
X211911500Y-122186700D01*
X211903300Y-122145476D01*
X211903300Y-108688260D01*
X211903300Y-108541741D01*
X211903300Y-107419775D01*
X211903300Y-107210225D01*
X211903300Y-106088259D01*
X211903300Y-105941740D01*
X211847229Y-105806375D01*
X211743625Y-105702770D01*
X211608259Y-105646700D01*
X211139775Y-105646700D01*
X211047700Y-105738775D01*
X211047700Y-107302300D01*
X211811225Y-107302300D01*
X211903300Y-107210225D01*
X211903300Y-107419775D01*
X211811225Y-107327700D01*
X211047700Y-107327700D01*
X211047700Y-108891225D01*
X211139775Y-108983300D01*
X211608259Y-108983300D01*
X211743625Y-108927230D01*
X211847229Y-108823625D01*
X211903300Y-108688260D01*
X211903300Y-122145476D01*
X211867997Y-121967997D01*
X211867997Y-121967996D01*
X211744112Y-121782588D01*
X211744108Y-121782585D01*
X211022300Y-121060776D01*
X211022300Y-108891225D01*
X211022300Y-107327700D01*
X211022300Y-107302300D01*
X211022300Y-105738775D01*
X210930225Y-105646700D01*
X210461741Y-105646700D01*
X210326375Y-105702770D01*
X210222771Y-105806375D01*
X210166700Y-105941740D01*
X210166700Y-106088259D01*
X210166700Y-107210225D01*
X210258775Y-107302300D01*
X211022300Y-107302300D01*
X211022300Y-107327700D01*
X210258775Y-107327700D01*
X210166700Y-107419775D01*
X210166700Y-108541741D01*
X210166700Y-108688260D01*
X210222771Y-108823625D01*
X210326375Y-108927230D01*
X210461741Y-108983300D01*
X210930225Y-108983300D01*
X211022300Y-108891225D01*
X211022300Y-121060776D01*
X210759270Y-120797746D01*
X210759270Y-119438481D01*
X210759270Y-118817919D01*
X210759270Y-117874075D01*
X210759270Y-117664525D01*
X210759270Y-116720681D01*
X210703200Y-116585315D01*
X210599595Y-116481711D01*
X210464230Y-116425640D01*
X210317711Y-116425640D01*
X209745175Y-116425640D01*
X209653100Y-116517715D01*
X209653100Y-117756600D01*
X210667195Y-117756600D01*
X210759270Y-117664525D01*
X210759270Y-117874075D01*
X210667195Y-117782000D01*
X209653100Y-117782000D01*
X209653100Y-119020885D01*
X209745175Y-119112960D01*
X210317711Y-119112960D01*
X210464230Y-119112960D01*
X210599595Y-119056889D01*
X210703200Y-118953285D01*
X210759270Y-118817919D01*
X210759270Y-119438481D01*
X210703200Y-119303115D01*
X210599595Y-119199511D01*
X210464230Y-119143440D01*
X210317711Y-119143440D01*
X209627700Y-119143440D01*
X209627700Y-119020885D01*
X209627700Y-117782000D01*
X209627700Y-117756600D01*
X209627700Y-116517715D01*
X209535625Y-116425640D01*
X208963089Y-116425640D01*
X208816570Y-116425640D01*
X208681205Y-116481711D01*
X208577600Y-116585315D01*
X208521530Y-116720681D01*
X208521530Y-117664525D01*
X208613605Y-117756600D01*
X209627700Y-117756600D01*
X209627700Y-117782000D01*
X208613605Y-117782000D01*
X208521530Y-117874075D01*
X208521530Y-118817919D01*
X208577600Y-118953285D01*
X208681205Y-119056889D01*
X208816570Y-119112960D01*
X208963089Y-119112960D01*
X209535625Y-119112960D01*
X209627700Y-119020885D01*
X209627700Y-119143440D01*
X208816571Y-119143440D01*
X208681205Y-119199510D01*
X208577601Y-119303115D01*
X208521530Y-119438480D01*
X208521530Y-119584999D01*
X208521530Y-121535719D01*
X208577600Y-121671085D01*
X208681205Y-121774689D01*
X208816570Y-121830760D01*
X208963089Y-121830760D01*
X210175836Y-121830760D01*
X210768500Y-122423423D01*
X210768500Y-123769467D01*
X210474385Y-123647341D01*
X210151033Y-123647059D01*
X209852187Y-123770540D01*
X209623343Y-123998984D01*
X209499341Y-124297615D01*
X209499291Y-124354169D01*
X209346759Y-124506701D01*
X209346941Y-124299033D01*
X209223460Y-124000187D01*
X208995016Y-123771343D01*
X208696385Y-123647341D01*
X208373033Y-123647059D01*
X208074187Y-123770540D01*
X207959960Y-123884567D01*
X207959960Y-114014578D01*
X209120269Y-112854270D01*
X209120269Y-112854269D01*
X209120271Y-112854266D01*
X209167269Y-112807270D01*
X209167269Y-112807269D01*
X209269131Y-112654823D01*
X209304899Y-112475000D01*
X209304900Y-112475000D01*
X209304900Y-111913980D01*
X209393625Y-111877230D01*
X209497229Y-111773625D01*
X209553300Y-111638260D01*
X209553300Y-111491741D01*
X209553300Y-109791741D01*
X209497230Y-109656375D01*
X209393625Y-109552771D01*
X209258260Y-109496700D01*
X209111741Y-109496700D01*
X208411741Y-109496700D01*
X208276375Y-109552770D01*
X208210000Y-109619145D01*
X208143625Y-109552771D01*
X208008260Y-109496700D01*
X207861741Y-109496700D01*
X207161741Y-109496700D01*
X207026375Y-109552770D01*
X206960000Y-109619145D01*
X206893625Y-109552771D01*
X206758260Y-109496700D01*
X206611741Y-109496700D01*
X205911741Y-109496700D01*
X205776375Y-109552770D01*
X205710000Y-109619145D01*
X205643625Y-109552771D01*
X205508260Y-109496700D01*
X205361741Y-109496700D01*
X204661741Y-109496700D01*
X204526375Y-109552770D01*
X204460000Y-109619145D01*
X204393625Y-109552771D01*
X204258260Y-109496700D01*
X204111741Y-109496700D01*
X203411741Y-109496700D01*
X203276375Y-109552770D01*
X203210000Y-109619145D01*
X203143625Y-109552771D01*
X203008260Y-109496700D01*
X202861741Y-109496700D01*
X202161741Y-109496700D01*
X202026375Y-109552770D01*
X201960000Y-109619145D01*
X201893625Y-109552771D01*
X201758260Y-109496700D01*
X201611741Y-109496700D01*
X200911741Y-109496700D01*
X200776375Y-109552770D01*
X200710000Y-109619145D01*
X200643625Y-109552771D01*
X200508260Y-109496700D01*
X200361741Y-109496700D01*
X199661741Y-109496700D01*
X199526375Y-109552770D01*
X199460000Y-109619145D01*
X199393625Y-109552771D01*
X199258260Y-109496700D01*
X199111741Y-109496700D01*
X198411741Y-109496700D01*
X198276375Y-109552770D01*
X198172771Y-109656375D01*
X198116700Y-109791740D01*
X198116700Y-109938259D01*
X198116700Y-111638259D01*
X198172770Y-111773625D01*
X198263500Y-111864354D01*
X198263500Y-114355189D01*
X198186775Y-114386970D01*
X198083171Y-114490575D01*
X198027100Y-114625940D01*
X198027100Y-114772459D01*
X198027100Y-115272459D01*
X198083170Y-115407825D01*
X198186775Y-115511429D01*
X198322140Y-115567500D01*
X198468659Y-115567500D01*
X199302476Y-115567500D01*
X201767285Y-118032308D01*
X201767288Y-118032312D01*
X201952696Y-118156197D01*
X201952697Y-118156197D01*
X201988982Y-118163414D01*
X201995100Y-118164631D01*
X201995100Y-118201459D01*
X202051170Y-118336825D01*
X202154775Y-118440429D01*
X202290140Y-118496500D01*
X202436659Y-118496500D01*
X203367161Y-118496500D01*
X204020420Y-119149758D01*
X204020420Y-119759900D01*
X203890141Y-119759900D01*
X203268175Y-119759900D01*
X203176100Y-119851975D01*
X203176100Y-120615500D01*
X203196100Y-120615500D01*
X203196100Y-120640900D01*
X203176100Y-120640900D01*
X203176100Y-121404425D01*
X203268175Y-121496500D01*
X203890141Y-121496500D01*
X204020420Y-121496500D01*
X204020420Y-123972320D01*
X204020420Y-124361881D01*
X202145900Y-122487361D01*
X202145900Y-121431554D01*
X202154775Y-121440429D01*
X202290140Y-121496500D01*
X202436659Y-121496500D01*
X203058625Y-121496500D01*
X203150700Y-121404425D01*
X203150700Y-120640900D01*
X203130700Y-120640900D01*
X203130700Y-120615500D01*
X203150700Y-120615500D01*
X203150700Y-119851975D01*
X203058625Y-119759900D01*
X202436659Y-119759900D01*
X202290140Y-119759900D01*
X202154775Y-119815971D01*
X202069450Y-119901294D01*
X202008269Y-119809731D01*
X200369269Y-118170731D01*
X200216823Y-118068869D01*
X200037000Y-118033100D01*
X199625300Y-118033100D01*
X199625300Y-118029741D01*
X199569230Y-117894375D01*
X199465625Y-117790771D01*
X199330260Y-117734700D01*
X199183741Y-117734700D01*
X198433741Y-117734700D01*
X198298375Y-117790770D01*
X198194771Y-117894375D01*
X198138700Y-118029740D01*
X198138700Y-118033100D01*
X197946600Y-118033100D01*
X197766777Y-118068869D01*
X197614331Y-118170730D01*
X196788941Y-118996120D01*
X196740141Y-118996120D01*
X195978141Y-118996120D01*
X195842775Y-119052190D01*
X195739171Y-119155795D01*
X195683100Y-119291160D01*
X195683100Y-119437679D01*
X195683100Y-119869479D01*
X195729032Y-119980370D01*
X195683100Y-120091260D01*
X195683100Y-120237779D01*
X195683100Y-120669579D01*
X195728506Y-120779200D01*
X195683100Y-120888820D01*
X195683100Y-121035339D01*
X195683100Y-121467139D01*
X195729032Y-121578030D01*
X195683100Y-121688920D01*
X195683100Y-121835439D01*
X195683100Y-122267239D01*
X195739170Y-122402605D01*
X195842775Y-122506209D01*
X195978140Y-122562280D01*
X196124659Y-122562280D01*
X196352061Y-122562280D01*
X196550051Y-122760270D01*
X196702497Y-122862131D01*
X196882320Y-122897900D01*
X198138700Y-122897900D01*
X198138700Y-123651259D01*
X198194770Y-123786625D01*
X198298375Y-123890229D01*
X198386700Y-123926815D01*
X198386700Y-124104184D01*
X198298375Y-124140770D01*
X198194771Y-124244375D01*
X198138700Y-124379740D01*
X198138700Y-124383100D01*
X197946600Y-124383100D01*
X197766777Y-124418869D01*
X197614331Y-124520730D01*
X196788941Y-125346120D01*
X196740141Y-125346120D01*
X195978141Y-125346120D01*
X195842775Y-125402190D01*
X195739171Y-125505795D01*
X195683100Y-125641160D01*
X195683100Y-125787679D01*
X195683100Y-126219479D01*
X195729032Y-126330370D01*
X195683100Y-126441260D01*
X195683100Y-126587779D01*
X195683100Y-127019579D01*
X195728506Y-127129200D01*
X195683100Y-127238820D01*
X195683100Y-127385339D01*
X195683100Y-127817139D01*
X195729032Y-127928030D01*
X195683100Y-128038920D01*
X195683100Y-128185439D01*
X195683100Y-128617239D01*
X195739170Y-128752605D01*
X195842775Y-128856209D01*
X195978140Y-128912280D01*
X196124659Y-128912280D01*
X196352061Y-128912280D01*
X196550051Y-129110270D01*
X196702497Y-129212131D01*
X196882320Y-129247900D01*
X198138700Y-129247900D01*
X198138700Y-130001259D01*
X198194770Y-130136625D01*
X198298375Y-130240229D01*
X198386700Y-130276815D01*
X198386700Y-130454184D01*
X198298375Y-130490770D01*
X198194771Y-130594375D01*
X198138700Y-130729740D01*
X198138700Y-130733100D01*
X197946600Y-130733100D01*
X197766777Y-130768869D01*
X197614331Y-130870730D01*
X196788941Y-131696120D01*
X196740141Y-131696120D01*
X195978141Y-131696120D01*
X195842775Y-131752190D01*
X195739171Y-131855795D01*
X195683100Y-131991160D01*
X195683100Y-132137679D01*
X195683100Y-132569479D01*
X195729032Y-132680370D01*
X195683100Y-132791260D01*
X195683100Y-132937779D01*
X195683100Y-133369579D01*
X195728506Y-133479200D01*
X195683100Y-133588820D01*
X195683100Y-133735339D01*
X195683100Y-134167139D01*
X195729032Y-134278030D01*
X195683100Y-134388920D01*
X195683100Y-134535439D01*
X195683100Y-134967239D01*
X195739170Y-135102605D01*
X195842775Y-135206209D01*
X195978140Y-135262280D01*
X196124659Y-135262280D01*
X196352061Y-135262280D01*
X196550051Y-135460270D01*
X196702497Y-135562131D01*
X196882320Y-135597900D01*
X198138700Y-135597900D01*
X198138700Y-136351259D01*
X198194770Y-136486625D01*
X198298375Y-136590229D01*
X198350100Y-136611654D01*
X198350100Y-137825900D01*
X198322141Y-137825900D01*
X198186775Y-137881970D01*
X198083171Y-137985575D01*
X198027100Y-138120940D01*
X198027100Y-138267459D01*
X198027100Y-138767459D01*
X198083170Y-138902825D01*
X198186775Y-139006429D01*
X198322140Y-139062500D01*
X198468659Y-139062500D01*
X199368659Y-139062500D01*
X199504025Y-139006430D01*
X199607629Y-138902825D01*
X199663700Y-138767460D01*
X199663700Y-138620941D01*
X199663700Y-138120941D01*
X199607630Y-137985575D01*
X199504025Y-137881971D01*
X199368660Y-137825900D01*
X199340700Y-137825900D01*
X199340700Y-136641975D01*
X199465625Y-136590230D01*
X199569229Y-136486625D01*
X199625300Y-136351260D01*
X199625300Y-136347900D01*
X199910000Y-136347900D01*
X199910000Y-136347899D01*
X200089823Y-136312131D01*
X200242269Y-136210269D01*
X200738269Y-135714269D01*
X200738270Y-135714269D01*
X200840131Y-135561823D01*
X200875899Y-135382000D01*
X200875900Y-135382000D01*
X200875900Y-133290638D01*
X201079100Y-133087438D01*
X201079100Y-133477000D01*
X201114869Y-133656823D01*
X201206100Y-133793358D01*
X201206100Y-135636000D01*
X201206100Y-144780000D01*
X201241869Y-144959823D01*
X201343731Y-145112269D01*
X202115100Y-145883638D01*
X202115100Y-147166019D01*
X202026375Y-147202770D01*
X201960000Y-147269145D01*
X201893625Y-147202771D01*
X201804900Y-147166019D01*
X201804900Y-146471000D01*
X201769131Y-146291177D01*
X201667269Y-146138731D01*
X201599671Y-146071133D01*
X201599941Y-145762033D01*
X201476460Y-145463187D01*
X201248016Y-145234343D01*
X200949385Y-145110341D01*
X200626033Y-145110059D01*
X200327187Y-145233540D01*
X200098343Y-145461984D01*
X199974341Y-145760615D01*
X199974059Y-146083967D01*
X200097540Y-146382813D01*
X200325984Y-146611657D01*
X200624615Y-146735659D01*
X200865100Y-146735868D01*
X200865100Y-147166019D01*
X200776375Y-147202770D01*
X200710000Y-147269145D01*
X200643625Y-147202771D01*
X200508260Y-147146700D01*
X200487435Y-147146700D01*
X200435230Y-147068570D01*
X199957630Y-146590970D01*
X199796944Y-146483602D01*
X199663700Y-146457098D01*
X199663700Y-143442459D01*
X199663700Y-143223975D01*
X199663700Y-143014425D01*
X199663700Y-142795941D01*
X199663700Y-141942460D01*
X199663700Y-141795941D01*
X199663700Y-141295941D01*
X199607630Y-141160575D01*
X199504025Y-141056971D01*
X199368660Y-141000900D01*
X199340700Y-141000900D01*
X199340700Y-140562500D01*
X199368659Y-140562500D01*
X199504025Y-140506430D01*
X199607629Y-140402825D01*
X199663700Y-140267460D01*
X199663700Y-140120941D01*
X199663700Y-139620941D01*
X199607630Y-139485575D01*
X199504025Y-139381971D01*
X199368660Y-139325900D01*
X199222141Y-139325900D01*
X198322141Y-139325900D01*
X198186775Y-139381970D01*
X198083171Y-139485575D01*
X198027100Y-139620940D01*
X198027100Y-139767459D01*
X198027100Y-140267459D01*
X198083170Y-140402825D01*
X198186775Y-140506429D01*
X198322140Y-140562500D01*
X198350100Y-140562500D01*
X198350100Y-141000900D01*
X198322141Y-141000900D01*
X198186775Y-141056970D01*
X198119845Y-141123900D01*
X197944400Y-141123900D01*
X197754857Y-141161602D01*
X197594170Y-141268970D01*
X195403700Y-143459440D01*
X195403700Y-135245280D01*
X195498025Y-135206210D01*
X195601629Y-135102605D01*
X195657700Y-134967240D01*
X195657700Y-134820721D01*
X195657700Y-134388921D01*
X195611767Y-134278029D01*
X195657700Y-134167140D01*
X195657700Y-134020621D01*
X195657700Y-133588821D01*
X195612293Y-133479199D01*
X195657700Y-133369580D01*
X195657700Y-133223061D01*
X195657700Y-132791261D01*
X195611767Y-132680369D01*
X195657700Y-132569480D01*
X195657700Y-132422961D01*
X195657700Y-131991161D01*
X195601630Y-131855795D01*
X195498025Y-131752191D01*
X195362660Y-131696120D01*
X195216141Y-131696120D01*
X194454141Y-131696120D01*
X194318775Y-131752190D01*
X194285945Y-131785020D01*
X194041680Y-131785020D01*
X193798130Y-131541470D01*
X193637444Y-131434102D01*
X193447900Y-131396400D01*
X193258356Y-131434102D01*
X193097670Y-131541470D01*
X192990302Y-131702156D01*
X192953640Y-131886471D01*
X192953640Y-131818781D01*
X192897570Y-131683415D01*
X192793965Y-131579811D01*
X192658600Y-131523740D01*
X192512081Y-131523740D01*
X192363700Y-131523740D01*
X192363700Y-130827460D01*
X192363700Y-130680941D01*
X192363700Y-130408975D01*
X192271625Y-130316900D01*
X191758100Y-130316900D01*
X191758100Y-131030425D01*
X191850175Y-131122500D01*
X192068659Y-131122500D01*
X192204025Y-131066430D01*
X192307629Y-130962825D01*
X192363700Y-130827460D01*
X192363700Y-131523740D01*
X191511321Y-131523740D01*
X191375955Y-131579810D01*
X191339700Y-131616065D01*
X191339700Y-131088352D01*
X191422141Y-131122500D01*
X191640625Y-131122500D01*
X191732700Y-131030425D01*
X191732700Y-130316900D01*
X191712700Y-130316900D01*
X191712700Y-130291500D01*
X191732700Y-130291500D01*
X191732700Y-130271500D01*
X191758100Y-130271500D01*
X191758100Y-130291500D01*
X192271625Y-130291500D01*
X192363700Y-130199425D01*
X192363700Y-129927459D01*
X192363700Y-129780940D01*
X192307629Y-129645575D01*
X192281954Y-129619900D01*
X192708845Y-129619900D01*
X192683171Y-129645575D01*
X192627100Y-129780940D01*
X192627100Y-129927459D01*
X192627100Y-130827459D01*
X192683170Y-130962825D01*
X192786775Y-131066429D01*
X192922140Y-131122500D01*
X193068659Y-131122500D01*
X193568659Y-131122500D01*
X193704025Y-131066430D01*
X193807629Y-130962825D01*
X193863700Y-130827460D01*
X193863700Y-130799500D01*
X193873364Y-130799500D01*
X194066384Y-130992857D01*
X194365015Y-131116859D01*
X194688367Y-131117141D01*
X194987213Y-130993660D01*
X195216057Y-130765216D01*
X195289427Y-130588519D01*
X195361940Y-130764013D01*
X195590384Y-130992857D01*
X195889015Y-131116859D01*
X196212367Y-131117141D01*
X196511213Y-130993660D01*
X196740057Y-130765216D01*
X196864059Y-130466585D01*
X196864341Y-130143233D01*
X196740860Y-129844387D01*
X196512416Y-129615543D01*
X196213785Y-129491541D01*
X195938961Y-129491301D01*
X195403700Y-128956040D01*
X195403700Y-128895280D01*
X195498025Y-128856210D01*
X195601629Y-128752605D01*
X195657700Y-128617240D01*
X195657700Y-128470721D01*
X195657700Y-128038921D01*
X195611767Y-127928029D01*
X195657700Y-127817140D01*
X195657700Y-127670621D01*
X195657700Y-127238821D01*
X195612293Y-127129199D01*
X195657700Y-127019580D01*
X195657700Y-126873061D01*
X195657700Y-126441261D01*
X195611767Y-126330369D01*
X195657700Y-126219480D01*
X195657700Y-126072961D01*
X195657700Y-125641161D01*
X195601630Y-125505795D01*
X195498025Y-125402191D01*
X195403700Y-125363119D01*
X195403700Y-124843200D01*
X195365998Y-124653657D01*
X195365997Y-124653656D01*
X195258630Y-124492970D01*
X193734630Y-122968970D01*
X193573944Y-122861602D01*
X193384400Y-122823900D01*
X191706500Y-122823900D01*
X191706500Y-122730260D01*
X192084960Y-122730260D01*
X192658599Y-122730260D01*
X192793965Y-122674190D01*
X192897569Y-122570585D01*
X192937833Y-122473380D01*
X194285945Y-122473380D01*
X194318775Y-122506209D01*
X194454140Y-122562280D01*
X194600659Y-122562280D01*
X195362659Y-122562280D01*
X195498025Y-122506210D01*
X195601629Y-122402605D01*
X195657700Y-122267240D01*
X195657700Y-122120721D01*
X195657700Y-121688921D01*
X195611767Y-121578029D01*
X195657700Y-121467140D01*
X195657700Y-121320621D01*
X195657700Y-120888821D01*
X195612293Y-120779199D01*
X195657700Y-120669580D01*
X195657700Y-120523061D01*
X195657700Y-120091261D01*
X195611767Y-119980369D01*
X195657700Y-119869480D01*
X195657700Y-119722961D01*
X195657700Y-119291161D01*
X195601630Y-119155795D01*
X195498025Y-119052191D01*
X195403700Y-119013119D01*
X195403700Y-118698360D01*
X197157560Y-116944500D01*
X198119845Y-116944500D01*
X198186775Y-117011429D01*
X198322140Y-117067500D01*
X198468659Y-117067500D01*
X199368659Y-117067500D01*
X199504025Y-117011430D01*
X199607629Y-116907825D01*
X199663700Y-116772460D01*
X199663700Y-116625941D01*
X199663700Y-116125941D01*
X199607630Y-115990575D01*
X199504025Y-115886971D01*
X199368660Y-115830900D01*
X199222141Y-115830900D01*
X198322141Y-115830900D01*
X198186775Y-115886970D01*
X198119845Y-115953900D01*
X197503300Y-115953900D01*
X197503300Y-108688260D01*
X197503300Y-108541741D01*
X197503300Y-107419775D01*
X197503300Y-107210225D01*
X197503300Y-106088259D01*
X197503300Y-105941740D01*
X197447229Y-105806375D01*
X197343625Y-105702770D01*
X197208259Y-105646700D01*
X196739775Y-105646700D01*
X196647700Y-105738775D01*
X196647700Y-107302300D01*
X197411225Y-107302300D01*
X197503300Y-107210225D01*
X197503300Y-107419775D01*
X197411225Y-107327700D01*
X196647700Y-107327700D01*
X196647700Y-108891225D01*
X196739775Y-108983300D01*
X197208259Y-108983300D01*
X197343625Y-108927230D01*
X197447229Y-108823625D01*
X197503300Y-108688260D01*
X197503300Y-115953900D01*
X197157560Y-115953900D01*
X196622300Y-115418640D01*
X196622300Y-108891225D01*
X196622300Y-107327700D01*
X196622300Y-107302300D01*
X196622300Y-105738775D01*
X196530225Y-105646700D01*
X196061741Y-105646700D01*
X195926375Y-105702770D01*
X195822771Y-105806375D01*
X195766700Y-105941740D01*
X195766700Y-106088259D01*
X195766700Y-107210225D01*
X195858775Y-107302300D01*
X196622300Y-107302300D01*
X196622300Y-107327700D01*
X195858775Y-107327700D01*
X195766700Y-107419775D01*
X195766700Y-108541741D01*
X195766700Y-108688260D01*
X195822771Y-108823625D01*
X195926375Y-108927230D01*
X196061741Y-108983300D01*
X196530225Y-108983300D01*
X196622300Y-108891225D01*
X196622300Y-115418640D01*
X193832630Y-112628970D01*
X193671944Y-112521602D01*
X193482400Y-112483900D01*
X192118260Y-112483900D01*
X192118260Y-107629576D01*
X191872456Y-107034685D01*
X191417709Y-106579143D01*
X190823248Y-106332302D01*
X190179576Y-106331740D01*
X189584685Y-106577544D01*
X189129143Y-107032291D01*
X188882302Y-107626752D01*
X188881740Y-108270424D01*
X189127544Y-108865315D01*
X189582291Y-109320857D01*
X190176752Y-109567698D01*
X190820424Y-109568260D01*
X191415315Y-109322456D01*
X191870857Y-108867709D01*
X192117698Y-108273248D01*
X192118260Y-107629576D01*
X192118260Y-112483900D01*
X189268700Y-112483900D01*
X189268700Y-112455941D01*
X189212630Y-112320575D01*
X189109025Y-112216971D01*
X188973660Y-112160900D01*
X188827141Y-112160900D01*
X187127141Y-112160900D01*
X186991775Y-112216970D01*
X186902645Y-112306100D01*
X186023154Y-112306100D01*
X185934025Y-112216971D01*
X185798660Y-112160900D01*
X185652141Y-112160900D01*
X183952141Y-112160900D01*
X183816775Y-112216970D01*
X183727645Y-112306100D01*
X182848154Y-112306100D01*
X182759025Y-112216971D01*
X182623660Y-112160900D01*
X182477141Y-112160900D01*
X180777141Y-112160900D01*
X180641775Y-112216970D01*
X180552645Y-112306100D01*
X179673154Y-112306100D01*
X179584025Y-112216971D01*
X179448660Y-112160900D01*
X179302141Y-112160900D01*
X177687200Y-112160900D01*
X177687200Y-110428700D01*
X177649498Y-110239157D01*
X177542130Y-110078470D01*
X177478630Y-110014970D01*
X176079430Y-108615770D01*
X175918744Y-108508402D01*
X175729200Y-108470700D01*
X175260000Y-108470700D01*
X169164000Y-108470700D01*
X168974457Y-108508402D01*
X168813770Y-108615770D01*
X168445470Y-108984070D01*
X168376078Y-109087920D01*
X168323661Y-109087920D01*
X168188295Y-109143990D01*
X168084691Y-109247595D01*
X168028620Y-109382960D01*
X168028620Y-109529479D01*
X168028620Y-110327039D01*
X168068261Y-110422742D01*
X167802385Y-110312341D01*
X167479033Y-110312059D01*
X167180187Y-110435540D01*
X166951343Y-110663984D01*
X166827341Y-110962615D01*
X166827059Y-111285967D01*
X166950540Y-111584813D01*
X167125526Y-111760105D01*
X166951343Y-111933984D01*
X166827341Y-112232615D01*
X166827059Y-112555967D01*
X166950540Y-112854813D01*
X167125526Y-113030105D01*
X166951343Y-113203984D01*
X166827341Y-113502615D01*
X166827059Y-113825967D01*
X166950540Y-114124813D01*
X167125526Y-114300105D01*
X166951343Y-114473984D01*
X166827341Y-114772615D01*
X166827059Y-115095967D01*
X166950540Y-115394813D01*
X167125526Y-115570105D01*
X166951343Y-115743984D01*
X166827341Y-116042615D01*
X166827059Y-116365967D01*
X166950540Y-116664813D01*
X167178984Y-116893657D01*
X167477615Y-117017659D01*
X167800967Y-117017941D01*
X168099813Y-116894460D01*
X168133308Y-116861023D01*
X168188295Y-116916009D01*
X168323660Y-116972080D01*
X168470179Y-116972080D01*
X169267739Y-116972080D01*
X169403105Y-116916010D01*
X169506709Y-116812405D01*
X169544999Y-116719964D01*
X169583290Y-116812405D01*
X169686895Y-116916009D01*
X169822260Y-116972080D01*
X169968779Y-116972080D01*
X170766339Y-116972080D01*
X170901705Y-116916010D01*
X171005309Y-116812405D01*
X171051745Y-116700300D01*
X171351700Y-116700300D01*
X171351700Y-116728259D01*
X171407770Y-116863625D01*
X171511375Y-116967229D01*
X171646740Y-117023300D01*
X171793259Y-117023300D01*
X172293259Y-117023300D01*
X172428625Y-116967230D01*
X172532229Y-116863625D01*
X172588300Y-116728260D01*
X172588300Y-116581741D01*
X172588300Y-115681741D01*
X172542015Y-115569999D01*
X172588300Y-115458260D01*
X172588300Y-115311741D01*
X172588300Y-114411741D01*
X172542015Y-114299999D01*
X172588300Y-114188260D01*
X172588300Y-114041741D01*
X172588300Y-113141741D01*
X172542015Y-113029999D01*
X172588300Y-112918260D01*
X172588300Y-112771741D01*
X172588300Y-111871741D01*
X172542015Y-111759999D01*
X172588300Y-111648260D01*
X172588300Y-111501741D01*
X172588300Y-110601741D01*
X172542015Y-110489999D01*
X172588300Y-110378260D01*
X172588300Y-110231741D01*
X172588300Y-109461300D01*
X172851700Y-109461300D01*
X172851700Y-109478259D01*
X172851700Y-110378259D01*
X172897984Y-110490000D01*
X172851700Y-110601740D01*
X172851700Y-110748259D01*
X172851700Y-111648259D01*
X172897984Y-111760000D01*
X172851700Y-111871740D01*
X172851700Y-112018259D01*
X172851700Y-112918259D01*
X172897984Y-113030000D01*
X172851700Y-113141740D01*
X172851700Y-113288259D01*
X172851700Y-114188259D01*
X172897984Y-114300000D01*
X172851700Y-114411740D01*
X172851700Y-114558259D01*
X172851700Y-115458259D01*
X172897984Y-115570000D01*
X172851700Y-115681740D01*
X172851700Y-115828259D01*
X172851700Y-116728259D01*
X172907770Y-116863625D01*
X173011375Y-116967229D01*
X173146740Y-117023300D01*
X173293259Y-117023300D01*
X173793259Y-117023300D01*
X173928625Y-116967230D01*
X174019605Y-116876248D01*
X174036984Y-116893657D01*
X174335615Y-117017659D01*
X174658967Y-117017941D01*
X174957813Y-116894460D01*
X175186657Y-116666016D01*
X175310659Y-116367385D01*
X175310941Y-116044033D01*
X175187460Y-115745187D01*
X174995305Y-115552696D01*
X175150057Y-115398216D01*
X175274059Y-115099585D01*
X175274341Y-114776233D01*
X175150860Y-114477387D01*
X174975873Y-114302094D01*
X175150057Y-114128216D01*
X175274059Y-113829585D01*
X175274341Y-113506233D01*
X175150860Y-113207387D01*
X174975873Y-113032094D01*
X175150057Y-112858216D01*
X175274059Y-112559585D01*
X175274341Y-112236233D01*
X175150860Y-111937387D01*
X174975873Y-111762094D01*
X175150057Y-111588216D01*
X175274059Y-111289585D01*
X175274341Y-110966233D01*
X175150860Y-110667387D01*
X174975873Y-110492094D01*
X175150057Y-110318216D01*
X175274059Y-110019585D01*
X175274341Y-109696233D01*
X175177268Y-109461300D01*
X175260000Y-109461300D01*
X175524040Y-109461300D01*
X176696600Y-110633860D01*
X176696600Y-112663900D01*
X176125100Y-112663900D01*
X176125100Y-113347199D01*
X175998537Y-113536616D01*
X175947299Y-113794200D01*
X175947300Y-113794205D01*
X175947300Y-116690392D01*
X174874446Y-117763246D01*
X174728537Y-117981616D01*
X174677299Y-118239200D01*
X174677300Y-118239205D01*
X174677300Y-121770392D01*
X173930792Y-122516900D01*
X173902894Y-122516900D01*
X173770605Y-122318915D01*
X173370948Y-122051873D01*
X172899520Y-121958100D01*
X172540480Y-121958100D01*
X172069052Y-122051873D01*
X171669395Y-122318915D01*
X171402353Y-122718572D01*
X171308580Y-123190000D01*
X171402353Y-123661428D01*
X171669395Y-124061085D01*
X172069052Y-124328127D01*
X172540480Y-124421900D01*
X172899520Y-124421900D01*
X173370948Y-124328127D01*
X173770605Y-124061085D01*
X173902894Y-123863100D01*
X174209594Y-123863100D01*
X174209600Y-123863101D01*
X174209600Y-123863100D01*
X174467184Y-123811863D01*
X174685554Y-123665954D01*
X175826350Y-122525156D01*
X175826354Y-122525154D01*
X175826354Y-122525153D01*
X175947300Y-122344144D01*
X175947300Y-123040392D01*
X173930792Y-125056900D01*
X173902894Y-125056900D01*
X173770605Y-124858915D01*
X173370948Y-124591873D01*
X172899520Y-124498100D01*
X172540480Y-124498100D01*
X172069052Y-124591873D01*
X171669395Y-124858915D01*
X171402353Y-125258572D01*
X171308580Y-125730000D01*
X171402353Y-126201428D01*
X171669395Y-126601085D01*
X172069052Y-126868127D01*
X172540480Y-126961900D01*
X172899520Y-126961900D01*
X173370948Y-126868127D01*
X173770605Y-126601085D01*
X173902894Y-126403100D01*
X174209594Y-126403100D01*
X174209600Y-126403101D01*
X174209600Y-126403100D01*
X174467184Y-126351863D01*
X174685554Y-126205954D01*
X176125100Y-124766408D01*
X176125100Y-124777199D01*
X175998537Y-124966616D01*
X175947299Y-125224200D01*
X175947300Y-125224205D01*
X175947300Y-125580392D01*
X173930792Y-127596900D01*
X173902894Y-127596900D01*
X173770605Y-127398915D01*
X173370948Y-127131873D01*
X172899520Y-127038100D01*
X172540480Y-127038100D01*
X172069052Y-127131873D01*
X171669395Y-127398915D01*
X171402353Y-127798572D01*
X171308580Y-128270000D01*
X171402353Y-128741428D01*
X171669395Y-129141085D01*
X172069052Y-129408127D01*
X172540480Y-129501900D01*
X172899520Y-129501900D01*
X173370948Y-129408127D01*
X173770605Y-129141085D01*
X173902894Y-128943100D01*
X174209594Y-128943100D01*
X174209600Y-128943101D01*
X174209600Y-128943100D01*
X174467184Y-128891863D01*
X174685554Y-128745954D01*
X176125100Y-127306408D01*
X176125100Y-129451100D01*
X174895405Y-129451100D01*
X174895400Y-129451099D01*
X174637816Y-129502337D01*
X174419446Y-129648246D01*
X174419443Y-129648249D01*
X173930792Y-130136900D01*
X173902894Y-130136900D01*
X173770605Y-129938915D01*
X173370948Y-129671873D01*
X172899520Y-129578100D01*
X172540480Y-129578100D01*
X172069052Y-129671873D01*
X171669395Y-129938915D01*
X171402353Y-130338572D01*
X171308580Y-130810000D01*
X171402353Y-131281428D01*
X171669395Y-131681085D01*
X172069052Y-131948127D01*
X172540480Y-132041900D01*
X172899520Y-132041900D01*
X173370948Y-131948127D01*
X173770605Y-131681085D01*
X173902894Y-131483100D01*
X174209594Y-131483100D01*
X174209600Y-131483101D01*
X174209600Y-131483100D01*
X174467184Y-131431863D01*
X174685554Y-131285954D01*
X175174207Y-130797300D01*
X176125100Y-130797300D01*
X176125100Y-133936992D01*
X175062154Y-132874046D01*
X174843784Y-132728137D01*
X174586200Y-132676899D01*
X174586194Y-132676900D01*
X173902894Y-132676900D01*
X173770605Y-132478915D01*
X173370948Y-132211873D01*
X172899520Y-132118100D01*
X172540480Y-132118100D01*
X172069052Y-132211873D01*
X171669395Y-132478915D01*
X171402353Y-132878572D01*
X171308580Y-133350000D01*
X171402353Y-133821428D01*
X171669395Y-134221085D01*
X172069052Y-134488127D01*
X172540480Y-134581900D01*
X172899520Y-134581900D01*
X173370948Y-134488127D01*
X173770605Y-134221085D01*
X173902894Y-134023100D01*
X174307392Y-134023100D01*
X176125100Y-135840807D01*
X176125100Y-135879500D01*
X176125100Y-136476992D01*
X175062154Y-135414046D01*
X174843784Y-135268137D01*
X174586200Y-135216899D01*
X174586194Y-135216900D01*
X173902894Y-135216900D01*
X173770605Y-135018915D01*
X173370948Y-134751873D01*
X172899520Y-134658100D01*
X172540480Y-134658100D01*
X172069052Y-134751873D01*
X171669395Y-135018915D01*
X171402353Y-135418572D01*
X171308580Y-135890000D01*
X171402353Y-136361428D01*
X171669395Y-136761085D01*
X172069052Y-137028127D01*
X172540480Y-137121900D01*
X172899520Y-137121900D01*
X173370948Y-137028127D01*
X173770605Y-136761085D01*
X173902894Y-136563100D01*
X174307392Y-136563100D01*
X175947300Y-138203007D01*
X175947300Y-138712192D01*
X175189154Y-137954046D01*
X174970784Y-137808137D01*
X174713200Y-137756899D01*
X174713194Y-137756900D01*
X174104300Y-137756900D01*
X174104300Y-137493141D01*
X174048230Y-137357775D01*
X173944625Y-137254171D01*
X173809260Y-137198100D01*
X173662741Y-137198100D01*
X171630741Y-137198100D01*
X171495375Y-137254170D01*
X171391771Y-137357775D01*
X171335700Y-137493140D01*
X171335700Y-137639659D01*
X171335700Y-139366859D01*
X171391770Y-139502225D01*
X171495375Y-139605829D01*
X171630740Y-139661900D01*
X171777259Y-139661900D01*
X173809259Y-139661900D01*
X173944625Y-139605830D01*
X174048229Y-139502225D01*
X174104300Y-139366860D01*
X174104300Y-139220341D01*
X174104300Y-139103100D01*
X174434392Y-139103100D01*
X174804300Y-139473008D01*
X174804300Y-141734194D01*
X174804299Y-141734200D01*
X174855537Y-141991784D01*
X175001446Y-142210154D01*
X175312300Y-142521007D01*
X175312300Y-146814194D01*
X175312299Y-146814200D01*
X175363537Y-147071784D01*
X175509446Y-147290154D01*
X176525446Y-148306154D01*
X176743816Y-148452063D01*
X177001400Y-148503301D01*
X177001400Y-148503300D01*
X177001405Y-148503300D01*
X190209394Y-148503300D01*
X190209400Y-148503301D01*
X190209400Y-148503300D01*
X190466984Y-148452063D01*
X190685354Y-148306154D01*
X191610954Y-147380554D01*
X191658430Y-147309500D01*
X192749400Y-147309500D01*
X192938943Y-147271798D01*
X192938944Y-147271798D01*
X193099630Y-147164430D01*
X198134702Y-142129357D01*
X198186775Y-142181429D01*
X198322140Y-142237500D01*
X198468659Y-142237500D01*
X199368659Y-142237500D01*
X199504025Y-142181430D01*
X199607629Y-142077825D01*
X199663700Y-141942460D01*
X199663700Y-142795941D01*
X199607630Y-142660575D01*
X199504025Y-142556971D01*
X199368660Y-142500900D01*
X199222141Y-142500900D01*
X198950175Y-142500900D01*
X198858100Y-142592975D01*
X198858100Y-143106500D01*
X199571625Y-143106500D01*
X199663700Y-143014425D01*
X199663700Y-143223975D01*
X199571625Y-143131900D01*
X198858100Y-143131900D01*
X198858100Y-143645425D01*
X198950175Y-143737500D01*
X199222141Y-143737500D01*
X199368660Y-143737500D01*
X199504025Y-143681429D01*
X199607630Y-143577825D01*
X199663700Y-143442459D01*
X199663700Y-146457098D01*
X199607400Y-146445900D01*
X198832700Y-146445900D01*
X198832700Y-143645425D01*
X198832700Y-143131900D01*
X198832700Y-143106500D01*
X198832700Y-142592975D01*
X198740625Y-142500900D01*
X198468659Y-142500900D01*
X198322140Y-142500900D01*
X198186775Y-142556971D01*
X198083170Y-142660575D01*
X198027100Y-142795941D01*
X198027100Y-143014425D01*
X198119175Y-143106500D01*
X198832700Y-143106500D01*
X198832700Y-143131900D01*
X198119175Y-143131900D01*
X198027100Y-143223975D01*
X198027100Y-143442459D01*
X198083170Y-143577825D01*
X198186775Y-143681429D01*
X198322140Y-143737500D01*
X198468659Y-143737500D01*
X198740625Y-143737500D01*
X198832700Y-143645425D01*
X198832700Y-146445900D01*
X198796560Y-146445900D01*
X198388102Y-146037442D01*
X198388341Y-145764233D01*
X198264860Y-145465387D01*
X198036416Y-145236543D01*
X197737785Y-145112541D01*
X197414433Y-145112259D01*
X197115587Y-145235740D01*
X196886743Y-145464184D01*
X196762741Y-145762815D01*
X196762459Y-146086167D01*
X196885940Y-146385013D01*
X197114384Y-146613857D01*
X197413015Y-146737859D01*
X197687838Y-146738098D01*
X198214442Y-147264702D01*
X198172771Y-147306375D01*
X198116700Y-147441740D01*
X198116700Y-147588259D01*
X198116700Y-148260225D01*
X198208775Y-148352300D01*
X198822300Y-148352300D01*
X198822300Y-148332300D01*
X198847700Y-148332300D01*
X198847700Y-148352300D01*
X198867700Y-148352300D01*
X198867700Y-148377700D01*
X198847700Y-148377700D01*
X198847700Y-149491225D01*
X198939775Y-149583300D01*
X199258259Y-149583300D01*
X199393625Y-149527230D01*
X199459999Y-149460854D01*
X199526375Y-149527229D01*
X199661740Y-149583300D01*
X199808259Y-149583300D01*
X200508259Y-149583300D01*
X200643625Y-149527230D01*
X200709999Y-149460854D01*
X200776375Y-149527229D01*
X200911740Y-149583300D01*
X201058259Y-149583300D01*
X201758259Y-149583300D01*
X201893625Y-149527230D01*
X201959999Y-149460854D01*
X202026375Y-149527229D01*
X202161740Y-149583300D01*
X202308259Y-149583300D01*
X203008259Y-149583300D01*
X203143625Y-149527230D01*
X203209999Y-149460854D01*
X203276375Y-149527229D01*
X203411740Y-149583300D01*
X203558259Y-149583300D01*
X204258259Y-149583300D01*
X204393625Y-149527230D01*
X204459999Y-149460854D01*
X204526375Y-149527229D01*
X204661740Y-149583300D01*
X204808259Y-149583300D01*
X205508259Y-149583300D01*
X205643625Y-149527230D01*
X205709999Y-149460854D01*
X205776375Y-149527229D01*
X205911740Y-149583300D01*
X206058259Y-149583300D01*
X206758259Y-149583300D01*
X206893625Y-149527230D01*
X206959999Y-149460854D01*
X207026375Y-149527229D01*
X207161740Y-149583300D01*
X207308259Y-149583300D01*
X208008259Y-149583300D01*
X208143625Y-149527230D01*
X208209999Y-149460854D01*
X208276375Y-149527229D01*
X208411740Y-149583300D01*
X208558259Y-149583300D01*
X209258259Y-149583300D01*
X209393625Y-149527230D01*
X209497229Y-149423625D01*
X209553300Y-149288260D01*
X209553300Y-149141741D01*
X209553300Y-147441741D01*
X209497230Y-147306375D01*
X209393625Y-147202771D01*
X209304900Y-147166019D01*
X209304900Y-145589000D01*
X209269131Y-145409177D01*
X209167269Y-145256731D01*
X209167269Y-145256730D01*
X204960220Y-141049681D01*
X204960220Y-139330758D01*
X206169731Y-140540270D01*
X206322177Y-140642131D01*
X206502000Y-140677900D01*
X209308700Y-140677900D01*
X209308700Y-140763859D01*
X209341481Y-140843000D01*
X209308700Y-140922140D01*
X209308700Y-141068659D01*
X209308700Y-141373225D01*
X209400775Y-141465300D01*
X210299300Y-141465300D01*
X210299300Y-141445300D01*
X210324700Y-141445300D01*
X210324700Y-141465300D01*
X211223225Y-141465300D01*
X211315300Y-141373225D01*
X211315300Y-141068659D01*
X211315300Y-140922140D01*
X211282518Y-140843000D01*
X211315300Y-140763860D01*
X211315300Y-140617341D01*
X211315300Y-139652141D01*
X211282518Y-139572999D01*
X211315300Y-139493860D01*
X211315300Y-139347341D01*
X211315300Y-138382141D01*
X211259230Y-138246775D01*
X211155625Y-138143171D01*
X211020260Y-138087100D01*
X210883281Y-138087100D01*
X211696187Y-137274193D01*
X211696191Y-137274191D01*
X211696191Y-137274190D01*
X211809064Y-137105263D01*
X211848700Y-136906000D01*
X211848701Y-136906000D01*
X211848700Y-136905994D01*
X211848700Y-136518679D01*
X212016657Y-136351016D01*
X212140659Y-136052385D01*
X212140941Y-135729033D01*
X212017460Y-135430187D01*
X211910487Y-135323027D01*
X211948625Y-135307230D01*
X212052229Y-135203625D01*
X212090000Y-135112439D01*
X212127771Y-135203625D01*
X212231375Y-135307230D01*
X212366741Y-135363300D01*
X212735225Y-135363300D01*
X212827300Y-135271225D01*
X212827300Y-134632700D01*
X212807300Y-134632700D01*
X212807300Y-134607300D01*
X212827300Y-134607300D01*
X212827300Y-133968775D01*
X212735225Y-133876700D01*
X212366741Y-133876700D01*
X212231375Y-133932770D01*
X212127771Y-134036375D01*
X212090000Y-134127560D01*
X212052230Y-134036375D01*
X211948625Y-133932771D01*
X211813260Y-133876700D01*
X211797900Y-133876700D01*
X211797900Y-133858000D01*
X211762131Y-133678177D01*
X211660269Y-133525731D01*
X210644269Y-132509731D01*
X210098169Y-131963631D01*
X209945723Y-131861769D01*
X209809080Y-131834589D01*
X209765900Y-131826000D01*
X209732245Y-131826000D01*
X209717005Y-131810760D01*
X209532435Y-131810760D01*
X209514040Y-131803140D01*
X209367521Y-131803140D01*
X209108360Y-131803140D01*
X209108360Y-131785360D01*
X209128360Y-131785360D01*
X209128360Y-131698365D01*
X209128360Y-131397375D01*
X209128360Y-131310380D01*
X209108360Y-131310380D01*
X209108360Y-131290060D01*
X209173760Y-131290060D01*
X209173760Y-131310380D01*
X209153760Y-131310380D01*
X209153760Y-131397375D01*
X209153760Y-131698365D01*
X209153760Y-131785360D01*
X209240755Y-131785360D01*
X209245835Y-131790440D01*
X209514039Y-131790440D01*
X209526303Y-131785360D01*
X209717005Y-131785360D01*
X209809080Y-131693285D01*
X209809080Y-131600340D01*
X209787345Y-131547870D01*
X209809080Y-131495400D01*
X209809080Y-131402455D01*
X209717007Y-131310382D01*
X209766844Y-131310382D01*
X209809080Y-131352618D01*
X210106731Y-131650269D01*
X210614730Y-132158269D01*
X210614731Y-132158269D01*
X210685100Y-132205288D01*
X210685100Y-132351459D01*
X210741170Y-132486825D01*
X210844775Y-132590429D01*
X210947509Y-132632983D01*
X210947510Y-132632984D01*
X210989770Y-132696230D01*
X211993770Y-133700230D01*
X212154456Y-133807597D01*
X212154457Y-133807598D01*
X212344000Y-133845300D01*
X213154840Y-133845300D01*
X213186240Y-133876700D01*
X212944775Y-133876700D01*
X212852700Y-133968775D01*
X212852700Y-134607300D01*
X212872700Y-134607300D01*
X212872700Y-134632700D01*
X212852700Y-134632700D01*
X212852700Y-135271225D01*
X212944775Y-135363300D01*
X213313259Y-135363300D01*
X213372700Y-135338678D01*
X213372700Y-145590840D01*
X211315300Y-147648240D01*
X211315300Y-142033860D01*
X211315300Y-141887341D01*
X211315300Y-141582775D01*
X211223225Y-141490700D01*
X210324700Y-141490700D01*
X210324700Y-142236825D01*
X210416775Y-142328900D01*
X211020259Y-142328900D01*
X211155625Y-142272830D01*
X211259229Y-142169225D01*
X211315300Y-142033860D01*
X211315300Y-147648240D01*
X210299300Y-148664240D01*
X210299300Y-142236825D01*
X210299300Y-141490700D01*
X209400775Y-141490700D01*
X209308700Y-141582775D01*
X209308700Y-141887341D01*
X209308700Y-142033860D01*
X209364771Y-142169225D01*
X209468375Y-142272830D01*
X209603741Y-142328900D01*
X210207225Y-142328900D01*
X210299300Y-142236825D01*
X210299300Y-148664240D01*
X209344840Y-149618700D01*
X198579160Y-149618700D01*
X198543760Y-149583300D01*
X198730225Y-149583300D01*
X198822300Y-149491225D01*
X198822300Y-148377700D01*
X198208775Y-148377700D01*
X198116700Y-148469775D01*
X198116700Y-149141741D01*
X198116700Y-149156240D01*
X197708230Y-148747770D01*
X197202430Y-148241970D01*
X197041744Y-148134602D01*
X196852200Y-148096900D01*
X196813400Y-148096900D01*
X196686400Y-148096900D01*
X196168360Y-148096900D01*
X195884702Y-147813242D01*
X195884941Y-147540033D01*
X195761460Y-147241187D01*
X195533016Y-147012343D01*
X195234385Y-146888341D01*
X194911033Y-146888059D01*
X194612187Y-147011540D01*
X194383343Y-147239984D01*
X194259341Y-147538615D01*
X194259059Y-147861967D01*
X194382540Y-148160813D01*
X194610984Y-148389657D01*
X194909615Y-148513659D01*
X195184438Y-148513898D01*
X195606339Y-148935799D01*
X195610770Y-148942430D01*
X195771457Y-149049798D01*
X195961000Y-149087500D01*
X196647040Y-149087500D01*
X197007770Y-149448230D01*
X198023770Y-150464230D01*
X198184457Y-150571598D01*
X198374000Y-150609300D01*
X209550000Y-150609300D01*
X209739543Y-150571598D01*
X209739544Y-150571598D01*
X209900230Y-150464230D01*
X214218230Y-146146230D01*
X214325598Y-145985544D01*
X214325598Y-145985543D01*
X214363300Y-145796000D01*
X214363300Y-153555700D01*
X211903300Y-153555700D01*
X211903300Y-153138260D01*
X211903300Y-152991741D01*
X211903300Y-151869775D01*
X211903300Y-151660225D01*
X211903300Y-150538259D01*
X211903300Y-150391740D01*
X211847229Y-150256375D01*
X211743625Y-150152770D01*
X211608259Y-150096700D01*
X211139775Y-150096700D01*
X211047700Y-150188775D01*
X211047700Y-151752300D01*
X211811225Y-151752300D01*
X211903300Y-151660225D01*
X211903300Y-151869775D01*
X211811225Y-151777700D01*
X211047700Y-151777700D01*
X211047700Y-153341225D01*
X211139775Y-153433300D01*
X211608259Y-153433300D01*
X211743625Y-153377230D01*
X211847229Y-153273625D01*
X211903300Y-153138260D01*
X211903300Y-153555700D01*
X211022300Y-153555700D01*
X211022300Y-153341225D01*
X211022300Y-151777700D01*
X211022300Y-151752300D01*
X211022300Y-150188775D01*
X210930225Y-150096700D01*
X210461741Y-150096700D01*
X210326375Y-150152770D01*
X210222771Y-150256375D01*
X210166700Y-150391740D01*
X210166700Y-150538259D01*
X210166700Y-151660225D01*
X210258775Y-151752300D01*
X211022300Y-151752300D01*
X211022300Y-151777700D01*
X210258775Y-151777700D01*
X210166700Y-151869775D01*
X210166700Y-152991741D01*
X210166700Y-153138260D01*
X210222771Y-153273625D01*
X210326375Y-153377230D01*
X210461741Y-153433300D01*
X210930225Y-153433300D01*
X211022300Y-153341225D01*
X211022300Y-153555700D01*
X197503300Y-153555700D01*
X197503300Y-153138260D01*
X197503300Y-152991741D01*
X197503300Y-151869775D01*
X197503300Y-151660225D01*
X197503300Y-150538259D01*
X197503300Y-150391740D01*
X197447229Y-150256375D01*
X197343625Y-150152770D01*
X197208259Y-150096700D01*
X196739775Y-150096700D01*
X196647700Y-150188775D01*
X196647700Y-151752300D01*
X197411225Y-151752300D01*
X197503300Y-151660225D01*
X197503300Y-151869775D01*
X197411225Y-151777700D01*
X196647700Y-151777700D01*
X196647700Y-153341225D01*
X196739775Y-153433300D01*
X197208259Y-153433300D01*
X197343625Y-153377230D01*
X197447229Y-153273625D01*
X197503300Y-153138260D01*
X197503300Y-153555700D01*
X196622300Y-153555700D01*
X196622300Y-153341225D01*
X196622300Y-151777700D01*
X196622300Y-151752300D01*
X196622300Y-150188775D01*
X196530225Y-150096700D01*
X196061741Y-150096700D01*
X195926375Y-150152770D01*
X195822771Y-150256375D01*
X195766700Y-150391740D01*
X195766700Y-150538259D01*
X195766700Y-151660225D01*
X195858775Y-151752300D01*
X196622300Y-151752300D01*
X196622300Y-151777700D01*
X195858775Y-151777700D01*
X195766700Y-151869775D01*
X195766700Y-152991741D01*
X195766700Y-153138260D01*
X195822771Y-153273625D01*
X195926375Y-153377230D01*
X196061741Y-153433300D01*
X196530225Y-153433300D01*
X196622300Y-153341225D01*
X196622300Y-153555700D01*
X192118260Y-153555700D01*
X192118260Y-150809576D01*
X191872456Y-150214685D01*
X191417709Y-149759143D01*
X190823248Y-149512302D01*
X190179576Y-149511740D01*
X189584685Y-149757544D01*
X189129143Y-150212291D01*
X188882302Y-150806752D01*
X188881740Y-151450424D01*
X189127544Y-152045315D01*
X189582291Y-152500857D01*
X190176752Y-152747698D01*
X190820424Y-152748260D01*
X191415315Y-152502456D01*
X191870857Y-152047709D01*
X192117698Y-151453248D01*
X192118260Y-150809576D01*
X192118260Y-153555700D01*
X174568034Y-153555700D01*
X174568034Y-153325500D01*
X174568034Y-151348900D01*
X174104300Y-151348900D01*
X174104300Y-149679259D01*
X174104300Y-148694775D01*
X174104300Y-148485225D01*
X174104300Y-147500741D01*
X174048230Y-147365375D01*
X173944625Y-147261771D01*
X173809260Y-147205700D01*
X173662741Y-147205700D01*
X173474757Y-147205700D01*
X173698848Y-147055968D01*
X173998926Y-146606869D01*
X174104300Y-146077120D01*
X174104300Y-146022880D01*
X173998926Y-145493131D01*
X173698848Y-145044032D01*
X173249749Y-144743954D01*
X172720000Y-144638580D01*
X172190251Y-144743954D01*
X171741152Y-145044032D01*
X171441074Y-145493131D01*
X171335700Y-146022880D01*
X171335700Y-146077120D01*
X171441074Y-146606869D01*
X171741152Y-147055968D01*
X171965242Y-147205700D01*
X171777259Y-147205700D01*
X171630740Y-147205700D01*
X171495375Y-147261771D01*
X171391770Y-147365375D01*
X171335700Y-147500741D01*
X171335700Y-148485225D01*
X171427775Y-148577300D01*
X172707300Y-148577300D01*
X172707300Y-148557300D01*
X172732700Y-148557300D01*
X172732700Y-148577300D01*
X174012225Y-148577300D01*
X174104300Y-148485225D01*
X174104300Y-148694775D01*
X174012225Y-148602700D01*
X172732700Y-148602700D01*
X172732700Y-149882225D01*
X172824775Y-149974300D01*
X173662741Y-149974300D01*
X173809260Y-149974300D01*
X173944625Y-149918229D01*
X174048230Y-149814625D01*
X174104300Y-149679259D01*
X174104300Y-151348900D01*
X172707300Y-151348900D01*
X172707300Y-149882225D01*
X172707300Y-148602700D01*
X171427775Y-148602700D01*
X171335700Y-148694775D01*
X171335700Y-149679259D01*
X171391770Y-149814625D01*
X171495375Y-149918229D01*
X171630740Y-149974300D01*
X171777259Y-149974300D01*
X172615225Y-149974300D01*
X172707300Y-149882225D01*
X172707300Y-151348900D01*
X166734767Y-151348900D01*
X166734767Y-153325500D01*
X174568034Y-153325500D01*
X174568034Y-153555700D01*
X166484300Y-153555700D01*
X166484300Y-105524300D01*
X214515700Y-105524300D01*
X214515700Y-153555700D01*
X214515700Y-153555700D01*
G37*
X214515700Y-153555700D02*
X214363300Y-153555700D01*
X214363300Y-145796000D01*
X214363300Y-133858000D01*
X214325598Y-133668457D01*
X214325597Y-133668456D01*
X214218230Y-133507770D01*
X213710230Y-132999770D01*
X213549544Y-132892402D01*
X213360000Y-132854700D01*
X212549160Y-132854700D01*
X211921700Y-132227240D01*
X211921700Y-132204941D01*
X211921700Y-131304941D01*
X211865630Y-131169575D01*
X211762254Y-131066200D01*
X211865629Y-130962825D01*
X211921700Y-130827460D01*
X211921700Y-130680941D01*
X211921700Y-130009900D01*
X212185100Y-130009900D01*
X212185100Y-130827459D01*
X212241170Y-130962825D01*
X212344545Y-131066199D01*
X212241171Y-131169575D01*
X212185100Y-131304940D01*
X212185100Y-131451459D01*
X212185100Y-132351459D01*
X212241170Y-132486825D01*
X212344775Y-132590429D01*
X212480140Y-132646500D01*
X212626659Y-132646500D01*
X213126659Y-132646500D01*
X213262025Y-132590430D01*
X213365629Y-132486825D01*
X213421700Y-132351460D01*
X213421700Y-132204941D01*
X213421700Y-131304941D01*
X213365630Y-131169575D01*
X213309900Y-131113845D01*
X213309900Y-131018554D01*
X213365629Y-130962825D01*
X213421700Y-130827460D01*
X213421700Y-130680941D01*
X213421700Y-129780941D01*
X213365630Y-129645575D01*
X213262254Y-129542200D01*
X213365629Y-129438825D01*
X213421700Y-129303460D01*
X213421700Y-129156941D01*
X213421700Y-128884975D01*
X213421700Y-128675425D01*
X213421700Y-128403459D01*
X213421700Y-128256940D01*
X213365629Y-128121575D01*
X213262025Y-128017970D01*
X213126659Y-127961900D01*
X212908175Y-127961900D01*
X212816100Y-128053975D01*
X212816100Y-128767500D01*
X213329625Y-128767500D01*
X213421700Y-128675425D01*
X213421700Y-128884975D01*
X213329625Y-128792900D01*
X212816100Y-128792900D01*
X212816100Y-128812900D01*
X212790700Y-128812900D01*
X212790700Y-128792900D01*
X212790700Y-128767500D01*
X212790700Y-128053975D01*
X212698625Y-127961900D01*
X212480141Y-127961900D01*
X212344775Y-128017970D01*
X212241171Y-128121575D01*
X212185100Y-128256940D01*
X212185100Y-128403459D01*
X212185100Y-128675425D01*
X212277175Y-128767500D01*
X212790700Y-128767500D01*
X212790700Y-128792900D01*
X212277175Y-128792900D01*
X212185100Y-128884975D01*
X212185100Y-129070100D01*
X211921700Y-129070100D01*
X211921700Y-128256941D01*
X211865630Y-128121575D01*
X211762025Y-128017971D01*
X211626660Y-127961900D01*
X211480141Y-127961900D01*
X211064146Y-127961900D01*
X211001460Y-127810187D01*
X210773016Y-127581343D01*
X210596319Y-127507972D01*
X210771813Y-127435460D01*
X211000657Y-127207016D01*
X211124659Y-126908385D01*
X211124778Y-126771160D01*
X211721806Y-127368187D01*
X211721809Y-127368191D01*
X211823073Y-127435853D01*
X211890736Y-127481064D01*
X211890737Y-127481064D01*
X211939421Y-127490748D01*
X212136984Y-127688657D01*
X212435615Y-127812659D01*
X212758967Y-127812941D01*
X213057813Y-127689460D01*
X213286657Y-127461016D01*
X213410659Y-127162385D01*
X213410941Y-126839033D01*
X213287460Y-126540187D01*
X213220689Y-126473300D01*
X213313259Y-126473300D01*
X213448625Y-126417230D01*
X213552229Y-126313625D01*
X213608300Y-126178260D01*
X213608300Y-126031741D01*
X213608300Y-125834775D01*
X213608300Y-125625225D01*
X213608300Y-125428259D01*
X213608300Y-125281740D01*
X213552229Y-125146375D01*
X213448625Y-125042770D01*
X213313259Y-124986700D01*
X212944775Y-124986700D01*
X212852700Y-125078775D01*
X212852700Y-125717300D01*
X213516225Y-125717300D01*
X213608300Y-125625225D01*
X213608300Y-125834775D01*
X213516225Y-125742700D01*
X212852700Y-125742700D01*
X212852700Y-125762700D01*
X212827300Y-125762700D01*
X212827300Y-125742700D01*
X212807300Y-125742700D01*
X212807300Y-125717300D01*
X212827300Y-125717300D01*
X212827300Y-125078775D01*
X212735225Y-124986700D01*
X212366741Y-124986700D01*
X212231375Y-125042770D01*
X212127771Y-125146375D01*
X212090000Y-125237560D01*
X212052230Y-125146375D01*
X211948625Y-125042771D01*
X211911500Y-125027393D01*
X211911500Y-122186700D01*
X211903300Y-122145476D01*
X211903300Y-108688260D01*
X211903300Y-108541741D01*
X211903300Y-107419775D01*
X211903300Y-107210225D01*
X211903300Y-106088259D01*
X211903300Y-105941740D01*
X211847229Y-105806375D01*
X211743625Y-105702770D01*
X211608259Y-105646700D01*
X211139775Y-105646700D01*
X211047700Y-105738775D01*
X211047700Y-107302300D01*
X211811225Y-107302300D01*
X211903300Y-107210225D01*
X211903300Y-107419775D01*
X211811225Y-107327700D01*
X211047700Y-107327700D01*
X211047700Y-108891225D01*
X211139775Y-108983300D01*
X211608259Y-108983300D01*
X211743625Y-108927230D01*
X211847229Y-108823625D01*
X211903300Y-108688260D01*
X211903300Y-122145476D01*
X211867997Y-121967997D01*
X211867997Y-121967996D01*
X211744112Y-121782588D01*
X211744108Y-121782585D01*
X211022300Y-121060776D01*
X211022300Y-108891225D01*
X211022300Y-107327700D01*
X211022300Y-107302300D01*
X211022300Y-105738775D01*
X210930225Y-105646700D01*
X210461741Y-105646700D01*
X210326375Y-105702770D01*
X210222771Y-105806375D01*
X210166700Y-105941740D01*
X210166700Y-106088259D01*
X210166700Y-107210225D01*
X210258775Y-107302300D01*
X211022300Y-107302300D01*
X211022300Y-107327700D01*
X210258775Y-107327700D01*
X210166700Y-107419775D01*
X210166700Y-108541741D01*
X210166700Y-108688260D01*
X210222771Y-108823625D01*
X210326375Y-108927230D01*
X210461741Y-108983300D01*
X210930225Y-108983300D01*
X211022300Y-108891225D01*
X211022300Y-121060776D01*
X210759270Y-120797746D01*
X210759270Y-119438481D01*
X210759270Y-118817919D01*
X210759270Y-117874075D01*
X210759270Y-117664525D01*
X210759270Y-116720681D01*
X210703200Y-116585315D01*
X210599595Y-116481711D01*
X210464230Y-116425640D01*
X210317711Y-116425640D01*
X209745175Y-116425640D01*
X209653100Y-116517715D01*
X209653100Y-117756600D01*
X210667195Y-117756600D01*
X210759270Y-117664525D01*
X210759270Y-117874075D01*
X210667195Y-117782000D01*
X209653100Y-117782000D01*
X209653100Y-119020885D01*
X209745175Y-119112960D01*
X210317711Y-119112960D01*
X210464230Y-119112960D01*
X210599595Y-119056889D01*
X210703200Y-118953285D01*
X210759270Y-118817919D01*
X210759270Y-119438481D01*
X210703200Y-119303115D01*
X210599595Y-119199511D01*
X210464230Y-119143440D01*
X210317711Y-119143440D01*
X209627700Y-119143440D01*
X209627700Y-119020885D01*
X209627700Y-117782000D01*
X209627700Y-117756600D01*
X209627700Y-116517715D01*
X209535625Y-116425640D01*
X208963089Y-116425640D01*
X208816570Y-116425640D01*
X208681205Y-116481711D01*
X208577600Y-116585315D01*
X208521530Y-116720681D01*
X208521530Y-117664525D01*
X208613605Y-117756600D01*
X209627700Y-117756600D01*
X209627700Y-117782000D01*
X208613605Y-117782000D01*
X208521530Y-117874075D01*
X208521530Y-118817919D01*
X208577600Y-118953285D01*
X208681205Y-119056889D01*
X208816570Y-119112960D01*
X208963089Y-119112960D01*
X209535625Y-119112960D01*
X209627700Y-119020885D01*
X209627700Y-119143440D01*
X208816571Y-119143440D01*
X208681205Y-119199510D01*
X208577601Y-119303115D01*
X208521530Y-119438480D01*
X208521530Y-119584999D01*
X208521530Y-121535719D01*
X208577600Y-121671085D01*
X208681205Y-121774689D01*
X208816570Y-121830760D01*
X208963089Y-121830760D01*
X210175836Y-121830760D01*
X210768500Y-122423423D01*
X210768500Y-123769467D01*
X210474385Y-123647341D01*
X210151033Y-123647059D01*
X209852187Y-123770540D01*
X209623343Y-123998984D01*
X209499341Y-124297615D01*
X209499291Y-124354169D01*
X209346759Y-124506701D01*
X209346941Y-124299033D01*
X209223460Y-124000187D01*
X208995016Y-123771343D01*
X208696385Y-123647341D01*
X208373033Y-123647059D01*
X208074187Y-123770540D01*
X207959960Y-123884567D01*
X207959960Y-114014578D01*
X209120269Y-112854270D01*
X209120269Y-112854269D01*
X209120271Y-112854266D01*
X209167269Y-112807270D01*
X209167269Y-112807269D01*
X209269131Y-112654823D01*
X209304899Y-112475000D01*
X209304900Y-112475000D01*
X209304900Y-111913980D01*
X209393625Y-111877230D01*
X209497229Y-111773625D01*
X209553300Y-111638260D01*
X209553300Y-111491741D01*
X209553300Y-109791741D01*
X209497230Y-109656375D01*
X209393625Y-109552771D01*
X209258260Y-109496700D01*
X209111741Y-109496700D01*
X208411741Y-109496700D01*
X208276375Y-109552770D01*
X208210000Y-109619145D01*
X208143625Y-109552771D01*
X208008260Y-109496700D01*
X207861741Y-109496700D01*
X207161741Y-109496700D01*
X207026375Y-109552770D01*
X206960000Y-109619145D01*
X206893625Y-109552771D01*
X206758260Y-109496700D01*
X206611741Y-109496700D01*
X205911741Y-109496700D01*
X205776375Y-109552770D01*
X205710000Y-109619145D01*
X205643625Y-109552771D01*
X205508260Y-109496700D01*
X205361741Y-109496700D01*
X204661741Y-109496700D01*
X204526375Y-109552770D01*
X204460000Y-109619145D01*
X204393625Y-109552771D01*
X204258260Y-109496700D01*
X204111741Y-109496700D01*
X203411741Y-109496700D01*
X203276375Y-109552770D01*
X203210000Y-109619145D01*
X203143625Y-109552771D01*
X203008260Y-109496700D01*
X202861741Y-109496700D01*
X202161741Y-109496700D01*
X202026375Y-109552770D01*
X201960000Y-109619145D01*
X201893625Y-109552771D01*
X201758260Y-109496700D01*
X201611741Y-109496700D01*
X200911741Y-109496700D01*
X200776375Y-109552770D01*
X200710000Y-109619145D01*
X200643625Y-109552771D01*
X200508260Y-109496700D01*
X200361741Y-109496700D01*
X199661741Y-109496700D01*
X199526375Y-109552770D01*
X199460000Y-109619145D01*
X199393625Y-109552771D01*
X199258260Y-109496700D01*
X199111741Y-109496700D01*
X198411741Y-109496700D01*
X198276375Y-109552770D01*
X198172771Y-109656375D01*
X198116700Y-109791740D01*
X198116700Y-109938259D01*
X198116700Y-111638259D01*
X198172770Y-111773625D01*
X198263500Y-111864354D01*
X198263500Y-114355189D01*
X198186775Y-114386970D01*
X198083171Y-114490575D01*
X198027100Y-114625940D01*
X198027100Y-114772459D01*
X198027100Y-115272459D01*
X198083170Y-115407825D01*
X198186775Y-115511429D01*
X198322140Y-115567500D01*
X198468659Y-115567500D01*
X199302476Y-115567500D01*
X201767285Y-118032308D01*
X201767288Y-118032312D01*
X201952696Y-118156197D01*
X201952697Y-118156197D01*
X201988982Y-118163414D01*
X201995100Y-118164631D01*
X201995100Y-118201459D01*
X202051170Y-118336825D01*
X202154775Y-118440429D01*
X202290140Y-118496500D01*
X202436659Y-118496500D01*
X203367161Y-118496500D01*
X204020420Y-119149758D01*
X204020420Y-119759900D01*
X203890141Y-119759900D01*
X203268175Y-119759900D01*
X203176100Y-119851975D01*
X203176100Y-120615500D01*
X203196100Y-120615500D01*
X203196100Y-120640900D01*
X203176100Y-120640900D01*
X203176100Y-121404425D01*
X203268175Y-121496500D01*
X203890141Y-121496500D01*
X204020420Y-121496500D01*
X204020420Y-123972320D01*
X204020420Y-124361881D01*
X202145900Y-122487361D01*
X202145900Y-121431554D01*
X202154775Y-121440429D01*
X202290140Y-121496500D01*
X202436659Y-121496500D01*
X203058625Y-121496500D01*
X203150700Y-121404425D01*
X203150700Y-120640900D01*
X203130700Y-120640900D01*
X203130700Y-120615500D01*
X203150700Y-120615500D01*
X203150700Y-119851975D01*
X203058625Y-119759900D01*
X202436659Y-119759900D01*
X202290140Y-119759900D01*
X202154775Y-119815971D01*
X202069450Y-119901294D01*
X202008269Y-119809731D01*
X200369269Y-118170731D01*
X200216823Y-118068869D01*
X200037000Y-118033100D01*
X199625300Y-118033100D01*
X199625300Y-118029741D01*
X199569230Y-117894375D01*
X199465625Y-117790771D01*
X199330260Y-117734700D01*
X199183741Y-117734700D01*
X198433741Y-117734700D01*
X198298375Y-117790770D01*
X198194771Y-117894375D01*
X198138700Y-118029740D01*
X198138700Y-118033100D01*
X197946600Y-118033100D01*
X197766777Y-118068869D01*
X197614331Y-118170730D01*
X196788941Y-118996120D01*
X196740141Y-118996120D01*
X195978141Y-118996120D01*
X195842775Y-119052190D01*
X195739171Y-119155795D01*
X195683100Y-119291160D01*
X195683100Y-119437679D01*
X195683100Y-119869479D01*
X195729032Y-119980370D01*
X195683100Y-120091260D01*
X195683100Y-120237779D01*
X195683100Y-120669579D01*
X195728506Y-120779200D01*
X195683100Y-120888820D01*
X195683100Y-121035339D01*
X195683100Y-121467139D01*
X195729032Y-121578030D01*
X195683100Y-121688920D01*
X195683100Y-121835439D01*
X195683100Y-122267239D01*
X195739170Y-122402605D01*
X195842775Y-122506209D01*
X195978140Y-122562280D01*
X196124659Y-122562280D01*
X196352061Y-122562280D01*
X196550051Y-122760270D01*
X196702497Y-122862131D01*
X196882320Y-122897900D01*
X198138700Y-122897900D01*
X198138700Y-123651259D01*
X198194770Y-123786625D01*
X198298375Y-123890229D01*
X198386700Y-123926815D01*
X198386700Y-124104184D01*
X198298375Y-124140770D01*
X198194771Y-124244375D01*
X198138700Y-124379740D01*
X198138700Y-124383100D01*
X197946600Y-124383100D01*
X197766777Y-124418869D01*
X197614331Y-124520730D01*
X196788941Y-125346120D01*
X196740141Y-125346120D01*
X195978141Y-125346120D01*
X195842775Y-125402190D01*
X195739171Y-125505795D01*
X195683100Y-125641160D01*
X195683100Y-125787679D01*
X195683100Y-126219479D01*
X195729032Y-126330370D01*
X195683100Y-126441260D01*
X195683100Y-126587779D01*
X195683100Y-127019579D01*
X195728506Y-127129200D01*
X195683100Y-127238820D01*
X195683100Y-127385339D01*
X195683100Y-127817139D01*
X195729032Y-127928030D01*
X195683100Y-128038920D01*
X195683100Y-128185439D01*
X195683100Y-128617239D01*
X195739170Y-128752605D01*
X195842775Y-128856209D01*
X195978140Y-128912280D01*
X196124659Y-128912280D01*
X196352061Y-128912280D01*
X196550051Y-129110270D01*
X196702497Y-129212131D01*
X196882320Y-129247900D01*
X198138700Y-129247900D01*
X198138700Y-130001259D01*
X198194770Y-130136625D01*
X198298375Y-130240229D01*
X198386700Y-130276815D01*
X198386700Y-130454184D01*
X198298375Y-130490770D01*
X198194771Y-130594375D01*
X198138700Y-130729740D01*
X198138700Y-130733100D01*
X197946600Y-130733100D01*
X197766777Y-130768869D01*
X197614331Y-130870730D01*
X196788941Y-131696120D01*
X196740141Y-131696120D01*
X195978141Y-131696120D01*
X195842775Y-131752190D01*
X195739171Y-131855795D01*
X195683100Y-131991160D01*
X195683100Y-132137679D01*
X195683100Y-132569479D01*
X195729032Y-132680370D01*
X195683100Y-132791260D01*
X195683100Y-132937779D01*
X195683100Y-133369579D01*
X195728506Y-133479200D01*
X195683100Y-133588820D01*
X195683100Y-133735339D01*
X195683100Y-134167139D01*
X195729032Y-134278030D01*
X195683100Y-134388920D01*
X195683100Y-134535439D01*
X195683100Y-134967239D01*
X195739170Y-135102605D01*
X195842775Y-135206209D01*
X195978140Y-135262280D01*
X196124659Y-135262280D01*
X196352061Y-135262280D01*
X196550051Y-135460270D01*
X196702497Y-135562131D01*
X196882320Y-135597900D01*
X198138700Y-135597900D01*
X198138700Y-136351259D01*
X198194770Y-136486625D01*
X198298375Y-136590229D01*
X198350100Y-136611654D01*
X198350100Y-137825900D01*
X198322141Y-137825900D01*
X198186775Y-137881970D01*
X198083171Y-137985575D01*
X198027100Y-138120940D01*
X198027100Y-138267459D01*
X198027100Y-138767459D01*
X198083170Y-138902825D01*
X198186775Y-139006429D01*
X198322140Y-139062500D01*
X198468659Y-139062500D01*
X199368659Y-139062500D01*
X199504025Y-139006430D01*
X199607629Y-138902825D01*
X199663700Y-138767460D01*
X199663700Y-138620941D01*
X199663700Y-138120941D01*
X199607630Y-137985575D01*
X199504025Y-137881971D01*
X199368660Y-137825900D01*
X199340700Y-137825900D01*
X199340700Y-136641975D01*
X199465625Y-136590230D01*
X199569229Y-136486625D01*
X199625300Y-136351260D01*
X199625300Y-136347900D01*
X199910000Y-136347900D01*
X199910000Y-136347899D01*
X200089823Y-136312131D01*
X200242269Y-136210269D01*
X200738269Y-135714269D01*
X200738270Y-135714269D01*
X200840131Y-135561823D01*
X200875899Y-135382000D01*
X200875900Y-135382000D01*
X200875900Y-133290638D01*
X201079100Y-133087438D01*
X201079100Y-133477000D01*
X201114869Y-133656823D01*
X201206100Y-133793358D01*
X201206100Y-135636000D01*
X201206100Y-144780000D01*
X201241869Y-144959823D01*
X201343731Y-145112269D01*
X202115100Y-145883638D01*
X202115100Y-147166019D01*
X202026375Y-147202770D01*
X201960000Y-147269145D01*
X201893625Y-147202771D01*
X201804900Y-147166019D01*
X201804900Y-146471000D01*
X201769131Y-146291177D01*
X201667269Y-146138731D01*
X201599671Y-146071133D01*
X201599941Y-145762033D01*
X201476460Y-145463187D01*
X201248016Y-145234343D01*
X200949385Y-145110341D01*
X200626033Y-145110059D01*
X200327187Y-145233540D01*
X200098343Y-145461984D01*
X199974341Y-145760615D01*
X199974059Y-146083967D01*
X200097540Y-146382813D01*
X200325984Y-146611657D01*
X200624615Y-146735659D01*
X200865100Y-146735868D01*
X200865100Y-147166019D01*
X200776375Y-147202770D01*
X200710000Y-147269145D01*
X200643625Y-147202771D01*
X200508260Y-147146700D01*
X200487435Y-147146700D01*
X200435230Y-147068570D01*
X199957630Y-146590970D01*
X199796944Y-146483602D01*
X199663700Y-146457098D01*
X199663700Y-143442459D01*
X199663700Y-143223975D01*
X199663700Y-143014425D01*
X199663700Y-142795941D01*
X199663700Y-141942460D01*
X199663700Y-141795941D01*
X199663700Y-141295941D01*
X199607630Y-141160575D01*
X199504025Y-141056971D01*
X199368660Y-141000900D01*
X199340700Y-141000900D01*
X199340700Y-140562500D01*
X199368659Y-140562500D01*
X199504025Y-140506430D01*
X199607629Y-140402825D01*
X199663700Y-140267460D01*
X199663700Y-140120941D01*
X199663700Y-139620941D01*
X199607630Y-139485575D01*
X199504025Y-139381971D01*
X199368660Y-139325900D01*
X199222141Y-139325900D01*
X198322141Y-139325900D01*
X198186775Y-139381970D01*
X198083171Y-139485575D01*
X198027100Y-139620940D01*
X198027100Y-139767459D01*
X198027100Y-140267459D01*
X198083170Y-140402825D01*
X198186775Y-140506429D01*
X198322140Y-140562500D01*
X198350100Y-140562500D01*
X198350100Y-141000900D01*
X198322141Y-141000900D01*
X198186775Y-141056970D01*
X198119845Y-141123900D01*
X197944400Y-141123900D01*
X197754857Y-141161602D01*
X197594170Y-141268970D01*
X195403700Y-143459440D01*
X195403700Y-135245280D01*
X195498025Y-135206210D01*
X195601629Y-135102605D01*
X195657700Y-134967240D01*
X195657700Y-134820721D01*
X195657700Y-134388921D01*
X195611767Y-134278029D01*
X195657700Y-134167140D01*
X195657700Y-134020621D01*
X195657700Y-133588821D01*
X195612293Y-133479199D01*
X195657700Y-133369580D01*
X195657700Y-133223061D01*
X195657700Y-132791261D01*
X195611767Y-132680369D01*
X195657700Y-132569480D01*
X195657700Y-132422961D01*
X195657700Y-131991161D01*
X195601630Y-131855795D01*
X195498025Y-131752191D01*
X195362660Y-131696120D01*
X195216141Y-131696120D01*
X194454141Y-131696120D01*
X194318775Y-131752190D01*
X194285945Y-131785020D01*
X194041680Y-131785020D01*
X193798130Y-131541470D01*
X193637444Y-131434102D01*
X193447900Y-131396400D01*
X193258356Y-131434102D01*
X193097670Y-131541470D01*
X192990302Y-131702156D01*
X192953640Y-131886471D01*
X192953640Y-131818781D01*
X192897570Y-131683415D01*
X192793965Y-131579811D01*
X192658600Y-131523740D01*
X192512081Y-131523740D01*
X192363700Y-131523740D01*
X192363700Y-130827460D01*
X192363700Y-130680941D01*
X192363700Y-130408975D01*
X192271625Y-130316900D01*
X191758100Y-130316900D01*
X191758100Y-131030425D01*
X191850175Y-131122500D01*
X192068659Y-131122500D01*
X192204025Y-131066430D01*
X192307629Y-130962825D01*
X192363700Y-130827460D01*
X192363700Y-131523740D01*
X191511321Y-131523740D01*
X191375955Y-131579810D01*
X191339700Y-131616065D01*
X191339700Y-131088352D01*
X191422141Y-131122500D01*
X191640625Y-131122500D01*
X191732700Y-131030425D01*
X191732700Y-130316900D01*
X191712700Y-130316900D01*
X191712700Y-130291500D01*
X191732700Y-130291500D01*
X191732700Y-130271500D01*
X191758100Y-130271500D01*
X191758100Y-130291500D01*
X192271625Y-130291500D01*
X192363700Y-130199425D01*
X192363700Y-129927459D01*
X192363700Y-129780940D01*
X192307629Y-129645575D01*
X192281954Y-129619900D01*
X192708845Y-129619900D01*
X192683171Y-129645575D01*
X192627100Y-129780940D01*
X192627100Y-129927459D01*
X192627100Y-130827459D01*
X192683170Y-130962825D01*
X192786775Y-131066429D01*
X192922140Y-131122500D01*
X193068659Y-131122500D01*
X193568659Y-131122500D01*
X193704025Y-131066430D01*
X193807629Y-130962825D01*
X193863700Y-130827460D01*
X193863700Y-130799500D01*
X193873364Y-130799500D01*
X194066384Y-130992857D01*
X194365015Y-131116859D01*
X194688367Y-131117141D01*
X194987213Y-130993660D01*
X195216057Y-130765216D01*
X195289427Y-130588519D01*
X195361940Y-130764013D01*
X195590384Y-130992857D01*
X195889015Y-131116859D01*
X196212367Y-131117141D01*
X196511213Y-130993660D01*
X196740057Y-130765216D01*
X196864059Y-130466585D01*
X196864341Y-130143233D01*
X196740860Y-129844387D01*
X196512416Y-129615543D01*
X196213785Y-129491541D01*
X195938961Y-129491301D01*
X195403700Y-128956040D01*
X195403700Y-128895280D01*
X195498025Y-128856210D01*
X195601629Y-128752605D01*
X195657700Y-128617240D01*
X195657700Y-128470721D01*
X195657700Y-128038921D01*
X195611767Y-127928029D01*
X195657700Y-127817140D01*
X195657700Y-127670621D01*
X195657700Y-127238821D01*
X195612293Y-127129199D01*
X195657700Y-127019580D01*
X195657700Y-126873061D01*
X195657700Y-126441261D01*
X195611767Y-126330369D01*
X195657700Y-126219480D01*
X195657700Y-126072961D01*
X195657700Y-125641161D01*
X195601630Y-125505795D01*
X195498025Y-125402191D01*
X195403700Y-125363119D01*
X195403700Y-124843200D01*
X195365998Y-124653657D01*
X195365997Y-124653656D01*
X195258630Y-124492970D01*
X193734630Y-122968970D01*
X193573944Y-122861602D01*
X193384400Y-122823900D01*
X191706500Y-122823900D01*
X191706500Y-122730260D01*
X192084960Y-122730260D01*
X192658599Y-122730260D01*
X192793965Y-122674190D01*
X192897569Y-122570585D01*
X192937833Y-122473380D01*
X194285945Y-122473380D01*
X194318775Y-122506209D01*
X194454140Y-122562280D01*
X194600659Y-122562280D01*
X195362659Y-122562280D01*
X195498025Y-122506210D01*
X195601629Y-122402605D01*
X195657700Y-122267240D01*
X195657700Y-122120721D01*
X195657700Y-121688921D01*
X195611767Y-121578029D01*
X195657700Y-121467140D01*
X195657700Y-121320621D01*
X195657700Y-120888821D01*
X195612293Y-120779199D01*
X195657700Y-120669580D01*
X195657700Y-120523061D01*
X195657700Y-120091261D01*
X195611767Y-119980369D01*
X195657700Y-119869480D01*
X195657700Y-119722961D01*
X195657700Y-119291161D01*
X195601630Y-119155795D01*
X195498025Y-119052191D01*
X195403700Y-119013119D01*
X195403700Y-118698360D01*
X197157560Y-116944500D01*
X198119845Y-116944500D01*
X198186775Y-117011429D01*
X198322140Y-117067500D01*
X198468659Y-117067500D01*
X199368659Y-117067500D01*
X199504025Y-117011430D01*
X199607629Y-116907825D01*
X199663700Y-116772460D01*
X199663700Y-116625941D01*
X199663700Y-116125941D01*
X199607630Y-115990575D01*
X199504025Y-115886971D01*
X199368660Y-115830900D01*
X199222141Y-115830900D01*
X198322141Y-115830900D01*
X198186775Y-115886970D01*
X198119845Y-115953900D01*
X197503300Y-115953900D01*
X197503300Y-108688260D01*
X197503300Y-108541741D01*
X197503300Y-107419775D01*
X197503300Y-107210225D01*
X197503300Y-106088259D01*
X197503300Y-105941740D01*
X197447229Y-105806375D01*
X197343625Y-105702770D01*
X197208259Y-105646700D01*
X196739775Y-105646700D01*
X196647700Y-105738775D01*
X196647700Y-107302300D01*
X197411225Y-107302300D01*
X197503300Y-107210225D01*
X197503300Y-107419775D01*
X197411225Y-107327700D01*
X196647700Y-107327700D01*
X196647700Y-108891225D01*
X196739775Y-108983300D01*
X197208259Y-108983300D01*
X197343625Y-108927230D01*
X197447229Y-108823625D01*
X197503300Y-108688260D01*
X197503300Y-115953900D01*
X197157560Y-115953900D01*
X196622300Y-115418640D01*
X196622300Y-108891225D01*
X196622300Y-107327700D01*
X196622300Y-107302300D01*
X196622300Y-105738775D01*
X196530225Y-105646700D01*
X196061741Y-105646700D01*
X195926375Y-105702770D01*
X195822771Y-105806375D01*
X195766700Y-105941740D01*
X195766700Y-106088259D01*
X195766700Y-107210225D01*
X195858775Y-107302300D01*
X196622300Y-107302300D01*
X196622300Y-107327700D01*
X195858775Y-107327700D01*
X195766700Y-107419775D01*
X195766700Y-108541741D01*
X195766700Y-108688260D01*
X195822771Y-108823625D01*
X195926375Y-108927230D01*
X196061741Y-108983300D01*
X196530225Y-108983300D01*
X196622300Y-108891225D01*
X196622300Y-115418640D01*
X193832630Y-112628970D01*
X193671944Y-112521602D01*
X193482400Y-112483900D01*
X192118260Y-112483900D01*
X192118260Y-107629576D01*
X191872456Y-107034685D01*
X191417709Y-106579143D01*
X190823248Y-106332302D01*
X190179576Y-106331740D01*
X189584685Y-106577544D01*
X189129143Y-107032291D01*
X188882302Y-107626752D01*
X188881740Y-108270424D01*
X189127544Y-108865315D01*
X189582291Y-109320857D01*
X190176752Y-109567698D01*
X190820424Y-109568260D01*
X191415315Y-109322456D01*
X191870857Y-108867709D01*
X192117698Y-108273248D01*
X192118260Y-107629576D01*
X192118260Y-112483900D01*
X189268700Y-112483900D01*
X189268700Y-112455941D01*
X189212630Y-112320575D01*
X189109025Y-112216971D01*
X188973660Y-112160900D01*
X188827141Y-112160900D01*
X187127141Y-112160900D01*
X186991775Y-112216970D01*
X186902645Y-112306100D01*
X186023154Y-112306100D01*
X185934025Y-112216971D01*
X185798660Y-112160900D01*
X185652141Y-112160900D01*
X183952141Y-112160900D01*
X183816775Y-112216970D01*
X183727645Y-112306100D01*
X182848154Y-112306100D01*
X182759025Y-112216971D01*
X182623660Y-112160900D01*
X182477141Y-112160900D01*
X180777141Y-112160900D01*
X180641775Y-112216970D01*
X180552645Y-112306100D01*
X179673154Y-112306100D01*
X179584025Y-112216971D01*
X179448660Y-112160900D01*
X179302141Y-112160900D01*
X177687200Y-112160900D01*
X177687200Y-110428700D01*
X177649498Y-110239157D01*
X177542130Y-110078470D01*
X177478630Y-110014970D01*
X176079430Y-108615770D01*
X175918744Y-108508402D01*
X175729200Y-108470700D01*
X175260000Y-108470700D01*
X169164000Y-108470700D01*
X168974457Y-108508402D01*
X168813770Y-108615770D01*
X168445470Y-108984070D01*
X168376078Y-109087920D01*
X168323661Y-109087920D01*
X168188295Y-109143990D01*
X168084691Y-109247595D01*
X168028620Y-109382960D01*
X168028620Y-109529479D01*
X168028620Y-110327039D01*
X168068261Y-110422742D01*
X167802385Y-110312341D01*
X167479033Y-110312059D01*
X167180187Y-110435540D01*
X166951343Y-110663984D01*
X166827341Y-110962615D01*
X166827059Y-111285967D01*
X166950540Y-111584813D01*
X167125526Y-111760105D01*
X166951343Y-111933984D01*
X166827341Y-112232615D01*
X166827059Y-112555967D01*
X166950540Y-112854813D01*
X167125526Y-113030105D01*
X166951343Y-113203984D01*
X166827341Y-113502615D01*
X166827059Y-113825967D01*
X166950540Y-114124813D01*
X167125526Y-114300105D01*
X166951343Y-114473984D01*
X166827341Y-114772615D01*
X166827059Y-115095967D01*
X166950540Y-115394813D01*
X167125526Y-115570105D01*
X166951343Y-115743984D01*
X166827341Y-116042615D01*
X166827059Y-116365967D01*
X166950540Y-116664813D01*
X167178984Y-116893657D01*
X167477615Y-117017659D01*
X167800967Y-117017941D01*
X168099813Y-116894460D01*
X168133308Y-116861023D01*
X168188295Y-116916009D01*
X168323660Y-116972080D01*
X168470179Y-116972080D01*
X169267739Y-116972080D01*
X169403105Y-116916010D01*
X169506709Y-116812405D01*
X169544999Y-116719964D01*
X169583290Y-116812405D01*
X169686895Y-116916009D01*
X169822260Y-116972080D01*
X169968779Y-116972080D01*
X170766339Y-116972080D01*
X170901705Y-116916010D01*
X171005309Y-116812405D01*
X171051745Y-116700300D01*
X171351700Y-116700300D01*
X171351700Y-116728259D01*
X171407770Y-116863625D01*
X171511375Y-116967229D01*
X171646740Y-117023300D01*
X171793259Y-117023300D01*
X172293259Y-117023300D01*
X172428625Y-116967230D01*
X172532229Y-116863625D01*
X172588300Y-116728260D01*
X172588300Y-116581741D01*
X172588300Y-115681741D01*
X172542015Y-115569999D01*
X172588300Y-115458260D01*
X172588300Y-115311741D01*
X172588300Y-114411741D01*
X172542015Y-114299999D01*
X172588300Y-114188260D01*
X172588300Y-114041741D01*
X172588300Y-113141741D01*
X172542015Y-113029999D01*
X172588300Y-112918260D01*
X172588300Y-112771741D01*
X172588300Y-111871741D01*
X172542015Y-111759999D01*
X172588300Y-111648260D01*
X172588300Y-111501741D01*
X172588300Y-110601741D01*
X172542015Y-110489999D01*
X172588300Y-110378260D01*
X172588300Y-110231741D01*
X172588300Y-109461300D01*
X172851700Y-109461300D01*
X172851700Y-109478259D01*
X172851700Y-110378259D01*
X172897984Y-110490000D01*
X172851700Y-110601740D01*
X172851700Y-110748259D01*
X172851700Y-111648259D01*
X172897984Y-111760000D01*
X172851700Y-111871740D01*
X172851700Y-112018259D01*
X172851700Y-112918259D01*
X172897984Y-113030000D01*
X172851700Y-113141740D01*
X172851700Y-113288259D01*
X172851700Y-114188259D01*
X172897984Y-114300000D01*
X172851700Y-114411740D01*
X172851700Y-114558259D01*
X172851700Y-115458259D01*
X172897984Y-115570000D01*
X172851700Y-115681740D01*
X172851700Y-115828259D01*
X172851700Y-116728259D01*
X172907770Y-116863625D01*
X173011375Y-116967229D01*
X173146740Y-117023300D01*
X173293259Y-117023300D01*
X173793259Y-117023300D01*
X173928625Y-116967230D01*
X174019605Y-116876248D01*
X174036984Y-116893657D01*
X174335615Y-117017659D01*
X174658967Y-117017941D01*
X174957813Y-116894460D01*
X175186657Y-116666016D01*
X175310659Y-116367385D01*
X175310941Y-116044033D01*
X175187460Y-115745187D01*
X174995305Y-115552696D01*
X175150057Y-115398216D01*
X175274059Y-115099585D01*
X175274341Y-114776233D01*
X175150860Y-114477387D01*
X174975873Y-114302094D01*
X175150057Y-114128216D01*
X175274059Y-113829585D01*
X175274341Y-113506233D01*
X175150860Y-113207387D01*
X174975873Y-113032094D01*
X175150057Y-112858216D01*
X175274059Y-112559585D01*
X175274341Y-112236233D01*
X175150860Y-111937387D01*
X174975873Y-111762094D01*
X175150057Y-111588216D01*
X175274059Y-111289585D01*
X175274341Y-110966233D01*
X175150860Y-110667387D01*
X174975873Y-110492094D01*
X175150057Y-110318216D01*
X175274059Y-110019585D01*
X175274341Y-109696233D01*
X175177268Y-109461300D01*
X175260000Y-109461300D01*
X175524040Y-109461300D01*
X176696600Y-110633860D01*
X176696600Y-112663900D01*
X176125100Y-112663900D01*
X176125100Y-113347199D01*
X175998537Y-113536616D01*
X175947299Y-113794200D01*
X175947300Y-113794205D01*
X175947300Y-116690392D01*
X174874446Y-117763246D01*
X174728537Y-117981616D01*
X174677299Y-118239200D01*
X174677300Y-118239205D01*
X174677300Y-121770392D01*
X173930792Y-122516900D01*
X173902894Y-122516900D01*
X173770605Y-122318915D01*
X173370948Y-122051873D01*
X172899520Y-121958100D01*
X172540480Y-121958100D01*
X172069052Y-122051873D01*
X171669395Y-122318915D01*
X171402353Y-122718572D01*
X171308580Y-123190000D01*
X171402353Y-123661428D01*
X171669395Y-124061085D01*
X172069052Y-124328127D01*
X172540480Y-124421900D01*
X172899520Y-124421900D01*
X173370948Y-124328127D01*
X173770605Y-124061085D01*
X173902894Y-123863100D01*
X174209594Y-123863100D01*
X174209600Y-123863101D01*
X174209600Y-123863100D01*
X174467184Y-123811863D01*
X174685554Y-123665954D01*
X175826350Y-122525156D01*
X175826354Y-122525154D01*
X175826354Y-122525153D01*
X175947300Y-122344144D01*
X175947300Y-123040392D01*
X173930792Y-125056900D01*
X173902894Y-125056900D01*
X173770605Y-124858915D01*
X173370948Y-124591873D01*
X172899520Y-124498100D01*
X172540480Y-124498100D01*
X172069052Y-124591873D01*
X171669395Y-124858915D01*
X171402353Y-125258572D01*
X171308580Y-125730000D01*
X171402353Y-126201428D01*
X171669395Y-126601085D01*
X172069052Y-126868127D01*
X172540480Y-126961900D01*
X172899520Y-126961900D01*
X173370948Y-126868127D01*
X173770605Y-126601085D01*
X173902894Y-126403100D01*
X174209594Y-126403100D01*
X174209600Y-126403101D01*
X174209600Y-126403100D01*
X174467184Y-126351863D01*
X174685554Y-126205954D01*
X176125100Y-124766408D01*
X176125100Y-124777199D01*
X175998537Y-124966616D01*
X175947299Y-125224200D01*
X175947300Y-125224205D01*
X175947300Y-125580392D01*
X173930792Y-127596900D01*
X173902894Y-127596900D01*
X173770605Y-127398915D01*
X173370948Y-127131873D01*
X172899520Y-127038100D01*
X172540480Y-127038100D01*
X172069052Y-127131873D01*
X171669395Y-127398915D01*
X171402353Y-127798572D01*
X171308580Y-128270000D01*
X171402353Y-128741428D01*
X171669395Y-129141085D01*
X172069052Y-129408127D01*
X172540480Y-129501900D01*
X172899520Y-129501900D01*
X173370948Y-129408127D01*
X173770605Y-129141085D01*
X173902894Y-128943100D01*
X174209594Y-128943100D01*
X174209600Y-128943101D01*
X174209600Y-128943100D01*
X174467184Y-128891863D01*
X174685554Y-128745954D01*
X176125100Y-127306408D01*
X176125100Y-129451100D01*
X174895405Y-129451100D01*
X174895400Y-129451099D01*
X174637816Y-129502337D01*
X174419446Y-129648246D01*
X174419443Y-129648249D01*
X173930792Y-130136900D01*
X173902894Y-130136900D01*
X173770605Y-129938915D01*
X173370948Y-129671873D01*
X172899520Y-129578100D01*
X172540480Y-129578100D01*
X172069052Y-129671873D01*
X171669395Y-129938915D01*
X171402353Y-130338572D01*
X171308580Y-130810000D01*
X171402353Y-131281428D01*
X171669395Y-131681085D01*
X172069052Y-131948127D01*
X172540480Y-132041900D01*
X172899520Y-132041900D01*
X173370948Y-131948127D01*
X173770605Y-131681085D01*
X173902894Y-131483100D01*
X174209594Y-131483100D01*
X174209600Y-131483101D01*
X174209600Y-131483100D01*
X174467184Y-131431863D01*
X174685554Y-131285954D01*
X175174207Y-130797300D01*
X176125100Y-130797300D01*
X176125100Y-133936992D01*
X175062154Y-132874046D01*
X174843784Y-132728137D01*
X174586200Y-132676899D01*
X174586194Y-132676900D01*
X173902894Y-132676900D01*
X173770605Y-132478915D01*
X173370948Y-132211873D01*
X172899520Y-132118100D01*
X172540480Y-132118100D01*
X172069052Y-132211873D01*
X171669395Y-132478915D01*
X171402353Y-132878572D01*
X171308580Y-133350000D01*
X171402353Y-133821428D01*
X171669395Y-134221085D01*
X172069052Y-134488127D01*
X172540480Y-134581900D01*
X172899520Y-134581900D01*
X173370948Y-134488127D01*
X173770605Y-134221085D01*
X173902894Y-134023100D01*
X174307392Y-134023100D01*
X176125100Y-135840807D01*
X176125100Y-135879500D01*
X176125100Y-136476992D01*
X175062154Y-135414046D01*
X174843784Y-135268137D01*
X174586200Y-135216899D01*
X174586194Y-135216900D01*
X173902894Y-135216900D01*
X173770605Y-135018915D01*
X173370948Y-134751873D01*
X172899520Y-134658100D01*
X172540480Y-134658100D01*
X172069052Y-134751873D01*
X171669395Y-135018915D01*
X171402353Y-135418572D01*
X171308580Y-135890000D01*
X171402353Y-136361428D01*
X171669395Y-136761085D01*
X172069052Y-137028127D01*
X172540480Y-137121900D01*
X172899520Y-137121900D01*
X173370948Y-137028127D01*
X173770605Y-136761085D01*
X173902894Y-136563100D01*
X174307392Y-136563100D01*
X175947300Y-138203007D01*
X175947300Y-138712192D01*
X175189154Y-137954046D01*
X174970784Y-137808137D01*
X174713200Y-137756899D01*
X174713194Y-137756900D01*
X174104300Y-137756900D01*
X174104300Y-137493141D01*
X174048230Y-137357775D01*
X173944625Y-137254171D01*
X173809260Y-137198100D01*
X173662741Y-137198100D01*
X171630741Y-137198100D01*
X171495375Y-137254170D01*
X171391771Y-137357775D01*
X171335700Y-137493140D01*
X171335700Y-137639659D01*
X171335700Y-139366859D01*
X171391770Y-139502225D01*
X171495375Y-139605829D01*
X171630740Y-139661900D01*
X171777259Y-139661900D01*
X173809259Y-139661900D01*
X173944625Y-139605830D01*
X174048229Y-139502225D01*
X174104300Y-139366860D01*
X174104300Y-139220341D01*
X174104300Y-139103100D01*
X174434392Y-139103100D01*
X174804300Y-139473008D01*
X174804300Y-141734194D01*
X174804299Y-141734200D01*
X174855537Y-141991784D01*
X175001446Y-142210154D01*
X175312300Y-142521007D01*
X175312300Y-146814194D01*
X175312299Y-146814200D01*
X175363537Y-147071784D01*
X175509446Y-147290154D01*
X176525446Y-148306154D01*
X176743816Y-148452063D01*
X177001400Y-148503301D01*
X177001400Y-148503300D01*
X177001405Y-148503300D01*
X190209394Y-148503300D01*
X190209400Y-148503301D01*
X190209400Y-148503300D01*
X190466984Y-148452063D01*
X190685354Y-148306154D01*
X191610954Y-147380554D01*
X191658430Y-147309500D01*
X192749400Y-147309500D01*
X192938943Y-147271798D01*
X192938944Y-147271798D01*
X193099630Y-147164430D01*
X198134702Y-142129357D01*
X198186775Y-142181429D01*
X198322140Y-142237500D01*
X198468659Y-142237500D01*
X199368659Y-142237500D01*
X199504025Y-142181430D01*
X199607629Y-142077825D01*
X199663700Y-141942460D01*
X199663700Y-142795941D01*
X199607630Y-142660575D01*
X199504025Y-142556971D01*
X199368660Y-142500900D01*
X199222141Y-142500900D01*
X198950175Y-142500900D01*
X198858100Y-142592975D01*
X198858100Y-143106500D01*
X199571625Y-143106500D01*
X199663700Y-143014425D01*
X199663700Y-143223975D01*
X199571625Y-143131900D01*
X198858100Y-143131900D01*
X198858100Y-143645425D01*
X198950175Y-143737500D01*
X199222141Y-143737500D01*
X199368660Y-143737500D01*
X199504025Y-143681429D01*
X199607630Y-143577825D01*
X199663700Y-143442459D01*
X199663700Y-146457098D01*
X199607400Y-146445900D01*
X198832700Y-146445900D01*
X198832700Y-143645425D01*
X198832700Y-143131900D01*
X198832700Y-143106500D01*
X198832700Y-142592975D01*
X198740625Y-142500900D01*
X198468659Y-142500900D01*
X198322140Y-142500900D01*
X198186775Y-142556971D01*
X198083170Y-142660575D01*
X198027100Y-142795941D01*
X198027100Y-143014425D01*
X198119175Y-143106500D01*
X198832700Y-143106500D01*
X198832700Y-143131900D01*
X198119175Y-143131900D01*
X198027100Y-143223975D01*
X198027100Y-143442459D01*
X198083170Y-143577825D01*
X198186775Y-143681429D01*
X198322140Y-143737500D01*
X198468659Y-143737500D01*
X198740625Y-143737500D01*
X198832700Y-143645425D01*
X198832700Y-146445900D01*
X198796560Y-146445900D01*
X198388102Y-146037442D01*
X198388341Y-145764233D01*
X198264860Y-145465387D01*
X198036416Y-145236543D01*
X197737785Y-145112541D01*
X197414433Y-145112259D01*
X197115587Y-145235740D01*
X196886743Y-145464184D01*
X196762741Y-145762815D01*
X196762459Y-146086167D01*
X196885940Y-146385013D01*
X197114384Y-146613857D01*
X197413015Y-146737859D01*
X197687838Y-146738098D01*
X198214442Y-147264702D01*
X198172771Y-147306375D01*
X198116700Y-147441740D01*
X198116700Y-147588259D01*
X198116700Y-148260225D01*
X198208775Y-148352300D01*
X198822300Y-148352300D01*
X198822300Y-148332300D01*
X198847700Y-148332300D01*
X198847700Y-148352300D01*
X198867700Y-148352300D01*
X198867700Y-148377700D01*
X198847700Y-148377700D01*
X198847700Y-149491225D01*
X198939775Y-149583300D01*
X199258259Y-149583300D01*
X199393625Y-149527230D01*
X199459999Y-149460854D01*
X199526375Y-149527229D01*
X199661740Y-149583300D01*
X199808259Y-149583300D01*
X200508259Y-149583300D01*
X200643625Y-149527230D01*
X200709999Y-149460854D01*
X200776375Y-149527229D01*
X200911740Y-149583300D01*
X201058259Y-149583300D01*
X201758259Y-149583300D01*
X201893625Y-149527230D01*
X201959999Y-149460854D01*
X202026375Y-149527229D01*
X202161740Y-149583300D01*
X202308259Y-149583300D01*
X203008259Y-149583300D01*
X203143625Y-149527230D01*
X203209999Y-149460854D01*
X203276375Y-149527229D01*
X203411740Y-149583300D01*
X203558259Y-149583300D01*
X204258259Y-149583300D01*
X204393625Y-149527230D01*
X204459999Y-149460854D01*
X204526375Y-149527229D01*
X204661740Y-149583300D01*
X204808259Y-149583300D01*
X205508259Y-149583300D01*
X205643625Y-149527230D01*
X205709999Y-149460854D01*
X205776375Y-149527229D01*
X205911740Y-149583300D01*
X206058259Y-149583300D01*
X206758259Y-149583300D01*
X206893625Y-149527230D01*
X206959999Y-149460854D01*
X207026375Y-149527229D01*
X207161740Y-149583300D01*
X207308259Y-149583300D01*
X208008259Y-149583300D01*
X208143625Y-149527230D01*
X208209999Y-149460854D01*
X208276375Y-149527229D01*
X208411740Y-149583300D01*
X208558259Y-149583300D01*
X209258259Y-149583300D01*
X209393625Y-149527230D01*
X209497229Y-149423625D01*
X209553300Y-149288260D01*
X209553300Y-149141741D01*
X209553300Y-147441741D01*
X209497230Y-147306375D01*
X209393625Y-147202771D01*
X209304900Y-147166019D01*
X209304900Y-145589000D01*
X209269131Y-145409177D01*
X209167269Y-145256731D01*
X209167269Y-145256730D01*
X204960220Y-141049681D01*
X204960220Y-139330758D01*
X206169731Y-140540270D01*
X206322177Y-140642131D01*
X206502000Y-140677900D01*
X209308700Y-140677900D01*
X209308700Y-140763859D01*
X209341481Y-140843000D01*
X209308700Y-140922140D01*
X209308700Y-141068659D01*
X209308700Y-141373225D01*
X209400775Y-141465300D01*
X210299300Y-141465300D01*
X210299300Y-141445300D01*
X210324700Y-141445300D01*
X210324700Y-141465300D01*
X211223225Y-141465300D01*
X211315300Y-141373225D01*
X211315300Y-141068659D01*
X211315300Y-140922140D01*
X211282518Y-140843000D01*
X211315300Y-140763860D01*
X211315300Y-140617341D01*
X211315300Y-139652141D01*
X211282518Y-139572999D01*
X211315300Y-139493860D01*
X211315300Y-139347341D01*
X211315300Y-138382141D01*
X211259230Y-138246775D01*
X211155625Y-138143171D01*
X211020260Y-138087100D01*
X210883281Y-138087100D01*
X211696187Y-137274193D01*
X211696191Y-137274191D01*
X211696191Y-137274190D01*
X211809064Y-137105263D01*
X211848700Y-136906000D01*
X211848701Y-136906000D01*
X211848700Y-136905994D01*
X211848700Y-136518679D01*
X212016657Y-136351016D01*
X212140659Y-136052385D01*
X212140941Y-135729033D01*
X212017460Y-135430187D01*
X211910487Y-135323027D01*
X211948625Y-135307230D01*
X212052229Y-135203625D01*
X212090000Y-135112439D01*
X212127771Y-135203625D01*
X212231375Y-135307230D01*
X212366741Y-135363300D01*
X212735225Y-135363300D01*
X212827300Y-135271225D01*
X212827300Y-134632700D01*
X212807300Y-134632700D01*
X212807300Y-134607300D01*
X212827300Y-134607300D01*
X212827300Y-133968775D01*
X212735225Y-133876700D01*
X212366741Y-133876700D01*
X212231375Y-133932770D01*
X212127771Y-134036375D01*
X212090000Y-134127560D01*
X212052230Y-134036375D01*
X211948625Y-133932771D01*
X211813260Y-133876700D01*
X211797900Y-133876700D01*
X211797900Y-133858000D01*
X211762131Y-133678177D01*
X211660269Y-133525731D01*
X210644269Y-132509731D01*
X210098169Y-131963631D01*
X209945723Y-131861769D01*
X209809080Y-131834589D01*
X209765900Y-131826000D01*
X209732245Y-131826000D01*
X209717005Y-131810760D01*
X209532435Y-131810760D01*
X209514040Y-131803140D01*
X209367521Y-131803140D01*
X209108360Y-131803140D01*
X209108360Y-131785360D01*
X209128360Y-131785360D01*
X209128360Y-131698365D01*
X209128360Y-131397375D01*
X209128360Y-131310380D01*
X209108360Y-131310380D01*
X209108360Y-131290060D01*
X209173760Y-131290060D01*
X209173760Y-131310380D01*
X209153760Y-131310380D01*
X209153760Y-131397375D01*
X209153760Y-131698365D01*
X209153760Y-131785360D01*
X209240755Y-131785360D01*
X209245835Y-131790440D01*
X209514039Y-131790440D01*
X209526303Y-131785360D01*
X209717005Y-131785360D01*
X209809080Y-131693285D01*
X209809080Y-131600340D01*
X209787345Y-131547870D01*
X209809080Y-131495400D01*
X209809080Y-131402455D01*
X209717007Y-131310382D01*
X209766844Y-131310382D01*
X209809080Y-131352618D01*
X210106731Y-131650269D01*
X210614730Y-132158269D01*
X210614731Y-132158269D01*
X210685100Y-132205288D01*
X210685100Y-132351459D01*
X210741170Y-132486825D01*
X210844775Y-132590429D01*
X210947509Y-132632983D01*
X210947510Y-132632984D01*
X210989770Y-132696230D01*
X211993770Y-133700230D01*
X212154456Y-133807597D01*
X212154457Y-133807598D01*
X212344000Y-133845300D01*
X213154840Y-133845300D01*
X213186240Y-133876700D01*
X212944775Y-133876700D01*
X212852700Y-133968775D01*
X212852700Y-134607300D01*
X212872700Y-134607300D01*
X212872700Y-134632700D01*
X212852700Y-134632700D01*
X212852700Y-135271225D01*
X212944775Y-135363300D01*
X213313259Y-135363300D01*
X213372700Y-135338678D01*
X213372700Y-145590840D01*
X211315300Y-147648240D01*
X211315300Y-142033860D01*
X211315300Y-141887341D01*
X211315300Y-141582775D01*
X211223225Y-141490700D01*
X210324700Y-141490700D01*
X210324700Y-142236825D01*
X210416775Y-142328900D01*
X211020259Y-142328900D01*
X211155625Y-142272830D01*
X211259229Y-142169225D01*
X211315300Y-142033860D01*
X211315300Y-147648240D01*
X210299300Y-148664240D01*
X210299300Y-142236825D01*
X210299300Y-141490700D01*
X209400775Y-141490700D01*
X209308700Y-141582775D01*
X209308700Y-141887341D01*
X209308700Y-142033860D01*
X209364771Y-142169225D01*
X209468375Y-142272830D01*
X209603741Y-142328900D01*
X210207225Y-142328900D01*
X210299300Y-142236825D01*
X210299300Y-148664240D01*
X209344840Y-149618700D01*
X198579160Y-149618700D01*
X198543760Y-149583300D01*
X198730225Y-149583300D01*
X198822300Y-149491225D01*
X198822300Y-148377700D01*
X198208775Y-148377700D01*
X198116700Y-148469775D01*
X198116700Y-149141741D01*
X198116700Y-149156240D01*
X197708230Y-148747770D01*
X197202430Y-148241970D01*
X197041744Y-148134602D01*
X196852200Y-148096900D01*
X196813400Y-148096900D01*
X196686400Y-148096900D01*
X196168360Y-148096900D01*
X195884702Y-147813242D01*
X195884941Y-147540033D01*
X195761460Y-147241187D01*
X195533016Y-147012343D01*
X195234385Y-146888341D01*
X194911033Y-146888059D01*
X194612187Y-147011540D01*
X194383343Y-147239984D01*
X194259341Y-147538615D01*
X194259059Y-147861967D01*
X194382540Y-148160813D01*
X194610984Y-148389657D01*
X194909615Y-148513659D01*
X195184438Y-148513898D01*
X195606339Y-148935799D01*
X195610770Y-148942430D01*
X195771457Y-149049798D01*
X195961000Y-149087500D01*
X196647040Y-149087500D01*
X197007770Y-149448230D01*
X198023770Y-150464230D01*
X198184457Y-150571598D01*
X198374000Y-150609300D01*
X209550000Y-150609300D01*
X209739543Y-150571598D01*
X209739544Y-150571598D01*
X209900230Y-150464230D01*
X214218230Y-146146230D01*
X214325598Y-145985544D01*
X214325598Y-145985543D01*
X214363300Y-145796000D01*
X214363300Y-153555700D01*
X211903300Y-153555700D01*
X211903300Y-153138260D01*
X211903300Y-152991741D01*
X211903300Y-151869775D01*
X211903300Y-151660225D01*
X211903300Y-150538259D01*
X211903300Y-150391740D01*
X211847229Y-150256375D01*
X211743625Y-150152770D01*
X211608259Y-150096700D01*
X211139775Y-150096700D01*
X211047700Y-150188775D01*
X211047700Y-151752300D01*
X211811225Y-151752300D01*
X211903300Y-151660225D01*
X211903300Y-151869775D01*
X211811225Y-151777700D01*
X211047700Y-151777700D01*
X211047700Y-153341225D01*
X211139775Y-153433300D01*
X211608259Y-153433300D01*
X211743625Y-153377230D01*
X211847229Y-153273625D01*
X211903300Y-153138260D01*
X211903300Y-153555700D01*
X211022300Y-153555700D01*
X211022300Y-153341225D01*
X211022300Y-151777700D01*
X211022300Y-151752300D01*
X211022300Y-150188775D01*
X210930225Y-150096700D01*
X210461741Y-150096700D01*
X210326375Y-150152770D01*
X210222771Y-150256375D01*
X210166700Y-150391740D01*
X210166700Y-150538259D01*
X210166700Y-151660225D01*
X210258775Y-151752300D01*
X211022300Y-151752300D01*
X211022300Y-151777700D01*
X210258775Y-151777700D01*
X210166700Y-151869775D01*
X210166700Y-152991741D01*
X210166700Y-153138260D01*
X210222771Y-153273625D01*
X210326375Y-153377230D01*
X210461741Y-153433300D01*
X210930225Y-153433300D01*
X211022300Y-153341225D01*
X211022300Y-153555700D01*
X197503300Y-153555700D01*
X197503300Y-153138260D01*
X197503300Y-152991741D01*
X197503300Y-151869775D01*
X197503300Y-151660225D01*
X197503300Y-150538259D01*
X197503300Y-150391740D01*
X197447229Y-150256375D01*
X197343625Y-150152770D01*
X197208259Y-150096700D01*
X196739775Y-150096700D01*
X196647700Y-150188775D01*
X196647700Y-151752300D01*
X197411225Y-151752300D01*
X197503300Y-151660225D01*
X197503300Y-151869775D01*
X197411225Y-151777700D01*
X196647700Y-151777700D01*
X196647700Y-153341225D01*
X196739775Y-153433300D01*
X197208259Y-153433300D01*
X197343625Y-153377230D01*
X197447229Y-153273625D01*
X197503300Y-153138260D01*
X197503300Y-153555700D01*
X196622300Y-153555700D01*
X196622300Y-153341225D01*
X196622300Y-151777700D01*
X196622300Y-151752300D01*
X196622300Y-150188775D01*
X196530225Y-150096700D01*
X196061741Y-150096700D01*
X195926375Y-150152770D01*
X195822771Y-150256375D01*
X195766700Y-150391740D01*
X195766700Y-150538259D01*
X195766700Y-151660225D01*
X195858775Y-151752300D01*
X196622300Y-151752300D01*
X196622300Y-151777700D01*
X195858775Y-151777700D01*
X195766700Y-151869775D01*
X195766700Y-152991741D01*
X195766700Y-153138260D01*
X195822771Y-153273625D01*
X195926375Y-153377230D01*
X196061741Y-153433300D01*
X196530225Y-153433300D01*
X196622300Y-153341225D01*
X196622300Y-153555700D01*
X192118260Y-153555700D01*
X192118260Y-150809576D01*
X191872456Y-150214685D01*
X191417709Y-149759143D01*
X190823248Y-149512302D01*
X190179576Y-149511740D01*
X189584685Y-149757544D01*
X189129143Y-150212291D01*
X188882302Y-150806752D01*
X188881740Y-151450424D01*
X189127544Y-152045315D01*
X189582291Y-152500857D01*
X190176752Y-152747698D01*
X190820424Y-152748260D01*
X191415315Y-152502456D01*
X191870857Y-152047709D01*
X192117698Y-151453248D01*
X192118260Y-150809576D01*
X192118260Y-153555700D01*
X174568034Y-153555700D01*
X174568034Y-153325500D01*
X174568034Y-151348900D01*
X174104300Y-151348900D01*
X174104300Y-149679259D01*
X174104300Y-148694775D01*
X174104300Y-148485225D01*
X174104300Y-147500741D01*
X174048230Y-147365375D01*
X173944625Y-147261771D01*
X173809260Y-147205700D01*
X173662741Y-147205700D01*
X173474757Y-147205700D01*
X173698848Y-147055968D01*
X173998926Y-146606869D01*
X174104300Y-146077120D01*
X174104300Y-146022880D01*
X173998926Y-145493131D01*
X173698848Y-145044032D01*
X173249749Y-144743954D01*
X172720000Y-144638580D01*
X172190251Y-144743954D01*
X171741152Y-145044032D01*
X171441074Y-145493131D01*
X171335700Y-146022880D01*
X171335700Y-146077120D01*
X171441074Y-146606869D01*
X171741152Y-147055968D01*
X171965242Y-147205700D01*
X171777259Y-147205700D01*
X171630740Y-147205700D01*
X171495375Y-147261771D01*
X171391770Y-147365375D01*
X171335700Y-147500741D01*
X171335700Y-148485225D01*
X171427775Y-148577300D01*
X172707300Y-148577300D01*
X172707300Y-148557300D01*
X172732700Y-148557300D01*
X172732700Y-148577300D01*
X174012225Y-148577300D01*
X174104300Y-148485225D01*
X174104300Y-148694775D01*
X174012225Y-148602700D01*
X172732700Y-148602700D01*
X172732700Y-149882225D01*
X172824775Y-149974300D01*
X173662741Y-149974300D01*
X173809260Y-149974300D01*
X173944625Y-149918229D01*
X174048230Y-149814625D01*
X174104300Y-149679259D01*
X174104300Y-151348900D01*
X172707300Y-151348900D01*
X172707300Y-149882225D01*
X172707300Y-148602700D01*
X171427775Y-148602700D01*
X171335700Y-148694775D01*
X171335700Y-149679259D01*
X171391770Y-149814625D01*
X171495375Y-149918229D01*
X171630740Y-149974300D01*
X171777259Y-149974300D01*
X172615225Y-149974300D01*
X172707300Y-149882225D01*
X172707300Y-151348900D01*
X166734767Y-151348900D01*
X166734767Y-153325500D01*
X174568034Y-153325500D01*
X174568034Y-153555700D01*
X166484300Y-153555700D01*
X166484300Y-105524300D01*
X214515700Y-105524300D01*
X214515700Y-153555700D01*
D35*
G36*
X190844400Y-137640416D02*
X190721908Y-137762908D01*
X190698994Y-137797200D01*
X189320400Y-137797200D01*
X189320400Y-139321200D01*
X190550800Y-139321200D01*
X190550800Y-140168932D01*
X189851332Y-140868400D01*
X189203415Y-140868400D01*
X189116219Y-140781204D01*
X188976185Y-140723200D01*
X188824614Y-140723200D01*
X187124614Y-140723200D01*
X186984580Y-140781204D01*
X186897384Y-140868400D01*
X186028415Y-140868400D01*
X185941219Y-140781204D01*
X185801185Y-140723200D01*
X185649614Y-140723200D01*
X183949614Y-140723200D01*
X183809580Y-140781204D01*
X183722384Y-140868400D01*
X182853415Y-140868400D01*
X182766219Y-140781204D01*
X182626185Y-140723200D01*
X182474614Y-140723200D01*
X180774614Y-140723200D01*
X180634580Y-140781204D01*
X180547384Y-140868400D01*
X179678415Y-140868400D01*
X179591219Y-140781204D01*
X179451185Y-140723200D01*
X179299614Y-140723200D01*
X177599614Y-140723200D01*
X177551639Y-140743071D01*
X177306200Y-140497632D01*
X177306200Y-139194200D01*
X177306200Y-137924200D01*
X177253997Y-137661756D01*
X177253997Y-137661755D01*
X177105334Y-137439266D01*
X176620400Y-136954332D01*
X176620400Y-136344135D01*
X176812955Y-136472796D01*
X176812956Y-136472797D01*
X177075400Y-136525000D01*
X177372384Y-136525000D01*
X177459581Y-136612196D01*
X177599615Y-136670200D01*
X177751186Y-136670200D01*
X179451186Y-136670200D01*
X179591220Y-136612196D01*
X179678415Y-136525000D01*
X180547384Y-136525000D01*
X180634581Y-136612196D01*
X180774615Y-136670200D01*
X180926186Y-136670200D01*
X182626186Y-136670200D01*
X182766220Y-136612196D01*
X182853415Y-136525000D01*
X183722384Y-136525000D01*
X183809581Y-136612196D01*
X183949615Y-136670200D01*
X184101186Y-136670200D01*
X185801186Y-136670200D01*
X185941220Y-136612196D01*
X186028415Y-136525000D01*
X186897384Y-136525000D01*
X186984581Y-136612196D01*
X187124615Y-136670200D01*
X187276186Y-136670200D01*
X188976186Y-136670200D01*
X189116220Y-136612196D01*
X189203415Y-136525000D01*
X190135400Y-136525000D01*
X190397844Y-136472797D01*
X190397845Y-136472797D01*
X190620334Y-136324134D01*
X190844400Y-136100068D01*
X190844400Y-137640416D01*
X190844400Y-137640416D01*
G37*
X190844400Y-137640416D02*
X190721908Y-137762908D01*
X190698994Y-137797200D01*
X189320400Y-137797200D01*
X189320400Y-139321200D01*
X190550800Y-139321200D01*
X190550800Y-140168932D01*
X189851332Y-140868400D01*
X189203415Y-140868400D01*
X189116219Y-140781204D01*
X188976185Y-140723200D01*
X188824614Y-140723200D01*
X187124614Y-140723200D01*
X186984580Y-140781204D01*
X186897384Y-140868400D01*
X186028415Y-140868400D01*
X185941219Y-140781204D01*
X185801185Y-140723200D01*
X185649614Y-140723200D01*
X183949614Y-140723200D01*
X183809580Y-140781204D01*
X183722384Y-140868400D01*
X182853415Y-140868400D01*
X182766219Y-140781204D01*
X182626185Y-140723200D01*
X182474614Y-140723200D01*
X180774614Y-140723200D01*
X180634580Y-140781204D01*
X180547384Y-140868400D01*
X179678415Y-140868400D01*
X179591219Y-140781204D01*
X179451185Y-140723200D01*
X179299614Y-140723200D01*
X177599614Y-140723200D01*
X177551639Y-140743071D01*
X177306200Y-140497632D01*
X177306200Y-139194200D01*
X177306200Y-137924200D01*
X177253997Y-137661756D01*
X177253997Y-137661755D01*
X177105334Y-137439266D01*
X176620400Y-136954332D01*
X176620400Y-136344135D01*
X176812955Y-136472796D01*
X176812956Y-136472797D01*
X177075400Y-136525000D01*
X177372384Y-136525000D01*
X177459581Y-136612196D01*
X177599615Y-136670200D01*
X177751186Y-136670200D01*
X179451186Y-136670200D01*
X179591220Y-136612196D01*
X179678415Y-136525000D01*
X180547384Y-136525000D01*
X180634581Y-136612196D01*
X180774615Y-136670200D01*
X180926186Y-136670200D01*
X182626186Y-136670200D01*
X182766220Y-136612196D01*
X182853415Y-136525000D01*
X183722384Y-136525000D01*
X183809581Y-136612196D01*
X183949615Y-136670200D01*
X184101186Y-136670200D01*
X185801186Y-136670200D01*
X185941220Y-136612196D01*
X186028415Y-136525000D01*
X186897384Y-136525000D01*
X186984581Y-136612196D01*
X187124615Y-136670200D01*
X187276186Y-136670200D01*
X188976186Y-136670200D01*
X189116220Y-136612196D01*
X189203415Y-136525000D01*
X190135400Y-136525000D01*
X190397844Y-136472797D01*
X190397845Y-136472797D01*
X190620334Y-136324134D01*
X190844400Y-136100068D01*
X190844400Y-137640416D01*
G36*
X190844400Y-143355416D02*
X190721908Y-143477908D01*
X190698994Y-143512200D01*
X189320400Y-143512200D01*
X189320400Y-145036200D01*
X190550800Y-145036200D01*
X190550800Y-146518932D01*
X190001532Y-147068200D01*
X177209268Y-147068200D01*
X176671200Y-146530132D01*
X176671200Y-142242200D01*
X176620400Y-141986813D01*
X176620400Y-141986809D01*
X176620400Y-141751568D01*
X176907966Y-142039134D01*
X177130455Y-142187797D01*
X177130456Y-142187797D01*
X177367290Y-142234905D01*
X177459581Y-142327196D01*
X177599615Y-142385200D01*
X177751186Y-142385200D01*
X179451186Y-142385200D01*
X179591220Y-142327196D01*
X179678415Y-142240000D01*
X180547384Y-142240000D01*
X180634581Y-142327196D01*
X180774615Y-142385200D01*
X180926186Y-142385200D01*
X182626186Y-142385200D01*
X182766220Y-142327196D01*
X182853415Y-142240000D01*
X183722384Y-142240000D01*
X183809581Y-142327196D01*
X183949615Y-142385200D01*
X184101186Y-142385200D01*
X185801186Y-142385200D01*
X185941220Y-142327196D01*
X186028415Y-142240000D01*
X186897384Y-142240000D01*
X186984581Y-142327196D01*
X187124615Y-142385200D01*
X187276186Y-142385200D01*
X188976186Y-142385200D01*
X189116220Y-142327196D01*
X189203415Y-142240000D01*
X190135400Y-142240000D01*
X190397844Y-142187797D01*
X190397845Y-142187797D01*
X190620334Y-142039134D01*
X190844400Y-141815068D01*
X190844400Y-143355416D01*
X190844400Y-143355416D01*
G37*
X190844400Y-143355416D02*
X190721908Y-143477908D01*
X190698994Y-143512200D01*
X189320400Y-143512200D01*
X189320400Y-145036200D01*
X190550800Y-145036200D01*
X190550800Y-146518932D01*
X190001532Y-147068200D01*
X177209268Y-147068200D01*
X176671200Y-146530132D01*
X176671200Y-142242200D01*
X176620400Y-141986813D01*
X176620400Y-141986809D01*
X176620400Y-141751568D01*
X176907966Y-142039134D01*
X177130455Y-142187797D01*
X177130456Y-142187797D01*
X177367290Y-142234905D01*
X177459581Y-142327196D01*
X177599615Y-142385200D01*
X177751186Y-142385200D01*
X179451186Y-142385200D01*
X179591220Y-142327196D01*
X179678415Y-142240000D01*
X180547384Y-142240000D01*
X180634581Y-142327196D01*
X180774615Y-142385200D01*
X180926186Y-142385200D01*
X182626186Y-142385200D01*
X182766220Y-142327196D01*
X182853415Y-142240000D01*
X183722384Y-142240000D01*
X183809581Y-142327196D01*
X183949615Y-142385200D01*
X184101186Y-142385200D01*
X185801186Y-142385200D01*
X185941220Y-142327196D01*
X186028415Y-142240000D01*
X186897384Y-142240000D01*
X186984581Y-142327196D01*
X187124615Y-142385200D01*
X187276186Y-142385200D01*
X188976186Y-142385200D01*
X189116220Y-142327196D01*
X189203415Y-142240000D01*
X190135400Y-142240000D01*
X190397844Y-142187797D01*
X190397845Y-142187797D01*
X190620334Y-142039134D01*
X190844400Y-141815068D01*
X190844400Y-143355416D01*
G36*
X190844400Y-131925416D02*
X190721908Y-132047908D01*
X190698994Y-132082200D01*
X189320400Y-132082200D01*
X189320400Y-133606200D01*
X190550800Y-133606200D01*
X190550800Y-134453932D01*
X189851332Y-135153400D01*
X189203415Y-135153400D01*
X189116219Y-135066204D01*
X188976185Y-135008200D01*
X188824614Y-135008200D01*
X187124614Y-135008200D01*
X186984580Y-135066204D01*
X186897384Y-135153400D01*
X186028415Y-135153400D01*
X185941219Y-135066204D01*
X185801185Y-135008200D01*
X185649614Y-135008200D01*
X183949614Y-135008200D01*
X183809580Y-135066204D01*
X183722384Y-135153400D01*
X182853415Y-135153400D01*
X182766219Y-135066204D01*
X182626185Y-135008200D01*
X182474614Y-135008200D01*
X180774614Y-135008200D01*
X180634580Y-135066204D01*
X180547384Y-135153400D01*
X179678415Y-135153400D01*
X179591219Y-135066204D01*
X179451185Y-135008200D01*
X179299614Y-135008200D01*
X177599614Y-135008200D01*
X177459580Y-135066204D01*
X177372384Y-135153400D01*
X177359468Y-135153400D01*
X176620400Y-134414332D01*
X176620400Y-130810000D01*
X177372384Y-130810000D01*
X177459581Y-130897196D01*
X177599615Y-130955200D01*
X177751186Y-130955200D01*
X179451186Y-130955200D01*
X179591220Y-130897196D01*
X179678415Y-130810000D01*
X180547384Y-130810000D01*
X180634581Y-130897196D01*
X180774615Y-130955200D01*
X180926186Y-130955200D01*
X182626186Y-130955200D01*
X182766220Y-130897196D01*
X182853415Y-130810000D01*
X183722384Y-130810000D01*
X183809581Y-130897196D01*
X183949615Y-130955200D01*
X184101186Y-130955200D01*
X185801186Y-130955200D01*
X185941220Y-130897196D01*
X186028415Y-130810000D01*
X186897384Y-130810000D01*
X186984581Y-130897196D01*
X187124615Y-130955200D01*
X187276186Y-130955200D01*
X188976186Y-130955200D01*
X189116220Y-130897196D01*
X189203415Y-130810000D01*
X190135400Y-130810000D01*
X190397844Y-130757797D01*
X190397845Y-130757797D01*
X190620334Y-130609134D01*
X190844400Y-130385068D01*
X190844400Y-131925416D01*
X190844400Y-131925416D01*
G37*
X190844400Y-131925416D02*
X190721908Y-132047908D01*
X190698994Y-132082200D01*
X189320400Y-132082200D01*
X189320400Y-133606200D01*
X190550800Y-133606200D01*
X190550800Y-134453932D01*
X189851332Y-135153400D01*
X189203415Y-135153400D01*
X189116219Y-135066204D01*
X188976185Y-135008200D01*
X188824614Y-135008200D01*
X187124614Y-135008200D01*
X186984580Y-135066204D01*
X186897384Y-135153400D01*
X186028415Y-135153400D01*
X185941219Y-135066204D01*
X185801185Y-135008200D01*
X185649614Y-135008200D01*
X183949614Y-135008200D01*
X183809580Y-135066204D01*
X183722384Y-135153400D01*
X182853415Y-135153400D01*
X182766219Y-135066204D01*
X182626185Y-135008200D01*
X182474614Y-135008200D01*
X180774614Y-135008200D01*
X180634580Y-135066204D01*
X180547384Y-135153400D01*
X179678415Y-135153400D01*
X179591219Y-135066204D01*
X179451185Y-135008200D01*
X179299614Y-135008200D01*
X177599614Y-135008200D01*
X177459580Y-135066204D01*
X177372384Y-135153400D01*
X177359468Y-135153400D01*
X176620400Y-134414332D01*
X176620400Y-130810000D01*
X177372384Y-130810000D01*
X177459581Y-130897196D01*
X177599615Y-130955200D01*
X177751186Y-130955200D01*
X179451186Y-130955200D01*
X179591220Y-130897196D01*
X179678415Y-130810000D01*
X180547384Y-130810000D01*
X180634581Y-130897196D01*
X180774615Y-130955200D01*
X180926186Y-130955200D01*
X182626186Y-130955200D01*
X182766220Y-130897196D01*
X182853415Y-130810000D01*
X183722384Y-130810000D01*
X183809581Y-130897196D01*
X183949615Y-130955200D01*
X184101186Y-130955200D01*
X185801186Y-130955200D01*
X185941220Y-130897196D01*
X186028415Y-130810000D01*
X186897384Y-130810000D01*
X186984581Y-130897196D01*
X187124615Y-130955200D01*
X187276186Y-130955200D01*
X188976186Y-130955200D01*
X189116220Y-130897196D01*
X189203415Y-130810000D01*
X190135400Y-130810000D01*
X190397844Y-130757797D01*
X190397845Y-130757797D01*
X190620334Y-130609134D01*
X190844400Y-130385068D01*
X190844400Y-131925416D01*
G36*
X190844400Y-126210416D02*
X190721908Y-126332908D01*
X190698994Y-126367200D01*
X189320400Y-126367200D01*
X189320400Y-127891200D01*
X190550800Y-127891200D01*
X190550800Y-128738932D01*
X189851332Y-129438400D01*
X189203415Y-129438400D01*
X189116219Y-129351204D01*
X188976185Y-129293200D01*
X188824614Y-129293200D01*
X187124614Y-129293200D01*
X186984580Y-129351204D01*
X186897384Y-129438400D01*
X186028415Y-129438400D01*
X185941219Y-129351204D01*
X185801185Y-129293200D01*
X185649614Y-129293200D01*
X183949614Y-129293200D01*
X183809580Y-129351204D01*
X183722384Y-129438400D01*
X182853415Y-129438400D01*
X182766219Y-129351204D01*
X182626185Y-129293200D01*
X182474614Y-129293200D01*
X180774614Y-129293200D01*
X180634580Y-129351204D01*
X180547384Y-129438400D01*
X179678415Y-129438400D01*
X179591219Y-129351204D01*
X179451185Y-129293200D01*
X179299614Y-129293200D01*
X177599614Y-129293200D01*
X177459580Y-129351204D01*
X177372384Y-129438400D01*
X176620400Y-129438400D01*
X176620400Y-126829068D01*
X177105334Y-126344134D01*
X177253997Y-126121645D01*
X177253997Y-126121644D01*
X177306200Y-125859200D01*
X177306200Y-125508268D01*
X177581691Y-125232776D01*
X177599615Y-125240200D01*
X177751186Y-125240200D01*
X179451186Y-125240200D01*
X179591220Y-125182196D01*
X179678415Y-125095000D01*
X180547384Y-125095000D01*
X180634581Y-125182196D01*
X180774615Y-125240200D01*
X180926186Y-125240200D01*
X182626186Y-125240200D01*
X182766220Y-125182196D01*
X182853415Y-125095000D01*
X183722384Y-125095000D01*
X183809581Y-125182196D01*
X183949615Y-125240200D01*
X184101186Y-125240200D01*
X185801186Y-125240200D01*
X185941220Y-125182196D01*
X186028415Y-125095000D01*
X186897384Y-125095000D01*
X186984581Y-125182196D01*
X187124615Y-125240200D01*
X187276186Y-125240200D01*
X188976186Y-125240200D01*
X189116220Y-125182196D01*
X189203415Y-125095000D01*
X190135400Y-125095000D01*
X190397844Y-125042797D01*
X190397845Y-125042797D01*
X190620334Y-124894134D01*
X190844400Y-124670068D01*
X190844400Y-126210416D01*
X190844400Y-126210416D01*
G37*
X190844400Y-126210416D02*
X190721908Y-126332908D01*
X190698994Y-126367200D01*
X189320400Y-126367200D01*
X189320400Y-127891200D01*
X190550800Y-127891200D01*
X190550800Y-128738932D01*
X189851332Y-129438400D01*
X189203415Y-129438400D01*
X189116219Y-129351204D01*
X188976185Y-129293200D01*
X188824614Y-129293200D01*
X187124614Y-129293200D01*
X186984580Y-129351204D01*
X186897384Y-129438400D01*
X186028415Y-129438400D01*
X185941219Y-129351204D01*
X185801185Y-129293200D01*
X185649614Y-129293200D01*
X183949614Y-129293200D01*
X183809580Y-129351204D01*
X183722384Y-129438400D01*
X182853415Y-129438400D01*
X182766219Y-129351204D01*
X182626185Y-129293200D01*
X182474614Y-129293200D01*
X180774614Y-129293200D01*
X180634580Y-129351204D01*
X180547384Y-129438400D01*
X179678415Y-129438400D01*
X179591219Y-129351204D01*
X179451185Y-129293200D01*
X179299614Y-129293200D01*
X177599614Y-129293200D01*
X177459580Y-129351204D01*
X177372384Y-129438400D01*
X176620400Y-129438400D01*
X176620400Y-126829068D01*
X177105334Y-126344134D01*
X177253997Y-126121645D01*
X177253997Y-126121644D01*
X177306200Y-125859200D01*
X177306200Y-125508268D01*
X177581691Y-125232776D01*
X177599615Y-125240200D01*
X177751186Y-125240200D01*
X179451186Y-125240200D01*
X179591220Y-125182196D01*
X179678415Y-125095000D01*
X180547384Y-125095000D01*
X180634581Y-125182196D01*
X180774615Y-125240200D01*
X180926186Y-125240200D01*
X182626186Y-125240200D01*
X182766220Y-125182196D01*
X182853415Y-125095000D01*
X183722384Y-125095000D01*
X183809581Y-125182196D01*
X183949615Y-125240200D01*
X184101186Y-125240200D01*
X185801186Y-125240200D01*
X185941220Y-125182196D01*
X186028415Y-125095000D01*
X186897384Y-125095000D01*
X186984581Y-125182196D01*
X187124615Y-125240200D01*
X187276186Y-125240200D01*
X188976186Y-125240200D01*
X189116220Y-125182196D01*
X189203415Y-125095000D01*
X190135400Y-125095000D01*
X190397844Y-125042797D01*
X190397845Y-125042797D01*
X190620334Y-124894134D01*
X190844400Y-124670068D01*
X190844400Y-126210416D01*
G36*
X190844400Y-120495416D02*
X190721908Y-120617908D01*
X190698994Y-120652200D01*
X189320400Y-120652200D01*
X189320400Y-122176200D01*
X190550800Y-122176200D01*
X190550800Y-123023932D01*
X189851332Y-123723400D01*
X189203415Y-123723400D01*
X189116219Y-123636204D01*
X188976185Y-123578200D01*
X188824614Y-123578200D01*
X187124614Y-123578200D01*
X186984580Y-123636204D01*
X186897384Y-123723400D01*
X186028415Y-123723400D01*
X185941219Y-123636204D01*
X185801185Y-123578200D01*
X185649614Y-123578200D01*
X183949614Y-123578200D01*
X183809580Y-123636204D01*
X183722384Y-123723400D01*
X182853415Y-123723400D01*
X182766219Y-123636204D01*
X182626185Y-123578200D01*
X182474614Y-123578200D01*
X180774614Y-123578200D01*
X180634580Y-123636204D01*
X180547384Y-123723400D01*
X179678415Y-123723400D01*
X179591219Y-123636204D01*
X179451185Y-123578200D01*
X179299614Y-123578200D01*
X177599614Y-123578200D01*
X177459580Y-123636204D01*
X177356738Y-123739046D01*
X177172955Y-123775603D01*
X177055149Y-123854318D01*
X177105334Y-123804134D01*
X177253997Y-123581645D01*
X177253997Y-123581644D01*
X177306200Y-123319200D01*
X177306200Y-119793268D01*
X177581691Y-119517776D01*
X177599615Y-119525200D01*
X177751186Y-119525200D01*
X179451186Y-119525200D01*
X179591220Y-119467196D01*
X179678415Y-119380000D01*
X180547384Y-119380000D01*
X180634581Y-119467196D01*
X180774615Y-119525200D01*
X180926186Y-119525200D01*
X182626186Y-119525200D01*
X182766220Y-119467196D01*
X182853415Y-119380000D01*
X183722384Y-119380000D01*
X183809581Y-119467196D01*
X183949615Y-119525200D01*
X184101186Y-119525200D01*
X185801186Y-119525200D01*
X185941220Y-119467196D01*
X186028415Y-119380000D01*
X186897384Y-119380000D01*
X186984581Y-119467196D01*
X187124615Y-119525200D01*
X187276186Y-119525200D01*
X188976186Y-119525200D01*
X189116220Y-119467196D01*
X189203415Y-119380000D01*
X190135400Y-119380000D01*
X190397844Y-119327797D01*
X190397845Y-119327797D01*
X190620334Y-119179134D01*
X190844400Y-118955068D01*
X190844400Y-120495416D01*
X190844400Y-120495416D01*
G37*
X190844400Y-120495416D02*
X190721908Y-120617908D01*
X190698994Y-120652200D01*
X189320400Y-120652200D01*
X189320400Y-122176200D01*
X190550800Y-122176200D01*
X190550800Y-123023932D01*
X189851332Y-123723400D01*
X189203415Y-123723400D01*
X189116219Y-123636204D01*
X188976185Y-123578200D01*
X188824614Y-123578200D01*
X187124614Y-123578200D01*
X186984580Y-123636204D01*
X186897384Y-123723400D01*
X186028415Y-123723400D01*
X185941219Y-123636204D01*
X185801185Y-123578200D01*
X185649614Y-123578200D01*
X183949614Y-123578200D01*
X183809580Y-123636204D01*
X183722384Y-123723400D01*
X182853415Y-123723400D01*
X182766219Y-123636204D01*
X182626185Y-123578200D01*
X182474614Y-123578200D01*
X180774614Y-123578200D01*
X180634580Y-123636204D01*
X180547384Y-123723400D01*
X179678415Y-123723400D01*
X179591219Y-123636204D01*
X179451185Y-123578200D01*
X179299614Y-123578200D01*
X177599614Y-123578200D01*
X177459580Y-123636204D01*
X177356738Y-123739046D01*
X177172955Y-123775603D01*
X177055149Y-123854318D01*
X177105334Y-123804134D01*
X177253997Y-123581645D01*
X177253997Y-123581644D01*
X177306200Y-123319200D01*
X177306200Y-119793268D01*
X177581691Y-119517776D01*
X177599615Y-119525200D01*
X177751186Y-119525200D01*
X179451186Y-119525200D01*
X179591220Y-119467196D01*
X179678415Y-119380000D01*
X180547384Y-119380000D01*
X180634581Y-119467196D01*
X180774615Y-119525200D01*
X180926186Y-119525200D01*
X182626186Y-119525200D01*
X182766220Y-119467196D01*
X182853415Y-119380000D01*
X183722384Y-119380000D01*
X183809581Y-119467196D01*
X183949615Y-119525200D01*
X184101186Y-119525200D01*
X185801186Y-119525200D01*
X185941220Y-119467196D01*
X186028415Y-119380000D01*
X186897384Y-119380000D01*
X186984581Y-119467196D01*
X187124615Y-119525200D01*
X187276186Y-119525200D01*
X188976186Y-119525200D01*
X189116220Y-119467196D01*
X189203415Y-119380000D01*
X190135400Y-119380000D01*
X190397844Y-119327797D01*
X190397845Y-119327797D01*
X190620334Y-119179134D01*
X190844400Y-118955068D01*
X190844400Y-120495416D01*
G36*
X190844400Y-114653416D02*
X190721908Y-114775908D01*
X190614136Y-114937200D01*
X189320400Y-114937200D01*
X189320400Y-116461200D01*
X190550800Y-116461200D01*
X190550800Y-117308932D01*
X189851332Y-118008400D01*
X189203415Y-118008400D01*
X189116219Y-117921204D01*
X188976185Y-117863200D01*
X188824614Y-117863200D01*
X187124614Y-117863200D01*
X186984580Y-117921204D01*
X186897384Y-118008400D01*
X186028415Y-118008400D01*
X185941219Y-117921204D01*
X185801185Y-117863200D01*
X185649614Y-117863200D01*
X183949614Y-117863200D01*
X183809580Y-117921204D01*
X183722384Y-118008400D01*
X182853415Y-118008400D01*
X182766219Y-117921204D01*
X182626185Y-117863200D01*
X182474614Y-117863200D01*
X180774614Y-117863200D01*
X180634580Y-117921204D01*
X180547384Y-118008400D01*
X179678415Y-118008400D01*
X179591219Y-117921204D01*
X179451185Y-117863200D01*
X179299614Y-117863200D01*
X177599614Y-117863200D01*
X177459580Y-117921204D01*
X177356738Y-118024046D01*
X177172955Y-118060603D01*
X176950466Y-118209266D01*
X176920532Y-118239200D01*
X176620400Y-118239200D01*
X176620400Y-117939068D01*
X177105334Y-117454134D01*
X177253997Y-117231645D01*
X177253997Y-117231644D01*
X177306200Y-116969200D01*
X177306200Y-114078268D01*
X177581691Y-113802776D01*
X177599615Y-113810200D01*
X177751186Y-113810200D01*
X179451186Y-113810200D01*
X179591220Y-113752196D01*
X179678415Y-113665000D01*
X180547384Y-113665000D01*
X180634581Y-113752196D01*
X180774615Y-113810200D01*
X180926186Y-113810200D01*
X182626186Y-113810200D01*
X182766220Y-113752196D01*
X182853415Y-113665000D01*
X183722384Y-113665000D01*
X183809581Y-113752196D01*
X183949615Y-113810200D01*
X184101186Y-113810200D01*
X185801186Y-113810200D01*
X185941220Y-113752196D01*
X186028415Y-113665000D01*
X186897384Y-113665000D01*
X186984581Y-113752196D01*
X187124615Y-113810200D01*
X187276186Y-113810200D01*
X188976186Y-113810200D01*
X189116220Y-113752196D01*
X189223396Y-113645019D01*
X189281400Y-113504985D01*
X189281400Y-113487200D01*
X190844400Y-113487200D01*
X190844400Y-114653416D01*
X190844400Y-114653416D01*
G37*
X190844400Y-114653416D02*
X190721908Y-114775908D01*
X190614136Y-114937200D01*
X189320400Y-114937200D01*
X189320400Y-116461200D01*
X190550800Y-116461200D01*
X190550800Y-117308932D01*
X189851332Y-118008400D01*
X189203415Y-118008400D01*
X189116219Y-117921204D01*
X188976185Y-117863200D01*
X188824614Y-117863200D01*
X187124614Y-117863200D01*
X186984580Y-117921204D01*
X186897384Y-118008400D01*
X186028415Y-118008400D01*
X185941219Y-117921204D01*
X185801185Y-117863200D01*
X185649614Y-117863200D01*
X183949614Y-117863200D01*
X183809580Y-117921204D01*
X183722384Y-118008400D01*
X182853415Y-118008400D01*
X182766219Y-117921204D01*
X182626185Y-117863200D01*
X182474614Y-117863200D01*
X180774614Y-117863200D01*
X180634580Y-117921204D01*
X180547384Y-118008400D01*
X179678415Y-118008400D01*
X179591219Y-117921204D01*
X179451185Y-117863200D01*
X179299614Y-117863200D01*
X177599614Y-117863200D01*
X177459580Y-117921204D01*
X177356738Y-118024046D01*
X177172955Y-118060603D01*
X176950466Y-118209266D01*
X176920532Y-118239200D01*
X176620400Y-118239200D01*
X176620400Y-117939068D01*
X177105334Y-117454134D01*
X177253997Y-117231645D01*
X177253997Y-117231644D01*
X177306200Y-116969200D01*
X177306200Y-114078268D01*
X177581691Y-113802776D01*
X177599615Y-113810200D01*
X177751186Y-113810200D01*
X179451186Y-113810200D01*
X179591220Y-113752196D01*
X179678415Y-113665000D01*
X180547384Y-113665000D01*
X180634581Y-113752196D01*
X180774615Y-113810200D01*
X180926186Y-113810200D01*
X182626186Y-113810200D01*
X182766220Y-113752196D01*
X182853415Y-113665000D01*
X183722384Y-113665000D01*
X183809581Y-113752196D01*
X183949615Y-113810200D01*
X184101186Y-113810200D01*
X185801186Y-113810200D01*
X185941220Y-113752196D01*
X186028415Y-113665000D01*
X186897384Y-113665000D01*
X186984581Y-113752196D01*
X187124615Y-113810200D01*
X187276186Y-113810200D01*
X188976186Y-113810200D01*
X189116220Y-113752196D01*
X189223396Y-113645019D01*
X189281400Y-113504985D01*
X189281400Y-113487200D01*
X190844400Y-113487200D01*
X190844400Y-114653416D01*
M02*
