G04 #@! TF.FileFunction,Paste,Top*
%FSLAX46Y46*%
G04 Gerber Fmt 4.6, Leading zero omitted, Abs format (unit mm)*
G04 Created by KiCad (PCBNEW (2014-11-27 BZR 5304)-product) date 12/11/2014 4:23:06 PM*
%MOMM*%
G01*
G04 APERTURE LIST*
%ADD10C,0.100000*%
%ADD11R,0.737560X0.737560*%
%ADD12R,1.441140X1.890720*%
%ADD13R,0.690000X0.740000*%
%ADD14R,0.740000X0.690000*%
%ADD15R,1.210000X0.905200*%
%ADD16R,0.440000X0.840000*%
%ADD17R,1.540000X0.940000*%
%ADD18R,0.840000X0.440000*%
%ADD19R,1.640000X0.840000*%
%ADD20R,0.702000X0.371800*%
%ADD21R,0.940760X0.539440*%
%ADD22R,0.539440X0.188920*%
%ADD23R,0.188920X0.539440*%
%ADD24R,1.640000X1.640000*%
%ADD25R,0.640000X1.640000*%
%ADD26R,0.940000X2.540000*%
%ADD27C,0.254000*%
G04 APERTURE END LIST*
D10*
D11*
X168795700Y-109855000D03*
X170294300Y-109855000D03*
D12*
X209640400Y-117769300D03*
X209640400Y-120487100D03*
D13*
X198882000Y-118503000D03*
X198882000Y-120003000D03*
X198882000Y-121678000D03*
X198882000Y-123178000D03*
X198882000Y-124853000D03*
X198882000Y-126353000D03*
X198882000Y-128028000D03*
X198882000Y-129528000D03*
X198882000Y-131203000D03*
X198882000Y-132703000D03*
X198882000Y-134378000D03*
X198882000Y-135878000D03*
D14*
X211340000Y-134620000D03*
X212840000Y-134620000D03*
X211340000Y-125730000D03*
X212840000Y-125730000D03*
D11*
X168795700Y-111125000D03*
X170294300Y-111125000D03*
X168795700Y-112395000D03*
X170294300Y-112395000D03*
X168795700Y-113665000D03*
X170294300Y-113665000D03*
X168795700Y-114935000D03*
X170294300Y-114935000D03*
X168795700Y-116205000D03*
X170294300Y-116205000D03*
D15*
X210312000Y-140208000D03*
X210312000Y-141478000D03*
D16*
X173470000Y-109855000D03*
X171970000Y-109855000D03*
X173470000Y-111125000D03*
X171970000Y-111125000D03*
X173470000Y-112395000D03*
X171970000Y-112395000D03*
X173470000Y-113665000D03*
X171970000Y-113665000D03*
X173470000Y-114935000D03*
X171970000Y-114935000D03*
X173470000Y-116205000D03*
X171970000Y-116205000D03*
X193245400Y-130304200D03*
X191745400Y-130304200D03*
D17*
X203163400Y-117628200D03*
X203163400Y-120628200D03*
D16*
X212803400Y-128780200D03*
X211303400Y-128780200D03*
X212803400Y-130304200D03*
X211303400Y-130304200D03*
X212803400Y-131828200D03*
X211303400Y-131828200D03*
D18*
X198845400Y-143119200D03*
X198845400Y-141619200D03*
X198845400Y-114949200D03*
X198845400Y-116449200D03*
D19*
X181700400Y-112979200D03*
X181700400Y-115879200D03*
X178525400Y-112979200D03*
X178525400Y-115879200D03*
X181700400Y-118694200D03*
X181700400Y-121594200D03*
X184875400Y-118694200D03*
X184875400Y-121594200D03*
X188050400Y-118694200D03*
X188050400Y-121594200D03*
X184875400Y-124409200D03*
X184875400Y-127309200D03*
X188050400Y-124409200D03*
X188050400Y-127309200D03*
X181700400Y-124409200D03*
X181700400Y-127309200D03*
X178525400Y-124409200D03*
X178525400Y-127309200D03*
X188050400Y-130124200D03*
X188050400Y-133024200D03*
X184875400Y-130124200D03*
X184875400Y-133024200D03*
X181700400Y-130124200D03*
X181700400Y-133024200D03*
X188050400Y-135839200D03*
X188050400Y-138739200D03*
X178525400Y-135839200D03*
X178525400Y-138739200D03*
X181700400Y-135839200D03*
X181700400Y-138739200D03*
X184875400Y-135839200D03*
X184875400Y-138739200D03*
X184875400Y-141554200D03*
X184875400Y-144454200D03*
X188050400Y-141554200D03*
X188050400Y-144454200D03*
X181700400Y-141554200D03*
X181700400Y-144454200D03*
X178525400Y-141554200D03*
X178525400Y-144454200D03*
X188050400Y-112979200D03*
X188050400Y-115879200D03*
X184875400Y-112979200D03*
X184875400Y-115879200D03*
X178525400Y-118694200D03*
X178525400Y-121594200D03*
D20*
X194908400Y-120380420D03*
X196432400Y-120380420D03*
X194908400Y-121177980D03*
X196432400Y-121177980D03*
X194908400Y-119580320D03*
X194908400Y-121978080D03*
X196432400Y-121978080D03*
X196432400Y-119580320D03*
X194908400Y-126730420D03*
X196432400Y-126730420D03*
X194908400Y-127527980D03*
X196432400Y-127527980D03*
X194908400Y-125930320D03*
X194908400Y-128328080D03*
X196432400Y-128328080D03*
X196432400Y-125930320D03*
X194908400Y-133080420D03*
X196432400Y-133080420D03*
X194908400Y-133877980D03*
X196432400Y-133877980D03*
X194908400Y-132280320D03*
X194908400Y-134678080D03*
X196432400Y-134678080D03*
X196432400Y-132280320D03*
D19*
X178525400Y-130124200D03*
X178525400Y-133024200D03*
D18*
X198845400Y-138444200D03*
X198845400Y-139944200D03*
D21*
X192084960Y-115046760D03*
X192084960Y-116347240D03*
X190185040Y-115697000D03*
X192084960Y-120761760D03*
X192084960Y-122062240D03*
X190185040Y-121412000D03*
X192084960Y-126476760D03*
X192084960Y-127777240D03*
X190185040Y-127127000D03*
X192084960Y-132191760D03*
X192084960Y-133492240D03*
X190185040Y-132842000D03*
X192084960Y-137906760D03*
X192084960Y-139207240D03*
X190185040Y-138557000D03*
X192084960Y-143621760D03*
X192084960Y-144922240D03*
X190185040Y-144272000D03*
D22*
X202341480Y-127299720D03*
X202341480Y-127800100D03*
X202341480Y-128300480D03*
X202341480Y-128800860D03*
X202341480Y-129298700D03*
X202341480Y-129799080D03*
X202341480Y-130299460D03*
X202341480Y-130799840D03*
X202341480Y-131300220D03*
X202341480Y-131800600D03*
X202341480Y-132300980D03*
X202341480Y-132798820D03*
X209138520Y-128795780D03*
X209138520Y-128297940D03*
X209138520Y-127797560D03*
X209138520Y-127297180D03*
D23*
X204990700Y-133449060D03*
X205490000Y-133448000D03*
X205988920Y-133449060D03*
X206489300Y-133449060D03*
X206989680Y-133449060D03*
X207490060Y-133449060D03*
X207990440Y-133449060D03*
X208490820Y-133449060D03*
X202991720Y-133449060D03*
X203492100Y-133449060D03*
X203992480Y-133449060D03*
X204490320Y-133449060D03*
D22*
X209138520Y-132796280D03*
X209141060Y-132295900D03*
X209141060Y-131798060D03*
X209141060Y-131297680D03*
X209141060Y-130797300D03*
X209141060Y-130296920D03*
X209141060Y-129796540D03*
X209141060Y-129296160D03*
D23*
X208490820Y-126649480D03*
X207990440Y-126649480D03*
X207490060Y-126649480D03*
X206992220Y-126649480D03*
X206491840Y-126649480D03*
X205991460Y-126649480D03*
X205491080Y-126649480D03*
X204990700Y-126649480D03*
X204490320Y-126649480D03*
X203989940Y-126649480D03*
X203492100Y-126649480D03*
X202991720Y-126649480D03*
D24*
X204470000Y-128778000D03*
X207010000Y-128778000D03*
X204470000Y-131318000D03*
X207010000Y-131318000D03*
D25*
X208835000Y-110715000D03*
D26*
X211035000Y-107315000D03*
D25*
X207585000Y-110715000D03*
X206335000Y-110715000D03*
X205085000Y-110715000D03*
X203835000Y-110715000D03*
X202585000Y-110715000D03*
X201335000Y-110715000D03*
X200085000Y-110715000D03*
X198835000Y-110715000D03*
D26*
X196635000Y-107315000D03*
D25*
X198835000Y-148365000D03*
D26*
X196635000Y-151765000D03*
D25*
X200085000Y-148365000D03*
X201335000Y-148365000D03*
X202585000Y-148365000D03*
X203835000Y-148365000D03*
X205085000Y-148365000D03*
X206335000Y-148365000D03*
X207585000Y-148365000D03*
X208835000Y-148365000D03*
D26*
X211035000Y-151765000D03*
D27*
G36*
X210820000Y-141859000D02*
X209804000Y-141859000D01*
X209804000Y-139827000D01*
X210820000Y-139827000D01*
X210820000Y-141859000D01*
X210820000Y-141859000D01*
G37*
X210820000Y-141859000D02*
X209804000Y-141859000D01*
X209804000Y-139827000D01*
X210820000Y-139827000D01*
X210820000Y-141859000D01*
M02*
