M48
METRIC,TZ
T1C0.635
T2C1.016
T3C1.524
T4C3.500
%
G90
G05
T1
X33274Y-155956
X33274Y-162560
X38100Y-145542
X38100Y-147320
X38100Y-149225
X38100Y-151384
X38100Y-153035
X38100Y-155956
X38989Y-161544
X42164Y-143002
X43815Y-139700
X43942Y-151892
X43942Y-155448
X44196Y-143764
X44196Y-146812
X45212Y-151892
X45720Y-161544
X46482Y-136652
X46482Y-138684
X46482Y-151892
X46482Y-162814
X47498Y-146812
X47752Y-151892
X48006Y-162814
X48514Y-138684
X49022Y-141224
X49530Y-159258
X55880Y-160020
X55880Y-161925
X56134Y-155448
T2
X29210Y-140335
X29210Y-142875
X29210Y-145415
X29210Y-153035
X29210Y-155575
X29210Y-158115
X29210Y-160655
X29210Y-163195
X29210Y-165735
X31750Y-140335
X31750Y-142875
X31750Y-145415
X40640Y-168910
X40640Y-171450
X40640Y-173990
X43180Y-168910
X43180Y-171450
X43180Y-173990
X50800Y-171450
X50800Y-173990
X53340Y-171450
X53340Y-173990
X55880Y-132080
X55880Y-171450
X55880Y-173990
X58420Y-132080
X58420Y-171450
X58420Y-173990
X60960Y-132080
X60960Y-171450
X60960Y-173990
X63500Y-132080
T3
X71120Y-140335
X71120Y-145415
X71120Y-150495
X71120Y-155575
X71120Y-160655
X71120Y-165735
T4
X29210Y-132080
X29210Y-173990
X71120Y-132080
X71120Y-173990
T0
M30
