G04 #@! TF.FileFunction,Copper,L2,Bot,Signal*
%FSLAX46Y46*%
G04 Gerber Fmt 4.6, Leading zero omitted, Abs format (unit mm)*
G04 Created by KiCad (PCBNEW (2014-11-27 BZR 5304)-product) date 12/4/2014 11:40:45 PM*
%MOMM*%
G01*
G04 APERTURE LIST*
%ADD10C,0.100000*%
%ADD11C,0.150000*%
%ADD12R,2.032000X1.727200*%
%ADD13O,2.032000X1.727200*%
%ADD14R,1.727200X1.727200*%
%ADD15O,1.727200X1.727200*%
%ADD16R,1.727200X2.032000*%
%ADD17O,1.727200X2.032000*%
%ADD18C,3.810000*%
%ADD19R,3.810000X3.810000*%
%ADD20C,0.889000*%
%ADD21C,0.254000*%
%ADD22C,0.304800*%
G04 APERTURE END LIST*
D10*
D11*
X42640381Y-131894619D02*
X42307047Y-132370810D01*
X42068952Y-131894619D02*
X42068952Y-132894619D01*
X42449905Y-132894619D01*
X42545143Y-132847000D01*
X42592762Y-132799381D01*
X42640381Y-132704143D01*
X42640381Y-132561286D01*
X42592762Y-132466048D01*
X42545143Y-132418429D01*
X42449905Y-132370810D01*
X42068952Y-132370810D01*
X43068952Y-132418429D02*
X43402286Y-132418429D01*
X43545143Y-131894619D02*
X43068952Y-131894619D01*
X43068952Y-132894619D01*
X43545143Y-132894619D01*
X43830857Y-132894619D02*
X44164190Y-131894619D01*
X44497524Y-132894619D01*
X45354667Y-131894619D02*
X44783238Y-131894619D01*
X45068952Y-131894619D02*
X45068952Y-132894619D01*
X44973714Y-132751762D01*
X44878476Y-132656524D01*
X44783238Y-132608905D01*
X42021334Y-130344619D02*
X41449905Y-130344619D01*
X41735619Y-130344619D02*
X41735619Y-131344619D01*
X41640381Y-131201762D01*
X41545143Y-131106524D01*
X41449905Y-131058905D01*
X42973715Y-130344619D02*
X42402286Y-130344619D01*
X42688000Y-130344619D02*
X42688000Y-131344619D01*
X42592762Y-131201762D01*
X42497524Y-131106524D01*
X42402286Y-131058905D01*
X44116572Y-131392238D02*
X43259429Y-130106524D01*
X44973715Y-130344619D02*
X44402286Y-130344619D01*
X44688000Y-130344619D02*
X44688000Y-131344619D01*
X44592762Y-131201762D01*
X44497524Y-131106524D01*
X44402286Y-131058905D01*
X45830858Y-131011286D02*
X45830858Y-130344619D01*
X45592762Y-131392238D02*
X45354667Y-130677952D01*
X45973715Y-130677952D01*
D12*
X29210000Y-153035000D03*
D13*
X29210000Y-155575000D03*
X29210000Y-158115000D03*
X29210000Y-160655000D03*
X29210000Y-163195000D03*
X29210000Y-165735000D03*
D14*
X29210000Y-140335000D03*
D15*
X31750000Y-140335000D03*
X29210000Y-142875000D03*
X31750000Y-142875000D03*
X29210000Y-145415000D03*
X31750000Y-145415000D03*
D12*
X40640000Y-168910000D03*
D13*
X40640000Y-171450000D03*
X40640000Y-173990000D03*
D12*
X43180000Y-168910000D03*
D13*
X43180000Y-171450000D03*
X43180000Y-173990000D03*
D16*
X63500000Y-132080000D03*
D17*
X60960000Y-132080000D03*
X58420000Y-132080000D03*
X55880000Y-132080000D03*
D18*
X71120000Y-145415000D03*
X71120000Y-150495000D03*
D19*
X71120000Y-140335000D03*
D18*
X71120000Y-155575000D03*
X71120000Y-160655000D03*
X71120000Y-165735000D03*
D14*
X50800000Y-173990000D03*
D15*
X50800000Y-171450000D03*
X53340000Y-173990000D03*
X53340000Y-171450000D03*
X55880000Y-173990000D03*
X55880000Y-171450000D03*
X58420000Y-173990000D03*
X58420000Y-171450000D03*
X60960000Y-173990000D03*
X60960000Y-171450000D03*
D20*
X33274000Y-162560000D03*
X45720000Y-161544000D03*
X38989000Y-161544000D03*
X43942000Y-155448000D03*
X56134000Y-155448000D03*
X33274000Y-155956000D03*
X42164000Y-143002000D03*
X38100000Y-151384000D03*
X38100000Y-149225000D03*
X46482000Y-136652000D03*
X38100000Y-153035000D03*
X49022000Y-141224000D03*
X38100000Y-155956000D03*
X47498000Y-146812000D03*
X43815000Y-139700000D03*
X44196000Y-143764000D03*
X49530000Y-159258000D03*
X44196000Y-146812000D03*
X48006000Y-162814000D03*
X46482000Y-162814000D03*
X55880000Y-160020000D03*
X47752000Y-151892000D03*
X55880000Y-161925000D03*
X46482000Y-151892000D03*
X45212000Y-151892000D03*
X43942000Y-151892000D03*
X38100000Y-147320000D03*
X48514000Y-138684000D03*
X38100000Y-145542000D03*
X46482000Y-138684000D03*
D21*
X30099000Y-165735000D02*
X29210000Y-165735000D01*
X33274000Y-162560000D02*
X30099000Y-165735000D01*
X45720000Y-161544000D02*
X38989000Y-161544000D01*
X31750000Y-140716000D02*
X31750000Y-140335000D01*
X37084000Y-161544000D02*
X32004000Y-156464000D01*
X32004000Y-156464000D02*
X32004000Y-149352000D01*
X32004000Y-149352000D02*
X30480000Y-147828000D01*
X30480000Y-147828000D02*
X30480000Y-141986000D01*
X30480000Y-141986000D02*
X31750000Y-140716000D01*
X38989000Y-161544000D02*
X37084000Y-161544000D01*
X39878000Y-145288000D02*
X39878000Y-149606000D01*
X39878000Y-149606000D02*
X38608000Y-150876000D01*
X42164000Y-143002000D02*
X39878000Y-145288000D01*
X38608000Y-150876000D02*
X38100000Y-151384000D01*
X31750000Y-142875000D02*
X38100000Y-149225000D01*
X37084000Y-148209000D02*
X37084000Y-138684000D01*
X37084000Y-138684000D02*
X37465000Y-138303000D01*
X46355000Y-136652000D02*
X45847000Y-136144000D01*
X45847000Y-136144000D02*
X39624000Y-136144000D01*
X39624000Y-136144000D02*
X37465000Y-138303000D01*
X46482000Y-136652000D02*
X46355000Y-136652000D01*
X38100000Y-149225000D02*
X37084000Y-148209000D01*
X43180000Y-145034000D02*
X45212000Y-145034000D01*
X38227000Y-153162000D02*
X38100000Y-153035000D01*
X38227000Y-153162000D02*
X40132000Y-153162000D01*
X40132000Y-153162000D02*
X41148000Y-152146000D01*
X41148000Y-152146000D02*
X41148000Y-147066000D01*
X41148000Y-147066000D02*
X43180000Y-145034000D01*
X45212000Y-145034000D02*
X49022000Y-141224000D01*
X43434000Y-145796000D02*
X45466000Y-145796000D01*
X45466000Y-145796000D02*
X45720000Y-145796000D01*
X45720000Y-145796000D02*
X46482000Y-145796000D01*
X46482000Y-145796000D02*
X47498000Y-146812000D01*
X38354000Y-155956000D02*
X38100000Y-155956000D01*
X41910000Y-152400000D02*
X41910000Y-147320000D01*
X38354000Y-155956000D02*
X41910000Y-152400000D01*
X41910000Y-147320000D02*
X43434000Y-145796000D01*
X43815000Y-143383000D02*
X44196000Y-143764000D01*
X42926000Y-152400000D02*
X42926000Y-148082000D01*
X49530000Y-159258000D02*
X49530000Y-159004000D01*
X49530000Y-159004000D02*
X49276000Y-158750000D01*
X49276000Y-158750000D02*
X42926000Y-152400000D01*
X42926000Y-148082000D02*
X44196000Y-146812000D01*
X43815000Y-139700000D02*
X43815000Y-143383000D01*
D22*
X29210000Y-163195000D02*
X29845000Y-163195000D01*
D21*
X29337000Y-163322000D02*
X29210000Y-163195000D01*
X46990000Y-163830000D02*
X44704000Y-163830000D01*
X44704000Y-163830000D02*
X44196000Y-163322000D01*
X44196000Y-163322000D02*
X36576000Y-163322000D01*
X48006000Y-162814000D02*
X46990000Y-163830000D01*
X36322000Y-163322000D02*
X34544000Y-161544000D01*
X34544000Y-161544000D02*
X32512000Y-161544000D01*
X32512000Y-161544000D02*
X30861000Y-163195000D01*
X30861000Y-163195000D02*
X29210000Y-163195000D01*
X36576000Y-163322000D02*
X36322000Y-163322000D01*
X45212000Y-162814000D02*
X44958000Y-162560000D01*
X44958000Y-162560000D02*
X37084000Y-162560000D01*
X46482000Y-162814000D02*
X45212000Y-162814000D01*
X36830000Y-162560000D02*
X34925000Y-160655000D01*
X34925000Y-160655000D02*
X29210000Y-160655000D01*
X37084000Y-162560000D02*
X36830000Y-162560000D01*
X55880000Y-160020000D02*
X47752000Y-151892000D01*
X47244000Y-152654000D02*
X47371000Y-152781000D01*
X47371000Y-152781000D02*
X47752000Y-152781000D01*
X47752000Y-152781000D02*
X54991000Y-160020000D01*
X54991000Y-160020000D02*
X54991000Y-161036000D01*
X54991000Y-161036000D02*
X55880000Y-161925000D01*
X46482000Y-151892000D02*
X47244000Y-152654000D01*
X57658000Y-165481000D02*
X60960000Y-168783000D01*
X60960000Y-168783000D02*
X60960000Y-171450000D01*
X45212000Y-151892000D02*
X46609000Y-153289000D01*
X46609000Y-153289000D02*
X46736000Y-153416000D01*
X46736000Y-153416000D02*
X47498000Y-153416000D01*
X47498000Y-153416000D02*
X54356000Y-160274000D01*
X54356000Y-160274000D02*
X54356000Y-162179000D01*
X54356000Y-162179000D02*
X57658000Y-165481000D01*
X58801000Y-167513000D02*
X59690000Y-168402000D01*
X46101000Y-154051000D02*
X47244000Y-154051000D01*
X47244000Y-154051000D02*
X53721000Y-160528000D01*
X53721000Y-160528000D02*
X53721000Y-162433000D01*
X53721000Y-162433000D02*
X58801000Y-167513000D01*
X43942000Y-151892000D02*
X46101000Y-154051000D01*
X59690000Y-172720000D02*
X59944000Y-172974000D01*
X59690000Y-168402000D02*
X59690000Y-172720000D01*
X60960000Y-173990000D02*
X59944000Y-172974000D01*
X47498000Y-139700000D02*
X46228000Y-139700000D01*
X46228000Y-139700000D02*
X44196000Y-137668000D01*
X44196000Y-137668000D02*
X40894000Y-137668000D01*
X48514000Y-138684000D02*
X47498000Y-139700000D01*
X39116000Y-146304000D02*
X38100000Y-147320000D01*
X39116000Y-138684000D02*
X39116000Y-146304000D01*
X40132000Y-137668000D02*
X39116000Y-138684000D01*
X40894000Y-137668000D02*
X40132000Y-137668000D01*
X40894000Y-136906000D02*
X39878000Y-136906000D01*
X39878000Y-136906000D02*
X38100000Y-138684000D01*
X38100000Y-138684000D02*
X38100000Y-145542000D01*
X44704000Y-136906000D02*
X40894000Y-136906000D01*
X46482000Y-138684000D02*
X44704000Y-136906000D01*
G36*
X74499000Y-177369000D02*
X73660440Y-177369000D01*
X73660440Y-165231979D01*
X73274563Y-164298085D01*
X72560673Y-163582948D01*
X72238090Y-163449000D01*
X72263000Y-163449000D01*
X72263000Y-162931006D01*
X72556915Y-162809563D01*
X73272052Y-162095673D01*
X73659559Y-161162454D01*
X73660440Y-160151979D01*
X73274563Y-159218085D01*
X72560673Y-158502948D01*
X72263000Y-158379343D01*
X72263000Y-157851006D01*
X72556915Y-157729563D01*
X73272052Y-157015673D01*
X73659559Y-156082454D01*
X73660440Y-155071979D01*
X73274563Y-154138085D01*
X72560673Y-153422948D01*
X72263000Y-153299343D01*
X72263000Y-152771006D01*
X72556915Y-152649563D01*
X73272052Y-151935673D01*
X73659559Y-151002454D01*
X73660440Y-149991979D01*
X73274563Y-149058085D01*
X72560673Y-148342948D01*
X72263000Y-148219343D01*
X72263000Y-145659974D01*
X73084663Y-146481637D01*
X73307560Y-146219452D01*
X73448892Y-145321074D01*
X73307560Y-144610548D01*
X73084663Y-144348363D01*
X72263000Y-145170026D01*
X72263000Y-142875000D01*
X73151309Y-142875000D01*
X73384698Y-142778327D01*
X73563327Y-142599699D01*
X73660000Y-142366310D01*
X73660000Y-142113691D01*
X73660000Y-138303691D01*
X73563327Y-138070302D01*
X73384699Y-137891673D01*
X73251429Y-137836470D01*
X73251429Y-131657966D01*
X72927678Y-130874428D01*
X72328725Y-130274429D01*
X71545754Y-129949311D01*
X70697966Y-129948571D01*
X69914428Y-130272322D01*
X69314429Y-130871275D01*
X68989311Y-131654246D01*
X68988571Y-132502034D01*
X69312322Y-133285572D01*
X69911275Y-133885571D01*
X70694246Y-134210689D01*
X71542034Y-134211429D01*
X72325572Y-133887678D01*
X72925571Y-133288725D01*
X73250689Y-132505754D01*
X73251429Y-131657966D01*
X73251429Y-137836470D01*
X73151310Y-137795000D01*
X72898691Y-137795000D01*
X72263000Y-137795000D01*
X69088691Y-137795000D01*
X65532000Y-137795000D01*
X65532000Y-163449000D01*
X70001186Y-163449000D01*
X69683085Y-163580437D01*
X68967948Y-164294327D01*
X68580441Y-165227546D01*
X68579560Y-166238021D01*
X68965437Y-167171915D01*
X69679327Y-167887052D01*
X70612546Y-168274559D01*
X71623021Y-168275440D01*
X72556915Y-167889563D01*
X73272052Y-167175673D01*
X73659559Y-166242454D01*
X73660440Y-165231979D01*
X73660440Y-177369000D01*
X73251429Y-177369000D01*
X73251429Y-173567966D01*
X72927678Y-172784428D01*
X72328725Y-172184429D01*
X71545754Y-171859311D01*
X70697966Y-171858571D01*
X69914428Y-172182322D01*
X69314429Y-172781275D01*
X68989311Y-173564246D01*
X68988571Y-174412034D01*
X69312322Y-175195572D01*
X69911275Y-175795571D01*
X70694246Y-176120689D01*
X71542034Y-176121429D01*
X72325572Y-175797678D01*
X72925571Y-175198725D01*
X73250689Y-174415754D01*
X73251429Y-173567966D01*
X73251429Y-177369000D01*
X64744600Y-177369000D01*
X64744600Y-133171785D01*
X64744600Y-133020214D01*
X64744600Y-130988214D01*
X64686596Y-130848180D01*
X64579419Y-130741004D01*
X64439385Y-130683000D01*
X64287814Y-130683000D01*
X62560614Y-130683000D01*
X62420580Y-130741004D01*
X62313404Y-130848181D01*
X62255400Y-130988215D01*
X62255400Y-131139786D01*
X62255400Y-133171786D01*
X62313404Y-133311820D01*
X62420581Y-133418996D01*
X62560615Y-133477000D01*
X62712186Y-133477000D01*
X64439386Y-133477000D01*
X64579420Y-133418996D01*
X64686596Y-133311819D01*
X64744600Y-133171785D01*
X64744600Y-177369000D01*
X62228983Y-177369000D01*
X62228983Y-173990000D01*
X62134243Y-173513712D01*
X61864448Y-173109935D01*
X61460671Y-172840140D01*
X60984383Y-172745400D01*
X60935617Y-172745400D01*
X60517073Y-172828653D01*
X60303210Y-172614790D01*
X60198000Y-172509580D01*
X60198000Y-172425245D01*
X60459329Y-172599860D01*
X60935617Y-172694600D01*
X60984383Y-172694600D01*
X61460671Y-172599860D01*
X61864448Y-172330065D01*
X62134243Y-171926288D01*
X62228983Y-171450000D01*
X62204600Y-171327418D01*
X62204600Y-132259769D01*
X62204600Y-131900231D01*
X62109860Y-131423943D01*
X61840065Y-131020166D01*
X61436288Y-130750371D01*
X60960000Y-130655631D01*
X60483712Y-130750371D01*
X60079935Y-131020166D01*
X59810140Y-131423943D01*
X59715400Y-131900231D01*
X59715400Y-132259769D01*
X59810140Y-132736057D01*
X60079935Y-133139834D01*
X60483712Y-133409629D01*
X60960000Y-133504369D01*
X61436288Y-133409629D01*
X61840065Y-133139834D01*
X62109860Y-132736057D01*
X62204600Y-132259769D01*
X62204600Y-171327418D01*
X62134243Y-170973712D01*
X61864448Y-170569935D01*
X61468000Y-170305037D01*
X61468000Y-168783000D01*
X61429331Y-168588597D01*
X61429331Y-168588596D01*
X61319210Y-168423790D01*
X59664600Y-166769180D01*
X59664600Y-132259769D01*
X59664600Y-131900231D01*
X59569860Y-131423943D01*
X59300065Y-131020166D01*
X58896288Y-130750371D01*
X58420000Y-130655631D01*
X57943712Y-130750371D01*
X57539935Y-131020166D01*
X57270140Y-131423943D01*
X57175400Y-131900231D01*
X57175400Y-132259769D01*
X57270140Y-132736057D01*
X57539935Y-133139834D01*
X57943712Y-133409629D01*
X58420000Y-133504369D01*
X58896288Y-133409629D01*
X59300065Y-133139834D01*
X59569860Y-132736057D01*
X59664600Y-132259769D01*
X59664600Y-166769180D01*
X58017210Y-165121790D01*
X57083109Y-164187689D01*
X57083109Y-132525820D01*
X57083109Y-131634180D01*
X56879241Y-131196105D01*
X56523247Y-130869394D01*
X56321474Y-130763929D01*
X56134000Y-130806668D01*
X56134000Y-131826000D01*
X57018948Y-131826000D01*
X57083109Y-131634180D01*
X57083109Y-132525820D01*
X57018948Y-132334000D01*
X56134000Y-132334000D01*
X56134000Y-133353332D01*
X56321474Y-133396071D01*
X56523247Y-133290606D01*
X56879241Y-132963895D01*
X57083109Y-132525820D01*
X57083109Y-164187689D01*
X55596567Y-162701147D01*
X55715077Y-162750357D01*
X56043482Y-162750643D01*
X56346998Y-162625233D01*
X56579417Y-162393219D01*
X56705357Y-162089923D01*
X56705643Y-161761518D01*
X56580233Y-161458002D01*
X56348219Y-161225583D01*
X56044923Y-161099643D01*
X55772826Y-161099406D01*
X55499000Y-160825580D01*
X55499000Y-160755633D01*
X55715077Y-160845357D01*
X56043482Y-160845643D01*
X56346998Y-160720233D01*
X56579417Y-160488219D01*
X56705357Y-160184923D01*
X56705643Y-159856518D01*
X56580233Y-159553002D01*
X56348219Y-159320583D01*
X56044923Y-159194643D01*
X55772826Y-159194406D01*
X55626000Y-159047580D01*
X55626000Y-133353332D01*
X55626000Y-132334000D01*
X55626000Y-131826000D01*
X55626000Y-130806668D01*
X55438526Y-130763929D01*
X55236753Y-130869394D01*
X54880759Y-131196105D01*
X54676891Y-131634180D01*
X54741052Y-131826000D01*
X55626000Y-131826000D01*
X55626000Y-132334000D01*
X54741052Y-132334000D01*
X54676891Y-132525820D01*
X54880759Y-132963895D01*
X55236753Y-133290606D01*
X55438526Y-133396071D01*
X55626000Y-133353332D01*
X55626000Y-159047580D01*
X48577407Y-151998987D01*
X48577643Y-151728518D01*
X48452233Y-151425002D01*
X48220219Y-151192583D01*
X47916923Y-151066643D01*
X47588518Y-151066357D01*
X47285002Y-151191767D01*
X47116910Y-151359565D01*
X46950219Y-151192583D01*
X46646923Y-151066643D01*
X46318518Y-151066357D01*
X46015002Y-151191767D01*
X45846910Y-151359565D01*
X45680219Y-151192583D01*
X45376923Y-151066643D01*
X45048518Y-151066357D01*
X44745002Y-151191767D01*
X44576910Y-151359565D01*
X44410219Y-151192583D01*
X44106923Y-151066643D01*
X43778518Y-151066357D01*
X43475002Y-151191767D01*
X43434000Y-151232697D01*
X43434000Y-148292420D01*
X44089012Y-147637407D01*
X44359482Y-147637643D01*
X44662998Y-147512233D01*
X44895417Y-147280219D01*
X45021357Y-146976923D01*
X45021643Y-146648518D01*
X44896233Y-146345002D01*
X44855302Y-146304000D01*
X45466000Y-146304000D01*
X45720000Y-146304000D01*
X46271580Y-146304000D01*
X46672592Y-146705012D01*
X46672357Y-146975482D01*
X46797767Y-147278998D01*
X47029781Y-147511417D01*
X47333077Y-147637357D01*
X47661482Y-147637643D01*
X47964998Y-147512233D01*
X48197417Y-147280219D01*
X48323357Y-146976923D01*
X48323643Y-146648518D01*
X48198233Y-146345002D01*
X47966219Y-146112583D01*
X47662923Y-145986643D01*
X47390826Y-145986406D01*
X46841210Y-145436790D01*
X46676403Y-145326669D01*
X46482000Y-145288000D01*
X45720000Y-145288000D01*
X45676420Y-145288000D01*
X48915012Y-142049407D01*
X49185482Y-142049643D01*
X49488998Y-141924233D01*
X49721417Y-141692219D01*
X49847357Y-141388923D01*
X49847643Y-141060518D01*
X49722233Y-140757002D01*
X49490219Y-140524583D01*
X49186923Y-140398643D01*
X48858518Y-140398357D01*
X48555002Y-140523767D01*
X48322583Y-140755781D01*
X48196643Y-141059077D01*
X48196406Y-141331173D01*
X45001580Y-144526000D01*
X44513510Y-144526000D01*
X44662998Y-144464233D01*
X44895417Y-144232219D01*
X45021357Y-143928923D01*
X45021643Y-143600518D01*
X44896233Y-143297002D01*
X44664219Y-143064583D01*
X44360923Y-142938643D01*
X44323000Y-142938609D01*
X44323000Y-140359302D01*
X44514417Y-140168219D01*
X44640357Y-139864923D01*
X44640643Y-139536518D01*
X44515233Y-139233002D01*
X44283219Y-139000583D01*
X43979923Y-138874643D01*
X43651518Y-138874357D01*
X43348002Y-138999767D01*
X43115583Y-139231781D01*
X42989643Y-139535077D01*
X42989357Y-139863482D01*
X43114767Y-140166998D01*
X43307000Y-140359566D01*
X43307000Y-143383000D01*
X43345669Y-143577403D01*
X43370629Y-143614758D01*
X43370357Y-143927482D01*
X43495767Y-144230998D01*
X43727781Y-144463417D01*
X43878497Y-144526000D01*
X43180000Y-144526000D01*
X42985597Y-144564669D01*
X42820790Y-144674790D01*
X40788790Y-146706790D01*
X40678669Y-146871597D01*
X40640000Y-147066000D01*
X40640000Y-151935580D01*
X39921580Y-152654000D01*
X38835766Y-152654000D01*
X38800233Y-152568002D01*
X38568219Y-152335583D01*
X38264923Y-152209643D01*
X38263485Y-152209641D01*
X38566998Y-152084233D01*
X38799417Y-151852219D01*
X38925357Y-151548923D01*
X38925593Y-151276826D01*
X38967210Y-151235211D01*
X38967210Y-151235210D01*
X38967212Y-151235207D01*
X40237210Y-149965210D01*
X40347331Y-149800404D01*
X40347331Y-149800403D01*
X40353746Y-149768150D01*
X40385999Y-149606000D01*
X40386000Y-149606000D01*
X40386000Y-145498420D01*
X42057012Y-143827407D01*
X42327482Y-143827643D01*
X42630998Y-143702233D01*
X42863417Y-143470219D01*
X42989357Y-143166923D01*
X42989643Y-142838518D01*
X42864233Y-142535002D01*
X42632219Y-142302583D01*
X42328923Y-142176643D01*
X42000518Y-142176357D01*
X41697002Y-142301767D01*
X41464583Y-142533781D01*
X41338643Y-142837077D01*
X41338406Y-143109173D01*
X39624000Y-144823580D01*
X39624000Y-138894420D01*
X40342420Y-138176000D01*
X40894000Y-138176000D01*
X43985580Y-138176000D01*
X45868790Y-140059210D01*
X46033597Y-140169331D01*
X46228000Y-140208000D01*
X47498000Y-140208000D01*
X47692403Y-140169331D01*
X47857210Y-140059210D01*
X48407012Y-139509407D01*
X48677482Y-139509643D01*
X48980998Y-139384233D01*
X49213417Y-139152219D01*
X49339357Y-138848923D01*
X49339643Y-138520518D01*
X49214233Y-138217002D01*
X48982219Y-137984583D01*
X48678923Y-137858643D01*
X48350518Y-137858357D01*
X48047002Y-137983767D01*
X47814583Y-138215781D01*
X47688643Y-138519077D01*
X47688406Y-138791173D01*
X47524953Y-138954626D01*
X47524953Y-133653000D01*
X47524953Y-129641000D01*
X39851047Y-129641000D01*
X39851047Y-133653000D01*
X47524953Y-133653000D01*
X47524953Y-138954626D01*
X47287580Y-139192000D01*
X47141566Y-139192000D01*
X47181417Y-139152219D01*
X47307357Y-138848923D01*
X47307643Y-138520518D01*
X47182233Y-138217002D01*
X46950219Y-137984583D01*
X46646923Y-137858643D01*
X46374826Y-137858406D01*
X45168420Y-136652000D01*
X45636579Y-136652000D01*
X45656482Y-136671902D01*
X45656357Y-136815482D01*
X45781767Y-137118998D01*
X46013781Y-137351417D01*
X46317077Y-137477357D01*
X46645482Y-137477643D01*
X46948998Y-137352233D01*
X47181417Y-137120219D01*
X47307357Y-136816923D01*
X47307643Y-136488518D01*
X47182233Y-136185002D01*
X46950219Y-135952583D01*
X46646923Y-135826643D01*
X46318518Y-135826357D01*
X46268460Y-135847040D01*
X46206210Y-135784790D01*
X46041403Y-135674669D01*
X45847000Y-135636000D01*
X39624000Y-135636000D01*
X39429596Y-135674669D01*
X39264790Y-135784790D01*
X37105792Y-137943787D01*
X37105789Y-137943790D01*
X36724790Y-138324790D01*
X36614669Y-138489597D01*
X36576000Y-138684000D01*
X36576000Y-146982580D01*
X32911346Y-143317926D01*
X32994600Y-142899383D01*
X32994600Y-142850617D01*
X32899860Y-142374329D01*
X32630065Y-141970552D01*
X32226288Y-141700757D01*
X31750000Y-141606017D01*
X31535794Y-141648625D01*
X31608569Y-141575850D01*
X31750000Y-141603983D01*
X32226288Y-141509243D01*
X32630065Y-141239448D01*
X32899860Y-140835671D01*
X32994600Y-140359383D01*
X32994600Y-140310617D01*
X32899860Y-139834329D01*
X32630065Y-139430552D01*
X32226288Y-139160757D01*
X31750000Y-139066017D01*
X31341429Y-139147287D01*
X31341429Y-131657966D01*
X31017678Y-130874428D01*
X30418725Y-130274429D01*
X29635754Y-129949311D01*
X28787966Y-129948571D01*
X28004428Y-130272322D01*
X27404429Y-130871275D01*
X27079311Y-131654246D01*
X27078571Y-132502034D01*
X27402322Y-133285572D01*
X28001275Y-133885571D01*
X28784246Y-134210689D01*
X29632034Y-134211429D01*
X30415572Y-133887678D01*
X31015571Y-133288725D01*
X31340689Y-132505754D01*
X31341429Y-131657966D01*
X31341429Y-139147287D01*
X31273712Y-139160757D01*
X30869935Y-139430552D01*
X30600140Y-139834329D01*
X30505400Y-140310617D01*
X30505400Y-140359383D01*
X30600140Y-140835671D01*
X30725017Y-141022562D01*
X30441452Y-141306127D01*
X30454600Y-141274386D01*
X30454600Y-140684250D01*
X30454600Y-139985750D01*
X30454600Y-139395614D01*
X30396596Y-139255580D01*
X30289419Y-139148404D01*
X30149385Y-139090400D01*
X29997814Y-139090400D01*
X29559250Y-139090400D01*
X29464000Y-139185650D01*
X29464000Y-140081000D01*
X30359350Y-140081000D01*
X30454600Y-139985750D01*
X30454600Y-140684250D01*
X30359350Y-140589000D01*
X29464000Y-140589000D01*
X29464000Y-141484350D01*
X29559250Y-141579600D01*
X29997814Y-141579600D01*
X30149385Y-141579600D01*
X30181128Y-141566451D01*
X30120790Y-141626790D01*
X30010669Y-141791597D01*
X29988563Y-141902730D01*
X29686288Y-141700757D01*
X29210000Y-141606017D01*
X28956000Y-141656540D01*
X28956000Y-141484350D01*
X28956000Y-140589000D01*
X28956000Y-140081000D01*
X28956000Y-139185650D01*
X28860750Y-139090400D01*
X28422186Y-139090400D01*
X28270615Y-139090400D01*
X28130581Y-139148404D01*
X28023404Y-139255580D01*
X27965400Y-139395614D01*
X27965400Y-139985750D01*
X28060650Y-140081000D01*
X28956000Y-140081000D01*
X28956000Y-140589000D01*
X28060650Y-140589000D01*
X27965400Y-140684250D01*
X27965400Y-141274386D01*
X28023404Y-141414420D01*
X28130581Y-141521596D01*
X28270615Y-141579600D01*
X28422186Y-141579600D01*
X28860750Y-141579600D01*
X28956000Y-141484350D01*
X28956000Y-141656540D01*
X28733712Y-141700757D01*
X28329935Y-141970552D01*
X28060140Y-142374329D01*
X27965400Y-142850617D01*
X27965400Y-142899383D01*
X28060140Y-143375671D01*
X28329935Y-143779448D01*
X28733712Y-144049243D01*
X29210000Y-144143983D01*
X29686288Y-144049243D01*
X29972000Y-143858336D01*
X29972000Y-144431663D01*
X29686288Y-144240757D01*
X29210000Y-144146017D01*
X28733712Y-144240757D01*
X28329935Y-144510552D01*
X28060140Y-144914329D01*
X27965400Y-145390617D01*
X27965400Y-145439383D01*
X28060140Y-145915671D01*
X28329935Y-146319448D01*
X28733712Y-146589243D01*
X29210000Y-146683983D01*
X29686288Y-146589243D01*
X29972000Y-146398336D01*
X29972000Y-147828000D01*
X30010669Y-148022403D01*
X30120790Y-148187210D01*
X31496000Y-149562420D01*
X31496000Y-156464000D01*
X31534669Y-156658403D01*
X31644790Y-156823210D01*
X34979400Y-160157820D01*
X34925000Y-160147000D01*
X30634369Y-160147000D01*
X30634369Y-158115000D01*
X30607000Y-157977407D01*
X30607000Y-153974385D01*
X30607000Y-153822814D01*
X30607000Y-152095614D01*
X30548996Y-151955580D01*
X30441819Y-151848404D01*
X30301785Y-151790400D01*
X30150214Y-151790400D01*
X28118214Y-151790400D01*
X27978180Y-151848404D01*
X27871004Y-151955581D01*
X27813000Y-152095615D01*
X27813000Y-152247186D01*
X27813000Y-153974386D01*
X27871004Y-154114420D01*
X27978181Y-154221596D01*
X28118215Y-154279600D01*
X28269786Y-154279600D01*
X30301786Y-154279600D01*
X30441820Y-154221596D01*
X30548996Y-154114419D01*
X30607000Y-153974385D01*
X30607000Y-157977407D01*
X30539629Y-157638712D01*
X30526071Y-157618421D01*
X30526071Y-156016474D01*
X30526071Y-155133526D01*
X30420606Y-154931753D01*
X30093895Y-154575759D01*
X29655820Y-154371891D01*
X29464000Y-154436052D01*
X29464000Y-155321000D01*
X30483332Y-155321000D01*
X30526071Y-155133526D01*
X30526071Y-156016474D01*
X30483332Y-155829000D01*
X29464000Y-155829000D01*
X29464000Y-156713948D01*
X29655820Y-156778109D01*
X30093895Y-156574241D01*
X30420606Y-156218247D01*
X30526071Y-156016474D01*
X30526071Y-157618421D01*
X30269834Y-157234935D01*
X29866057Y-156965140D01*
X29389769Y-156870400D01*
X29030231Y-156870400D01*
X28956000Y-156885165D01*
X28956000Y-156713948D01*
X28956000Y-155829000D01*
X28956000Y-155321000D01*
X28956000Y-154436052D01*
X28764180Y-154371891D01*
X28326105Y-154575759D01*
X27999394Y-154931753D01*
X27893929Y-155133526D01*
X27936668Y-155321000D01*
X28956000Y-155321000D01*
X28956000Y-155829000D01*
X27936668Y-155829000D01*
X27893929Y-156016474D01*
X27999394Y-156218247D01*
X28326105Y-156574241D01*
X28764180Y-156778109D01*
X28956000Y-156713948D01*
X28956000Y-156885165D01*
X28553943Y-156965140D01*
X28150166Y-157234935D01*
X27880371Y-157638712D01*
X27785631Y-158115000D01*
X27880371Y-158591288D01*
X28150166Y-158995065D01*
X28553943Y-159264860D01*
X29030231Y-159359600D01*
X29389769Y-159359600D01*
X29866057Y-159264860D01*
X30269834Y-158995065D01*
X30539629Y-158591288D01*
X30634369Y-158115000D01*
X30634369Y-160147000D01*
X30518439Y-160147000D01*
X30269834Y-159774935D01*
X29866057Y-159505140D01*
X29389769Y-159410400D01*
X29030231Y-159410400D01*
X28553943Y-159505140D01*
X28150166Y-159774935D01*
X27880371Y-160178712D01*
X27785631Y-160655000D01*
X27880371Y-161131288D01*
X28150166Y-161535065D01*
X28553943Y-161804860D01*
X29030231Y-161899600D01*
X29389769Y-161899600D01*
X29866057Y-161804860D01*
X30269834Y-161535065D01*
X30518439Y-161163000D01*
X32185399Y-161163000D01*
X32152790Y-161184789D01*
X30650579Y-162687000D01*
X30518439Y-162687000D01*
X30269834Y-162314935D01*
X29866057Y-162045140D01*
X29389769Y-161950400D01*
X29030231Y-161950400D01*
X28553943Y-162045140D01*
X28150166Y-162314935D01*
X27880371Y-162718712D01*
X27785631Y-163195000D01*
X27880371Y-163671288D01*
X28150166Y-164075065D01*
X28553943Y-164344860D01*
X29030231Y-164439600D01*
X29389769Y-164439600D01*
X29866057Y-164344860D01*
X30269834Y-164075065D01*
X30518439Y-163703000D01*
X30861000Y-163703000D01*
X31055403Y-163664331D01*
X31220210Y-163554210D01*
X32497852Y-162276568D01*
X32448643Y-162395077D01*
X32448406Y-162667173D01*
X30264325Y-164851254D01*
X29866057Y-164585140D01*
X29389769Y-164490400D01*
X29030231Y-164490400D01*
X28553943Y-164585140D01*
X28150166Y-164854935D01*
X27880371Y-165258712D01*
X27785631Y-165735000D01*
X27880371Y-166211288D01*
X28150166Y-166615065D01*
X28553943Y-166884860D01*
X29030231Y-166979600D01*
X29389769Y-166979600D01*
X29866057Y-166884860D01*
X30269834Y-166615065D01*
X30539629Y-166211288D01*
X30588916Y-165963503D01*
X33167012Y-163385407D01*
X33437482Y-163385643D01*
X33740998Y-163260233D01*
X33973417Y-163028219D01*
X34099357Y-162724923D01*
X34099643Y-162396518D01*
X33974233Y-162093002D01*
X33933302Y-162052000D01*
X34333580Y-162052000D01*
X35962790Y-163681210D01*
X36127597Y-163791331D01*
X36322000Y-163830000D01*
X36576000Y-163830000D01*
X43985579Y-163830000D01*
X44344789Y-164189210D01*
X44344790Y-164189210D01*
X44454910Y-164262790D01*
X44509596Y-164299330D01*
X44509597Y-164299331D01*
X44704000Y-164338000D01*
X46990000Y-164338000D01*
X47184403Y-164299331D01*
X47349210Y-164189210D01*
X47899012Y-163639407D01*
X48169482Y-163639643D01*
X48472998Y-163514233D01*
X48705417Y-163282219D01*
X48831357Y-162978923D01*
X48831643Y-162650518D01*
X48706233Y-162347002D01*
X48474219Y-162114583D01*
X48170923Y-161988643D01*
X47842518Y-161988357D01*
X47539002Y-162113767D01*
X47306583Y-162345781D01*
X47244001Y-162496493D01*
X47182233Y-162347002D01*
X46950219Y-162114583D01*
X46646923Y-161988643D01*
X46429285Y-161988453D01*
X46545357Y-161708923D01*
X46545643Y-161380518D01*
X46420233Y-161077002D01*
X46188219Y-160844583D01*
X45884923Y-160718643D01*
X45556518Y-160718357D01*
X45253002Y-160843767D01*
X45060433Y-161036000D01*
X39648302Y-161036000D01*
X39457219Y-160844583D01*
X39153923Y-160718643D01*
X38825518Y-160718357D01*
X38522002Y-160843767D01*
X38329433Y-161036000D01*
X37294420Y-161036000D01*
X32512000Y-156253580D01*
X32512000Y-149352000D01*
X32473331Y-149157597D01*
X32473330Y-149157596D01*
X32436790Y-149102910D01*
X32363210Y-148992790D01*
X32363210Y-148992789D01*
X30988000Y-147617579D01*
X30988000Y-146398336D01*
X31273712Y-146589243D01*
X31750000Y-146683983D01*
X32226288Y-146589243D01*
X32630065Y-146319448D01*
X32899860Y-145915671D01*
X32994600Y-145439383D01*
X32994600Y-145390617D01*
X32899860Y-144914329D01*
X32630065Y-144510552D01*
X32226288Y-144240757D01*
X31750000Y-144146017D01*
X31273712Y-144240757D01*
X30988000Y-144431663D01*
X30988000Y-143858336D01*
X31273712Y-144049243D01*
X31750000Y-144143983D01*
X32209218Y-144052638D01*
X36724790Y-148568210D01*
X37274592Y-149118012D01*
X37274357Y-149388482D01*
X37399767Y-149691998D01*
X37631781Y-149924417D01*
X37935077Y-150050357D01*
X38263482Y-150050643D01*
X38566998Y-149925233D01*
X38799417Y-149693219D01*
X38925357Y-149389923D01*
X38925643Y-149061518D01*
X38800233Y-148758002D01*
X38568219Y-148525583D01*
X38264923Y-148399643D01*
X37992826Y-148399406D01*
X37592000Y-147998580D01*
X37592000Y-147979566D01*
X37631781Y-148019417D01*
X37935077Y-148145357D01*
X38263482Y-148145643D01*
X38566998Y-148020233D01*
X38799417Y-147788219D01*
X38925357Y-147484923D01*
X38925593Y-147212826D01*
X39370000Y-146768420D01*
X39370000Y-149395580D01*
X38248792Y-150516787D01*
X38248789Y-150516790D01*
X38206986Y-150558592D01*
X37936518Y-150558357D01*
X37633002Y-150683767D01*
X37400583Y-150915781D01*
X37274643Y-151219077D01*
X37274357Y-151547482D01*
X37399767Y-151850998D01*
X37631781Y-152083417D01*
X37935077Y-152209357D01*
X37936514Y-152209358D01*
X37633002Y-152334767D01*
X37400583Y-152566781D01*
X37274643Y-152870077D01*
X37274357Y-153198482D01*
X37399767Y-153501998D01*
X37631781Y-153734417D01*
X37935077Y-153860357D01*
X38263482Y-153860643D01*
X38566998Y-153735233D01*
X38632344Y-153670000D01*
X39921579Y-153670000D01*
X38403425Y-155188154D01*
X38264923Y-155130643D01*
X37936518Y-155130357D01*
X37633002Y-155255767D01*
X37400583Y-155487781D01*
X37274643Y-155791077D01*
X37274357Y-156119482D01*
X37399767Y-156422998D01*
X37631781Y-156655417D01*
X37935077Y-156781357D01*
X38263482Y-156781643D01*
X38566998Y-156656233D01*
X38799417Y-156424219D01*
X38925357Y-156120923D01*
X38925372Y-156103047D01*
X42269210Y-152759211D01*
X42269210Y-152759210D01*
X42379331Y-152594404D01*
X42379331Y-152594403D01*
X42385746Y-152562150D01*
X42417999Y-152400000D01*
X42418000Y-152400000D01*
X42456669Y-152594403D01*
X42566790Y-152759210D01*
X48762154Y-158954574D01*
X48704643Y-159093077D01*
X48704357Y-159421482D01*
X48829767Y-159724998D01*
X49061781Y-159957417D01*
X49365077Y-160083357D01*
X49693482Y-160083643D01*
X49996998Y-159958233D01*
X50229417Y-159726219D01*
X50355357Y-159422923D01*
X50355643Y-159094518D01*
X50230233Y-158791002D01*
X49998219Y-158558583D01*
X49694923Y-158432643D01*
X49677047Y-158432627D01*
X49635210Y-158390790D01*
X43961937Y-152717517D01*
X44049173Y-152717593D01*
X45741790Y-154410210D01*
X45906596Y-154520331D01*
X45906597Y-154520331D01*
X46101000Y-154559000D01*
X47033580Y-154559000D01*
X53213000Y-160738420D01*
X53213000Y-162433000D01*
X53251669Y-162627403D01*
X53361790Y-162792210D01*
X58441790Y-167872210D01*
X59182000Y-168612420D01*
X59182000Y-170474754D01*
X58920671Y-170300140D01*
X58444383Y-170205400D01*
X58395617Y-170205400D01*
X57919329Y-170300140D01*
X57515552Y-170569935D01*
X57245757Y-170973712D01*
X57151017Y-171450000D01*
X57245757Y-171926288D01*
X57515552Y-172330065D01*
X57919329Y-172599860D01*
X58395617Y-172694600D01*
X58444383Y-172694600D01*
X58920671Y-172599860D01*
X59182000Y-172425245D01*
X59182000Y-172720000D01*
X59220669Y-172914403D01*
X59330790Y-173079210D01*
X59584790Y-173333210D01*
X59782361Y-173530781D01*
X59691017Y-173990000D01*
X59785757Y-174466288D01*
X60055552Y-174870065D01*
X60459329Y-175139860D01*
X60935617Y-175234600D01*
X60984383Y-175234600D01*
X61460671Y-175139860D01*
X61864448Y-174870065D01*
X62134243Y-174466288D01*
X62228983Y-173990000D01*
X62228983Y-177369000D01*
X59688983Y-177369000D01*
X59688983Y-173990000D01*
X59594243Y-173513712D01*
X59324448Y-173109935D01*
X58920671Y-172840140D01*
X58444383Y-172745400D01*
X58395617Y-172745400D01*
X57919329Y-172840140D01*
X57515552Y-173109935D01*
X57245757Y-173513712D01*
X57151017Y-173990000D01*
X57245757Y-174466288D01*
X57515552Y-174870065D01*
X57919329Y-175139860D01*
X58395617Y-175234600D01*
X58444383Y-175234600D01*
X58920671Y-175139860D01*
X59324448Y-174870065D01*
X59594243Y-174466288D01*
X59688983Y-173990000D01*
X59688983Y-177369000D01*
X57148983Y-177369000D01*
X57148983Y-173990000D01*
X57148983Y-171450000D01*
X57054243Y-170973712D01*
X56784448Y-170569935D01*
X56380671Y-170300140D01*
X55904383Y-170205400D01*
X55855617Y-170205400D01*
X55379329Y-170300140D01*
X54975552Y-170569935D01*
X54705757Y-170973712D01*
X54611017Y-171450000D01*
X54705757Y-171926288D01*
X54975552Y-172330065D01*
X55379329Y-172599860D01*
X55855617Y-172694600D01*
X55904383Y-172694600D01*
X56380671Y-172599860D01*
X56784448Y-172330065D01*
X57054243Y-171926288D01*
X57148983Y-171450000D01*
X57148983Y-173990000D01*
X57054243Y-173513712D01*
X56784448Y-173109935D01*
X56380671Y-172840140D01*
X55904383Y-172745400D01*
X55855617Y-172745400D01*
X55379329Y-172840140D01*
X54975552Y-173109935D01*
X54705757Y-173513712D01*
X54611017Y-173990000D01*
X54705757Y-174466288D01*
X54975552Y-174870065D01*
X55379329Y-175139860D01*
X55855617Y-175234600D01*
X55904383Y-175234600D01*
X56380671Y-175139860D01*
X56784448Y-174870065D01*
X57054243Y-174466288D01*
X57148983Y-173990000D01*
X57148983Y-177369000D01*
X54608983Y-177369000D01*
X54608983Y-173990000D01*
X54608983Y-171450000D01*
X54514243Y-170973712D01*
X54244448Y-170569935D01*
X53840671Y-170300140D01*
X53364383Y-170205400D01*
X53315617Y-170205400D01*
X52839329Y-170300140D01*
X52435552Y-170569935D01*
X52165757Y-170973712D01*
X52071017Y-171450000D01*
X52165757Y-171926288D01*
X52435552Y-172330065D01*
X52839329Y-172599860D01*
X53315617Y-172694600D01*
X53364383Y-172694600D01*
X53840671Y-172599860D01*
X54244448Y-172330065D01*
X54514243Y-171926288D01*
X54608983Y-171450000D01*
X54608983Y-173990000D01*
X54514243Y-173513712D01*
X54244448Y-173109935D01*
X53840671Y-172840140D01*
X53364383Y-172745400D01*
X53315617Y-172745400D01*
X52839329Y-172840140D01*
X52435552Y-173109935D01*
X52165757Y-173513712D01*
X52071017Y-173990000D01*
X52165757Y-174466288D01*
X52435552Y-174870065D01*
X52839329Y-175139860D01*
X53315617Y-175234600D01*
X53364383Y-175234600D01*
X53840671Y-175139860D01*
X54244448Y-174870065D01*
X54514243Y-174466288D01*
X54608983Y-173990000D01*
X54608983Y-177369000D01*
X52068983Y-177369000D01*
X52068983Y-171450000D01*
X51974243Y-170973712D01*
X51704448Y-170569935D01*
X51300671Y-170300140D01*
X50824383Y-170205400D01*
X50775617Y-170205400D01*
X50299329Y-170300140D01*
X49895552Y-170569935D01*
X49625757Y-170973712D01*
X49531017Y-171450000D01*
X49625757Y-171926288D01*
X49895552Y-172330065D01*
X50299329Y-172599860D01*
X50775617Y-172694600D01*
X50824383Y-172694600D01*
X51300671Y-172599860D01*
X51704448Y-172330065D01*
X51974243Y-171926288D01*
X52068983Y-171450000D01*
X52068983Y-177369000D01*
X52044600Y-177369000D01*
X52044600Y-174929385D01*
X52044600Y-174777814D01*
X52044600Y-174339250D01*
X52044600Y-173640750D01*
X52044600Y-173202186D01*
X52044600Y-173050615D01*
X51986596Y-172910581D01*
X51879420Y-172803404D01*
X51739386Y-172745400D01*
X51149250Y-172745400D01*
X51054000Y-172840650D01*
X51054000Y-173736000D01*
X51949350Y-173736000D01*
X52044600Y-173640750D01*
X52044600Y-174339250D01*
X51949350Y-174244000D01*
X51054000Y-174244000D01*
X51054000Y-175139350D01*
X51149250Y-175234600D01*
X51739386Y-175234600D01*
X51879420Y-175176596D01*
X51986596Y-175069419D01*
X52044600Y-174929385D01*
X52044600Y-177369000D01*
X50546000Y-177369000D01*
X50546000Y-175139350D01*
X50546000Y-174244000D01*
X50546000Y-173736000D01*
X50546000Y-172840650D01*
X50450750Y-172745400D01*
X49860614Y-172745400D01*
X49720580Y-172803404D01*
X49613404Y-172910581D01*
X49555400Y-173050615D01*
X49555400Y-173202186D01*
X49555400Y-173640750D01*
X49650650Y-173736000D01*
X50546000Y-173736000D01*
X50546000Y-174244000D01*
X49650650Y-174244000D01*
X49555400Y-174339250D01*
X49555400Y-174777814D01*
X49555400Y-174929385D01*
X49613404Y-175069419D01*
X49720580Y-175176596D01*
X49860614Y-175234600D01*
X50450750Y-175234600D01*
X50546000Y-175139350D01*
X50546000Y-177369000D01*
X44604369Y-177369000D01*
X44604369Y-171450000D01*
X44577000Y-171312407D01*
X44577000Y-169849385D01*
X44577000Y-169697814D01*
X44577000Y-167970614D01*
X44518996Y-167830580D01*
X44411819Y-167723404D01*
X44271785Y-167665400D01*
X44120214Y-167665400D01*
X42088214Y-167665400D01*
X41948180Y-167723404D01*
X41909999Y-167761584D01*
X41871819Y-167723404D01*
X41731785Y-167665400D01*
X41580214Y-167665400D01*
X39548214Y-167665400D01*
X39408180Y-167723404D01*
X39301004Y-167830581D01*
X39243000Y-167970615D01*
X39243000Y-168122186D01*
X39243000Y-169849386D01*
X39301004Y-169989420D01*
X39408181Y-170096596D01*
X39548215Y-170154600D01*
X39699786Y-170154600D01*
X41731786Y-170154600D01*
X41871820Y-170096596D01*
X41910000Y-170058415D01*
X41948181Y-170096596D01*
X42088215Y-170154600D01*
X42239786Y-170154600D01*
X44271786Y-170154600D01*
X44411820Y-170096596D01*
X44518996Y-169989419D01*
X44577000Y-169849385D01*
X44577000Y-171312407D01*
X44509629Y-170973712D01*
X44239834Y-170569935D01*
X43836057Y-170300140D01*
X43359769Y-170205400D01*
X43000231Y-170205400D01*
X42523943Y-170300140D01*
X42120166Y-170569935D01*
X41910000Y-170884470D01*
X41699834Y-170569935D01*
X41296057Y-170300140D01*
X40819769Y-170205400D01*
X40460231Y-170205400D01*
X39983943Y-170300140D01*
X39580166Y-170569935D01*
X39310371Y-170973712D01*
X39215631Y-171450000D01*
X39310371Y-171926288D01*
X39580166Y-172330065D01*
X39983943Y-172599860D01*
X40460231Y-172694600D01*
X40819769Y-172694600D01*
X41296057Y-172599860D01*
X41699834Y-172330065D01*
X41910000Y-172015529D01*
X42120166Y-172330065D01*
X42523943Y-172599860D01*
X43000231Y-172694600D01*
X43359769Y-172694600D01*
X43836057Y-172599860D01*
X44239834Y-172330065D01*
X44509629Y-171926288D01*
X44604369Y-171450000D01*
X44604369Y-177369000D01*
X44496071Y-177369000D01*
X44496071Y-174431474D01*
X44496071Y-173548526D01*
X44390606Y-173346753D01*
X44063895Y-172990759D01*
X43625820Y-172786891D01*
X43434000Y-172851052D01*
X43434000Y-173736000D01*
X44453332Y-173736000D01*
X44496071Y-173548526D01*
X44496071Y-174431474D01*
X44453332Y-174244000D01*
X43434000Y-174244000D01*
X43434000Y-175128948D01*
X43625820Y-175193109D01*
X44063895Y-174989241D01*
X44390606Y-174633247D01*
X44496071Y-174431474D01*
X44496071Y-177369000D01*
X42926000Y-177369000D01*
X42926000Y-175128948D01*
X42926000Y-174244000D01*
X42926000Y-173736000D01*
X42926000Y-172851052D01*
X42734180Y-172786891D01*
X42296105Y-172990759D01*
X41969394Y-173346753D01*
X41910000Y-173460384D01*
X41850606Y-173346753D01*
X41523895Y-172990759D01*
X41085820Y-172786891D01*
X40894000Y-172851052D01*
X40894000Y-173736000D01*
X41906668Y-173736000D01*
X41913332Y-173736000D01*
X42926000Y-173736000D01*
X42926000Y-174244000D01*
X41913332Y-174244000D01*
X41906668Y-174244000D01*
X40894000Y-174244000D01*
X40894000Y-175128948D01*
X41085820Y-175193109D01*
X41523895Y-174989241D01*
X41850606Y-174633247D01*
X41910000Y-174519615D01*
X41969394Y-174633247D01*
X42296105Y-174989241D01*
X42734180Y-175193109D01*
X42926000Y-175128948D01*
X42926000Y-177369000D01*
X40386000Y-177369000D01*
X40386000Y-175128948D01*
X40386000Y-174244000D01*
X40386000Y-173736000D01*
X40386000Y-172851052D01*
X40194180Y-172786891D01*
X39756105Y-172990759D01*
X39429394Y-173346753D01*
X39323929Y-173548526D01*
X39366668Y-173736000D01*
X40386000Y-173736000D01*
X40386000Y-174244000D01*
X39366668Y-174244000D01*
X39323929Y-174431474D01*
X39429394Y-174633247D01*
X39756105Y-174989241D01*
X40194180Y-175193109D01*
X40386000Y-175128948D01*
X40386000Y-177369000D01*
X31750000Y-177369000D01*
X31341429Y-177369000D01*
X31341429Y-173567966D01*
X31017678Y-172784428D01*
X30418725Y-172184429D01*
X29635754Y-171859311D01*
X28787966Y-171858571D01*
X28004428Y-172182322D01*
X27404429Y-172781275D01*
X27079311Y-173564246D01*
X27078571Y-174412034D01*
X27402322Y-175195572D01*
X28001275Y-175795571D01*
X28784246Y-176120689D01*
X29632034Y-176121429D01*
X30415572Y-175797678D01*
X31015571Y-175198725D01*
X31340689Y-174415754D01*
X31341429Y-173567966D01*
X31341429Y-177369000D01*
X25831000Y-177369000D01*
X25831000Y-128701000D01*
X74499000Y-128701000D01*
X74499000Y-177369000D01*
X74499000Y-177369000D01*
G37*
X74499000Y-177369000D02*
X73660440Y-177369000D01*
X73660440Y-165231979D01*
X73274563Y-164298085D01*
X72560673Y-163582948D01*
X72238090Y-163449000D01*
X72263000Y-163449000D01*
X72263000Y-162931006D01*
X72556915Y-162809563D01*
X73272052Y-162095673D01*
X73659559Y-161162454D01*
X73660440Y-160151979D01*
X73274563Y-159218085D01*
X72560673Y-158502948D01*
X72263000Y-158379343D01*
X72263000Y-157851006D01*
X72556915Y-157729563D01*
X73272052Y-157015673D01*
X73659559Y-156082454D01*
X73660440Y-155071979D01*
X73274563Y-154138085D01*
X72560673Y-153422948D01*
X72263000Y-153299343D01*
X72263000Y-152771006D01*
X72556915Y-152649563D01*
X73272052Y-151935673D01*
X73659559Y-151002454D01*
X73660440Y-149991979D01*
X73274563Y-149058085D01*
X72560673Y-148342948D01*
X72263000Y-148219343D01*
X72263000Y-145659974D01*
X73084663Y-146481637D01*
X73307560Y-146219452D01*
X73448892Y-145321074D01*
X73307560Y-144610548D01*
X73084663Y-144348363D01*
X72263000Y-145170026D01*
X72263000Y-142875000D01*
X73151309Y-142875000D01*
X73384698Y-142778327D01*
X73563327Y-142599699D01*
X73660000Y-142366310D01*
X73660000Y-142113691D01*
X73660000Y-138303691D01*
X73563327Y-138070302D01*
X73384699Y-137891673D01*
X73251429Y-137836470D01*
X73251429Y-131657966D01*
X72927678Y-130874428D01*
X72328725Y-130274429D01*
X71545754Y-129949311D01*
X70697966Y-129948571D01*
X69914428Y-130272322D01*
X69314429Y-130871275D01*
X68989311Y-131654246D01*
X68988571Y-132502034D01*
X69312322Y-133285572D01*
X69911275Y-133885571D01*
X70694246Y-134210689D01*
X71542034Y-134211429D01*
X72325572Y-133887678D01*
X72925571Y-133288725D01*
X73250689Y-132505754D01*
X73251429Y-131657966D01*
X73251429Y-137836470D01*
X73151310Y-137795000D01*
X72898691Y-137795000D01*
X72263000Y-137795000D01*
X69088691Y-137795000D01*
X65532000Y-137795000D01*
X65532000Y-163449000D01*
X70001186Y-163449000D01*
X69683085Y-163580437D01*
X68967948Y-164294327D01*
X68580441Y-165227546D01*
X68579560Y-166238021D01*
X68965437Y-167171915D01*
X69679327Y-167887052D01*
X70612546Y-168274559D01*
X71623021Y-168275440D01*
X72556915Y-167889563D01*
X73272052Y-167175673D01*
X73659559Y-166242454D01*
X73660440Y-165231979D01*
X73660440Y-177369000D01*
X73251429Y-177369000D01*
X73251429Y-173567966D01*
X72927678Y-172784428D01*
X72328725Y-172184429D01*
X71545754Y-171859311D01*
X70697966Y-171858571D01*
X69914428Y-172182322D01*
X69314429Y-172781275D01*
X68989311Y-173564246D01*
X68988571Y-174412034D01*
X69312322Y-175195572D01*
X69911275Y-175795571D01*
X70694246Y-176120689D01*
X71542034Y-176121429D01*
X72325572Y-175797678D01*
X72925571Y-175198725D01*
X73250689Y-174415754D01*
X73251429Y-173567966D01*
X73251429Y-177369000D01*
X64744600Y-177369000D01*
X64744600Y-133171785D01*
X64744600Y-133020214D01*
X64744600Y-130988214D01*
X64686596Y-130848180D01*
X64579419Y-130741004D01*
X64439385Y-130683000D01*
X64287814Y-130683000D01*
X62560614Y-130683000D01*
X62420580Y-130741004D01*
X62313404Y-130848181D01*
X62255400Y-130988215D01*
X62255400Y-131139786D01*
X62255400Y-133171786D01*
X62313404Y-133311820D01*
X62420581Y-133418996D01*
X62560615Y-133477000D01*
X62712186Y-133477000D01*
X64439386Y-133477000D01*
X64579420Y-133418996D01*
X64686596Y-133311819D01*
X64744600Y-133171785D01*
X64744600Y-177369000D01*
X62228983Y-177369000D01*
X62228983Y-173990000D01*
X62134243Y-173513712D01*
X61864448Y-173109935D01*
X61460671Y-172840140D01*
X60984383Y-172745400D01*
X60935617Y-172745400D01*
X60517073Y-172828653D01*
X60303210Y-172614790D01*
X60198000Y-172509580D01*
X60198000Y-172425245D01*
X60459329Y-172599860D01*
X60935617Y-172694600D01*
X60984383Y-172694600D01*
X61460671Y-172599860D01*
X61864448Y-172330065D01*
X62134243Y-171926288D01*
X62228983Y-171450000D01*
X62204600Y-171327418D01*
X62204600Y-132259769D01*
X62204600Y-131900231D01*
X62109860Y-131423943D01*
X61840065Y-131020166D01*
X61436288Y-130750371D01*
X60960000Y-130655631D01*
X60483712Y-130750371D01*
X60079935Y-131020166D01*
X59810140Y-131423943D01*
X59715400Y-131900231D01*
X59715400Y-132259769D01*
X59810140Y-132736057D01*
X60079935Y-133139834D01*
X60483712Y-133409629D01*
X60960000Y-133504369D01*
X61436288Y-133409629D01*
X61840065Y-133139834D01*
X62109860Y-132736057D01*
X62204600Y-132259769D01*
X62204600Y-171327418D01*
X62134243Y-170973712D01*
X61864448Y-170569935D01*
X61468000Y-170305037D01*
X61468000Y-168783000D01*
X61429331Y-168588597D01*
X61429331Y-168588596D01*
X61319210Y-168423790D01*
X59664600Y-166769180D01*
X59664600Y-132259769D01*
X59664600Y-131900231D01*
X59569860Y-131423943D01*
X59300065Y-131020166D01*
X58896288Y-130750371D01*
X58420000Y-130655631D01*
X57943712Y-130750371D01*
X57539935Y-131020166D01*
X57270140Y-131423943D01*
X57175400Y-131900231D01*
X57175400Y-132259769D01*
X57270140Y-132736057D01*
X57539935Y-133139834D01*
X57943712Y-133409629D01*
X58420000Y-133504369D01*
X58896288Y-133409629D01*
X59300065Y-133139834D01*
X59569860Y-132736057D01*
X59664600Y-132259769D01*
X59664600Y-166769180D01*
X58017210Y-165121790D01*
X57083109Y-164187689D01*
X57083109Y-132525820D01*
X57083109Y-131634180D01*
X56879241Y-131196105D01*
X56523247Y-130869394D01*
X56321474Y-130763929D01*
X56134000Y-130806668D01*
X56134000Y-131826000D01*
X57018948Y-131826000D01*
X57083109Y-131634180D01*
X57083109Y-132525820D01*
X57018948Y-132334000D01*
X56134000Y-132334000D01*
X56134000Y-133353332D01*
X56321474Y-133396071D01*
X56523247Y-133290606D01*
X56879241Y-132963895D01*
X57083109Y-132525820D01*
X57083109Y-164187689D01*
X55596567Y-162701147D01*
X55715077Y-162750357D01*
X56043482Y-162750643D01*
X56346998Y-162625233D01*
X56579417Y-162393219D01*
X56705357Y-162089923D01*
X56705643Y-161761518D01*
X56580233Y-161458002D01*
X56348219Y-161225583D01*
X56044923Y-161099643D01*
X55772826Y-161099406D01*
X55499000Y-160825580D01*
X55499000Y-160755633D01*
X55715077Y-160845357D01*
X56043482Y-160845643D01*
X56346998Y-160720233D01*
X56579417Y-160488219D01*
X56705357Y-160184923D01*
X56705643Y-159856518D01*
X56580233Y-159553002D01*
X56348219Y-159320583D01*
X56044923Y-159194643D01*
X55772826Y-159194406D01*
X55626000Y-159047580D01*
X55626000Y-133353332D01*
X55626000Y-132334000D01*
X55626000Y-131826000D01*
X55626000Y-130806668D01*
X55438526Y-130763929D01*
X55236753Y-130869394D01*
X54880759Y-131196105D01*
X54676891Y-131634180D01*
X54741052Y-131826000D01*
X55626000Y-131826000D01*
X55626000Y-132334000D01*
X54741052Y-132334000D01*
X54676891Y-132525820D01*
X54880759Y-132963895D01*
X55236753Y-133290606D01*
X55438526Y-133396071D01*
X55626000Y-133353332D01*
X55626000Y-159047580D01*
X48577407Y-151998987D01*
X48577643Y-151728518D01*
X48452233Y-151425002D01*
X48220219Y-151192583D01*
X47916923Y-151066643D01*
X47588518Y-151066357D01*
X47285002Y-151191767D01*
X47116910Y-151359565D01*
X46950219Y-151192583D01*
X46646923Y-151066643D01*
X46318518Y-151066357D01*
X46015002Y-151191767D01*
X45846910Y-151359565D01*
X45680219Y-151192583D01*
X45376923Y-151066643D01*
X45048518Y-151066357D01*
X44745002Y-151191767D01*
X44576910Y-151359565D01*
X44410219Y-151192583D01*
X44106923Y-151066643D01*
X43778518Y-151066357D01*
X43475002Y-151191767D01*
X43434000Y-151232697D01*
X43434000Y-148292420D01*
X44089012Y-147637407D01*
X44359482Y-147637643D01*
X44662998Y-147512233D01*
X44895417Y-147280219D01*
X45021357Y-146976923D01*
X45021643Y-146648518D01*
X44896233Y-146345002D01*
X44855302Y-146304000D01*
X45466000Y-146304000D01*
X45720000Y-146304000D01*
X46271580Y-146304000D01*
X46672592Y-146705012D01*
X46672357Y-146975482D01*
X46797767Y-147278998D01*
X47029781Y-147511417D01*
X47333077Y-147637357D01*
X47661482Y-147637643D01*
X47964998Y-147512233D01*
X48197417Y-147280219D01*
X48323357Y-146976923D01*
X48323643Y-146648518D01*
X48198233Y-146345002D01*
X47966219Y-146112583D01*
X47662923Y-145986643D01*
X47390826Y-145986406D01*
X46841210Y-145436790D01*
X46676403Y-145326669D01*
X46482000Y-145288000D01*
X45720000Y-145288000D01*
X45676420Y-145288000D01*
X48915012Y-142049407D01*
X49185482Y-142049643D01*
X49488998Y-141924233D01*
X49721417Y-141692219D01*
X49847357Y-141388923D01*
X49847643Y-141060518D01*
X49722233Y-140757002D01*
X49490219Y-140524583D01*
X49186923Y-140398643D01*
X48858518Y-140398357D01*
X48555002Y-140523767D01*
X48322583Y-140755781D01*
X48196643Y-141059077D01*
X48196406Y-141331173D01*
X45001580Y-144526000D01*
X44513510Y-144526000D01*
X44662998Y-144464233D01*
X44895417Y-144232219D01*
X45021357Y-143928923D01*
X45021643Y-143600518D01*
X44896233Y-143297002D01*
X44664219Y-143064583D01*
X44360923Y-142938643D01*
X44323000Y-142938609D01*
X44323000Y-140359302D01*
X44514417Y-140168219D01*
X44640357Y-139864923D01*
X44640643Y-139536518D01*
X44515233Y-139233002D01*
X44283219Y-139000583D01*
X43979923Y-138874643D01*
X43651518Y-138874357D01*
X43348002Y-138999767D01*
X43115583Y-139231781D01*
X42989643Y-139535077D01*
X42989357Y-139863482D01*
X43114767Y-140166998D01*
X43307000Y-140359566D01*
X43307000Y-143383000D01*
X43345669Y-143577403D01*
X43370629Y-143614758D01*
X43370357Y-143927482D01*
X43495767Y-144230998D01*
X43727781Y-144463417D01*
X43878497Y-144526000D01*
X43180000Y-144526000D01*
X42985597Y-144564669D01*
X42820790Y-144674790D01*
X40788790Y-146706790D01*
X40678669Y-146871597D01*
X40640000Y-147066000D01*
X40640000Y-151935580D01*
X39921580Y-152654000D01*
X38835766Y-152654000D01*
X38800233Y-152568002D01*
X38568219Y-152335583D01*
X38264923Y-152209643D01*
X38263485Y-152209641D01*
X38566998Y-152084233D01*
X38799417Y-151852219D01*
X38925357Y-151548923D01*
X38925593Y-151276826D01*
X38967210Y-151235211D01*
X38967210Y-151235210D01*
X38967212Y-151235207D01*
X40237210Y-149965210D01*
X40347331Y-149800404D01*
X40347331Y-149800403D01*
X40353746Y-149768150D01*
X40385999Y-149606000D01*
X40386000Y-149606000D01*
X40386000Y-145498420D01*
X42057012Y-143827407D01*
X42327482Y-143827643D01*
X42630998Y-143702233D01*
X42863417Y-143470219D01*
X42989357Y-143166923D01*
X42989643Y-142838518D01*
X42864233Y-142535002D01*
X42632219Y-142302583D01*
X42328923Y-142176643D01*
X42000518Y-142176357D01*
X41697002Y-142301767D01*
X41464583Y-142533781D01*
X41338643Y-142837077D01*
X41338406Y-143109173D01*
X39624000Y-144823580D01*
X39624000Y-138894420D01*
X40342420Y-138176000D01*
X40894000Y-138176000D01*
X43985580Y-138176000D01*
X45868790Y-140059210D01*
X46033597Y-140169331D01*
X46228000Y-140208000D01*
X47498000Y-140208000D01*
X47692403Y-140169331D01*
X47857210Y-140059210D01*
X48407012Y-139509407D01*
X48677482Y-139509643D01*
X48980998Y-139384233D01*
X49213417Y-139152219D01*
X49339357Y-138848923D01*
X49339643Y-138520518D01*
X49214233Y-138217002D01*
X48982219Y-137984583D01*
X48678923Y-137858643D01*
X48350518Y-137858357D01*
X48047002Y-137983767D01*
X47814583Y-138215781D01*
X47688643Y-138519077D01*
X47688406Y-138791173D01*
X47524953Y-138954626D01*
X47524953Y-133653000D01*
X47524953Y-129641000D01*
X39851047Y-129641000D01*
X39851047Y-133653000D01*
X47524953Y-133653000D01*
X47524953Y-138954626D01*
X47287580Y-139192000D01*
X47141566Y-139192000D01*
X47181417Y-139152219D01*
X47307357Y-138848923D01*
X47307643Y-138520518D01*
X47182233Y-138217002D01*
X46950219Y-137984583D01*
X46646923Y-137858643D01*
X46374826Y-137858406D01*
X45168420Y-136652000D01*
X45636579Y-136652000D01*
X45656482Y-136671902D01*
X45656357Y-136815482D01*
X45781767Y-137118998D01*
X46013781Y-137351417D01*
X46317077Y-137477357D01*
X46645482Y-137477643D01*
X46948998Y-137352233D01*
X47181417Y-137120219D01*
X47307357Y-136816923D01*
X47307643Y-136488518D01*
X47182233Y-136185002D01*
X46950219Y-135952583D01*
X46646923Y-135826643D01*
X46318518Y-135826357D01*
X46268460Y-135847040D01*
X46206210Y-135784790D01*
X46041403Y-135674669D01*
X45847000Y-135636000D01*
X39624000Y-135636000D01*
X39429596Y-135674669D01*
X39264790Y-135784790D01*
X37105792Y-137943787D01*
X37105789Y-137943790D01*
X36724790Y-138324790D01*
X36614669Y-138489597D01*
X36576000Y-138684000D01*
X36576000Y-146982580D01*
X32911346Y-143317926D01*
X32994600Y-142899383D01*
X32994600Y-142850617D01*
X32899860Y-142374329D01*
X32630065Y-141970552D01*
X32226288Y-141700757D01*
X31750000Y-141606017D01*
X31535794Y-141648625D01*
X31608569Y-141575850D01*
X31750000Y-141603983D01*
X32226288Y-141509243D01*
X32630065Y-141239448D01*
X32899860Y-140835671D01*
X32994600Y-140359383D01*
X32994600Y-140310617D01*
X32899860Y-139834329D01*
X32630065Y-139430552D01*
X32226288Y-139160757D01*
X31750000Y-139066017D01*
X31341429Y-139147287D01*
X31341429Y-131657966D01*
X31017678Y-130874428D01*
X30418725Y-130274429D01*
X29635754Y-129949311D01*
X28787966Y-129948571D01*
X28004428Y-130272322D01*
X27404429Y-130871275D01*
X27079311Y-131654246D01*
X27078571Y-132502034D01*
X27402322Y-133285572D01*
X28001275Y-133885571D01*
X28784246Y-134210689D01*
X29632034Y-134211429D01*
X30415572Y-133887678D01*
X31015571Y-133288725D01*
X31340689Y-132505754D01*
X31341429Y-131657966D01*
X31341429Y-139147287D01*
X31273712Y-139160757D01*
X30869935Y-139430552D01*
X30600140Y-139834329D01*
X30505400Y-140310617D01*
X30505400Y-140359383D01*
X30600140Y-140835671D01*
X30725017Y-141022562D01*
X30441452Y-141306127D01*
X30454600Y-141274386D01*
X30454600Y-140684250D01*
X30454600Y-139985750D01*
X30454600Y-139395614D01*
X30396596Y-139255580D01*
X30289419Y-139148404D01*
X30149385Y-139090400D01*
X29997814Y-139090400D01*
X29559250Y-139090400D01*
X29464000Y-139185650D01*
X29464000Y-140081000D01*
X30359350Y-140081000D01*
X30454600Y-139985750D01*
X30454600Y-140684250D01*
X30359350Y-140589000D01*
X29464000Y-140589000D01*
X29464000Y-141484350D01*
X29559250Y-141579600D01*
X29997814Y-141579600D01*
X30149385Y-141579600D01*
X30181128Y-141566451D01*
X30120790Y-141626790D01*
X30010669Y-141791597D01*
X29988563Y-141902730D01*
X29686288Y-141700757D01*
X29210000Y-141606017D01*
X28956000Y-141656540D01*
X28956000Y-141484350D01*
X28956000Y-140589000D01*
X28956000Y-140081000D01*
X28956000Y-139185650D01*
X28860750Y-139090400D01*
X28422186Y-139090400D01*
X28270615Y-139090400D01*
X28130581Y-139148404D01*
X28023404Y-139255580D01*
X27965400Y-139395614D01*
X27965400Y-139985750D01*
X28060650Y-140081000D01*
X28956000Y-140081000D01*
X28956000Y-140589000D01*
X28060650Y-140589000D01*
X27965400Y-140684250D01*
X27965400Y-141274386D01*
X28023404Y-141414420D01*
X28130581Y-141521596D01*
X28270615Y-141579600D01*
X28422186Y-141579600D01*
X28860750Y-141579600D01*
X28956000Y-141484350D01*
X28956000Y-141656540D01*
X28733712Y-141700757D01*
X28329935Y-141970552D01*
X28060140Y-142374329D01*
X27965400Y-142850617D01*
X27965400Y-142899383D01*
X28060140Y-143375671D01*
X28329935Y-143779448D01*
X28733712Y-144049243D01*
X29210000Y-144143983D01*
X29686288Y-144049243D01*
X29972000Y-143858336D01*
X29972000Y-144431663D01*
X29686288Y-144240757D01*
X29210000Y-144146017D01*
X28733712Y-144240757D01*
X28329935Y-144510552D01*
X28060140Y-144914329D01*
X27965400Y-145390617D01*
X27965400Y-145439383D01*
X28060140Y-145915671D01*
X28329935Y-146319448D01*
X28733712Y-146589243D01*
X29210000Y-146683983D01*
X29686288Y-146589243D01*
X29972000Y-146398336D01*
X29972000Y-147828000D01*
X30010669Y-148022403D01*
X30120790Y-148187210D01*
X31496000Y-149562420D01*
X31496000Y-156464000D01*
X31534669Y-156658403D01*
X31644790Y-156823210D01*
X34979400Y-160157820D01*
X34925000Y-160147000D01*
X30634369Y-160147000D01*
X30634369Y-158115000D01*
X30607000Y-157977407D01*
X30607000Y-153974385D01*
X30607000Y-153822814D01*
X30607000Y-152095614D01*
X30548996Y-151955580D01*
X30441819Y-151848404D01*
X30301785Y-151790400D01*
X30150214Y-151790400D01*
X28118214Y-151790400D01*
X27978180Y-151848404D01*
X27871004Y-151955581D01*
X27813000Y-152095615D01*
X27813000Y-152247186D01*
X27813000Y-153974386D01*
X27871004Y-154114420D01*
X27978181Y-154221596D01*
X28118215Y-154279600D01*
X28269786Y-154279600D01*
X30301786Y-154279600D01*
X30441820Y-154221596D01*
X30548996Y-154114419D01*
X30607000Y-153974385D01*
X30607000Y-157977407D01*
X30539629Y-157638712D01*
X30526071Y-157618421D01*
X30526071Y-156016474D01*
X30526071Y-155133526D01*
X30420606Y-154931753D01*
X30093895Y-154575759D01*
X29655820Y-154371891D01*
X29464000Y-154436052D01*
X29464000Y-155321000D01*
X30483332Y-155321000D01*
X30526071Y-155133526D01*
X30526071Y-156016474D01*
X30483332Y-155829000D01*
X29464000Y-155829000D01*
X29464000Y-156713948D01*
X29655820Y-156778109D01*
X30093895Y-156574241D01*
X30420606Y-156218247D01*
X30526071Y-156016474D01*
X30526071Y-157618421D01*
X30269834Y-157234935D01*
X29866057Y-156965140D01*
X29389769Y-156870400D01*
X29030231Y-156870400D01*
X28956000Y-156885165D01*
X28956000Y-156713948D01*
X28956000Y-155829000D01*
X28956000Y-155321000D01*
X28956000Y-154436052D01*
X28764180Y-154371891D01*
X28326105Y-154575759D01*
X27999394Y-154931753D01*
X27893929Y-155133526D01*
X27936668Y-155321000D01*
X28956000Y-155321000D01*
X28956000Y-155829000D01*
X27936668Y-155829000D01*
X27893929Y-156016474D01*
X27999394Y-156218247D01*
X28326105Y-156574241D01*
X28764180Y-156778109D01*
X28956000Y-156713948D01*
X28956000Y-156885165D01*
X28553943Y-156965140D01*
X28150166Y-157234935D01*
X27880371Y-157638712D01*
X27785631Y-158115000D01*
X27880371Y-158591288D01*
X28150166Y-158995065D01*
X28553943Y-159264860D01*
X29030231Y-159359600D01*
X29389769Y-159359600D01*
X29866057Y-159264860D01*
X30269834Y-158995065D01*
X30539629Y-158591288D01*
X30634369Y-158115000D01*
X30634369Y-160147000D01*
X30518439Y-160147000D01*
X30269834Y-159774935D01*
X29866057Y-159505140D01*
X29389769Y-159410400D01*
X29030231Y-159410400D01*
X28553943Y-159505140D01*
X28150166Y-159774935D01*
X27880371Y-160178712D01*
X27785631Y-160655000D01*
X27880371Y-161131288D01*
X28150166Y-161535065D01*
X28553943Y-161804860D01*
X29030231Y-161899600D01*
X29389769Y-161899600D01*
X29866057Y-161804860D01*
X30269834Y-161535065D01*
X30518439Y-161163000D01*
X32185399Y-161163000D01*
X32152790Y-161184789D01*
X30650579Y-162687000D01*
X30518439Y-162687000D01*
X30269834Y-162314935D01*
X29866057Y-162045140D01*
X29389769Y-161950400D01*
X29030231Y-161950400D01*
X28553943Y-162045140D01*
X28150166Y-162314935D01*
X27880371Y-162718712D01*
X27785631Y-163195000D01*
X27880371Y-163671288D01*
X28150166Y-164075065D01*
X28553943Y-164344860D01*
X29030231Y-164439600D01*
X29389769Y-164439600D01*
X29866057Y-164344860D01*
X30269834Y-164075065D01*
X30518439Y-163703000D01*
X30861000Y-163703000D01*
X31055403Y-163664331D01*
X31220210Y-163554210D01*
X32497852Y-162276568D01*
X32448643Y-162395077D01*
X32448406Y-162667173D01*
X30264325Y-164851254D01*
X29866057Y-164585140D01*
X29389769Y-164490400D01*
X29030231Y-164490400D01*
X28553943Y-164585140D01*
X28150166Y-164854935D01*
X27880371Y-165258712D01*
X27785631Y-165735000D01*
X27880371Y-166211288D01*
X28150166Y-166615065D01*
X28553943Y-166884860D01*
X29030231Y-166979600D01*
X29389769Y-166979600D01*
X29866057Y-166884860D01*
X30269834Y-166615065D01*
X30539629Y-166211288D01*
X30588916Y-165963503D01*
X33167012Y-163385407D01*
X33437482Y-163385643D01*
X33740998Y-163260233D01*
X33973417Y-163028219D01*
X34099357Y-162724923D01*
X34099643Y-162396518D01*
X33974233Y-162093002D01*
X33933302Y-162052000D01*
X34333580Y-162052000D01*
X35962790Y-163681210D01*
X36127597Y-163791331D01*
X36322000Y-163830000D01*
X36576000Y-163830000D01*
X43985579Y-163830000D01*
X44344789Y-164189210D01*
X44344790Y-164189210D01*
X44454910Y-164262790D01*
X44509596Y-164299330D01*
X44509597Y-164299331D01*
X44704000Y-164338000D01*
X46990000Y-164338000D01*
X47184403Y-164299331D01*
X47349210Y-164189210D01*
X47899012Y-163639407D01*
X48169482Y-163639643D01*
X48472998Y-163514233D01*
X48705417Y-163282219D01*
X48831357Y-162978923D01*
X48831643Y-162650518D01*
X48706233Y-162347002D01*
X48474219Y-162114583D01*
X48170923Y-161988643D01*
X47842518Y-161988357D01*
X47539002Y-162113767D01*
X47306583Y-162345781D01*
X47244001Y-162496493D01*
X47182233Y-162347002D01*
X46950219Y-162114583D01*
X46646923Y-161988643D01*
X46429285Y-161988453D01*
X46545357Y-161708923D01*
X46545643Y-161380518D01*
X46420233Y-161077002D01*
X46188219Y-160844583D01*
X45884923Y-160718643D01*
X45556518Y-160718357D01*
X45253002Y-160843767D01*
X45060433Y-161036000D01*
X39648302Y-161036000D01*
X39457219Y-160844583D01*
X39153923Y-160718643D01*
X38825518Y-160718357D01*
X38522002Y-160843767D01*
X38329433Y-161036000D01*
X37294420Y-161036000D01*
X32512000Y-156253580D01*
X32512000Y-149352000D01*
X32473331Y-149157597D01*
X32473330Y-149157596D01*
X32436790Y-149102910D01*
X32363210Y-148992790D01*
X32363210Y-148992789D01*
X30988000Y-147617579D01*
X30988000Y-146398336D01*
X31273712Y-146589243D01*
X31750000Y-146683983D01*
X32226288Y-146589243D01*
X32630065Y-146319448D01*
X32899860Y-145915671D01*
X32994600Y-145439383D01*
X32994600Y-145390617D01*
X32899860Y-144914329D01*
X32630065Y-144510552D01*
X32226288Y-144240757D01*
X31750000Y-144146017D01*
X31273712Y-144240757D01*
X30988000Y-144431663D01*
X30988000Y-143858336D01*
X31273712Y-144049243D01*
X31750000Y-144143983D01*
X32209218Y-144052638D01*
X36724790Y-148568210D01*
X37274592Y-149118012D01*
X37274357Y-149388482D01*
X37399767Y-149691998D01*
X37631781Y-149924417D01*
X37935077Y-150050357D01*
X38263482Y-150050643D01*
X38566998Y-149925233D01*
X38799417Y-149693219D01*
X38925357Y-149389923D01*
X38925643Y-149061518D01*
X38800233Y-148758002D01*
X38568219Y-148525583D01*
X38264923Y-148399643D01*
X37992826Y-148399406D01*
X37592000Y-147998580D01*
X37592000Y-147979566D01*
X37631781Y-148019417D01*
X37935077Y-148145357D01*
X38263482Y-148145643D01*
X38566998Y-148020233D01*
X38799417Y-147788219D01*
X38925357Y-147484923D01*
X38925593Y-147212826D01*
X39370000Y-146768420D01*
X39370000Y-149395580D01*
X38248792Y-150516787D01*
X38248789Y-150516790D01*
X38206986Y-150558592D01*
X37936518Y-150558357D01*
X37633002Y-150683767D01*
X37400583Y-150915781D01*
X37274643Y-151219077D01*
X37274357Y-151547482D01*
X37399767Y-151850998D01*
X37631781Y-152083417D01*
X37935077Y-152209357D01*
X37936514Y-152209358D01*
X37633002Y-152334767D01*
X37400583Y-152566781D01*
X37274643Y-152870077D01*
X37274357Y-153198482D01*
X37399767Y-153501998D01*
X37631781Y-153734417D01*
X37935077Y-153860357D01*
X38263482Y-153860643D01*
X38566998Y-153735233D01*
X38632344Y-153670000D01*
X39921579Y-153670000D01*
X38403425Y-155188154D01*
X38264923Y-155130643D01*
X37936518Y-155130357D01*
X37633002Y-155255767D01*
X37400583Y-155487781D01*
X37274643Y-155791077D01*
X37274357Y-156119482D01*
X37399767Y-156422998D01*
X37631781Y-156655417D01*
X37935077Y-156781357D01*
X38263482Y-156781643D01*
X38566998Y-156656233D01*
X38799417Y-156424219D01*
X38925357Y-156120923D01*
X38925372Y-156103047D01*
X42269210Y-152759211D01*
X42269210Y-152759210D01*
X42379331Y-152594404D01*
X42379331Y-152594403D01*
X42385746Y-152562150D01*
X42417999Y-152400000D01*
X42418000Y-152400000D01*
X42456669Y-152594403D01*
X42566790Y-152759210D01*
X48762154Y-158954574D01*
X48704643Y-159093077D01*
X48704357Y-159421482D01*
X48829767Y-159724998D01*
X49061781Y-159957417D01*
X49365077Y-160083357D01*
X49693482Y-160083643D01*
X49996998Y-159958233D01*
X50229417Y-159726219D01*
X50355357Y-159422923D01*
X50355643Y-159094518D01*
X50230233Y-158791002D01*
X49998219Y-158558583D01*
X49694923Y-158432643D01*
X49677047Y-158432627D01*
X49635210Y-158390790D01*
X43961937Y-152717517D01*
X44049173Y-152717593D01*
X45741790Y-154410210D01*
X45906596Y-154520331D01*
X45906597Y-154520331D01*
X46101000Y-154559000D01*
X47033580Y-154559000D01*
X53213000Y-160738420D01*
X53213000Y-162433000D01*
X53251669Y-162627403D01*
X53361790Y-162792210D01*
X58441790Y-167872210D01*
X59182000Y-168612420D01*
X59182000Y-170474754D01*
X58920671Y-170300140D01*
X58444383Y-170205400D01*
X58395617Y-170205400D01*
X57919329Y-170300140D01*
X57515552Y-170569935D01*
X57245757Y-170973712D01*
X57151017Y-171450000D01*
X57245757Y-171926288D01*
X57515552Y-172330065D01*
X57919329Y-172599860D01*
X58395617Y-172694600D01*
X58444383Y-172694600D01*
X58920671Y-172599860D01*
X59182000Y-172425245D01*
X59182000Y-172720000D01*
X59220669Y-172914403D01*
X59330790Y-173079210D01*
X59584790Y-173333210D01*
X59782361Y-173530781D01*
X59691017Y-173990000D01*
X59785757Y-174466288D01*
X60055552Y-174870065D01*
X60459329Y-175139860D01*
X60935617Y-175234600D01*
X60984383Y-175234600D01*
X61460671Y-175139860D01*
X61864448Y-174870065D01*
X62134243Y-174466288D01*
X62228983Y-173990000D01*
X62228983Y-177369000D01*
X59688983Y-177369000D01*
X59688983Y-173990000D01*
X59594243Y-173513712D01*
X59324448Y-173109935D01*
X58920671Y-172840140D01*
X58444383Y-172745400D01*
X58395617Y-172745400D01*
X57919329Y-172840140D01*
X57515552Y-173109935D01*
X57245757Y-173513712D01*
X57151017Y-173990000D01*
X57245757Y-174466288D01*
X57515552Y-174870065D01*
X57919329Y-175139860D01*
X58395617Y-175234600D01*
X58444383Y-175234600D01*
X58920671Y-175139860D01*
X59324448Y-174870065D01*
X59594243Y-174466288D01*
X59688983Y-173990000D01*
X59688983Y-177369000D01*
X57148983Y-177369000D01*
X57148983Y-173990000D01*
X57148983Y-171450000D01*
X57054243Y-170973712D01*
X56784448Y-170569935D01*
X56380671Y-170300140D01*
X55904383Y-170205400D01*
X55855617Y-170205400D01*
X55379329Y-170300140D01*
X54975552Y-170569935D01*
X54705757Y-170973712D01*
X54611017Y-171450000D01*
X54705757Y-171926288D01*
X54975552Y-172330065D01*
X55379329Y-172599860D01*
X55855617Y-172694600D01*
X55904383Y-172694600D01*
X56380671Y-172599860D01*
X56784448Y-172330065D01*
X57054243Y-171926288D01*
X57148983Y-171450000D01*
X57148983Y-173990000D01*
X57054243Y-173513712D01*
X56784448Y-173109935D01*
X56380671Y-172840140D01*
X55904383Y-172745400D01*
X55855617Y-172745400D01*
X55379329Y-172840140D01*
X54975552Y-173109935D01*
X54705757Y-173513712D01*
X54611017Y-173990000D01*
X54705757Y-174466288D01*
X54975552Y-174870065D01*
X55379329Y-175139860D01*
X55855617Y-175234600D01*
X55904383Y-175234600D01*
X56380671Y-175139860D01*
X56784448Y-174870065D01*
X57054243Y-174466288D01*
X57148983Y-173990000D01*
X57148983Y-177369000D01*
X54608983Y-177369000D01*
X54608983Y-173990000D01*
X54608983Y-171450000D01*
X54514243Y-170973712D01*
X54244448Y-170569935D01*
X53840671Y-170300140D01*
X53364383Y-170205400D01*
X53315617Y-170205400D01*
X52839329Y-170300140D01*
X52435552Y-170569935D01*
X52165757Y-170973712D01*
X52071017Y-171450000D01*
X52165757Y-171926288D01*
X52435552Y-172330065D01*
X52839329Y-172599860D01*
X53315617Y-172694600D01*
X53364383Y-172694600D01*
X53840671Y-172599860D01*
X54244448Y-172330065D01*
X54514243Y-171926288D01*
X54608983Y-171450000D01*
X54608983Y-173990000D01*
X54514243Y-173513712D01*
X54244448Y-173109935D01*
X53840671Y-172840140D01*
X53364383Y-172745400D01*
X53315617Y-172745400D01*
X52839329Y-172840140D01*
X52435552Y-173109935D01*
X52165757Y-173513712D01*
X52071017Y-173990000D01*
X52165757Y-174466288D01*
X52435552Y-174870065D01*
X52839329Y-175139860D01*
X53315617Y-175234600D01*
X53364383Y-175234600D01*
X53840671Y-175139860D01*
X54244448Y-174870065D01*
X54514243Y-174466288D01*
X54608983Y-173990000D01*
X54608983Y-177369000D01*
X52068983Y-177369000D01*
X52068983Y-171450000D01*
X51974243Y-170973712D01*
X51704448Y-170569935D01*
X51300671Y-170300140D01*
X50824383Y-170205400D01*
X50775617Y-170205400D01*
X50299329Y-170300140D01*
X49895552Y-170569935D01*
X49625757Y-170973712D01*
X49531017Y-171450000D01*
X49625757Y-171926288D01*
X49895552Y-172330065D01*
X50299329Y-172599860D01*
X50775617Y-172694600D01*
X50824383Y-172694600D01*
X51300671Y-172599860D01*
X51704448Y-172330065D01*
X51974243Y-171926288D01*
X52068983Y-171450000D01*
X52068983Y-177369000D01*
X52044600Y-177369000D01*
X52044600Y-174929385D01*
X52044600Y-174777814D01*
X52044600Y-174339250D01*
X52044600Y-173640750D01*
X52044600Y-173202186D01*
X52044600Y-173050615D01*
X51986596Y-172910581D01*
X51879420Y-172803404D01*
X51739386Y-172745400D01*
X51149250Y-172745400D01*
X51054000Y-172840650D01*
X51054000Y-173736000D01*
X51949350Y-173736000D01*
X52044600Y-173640750D01*
X52044600Y-174339250D01*
X51949350Y-174244000D01*
X51054000Y-174244000D01*
X51054000Y-175139350D01*
X51149250Y-175234600D01*
X51739386Y-175234600D01*
X51879420Y-175176596D01*
X51986596Y-175069419D01*
X52044600Y-174929385D01*
X52044600Y-177369000D01*
X50546000Y-177369000D01*
X50546000Y-175139350D01*
X50546000Y-174244000D01*
X50546000Y-173736000D01*
X50546000Y-172840650D01*
X50450750Y-172745400D01*
X49860614Y-172745400D01*
X49720580Y-172803404D01*
X49613404Y-172910581D01*
X49555400Y-173050615D01*
X49555400Y-173202186D01*
X49555400Y-173640750D01*
X49650650Y-173736000D01*
X50546000Y-173736000D01*
X50546000Y-174244000D01*
X49650650Y-174244000D01*
X49555400Y-174339250D01*
X49555400Y-174777814D01*
X49555400Y-174929385D01*
X49613404Y-175069419D01*
X49720580Y-175176596D01*
X49860614Y-175234600D01*
X50450750Y-175234600D01*
X50546000Y-175139350D01*
X50546000Y-177369000D01*
X44604369Y-177369000D01*
X44604369Y-171450000D01*
X44577000Y-171312407D01*
X44577000Y-169849385D01*
X44577000Y-169697814D01*
X44577000Y-167970614D01*
X44518996Y-167830580D01*
X44411819Y-167723404D01*
X44271785Y-167665400D01*
X44120214Y-167665400D01*
X42088214Y-167665400D01*
X41948180Y-167723404D01*
X41909999Y-167761584D01*
X41871819Y-167723404D01*
X41731785Y-167665400D01*
X41580214Y-167665400D01*
X39548214Y-167665400D01*
X39408180Y-167723404D01*
X39301004Y-167830581D01*
X39243000Y-167970615D01*
X39243000Y-168122186D01*
X39243000Y-169849386D01*
X39301004Y-169989420D01*
X39408181Y-170096596D01*
X39548215Y-170154600D01*
X39699786Y-170154600D01*
X41731786Y-170154600D01*
X41871820Y-170096596D01*
X41910000Y-170058415D01*
X41948181Y-170096596D01*
X42088215Y-170154600D01*
X42239786Y-170154600D01*
X44271786Y-170154600D01*
X44411820Y-170096596D01*
X44518996Y-169989419D01*
X44577000Y-169849385D01*
X44577000Y-171312407D01*
X44509629Y-170973712D01*
X44239834Y-170569935D01*
X43836057Y-170300140D01*
X43359769Y-170205400D01*
X43000231Y-170205400D01*
X42523943Y-170300140D01*
X42120166Y-170569935D01*
X41910000Y-170884470D01*
X41699834Y-170569935D01*
X41296057Y-170300140D01*
X40819769Y-170205400D01*
X40460231Y-170205400D01*
X39983943Y-170300140D01*
X39580166Y-170569935D01*
X39310371Y-170973712D01*
X39215631Y-171450000D01*
X39310371Y-171926288D01*
X39580166Y-172330065D01*
X39983943Y-172599860D01*
X40460231Y-172694600D01*
X40819769Y-172694600D01*
X41296057Y-172599860D01*
X41699834Y-172330065D01*
X41910000Y-172015529D01*
X42120166Y-172330065D01*
X42523943Y-172599860D01*
X43000231Y-172694600D01*
X43359769Y-172694600D01*
X43836057Y-172599860D01*
X44239834Y-172330065D01*
X44509629Y-171926288D01*
X44604369Y-171450000D01*
X44604369Y-177369000D01*
X44496071Y-177369000D01*
X44496071Y-174431474D01*
X44496071Y-173548526D01*
X44390606Y-173346753D01*
X44063895Y-172990759D01*
X43625820Y-172786891D01*
X43434000Y-172851052D01*
X43434000Y-173736000D01*
X44453332Y-173736000D01*
X44496071Y-173548526D01*
X44496071Y-174431474D01*
X44453332Y-174244000D01*
X43434000Y-174244000D01*
X43434000Y-175128948D01*
X43625820Y-175193109D01*
X44063895Y-174989241D01*
X44390606Y-174633247D01*
X44496071Y-174431474D01*
X44496071Y-177369000D01*
X42926000Y-177369000D01*
X42926000Y-175128948D01*
X42926000Y-174244000D01*
X42926000Y-173736000D01*
X42926000Y-172851052D01*
X42734180Y-172786891D01*
X42296105Y-172990759D01*
X41969394Y-173346753D01*
X41910000Y-173460384D01*
X41850606Y-173346753D01*
X41523895Y-172990759D01*
X41085820Y-172786891D01*
X40894000Y-172851052D01*
X40894000Y-173736000D01*
X41906668Y-173736000D01*
X41913332Y-173736000D01*
X42926000Y-173736000D01*
X42926000Y-174244000D01*
X41913332Y-174244000D01*
X41906668Y-174244000D01*
X40894000Y-174244000D01*
X40894000Y-175128948D01*
X41085820Y-175193109D01*
X41523895Y-174989241D01*
X41850606Y-174633247D01*
X41910000Y-174519615D01*
X41969394Y-174633247D01*
X42296105Y-174989241D01*
X42734180Y-175193109D01*
X42926000Y-175128948D01*
X42926000Y-177369000D01*
X40386000Y-177369000D01*
X40386000Y-175128948D01*
X40386000Y-174244000D01*
X40386000Y-173736000D01*
X40386000Y-172851052D01*
X40194180Y-172786891D01*
X39756105Y-172990759D01*
X39429394Y-173346753D01*
X39323929Y-173548526D01*
X39366668Y-173736000D01*
X40386000Y-173736000D01*
X40386000Y-174244000D01*
X39366668Y-174244000D01*
X39323929Y-174431474D01*
X39429394Y-174633247D01*
X39756105Y-174989241D01*
X40194180Y-175193109D01*
X40386000Y-175128948D01*
X40386000Y-177369000D01*
X31750000Y-177369000D01*
X31341429Y-177369000D01*
X31341429Y-173567966D01*
X31017678Y-172784428D01*
X30418725Y-172184429D01*
X29635754Y-171859311D01*
X28787966Y-171858571D01*
X28004428Y-172182322D01*
X27404429Y-172781275D01*
X27079311Y-173564246D01*
X27078571Y-174412034D01*
X27402322Y-175195572D01*
X28001275Y-175795571D01*
X28784246Y-176120689D01*
X29632034Y-176121429D01*
X30415572Y-175797678D01*
X31015571Y-175198725D01*
X31340689Y-174415754D01*
X31341429Y-173567966D01*
X31341429Y-177369000D01*
X25831000Y-177369000D01*
X25831000Y-128701000D01*
X74499000Y-128701000D01*
X74499000Y-177369000D01*
G36*
X71628000Y-161073310D02*
X71134142Y-161567168D01*
X71120000Y-161553026D01*
X70221974Y-162451052D01*
X70221974Y-160655000D01*
X69011681Y-159444707D01*
X68715553Y-159692970D01*
X68530427Y-160686343D01*
X68715553Y-161617030D01*
X69011681Y-161865293D01*
X70221974Y-160655000D01*
X70221974Y-162451052D01*
X69909707Y-162763319D01*
X69952196Y-162814000D01*
X66167000Y-162814000D01*
X66167000Y-138430000D01*
X68580000Y-138430000D01*
X68580000Y-139541250D01*
X68738750Y-139700000D01*
X70485000Y-139700000D01*
X70485000Y-139680000D01*
X71628000Y-139680000D01*
X71628000Y-140990000D01*
X70485000Y-140990000D01*
X70485000Y-140970000D01*
X68738750Y-140970000D01*
X68580000Y-141128750D01*
X68580000Y-142366309D01*
X68676673Y-142599698D01*
X68855301Y-142778327D01*
X69088690Y-142875000D01*
X69341309Y-142875000D01*
X70326250Y-142875000D01*
X70484998Y-142716252D01*
X70484998Y-142875000D01*
X70485000Y-142875000D01*
X70615914Y-142875000D01*
X70485000Y-142929092D01*
X69683085Y-143260437D01*
X68967948Y-143974327D01*
X68580441Y-144907546D01*
X68579560Y-145918021D01*
X68965437Y-146851915D01*
X69679327Y-147567052D01*
X70612546Y-147954559D01*
X70840655Y-147954757D01*
X70157970Y-148090553D01*
X69909707Y-148386681D01*
X71120000Y-149596974D01*
X71134142Y-149582832D01*
X71628000Y-150076690D01*
X71628000Y-150913310D01*
X71134142Y-151407168D01*
X71120000Y-151393026D01*
X70221974Y-152291052D01*
X70221974Y-150495000D01*
X69011681Y-149284707D01*
X68715553Y-149532970D01*
X68530427Y-150526343D01*
X68715553Y-151457030D01*
X69011681Y-151705293D01*
X70221974Y-150495000D01*
X70221974Y-152291052D01*
X69909707Y-152603319D01*
X70157970Y-152899447D01*
X70884227Y-153034793D01*
X70616979Y-153034560D01*
X69683085Y-153420437D01*
X68967948Y-154134327D01*
X68580441Y-155067546D01*
X68579560Y-156078021D01*
X68965437Y-157011915D01*
X69679327Y-157727052D01*
X70612546Y-158114559D01*
X70840655Y-158114757D01*
X70157970Y-158250553D01*
X69909707Y-158546681D01*
X71120000Y-159756974D01*
X71134142Y-159742832D01*
X71628000Y-160236690D01*
X71628000Y-161073310D01*
X71628000Y-161073310D01*
G37*
X71628000Y-161073310D02*
X71134142Y-161567168D01*
X71120000Y-161553026D01*
X70221974Y-162451052D01*
X70221974Y-160655000D01*
X69011681Y-159444707D01*
X68715553Y-159692970D01*
X68530427Y-160686343D01*
X68715553Y-161617030D01*
X69011681Y-161865293D01*
X70221974Y-160655000D01*
X70221974Y-162451052D01*
X69909707Y-162763319D01*
X69952196Y-162814000D01*
X66167000Y-162814000D01*
X66167000Y-138430000D01*
X68580000Y-138430000D01*
X68580000Y-139541250D01*
X68738750Y-139700000D01*
X70485000Y-139700000D01*
X70485000Y-139680000D01*
X71628000Y-139680000D01*
X71628000Y-140990000D01*
X70485000Y-140990000D01*
X70485000Y-140970000D01*
X68738750Y-140970000D01*
X68580000Y-141128750D01*
X68580000Y-142366309D01*
X68676673Y-142599698D01*
X68855301Y-142778327D01*
X69088690Y-142875000D01*
X69341309Y-142875000D01*
X70326250Y-142875000D01*
X70484998Y-142716252D01*
X70484998Y-142875000D01*
X70485000Y-142875000D01*
X70615914Y-142875000D01*
X70485000Y-142929092D01*
X69683085Y-143260437D01*
X68967948Y-143974327D01*
X68580441Y-144907546D01*
X68579560Y-145918021D01*
X68965437Y-146851915D01*
X69679327Y-147567052D01*
X70612546Y-147954559D01*
X70840655Y-147954757D01*
X70157970Y-148090553D01*
X69909707Y-148386681D01*
X71120000Y-149596974D01*
X71134142Y-149582832D01*
X71628000Y-150076690D01*
X71628000Y-150913310D01*
X71134142Y-151407168D01*
X71120000Y-151393026D01*
X70221974Y-152291052D01*
X70221974Y-150495000D01*
X69011681Y-149284707D01*
X68715553Y-149532970D01*
X68530427Y-150526343D01*
X68715553Y-151457030D01*
X69011681Y-151705293D01*
X70221974Y-150495000D01*
X70221974Y-152291052D01*
X69909707Y-152603319D01*
X70157970Y-152899447D01*
X70884227Y-153034793D01*
X70616979Y-153034560D01*
X69683085Y-153420437D01*
X68967948Y-154134327D01*
X68580441Y-155067546D01*
X68579560Y-156078021D01*
X68965437Y-157011915D01*
X69679327Y-157727052D01*
X70612546Y-158114559D01*
X70840655Y-158114757D01*
X70157970Y-158250553D01*
X69909707Y-158546681D01*
X71120000Y-159756974D01*
X71134142Y-159742832D01*
X71628000Y-160236690D01*
X71628000Y-161073310D01*
M02*
