G04 #@! TF.FileFunction,Paste,Top*
%FSLAX46Y46*%
G04 Gerber Fmt 4.6, Leading zero omitted, Abs format (unit mm)*
G04 Created by KiCad (PCBNEW (2014-11-27 BZR 5304)-product) date 12/11/2014 4:45:10 PM*
%MOMM*%
G01*
G04 APERTURE LIST*
%ADD10C,0.100000*%
%ADD11R,0.740000X0.690000*%
%ADD12R,2.340300X3.440120*%
%ADD13R,1.441140X1.890720*%
%ADD14R,1.339540X0.539440*%
%ADD15R,0.440000X0.840000*%
%ADD16R,0.840000X0.440000*%
%ADD17R,0.540000X0.640000*%
%ADD18O,1.845000X0.390000*%
%ADD19R,1.938980X0.389580*%
%ADD20R,0.389580X1.938980*%
%ADD21R,0.640000X1.640000*%
%ADD22R,0.940000X2.540000*%
%ADD23R,0.539440X0.940760*%
G04 APERTURE END LIST*
D10*
D11*
X34810000Y-162560000D03*
X36310000Y-162560000D03*
X34810000Y-154940000D03*
X36310000Y-154940000D03*
X34810000Y-160655000D03*
X36310000Y-160655000D03*
X34810000Y-158750000D03*
X36310000Y-158750000D03*
D12*
X60960000Y-145338800D03*
X60960000Y-151841200D03*
D11*
X34810000Y-151130000D03*
X36310000Y-151130000D03*
X34810000Y-156845000D03*
X36310000Y-156845000D03*
X34810000Y-153035000D03*
X36310000Y-153035000D03*
D13*
X40005000Y-142963900D03*
X40005000Y-140246100D03*
D11*
X53225000Y-154940000D03*
X54725000Y-154940000D03*
D14*
X63627000Y-158750000D03*
X58293000Y-158750000D03*
X63627000Y-160020000D03*
X63627000Y-161290000D03*
X63627000Y-162560000D03*
X58293000Y-160020000D03*
X58293000Y-161290000D03*
X58293000Y-162560000D03*
D15*
X36310000Y-164465000D03*
X34810000Y-164465000D03*
D16*
X46355000Y-142355000D03*
X46355000Y-140855000D03*
X43815000Y-142355000D03*
X43815000Y-140855000D03*
D15*
X53225000Y-144780000D03*
X54725000Y-144780000D03*
X54725000Y-142875000D03*
X53225000Y-142875000D03*
X53225000Y-160020000D03*
X54725000Y-160020000D03*
X54725000Y-140970000D03*
X53225000Y-140970000D03*
X53225000Y-161925000D03*
X54725000Y-161925000D03*
D17*
X56450000Y-136525000D03*
X57850000Y-136525000D03*
D18*
X53975000Y-148660000D03*
X53975000Y-149860000D03*
X53975000Y-151060000D03*
D19*
X49900840Y-151528780D03*
X49900840Y-152328880D03*
X49900840Y-153128980D03*
X49900840Y-153929080D03*
X49900840Y-154729180D03*
X49900840Y-155529280D03*
X49900840Y-156329380D03*
X49900840Y-157129480D03*
X40335200Y-157124400D03*
X40335200Y-151511000D03*
X40335200Y-152323800D03*
X40335200Y-153136600D03*
X40335200Y-153924000D03*
X40335200Y-154736800D03*
X40335200Y-155524200D03*
X40335200Y-156337000D03*
D20*
X47909480Y-159131000D03*
X47111920Y-159131000D03*
X46309280Y-159131000D03*
X45511720Y-159131000D03*
X44709080Y-159131000D03*
X43911520Y-159131000D03*
X43108880Y-159131000D03*
X42311320Y-159131000D03*
X47904400Y-149529800D03*
X47117000Y-149529800D03*
X46304200Y-149529800D03*
X45516800Y-149529800D03*
X44729400Y-149529800D03*
X43916600Y-149529800D03*
X43103800Y-149529800D03*
X42291000Y-149529800D03*
D21*
X48815000Y-134210000D03*
D22*
X51015000Y-130810000D03*
D21*
X47565000Y-134210000D03*
X46315000Y-134210000D03*
X45065000Y-134210000D03*
X43815000Y-134210000D03*
X42565000Y-134210000D03*
X41315000Y-134210000D03*
X40065000Y-134210000D03*
X38815000Y-134210000D03*
D22*
X36615000Y-130810000D03*
D23*
X61610240Y-138744960D03*
X60309760Y-138744960D03*
X60960000Y-136845040D03*
M02*
