G04 #@! TF.FileFunction,Legend,Top*
%FSLAX46Y46*%
G04 Gerber Fmt 4.6, Leading zero omitted, Abs format (unit mm)*
G04 Created by KiCad (PCBNEW (2014-11-27 BZR 5304)-product) date 12/4/2014 11:40:45 PM*
%MOMM*%
G01*
G04 APERTURE LIST*
%ADD10C,0.100000*%
%ADD11C,0.150000*%
%ADD12C,0.200000*%
%ADD13C,0.280000*%
%ADD14C,0.300000*%
%ADD15C,0.127000*%
%ADD16C,0.381000*%
%ADD17C,0.304800*%
%ADD18C,0.203200*%
%ADD19C,0.152400*%
%ADD20C,0.140000*%
%ADD21C,0.099060*%
%ADD22R,0.800000X0.750000*%
%ADD23R,2.400300X3.500120*%
%ADD24R,1.501140X1.950720*%
%ADD25R,2.032000X1.727200*%
%ADD26O,2.032000X1.727200*%
%ADD27R,1.727200X1.727200*%
%ADD28O,1.727200X1.727200*%
%ADD29R,1.727200X2.032000*%
%ADD30O,1.727200X2.032000*%
%ADD31R,1.399540X0.599440*%
%ADD32R,0.500000X0.900000*%
%ADD33R,0.900000X0.500000*%
%ADD34C,3.810000*%
%ADD35R,3.810000X3.810000*%
%ADD36R,0.600000X0.700000*%
%ADD37O,1.905000X0.450000*%
%ADD38R,1.998980X0.449580*%
%ADD39R,0.449580X1.998980*%
%ADD40R,0.700000X1.700000*%
%ADD41R,1.000000X2.600000*%
%ADD42R,0.599440X1.000760*%
G04 APERTURE END LIST*
D10*
D11*
X49181618Y-167600381D02*
X49372095Y-167600381D01*
X49467333Y-167648000D01*
X49562571Y-167743238D01*
X49610190Y-167933714D01*
X49610190Y-168267048D01*
X49562571Y-168457524D01*
X49467333Y-168552762D01*
X49372095Y-168600381D01*
X49181618Y-168600381D01*
X49086380Y-168552762D01*
X48991142Y-168457524D01*
X48943523Y-168267048D01*
X48943523Y-167933714D01*
X48991142Y-167743238D01*
X49086380Y-167648000D01*
X49181618Y-167600381D01*
X49991142Y-168552762D02*
X50133999Y-168600381D01*
X50372095Y-168600381D01*
X50467333Y-168552762D01*
X50514952Y-168505143D01*
X50562571Y-168409905D01*
X50562571Y-168314667D01*
X50514952Y-168219429D01*
X50467333Y-168171810D01*
X50372095Y-168124190D01*
X50181618Y-168076571D01*
X50086380Y-168028952D01*
X50038761Y-167981333D01*
X49991142Y-167886095D01*
X49991142Y-167790857D01*
X50038761Y-167695619D01*
X50086380Y-167648000D01*
X50181618Y-167600381D01*
X50419714Y-167600381D01*
X50562571Y-167648000D01*
X51324476Y-168076571D02*
X51467333Y-168124190D01*
X51514952Y-168171810D01*
X51562571Y-168267048D01*
X51562571Y-168409905D01*
X51514952Y-168505143D01*
X51467333Y-168552762D01*
X51372095Y-168600381D01*
X50991142Y-168600381D01*
X50991142Y-167600381D01*
X51324476Y-167600381D01*
X51419714Y-167648000D01*
X51467333Y-167695619D01*
X51514952Y-167790857D01*
X51514952Y-167886095D01*
X51467333Y-167981333D01*
X51419714Y-168028952D01*
X51324476Y-168076571D01*
X50991142Y-168076571D01*
X51991142Y-168600381D02*
X51991142Y-167600381D01*
X52324476Y-168314667D01*
X52657809Y-167600381D01*
X52657809Y-168600381D01*
X53086380Y-168552762D02*
X53229237Y-168600381D01*
X53467333Y-168600381D01*
X53562571Y-168552762D01*
X53610190Y-168505143D01*
X53657809Y-168409905D01*
X53657809Y-168314667D01*
X53610190Y-168219429D01*
X53562571Y-168171810D01*
X53467333Y-168124190D01*
X53276856Y-168076571D01*
X53181618Y-168028952D01*
X53133999Y-167981333D01*
X53086380Y-167886095D01*
X53086380Y-167790857D01*
X53133999Y-167695619D01*
X53181618Y-167648000D01*
X53276856Y-167600381D01*
X53514952Y-167600381D01*
X53657809Y-167648000D01*
X54848285Y-168600381D02*
X54848285Y-167600381D01*
X55181619Y-168314667D01*
X55514952Y-167600381D01*
X55514952Y-168600381D01*
X55991142Y-168600381D02*
X55991142Y-167933714D01*
X55991142Y-167600381D02*
X55943523Y-167648000D01*
X55991142Y-167695619D01*
X56038761Y-167648000D01*
X55991142Y-167600381D01*
X55991142Y-167695619D01*
X56895904Y-168552762D02*
X56800666Y-168600381D01*
X56610189Y-168600381D01*
X56514951Y-168552762D01*
X56467332Y-168505143D01*
X56419713Y-168409905D01*
X56419713Y-168124190D01*
X56467332Y-168028952D01*
X56514951Y-167981333D01*
X56610189Y-167933714D01*
X56800666Y-167933714D01*
X56895904Y-167981333D01*
X57324475Y-168600381D02*
X57324475Y-167933714D01*
X57324475Y-168124190D02*
X57372094Y-168028952D01*
X57419713Y-167981333D01*
X57514951Y-167933714D01*
X57610190Y-167933714D01*
X58086380Y-168600381D02*
X57991142Y-168552762D01*
X57943523Y-168505143D01*
X57895904Y-168409905D01*
X57895904Y-168124190D01*
X57943523Y-168028952D01*
X57991142Y-167981333D01*
X58086380Y-167933714D01*
X58229238Y-167933714D01*
X58324476Y-167981333D01*
X58372095Y-168028952D01*
X58419714Y-168124190D01*
X58419714Y-168409905D01*
X58372095Y-168505143D01*
X58324476Y-168552762D01*
X58229238Y-168600381D01*
X58086380Y-168600381D01*
X58848285Y-168600381D02*
X58848285Y-167600381D01*
X59181619Y-168314667D01*
X59514952Y-167600381D01*
X59514952Y-168600381D01*
X60419714Y-168600381D02*
X60419714Y-168076571D01*
X60372095Y-167981333D01*
X60276857Y-167933714D01*
X60086380Y-167933714D01*
X59991142Y-167981333D01*
X60419714Y-168552762D02*
X60324476Y-168600381D01*
X60086380Y-168600381D01*
X59991142Y-168552762D01*
X59943523Y-168457524D01*
X59943523Y-168362286D01*
X59991142Y-168267048D01*
X60086380Y-168219429D01*
X60324476Y-168219429D01*
X60419714Y-168171810D01*
X60848285Y-168552762D02*
X60943523Y-168600381D01*
X61133999Y-168600381D01*
X61229238Y-168552762D01*
X61276857Y-168457524D01*
X61276857Y-168409905D01*
X61229238Y-168314667D01*
X61133999Y-168267048D01*
X60991142Y-168267048D01*
X60895904Y-168219429D01*
X60848285Y-168124190D01*
X60848285Y-168076571D01*
X60895904Y-167981333D01*
X60991142Y-167933714D01*
X61133999Y-167933714D01*
X61229238Y-167981333D01*
X61562571Y-167933714D02*
X61943523Y-167933714D01*
X61705428Y-167600381D02*
X61705428Y-168457524D01*
X61753047Y-168552762D01*
X61848285Y-168600381D01*
X61943523Y-168600381D01*
X62657810Y-168552762D02*
X62562572Y-168600381D01*
X62372095Y-168600381D01*
X62276857Y-168552762D01*
X62229238Y-168457524D01*
X62229238Y-168076571D01*
X62276857Y-167981333D01*
X62372095Y-167933714D01*
X62562572Y-167933714D01*
X62657810Y-167981333D01*
X62705429Y-168076571D01*
X62705429Y-168171810D01*
X62229238Y-168267048D01*
X63134000Y-168600381D02*
X63134000Y-167933714D01*
X63134000Y-168124190D02*
X63181619Y-168028952D01*
X63229238Y-167981333D01*
X63324476Y-167933714D01*
X63419715Y-167933714D01*
D12*
X31297619Y-147605715D02*
X31297619Y-147034286D01*
X31297619Y-147320000D02*
X32297619Y-147320000D01*
X32154762Y-147224762D01*
X32059524Y-147129524D01*
X32011905Y-147034286D01*
D11*
X64770000Y-143002000D02*
X57404000Y-143002000D01*
X67310000Y-140462000D02*
X64770000Y-143002000D01*
D12*
X58366381Y-142574095D02*
X57623524Y-142574095D01*
X57994953Y-142574095D02*
X57994953Y-141274095D01*
X57871143Y-141459810D01*
X57747334Y-141583619D01*
X57623524Y-141645524D01*
X58861619Y-141397905D02*
X58923524Y-141336000D01*
X59047333Y-141274095D01*
X59356857Y-141274095D01*
X59480667Y-141336000D01*
X59542571Y-141397905D01*
X59604476Y-141521714D01*
X59604476Y-141645524D01*
X59542571Y-141831238D01*
X58799714Y-142574095D01*
X59604476Y-142574095D01*
X60161619Y-142078857D02*
X61152095Y-142078857D01*
X61709238Y-141397905D02*
X61771143Y-141336000D01*
X61894952Y-141274095D01*
X62204476Y-141274095D01*
X62328286Y-141336000D01*
X62390190Y-141397905D01*
X62452095Y-141521714D01*
X62452095Y-141645524D01*
X62390190Y-141831238D01*
X61647333Y-142574095D01*
X62452095Y-142574095D01*
X63566381Y-141707429D02*
X63566381Y-142574095D01*
X63256857Y-141212190D02*
X62947333Y-142140762D01*
X63752095Y-142140762D01*
X64061619Y-141274095D02*
X64494952Y-142574095D01*
X64928285Y-141274095D01*
D13*
X61862001Y-155935333D02*
X62528667Y-155935333D01*
X61728667Y-156335333D02*
X62195334Y-154935333D01*
X62662001Y-156335333D01*
X63128667Y-154935333D02*
X63128667Y-156068667D01*
X63195334Y-156202000D01*
X63262001Y-156268667D01*
X63395334Y-156335333D01*
X63662001Y-156335333D01*
X63795334Y-156268667D01*
X63862001Y-156202000D01*
X63928667Y-156068667D01*
X63928667Y-154935333D01*
X64462001Y-154935333D02*
X65395334Y-156335333D01*
X65395334Y-154935333D02*
X64462001Y-156335333D01*
X66662001Y-156335333D02*
X65862001Y-156335333D01*
X66262001Y-156335333D02*
X66262001Y-154935333D01*
X66128667Y-155135333D01*
X65995334Y-155268667D01*
X65862001Y-155335333D01*
X61862001Y-165841333D02*
X62528667Y-165841333D01*
X61728667Y-166241333D02*
X62195334Y-164841333D01*
X62662001Y-166241333D01*
X63128667Y-164841333D02*
X63128667Y-165974667D01*
X63195334Y-166108000D01*
X63262001Y-166174667D01*
X63395334Y-166241333D01*
X63662001Y-166241333D01*
X63795334Y-166174667D01*
X63862001Y-166108000D01*
X63928667Y-165974667D01*
X63928667Y-164841333D01*
X64462001Y-164841333D02*
X65395334Y-166241333D01*
X65395334Y-164841333D02*
X64462001Y-166241333D01*
X65862001Y-164974667D02*
X65928667Y-164908000D01*
X66062001Y-164841333D01*
X66395334Y-164841333D01*
X66528667Y-164908000D01*
X66595334Y-164974667D01*
X66662001Y-165108000D01*
X66662001Y-165241333D01*
X66595334Y-165441333D01*
X65795334Y-166241333D01*
X66662001Y-166241333D01*
D14*
X66027190Y-146024524D02*
X66027190Y-144805476D01*
X65430476Y-160642286D02*
X66649524Y-160642286D01*
X66040000Y-161251810D02*
X66040000Y-160032762D01*
X65430476Y-150482286D02*
X66649524Y-150482286D01*
X66040000Y-151091810D02*
X66040000Y-149872762D01*
X65430476Y-140322286D02*
X66649524Y-140322286D01*
X66040000Y-140931810D02*
X66040000Y-139712762D01*
D12*
X63957143Y-134280286D02*
X63042857Y-134280286D01*
X63500000Y-133823143D02*
X63500000Y-134737429D01*
D11*
X61610809Y-133786619D02*
X61944143Y-134262810D01*
X62182238Y-133786619D02*
X62182238Y-134786619D01*
X61801285Y-134786619D01*
X61706047Y-134739000D01*
X61658428Y-134691381D01*
X61610809Y-134596143D01*
X61610809Y-134453286D01*
X61658428Y-134358048D01*
X61706047Y-134310429D01*
X61801285Y-134262810D01*
X62182238Y-134262810D01*
X60706047Y-133786619D02*
X61182238Y-133786619D01*
X61182238Y-134786619D01*
X60182238Y-134262810D02*
X60182238Y-133786619D01*
X60515571Y-134786619D02*
X60182238Y-134262810D01*
X59848904Y-134786619D01*
X59134286Y-134072333D02*
X58658095Y-134072333D01*
X59229524Y-133786619D02*
X58896191Y-134786619D01*
X58562857Y-133786619D01*
X57800952Y-134786619D02*
X57991429Y-134786619D01*
X58086667Y-134739000D01*
X58134286Y-134691381D01*
X58229524Y-134548524D01*
X58277143Y-134358048D01*
X58277143Y-133977095D01*
X58229524Y-133881857D01*
X58181905Y-133834238D01*
X58086667Y-133786619D01*
X57896190Y-133786619D01*
X57800952Y-133834238D01*
X57753333Y-133881857D01*
X57705714Y-133977095D01*
X57705714Y-134215190D01*
X57753333Y-134310429D01*
X57800952Y-134358048D01*
X57896190Y-134405667D01*
X58086667Y-134405667D01*
X58181905Y-134358048D01*
X58229524Y-134310429D01*
X58277143Y-134215190D01*
X56514904Y-134739000D02*
X56610142Y-134786619D01*
X56752999Y-134786619D01*
X56895857Y-134739000D01*
X56991095Y-134643762D01*
X57038714Y-134548524D01*
X57086333Y-134358048D01*
X57086333Y-134215190D01*
X57038714Y-134024714D01*
X56991095Y-133929476D01*
X56895857Y-133834238D01*
X56752999Y-133786619D01*
X56657761Y-133786619D01*
X56514904Y-133834238D01*
X56467285Y-133881857D01*
X56467285Y-134215190D01*
X56657761Y-134215190D01*
X56038714Y-133786619D02*
X56038714Y-134786619D01*
X55467285Y-133786619D01*
X55467285Y-134786619D01*
X54991095Y-133786619D02*
X54991095Y-134786619D01*
X54753000Y-134786619D01*
X54610142Y-134739000D01*
X54514904Y-134643762D01*
X54467285Y-134548524D01*
X54419666Y-134358048D01*
X54419666Y-134215190D01*
X54467285Y-134024714D01*
X54514904Y-133929476D01*
X54610142Y-133834238D01*
X54753000Y-133786619D01*
X54991095Y-133786619D01*
D12*
X26208905Y-141859953D02*
X27508905Y-141859953D01*
X26270810Y-142417096D02*
X26208905Y-142602810D01*
X26208905Y-142912334D01*
X26270810Y-143036144D01*
X26332714Y-143098048D01*
X26456524Y-143159953D01*
X26580333Y-143159953D01*
X26704143Y-143098048D01*
X26766048Y-143036144D01*
X26827952Y-142912334D01*
X26889857Y-142664715D01*
X26951762Y-142540906D01*
X27013667Y-142479001D01*
X27137476Y-142417096D01*
X27261286Y-142417096D01*
X27385095Y-142479001D01*
X27447000Y-142540906D01*
X27508905Y-142664715D01*
X27508905Y-142974239D01*
X27447000Y-143159953D01*
X26208905Y-143717096D02*
X27508905Y-143717096D01*
X27508905Y-144212334D01*
X27447000Y-144336143D01*
X27385095Y-144398048D01*
X27261286Y-144459953D01*
X27075571Y-144459953D01*
X26951762Y-144398048D01*
X26889857Y-144336143D01*
X26827952Y-144212334D01*
X26827952Y-143717096D01*
D11*
X26344619Y-165314381D02*
X26820810Y-164981047D01*
X26344619Y-164742952D02*
X27344619Y-164742952D01*
X27344619Y-165123905D01*
X27297000Y-165219143D01*
X27249381Y-165266762D01*
X27154143Y-165314381D01*
X27011286Y-165314381D01*
X26916048Y-165266762D01*
X26868429Y-165219143D01*
X26820810Y-165123905D01*
X26820810Y-164742952D01*
X26392238Y-165695333D02*
X26344619Y-165838190D01*
X26344619Y-166076286D01*
X26392238Y-166171524D01*
X26439857Y-166219143D01*
X26535095Y-166266762D01*
X26630333Y-166266762D01*
X26725571Y-166219143D01*
X26773190Y-166171524D01*
X26820810Y-166076286D01*
X26868429Y-165885809D01*
X26916048Y-165790571D01*
X26963667Y-165742952D01*
X27058905Y-165695333D01*
X27154143Y-165695333D01*
X27249381Y-165742952D01*
X27297000Y-165790571D01*
X27344619Y-165885809D01*
X27344619Y-166123905D01*
X27297000Y-166266762D01*
X27344619Y-166552476D02*
X27344619Y-167123905D01*
X26344619Y-166838190D02*
X27344619Y-166838190D01*
X27297000Y-153543096D02*
X27344619Y-153447858D01*
X27344619Y-153305001D01*
X27297000Y-153162143D01*
X27201762Y-153066905D01*
X27106524Y-153019286D01*
X26916048Y-152971667D01*
X26773190Y-152971667D01*
X26582714Y-153019286D01*
X26487476Y-153066905D01*
X26392238Y-153162143D01*
X26344619Y-153305001D01*
X26344619Y-153400239D01*
X26392238Y-153543096D01*
X26439857Y-153590715D01*
X26773190Y-153590715D01*
X26773190Y-153400239D01*
X26344619Y-154019286D02*
X27344619Y-154019286D01*
X26344619Y-154590715D01*
X27344619Y-154590715D01*
X26344619Y-155066905D02*
X27344619Y-155066905D01*
X27344619Y-155305000D01*
X27297000Y-155447858D01*
X27201762Y-155543096D01*
X27106524Y-155590715D01*
X26916048Y-155638334D01*
X26773190Y-155638334D01*
X26582714Y-155590715D01*
X26487476Y-155543096D01*
X26392238Y-155447858D01*
X26344619Y-155305000D01*
X26344619Y-155066905D01*
X27344619Y-157067381D02*
X27344619Y-157686429D01*
X26963667Y-157353095D01*
X26963667Y-157495953D01*
X26916048Y-157591191D01*
X26868429Y-157638810D01*
X26773190Y-157686429D01*
X26535095Y-157686429D01*
X26439857Y-157638810D01*
X26392238Y-157591191D01*
X26344619Y-157495953D01*
X26344619Y-157210238D01*
X26392238Y-157115000D01*
X26439857Y-157067381D01*
X26439857Y-158115000D02*
X26392238Y-158162619D01*
X26344619Y-158115000D01*
X26392238Y-158067381D01*
X26439857Y-158115000D01*
X26344619Y-158115000D01*
X27344619Y-158495952D02*
X27344619Y-159115000D01*
X26963667Y-158781666D01*
X26963667Y-158924524D01*
X26916048Y-159019762D01*
X26868429Y-159067381D01*
X26773190Y-159115000D01*
X26535095Y-159115000D01*
X26439857Y-159067381D01*
X26392238Y-159019762D01*
X26344619Y-158924524D01*
X26344619Y-158638809D01*
X26392238Y-158543571D01*
X26439857Y-158495952D01*
X26344619Y-160488334D02*
X26820810Y-160155000D01*
X26344619Y-159916905D02*
X27344619Y-159916905D01*
X27344619Y-160297858D01*
X27297000Y-160393096D01*
X27249381Y-160440715D01*
X27154143Y-160488334D01*
X27011286Y-160488334D01*
X26916048Y-160440715D01*
X26868429Y-160393096D01*
X26820810Y-160297858D01*
X26820810Y-159916905D01*
X27344619Y-160821667D02*
X26344619Y-161488334D01*
X27344619Y-161488334D02*
X26344619Y-160821667D01*
X27344619Y-162433095D02*
X27344619Y-163004524D01*
X26344619Y-162718809D02*
X27344619Y-162718809D01*
X27344619Y-163242619D02*
X26344619Y-163909286D01*
X27344619Y-163909286D02*
X26344619Y-163242619D01*
X34576000Y-169314762D02*
X34718857Y-169362381D01*
X34956953Y-169362381D01*
X35052191Y-169314762D01*
X35099810Y-169267143D01*
X35147429Y-169171905D01*
X35147429Y-169076667D01*
X35099810Y-168981429D01*
X35052191Y-168933810D01*
X34956953Y-168886190D01*
X34766476Y-168838571D01*
X34671238Y-168790952D01*
X34623619Y-168743333D01*
X34576000Y-168648095D01*
X34576000Y-168552857D01*
X34623619Y-168457619D01*
X34671238Y-168410000D01*
X34766476Y-168362381D01*
X35004572Y-168362381D01*
X35147429Y-168410000D01*
X35956953Y-169314762D02*
X35861715Y-169362381D01*
X35671238Y-169362381D01*
X35576000Y-169314762D01*
X35528381Y-169219524D01*
X35528381Y-168838571D01*
X35576000Y-168743333D01*
X35671238Y-168695714D01*
X35861715Y-168695714D01*
X35956953Y-168743333D01*
X36004572Y-168838571D01*
X36004572Y-168933810D01*
X35528381Y-169029048D01*
X36433143Y-168695714D02*
X36433143Y-169362381D01*
X36433143Y-168790952D02*
X36480762Y-168743333D01*
X36576000Y-168695714D01*
X36718858Y-168695714D01*
X36814096Y-168743333D01*
X36861715Y-168838571D01*
X36861715Y-169362381D01*
X37290286Y-169314762D02*
X37385524Y-169362381D01*
X37576000Y-169362381D01*
X37671239Y-169314762D01*
X37718858Y-169219524D01*
X37718858Y-169171905D01*
X37671239Y-169076667D01*
X37576000Y-169029048D01*
X37433143Y-169029048D01*
X37337905Y-168981429D01*
X37290286Y-168886190D01*
X37290286Y-168838571D01*
X37337905Y-168743333D01*
X37433143Y-168695714D01*
X37576000Y-168695714D01*
X37671239Y-168743333D01*
X38528382Y-169314762D02*
X38433144Y-169362381D01*
X38242667Y-169362381D01*
X38147429Y-169314762D01*
X38099810Y-169219524D01*
X38099810Y-168838571D01*
X38147429Y-168743333D01*
X38242667Y-168695714D01*
X38433144Y-168695714D01*
X38528382Y-168743333D01*
X38576001Y-168838571D01*
X38576001Y-168933810D01*
X38099810Y-169029048D01*
X35607810Y-170902381D02*
X36226858Y-170902381D01*
X35893524Y-171283333D01*
X36036382Y-171283333D01*
X36131620Y-171330952D01*
X36179239Y-171378571D01*
X36226858Y-171473810D01*
X36226858Y-171711905D01*
X36179239Y-171807143D01*
X36131620Y-171854762D01*
X36036382Y-171902381D01*
X35750667Y-171902381D01*
X35655429Y-171854762D01*
X35607810Y-171807143D01*
X36655429Y-171807143D02*
X36703048Y-171854762D01*
X36655429Y-171902381D01*
X36607810Y-171854762D01*
X36655429Y-171807143D01*
X36655429Y-171902381D01*
X37036381Y-170902381D02*
X37655429Y-170902381D01*
X37322095Y-171283333D01*
X37464953Y-171283333D01*
X37560191Y-171330952D01*
X37607810Y-171378571D01*
X37655429Y-171473810D01*
X37655429Y-171711905D01*
X37607810Y-171807143D01*
X37560191Y-171854762D01*
X37464953Y-171902381D01*
X37179238Y-171902381D01*
X37084000Y-171854762D01*
X37036381Y-171807143D01*
X37941143Y-170902381D02*
X38274476Y-171902381D01*
X38607810Y-170902381D01*
X36576096Y-173490000D02*
X36480858Y-173442381D01*
X36338001Y-173442381D01*
X36195143Y-173490000D01*
X36099905Y-173585238D01*
X36052286Y-173680476D01*
X36004667Y-173870952D01*
X36004667Y-174013810D01*
X36052286Y-174204286D01*
X36099905Y-174299524D01*
X36195143Y-174394762D01*
X36338001Y-174442381D01*
X36433239Y-174442381D01*
X36576096Y-174394762D01*
X36623715Y-174347143D01*
X36623715Y-174013810D01*
X36433239Y-174013810D01*
X37052286Y-174442381D02*
X37052286Y-173442381D01*
X37623715Y-174442381D01*
X37623715Y-173442381D01*
X38099905Y-174442381D02*
X38099905Y-173442381D01*
X38338000Y-173442381D01*
X38480858Y-173490000D01*
X38576096Y-173585238D01*
X38623715Y-173680476D01*
X38671334Y-173870952D01*
X38671334Y-174013810D01*
X38623715Y-174204286D01*
X38576096Y-174299524D01*
X38480858Y-174394762D01*
X38338000Y-174442381D01*
X38099905Y-174442381D01*
D12*
X42808572Y-175941905D02*
X42870477Y-175880000D01*
X42994286Y-175818095D01*
X43303810Y-175818095D01*
X43427620Y-175880000D01*
X43489524Y-175941905D01*
X43551429Y-176065714D01*
X43551429Y-176189524D01*
X43489524Y-176375238D01*
X42746667Y-177118095D01*
X43551429Y-177118095D01*
X41011429Y-177118095D02*
X40268572Y-177118095D01*
X40640001Y-177118095D02*
X40640001Y-175818095D01*
X40516191Y-176003810D01*
X40392382Y-176127619D01*
X40268572Y-176189524D01*
X39148858Y-166834286D02*
X39086953Y-166896190D01*
X38901239Y-166958095D01*
X38777429Y-166958095D01*
X38591715Y-166896190D01*
X38467906Y-166772381D01*
X38406001Y-166648571D01*
X38344096Y-166400952D01*
X38344096Y-166215238D01*
X38406001Y-165967619D01*
X38467906Y-165843810D01*
X38591715Y-165720000D01*
X38777429Y-165658095D01*
X38901239Y-165658095D01*
X39086953Y-165720000D01*
X39148858Y-165781905D01*
X40263144Y-166091429D02*
X40263144Y-166958095D01*
X39706001Y-166091429D02*
X39706001Y-166772381D01*
X39767906Y-166896190D01*
X39891715Y-166958095D01*
X40077429Y-166958095D01*
X40201239Y-166896190D01*
X40263144Y-166834286D01*
X40882191Y-166958095D02*
X40882191Y-166091429D01*
X40882191Y-166339048D02*
X40944096Y-166215238D01*
X41006000Y-166153333D01*
X41129810Y-166091429D01*
X41253619Y-166091429D01*
X41686953Y-166958095D02*
X41686953Y-166091429D01*
X41686953Y-166339048D02*
X41748858Y-166215238D01*
X41810762Y-166153333D01*
X41934572Y-166091429D01*
X42058381Y-166091429D01*
X42986953Y-166896190D02*
X42863143Y-166958095D01*
X42615524Y-166958095D01*
X42491715Y-166896190D01*
X42429810Y-166772381D01*
X42429810Y-166277143D01*
X42491715Y-166153333D01*
X42615524Y-166091429D01*
X42863143Y-166091429D01*
X42986953Y-166153333D01*
X43048858Y-166277143D01*
X43048858Y-166400952D01*
X42429810Y-166524762D01*
X43606001Y-166091429D02*
X43606001Y-166958095D01*
X43606001Y-166215238D02*
X43667906Y-166153333D01*
X43791715Y-166091429D01*
X43977429Y-166091429D01*
X44101239Y-166153333D01*
X44163144Y-166277143D01*
X44163144Y-166958095D01*
X44596477Y-166091429D02*
X45091715Y-166091429D01*
X44782191Y-165658095D02*
X44782191Y-166772381D01*
X44844096Y-166896190D01*
X44967905Y-166958095D01*
X45091715Y-166958095D01*
X52320477Y-176492667D02*
X52939525Y-176492667D01*
X52196668Y-176864095D02*
X52630001Y-175564095D01*
X53063334Y-176864095D01*
X54053811Y-175997429D02*
X54053811Y-176864095D01*
X53496668Y-175997429D02*
X53496668Y-176678381D01*
X53558573Y-176802190D01*
X53682382Y-176864095D01*
X53868096Y-176864095D01*
X53991906Y-176802190D01*
X54053811Y-176740286D01*
X54549048Y-176864095D02*
X55230001Y-175997429D01*
X54549048Y-175997429D02*
X55230001Y-176864095D01*
X55725239Y-176864095D02*
X55725239Y-175997429D01*
X55725239Y-175564095D02*
X55663334Y-175626000D01*
X55725239Y-175687905D01*
X55787144Y-175626000D01*
X55725239Y-175564095D01*
X55725239Y-175687905D01*
X56530001Y-176864095D02*
X56406192Y-176802190D01*
X56344287Y-176678381D01*
X56344287Y-175564095D01*
X57582382Y-176864095D02*
X57582382Y-176183143D01*
X57520477Y-176059333D01*
X57396667Y-175997429D01*
X57149048Y-175997429D01*
X57025239Y-176059333D01*
X57582382Y-176802190D02*
X57458572Y-176864095D01*
X57149048Y-176864095D01*
X57025239Y-176802190D01*
X56963334Y-176678381D01*
X56963334Y-176554571D01*
X57025239Y-176430762D01*
X57149048Y-176368857D01*
X57458572Y-176368857D01*
X57582382Y-176306952D01*
X58201429Y-176864095D02*
X58201429Y-175997429D01*
X58201429Y-176245048D02*
X58263334Y-176121238D01*
X58325238Y-176059333D01*
X58449048Y-175997429D01*
X58572857Y-175997429D01*
X58882381Y-175997429D02*
X59191905Y-176864095D01*
X59501429Y-175997429D02*
X59191905Y-176864095D01*
X59068096Y-177173619D01*
X59006191Y-177235524D01*
X58882381Y-177297429D01*
X64270952Y-129205905D02*
X64270952Y-130505905D01*
X63775714Y-130505905D01*
X63651905Y-130444000D01*
X63590000Y-130382095D01*
X63528095Y-130258286D01*
X63528095Y-130072571D01*
X63590000Y-129948762D01*
X63651905Y-129886857D01*
X63775714Y-129824952D01*
X64270952Y-129824952D01*
X62970952Y-129205905D02*
X62970952Y-130072571D01*
X62970952Y-129824952D02*
X62909047Y-129948762D01*
X62847143Y-130010667D01*
X62723333Y-130072571D01*
X62599524Y-130072571D01*
X61670952Y-129267810D02*
X61794762Y-129205905D01*
X62042381Y-129205905D01*
X62166190Y-129267810D01*
X62228095Y-129391619D01*
X62228095Y-129886857D01*
X62166190Y-130010667D01*
X62042381Y-130072571D01*
X61794762Y-130072571D01*
X61670952Y-130010667D01*
X61609047Y-129886857D01*
X61609047Y-129763048D01*
X62228095Y-129639238D01*
X60494761Y-129267810D02*
X60618571Y-129205905D01*
X60866190Y-129205905D01*
X60989999Y-129267810D01*
X61051904Y-129329714D01*
X61113809Y-129453524D01*
X61113809Y-129824952D01*
X61051904Y-129948762D01*
X60989999Y-130010667D01*
X60866190Y-130072571D01*
X60618571Y-130072571D01*
X60494761Y-130010667D01*
X59937618Y-129205905D02*
X59937618Y-130505905D01*
X59380475Y-129205905D02*
X59380475Y-129886857D01*
X59442380Y-130010667D01*
X59566190Y-130072571D01*
X59751904Y-130072571D01*
X59875713Y-130010667D01*
X59937618Y-129948762D01*
X58204285Y-129205905D02*
X58204285Y-129886857D01*
X58266190Y-130010667D01*
X58390000Y-130072571D01*
X58637619Y-130072571D01*
X58761428Y-130010667D01*
X58204285Y-129267810D02*
X58328095Y-129205905D01*
X58637619Y-129205905D01*
X58761428Y-129267810D01*
X58823333Y-129391619D01*
X58823333Y-129515429D01*
X58761428Y-129639238D01*
X58637619Y-129701143D01*
X58328095Y-129701143D01*
X58204285Y-129763048D01*
X57585238Y-129205905D02*
X57585238Y-130072571D01*
X57585238Y-129824952D02*
X57523333Y-129948762D01*
X57461429Y-130010667D01*
X57337619Y-130072571D01*
X57213810Y-130072571D01*
X56223333Y-130072571D02*
X56223333Y-129020190D01*
X56285238Y-128896381D01*
X56347143Y-128834476D01*
X56470952Y-128772571D01*
X56656667Y-128772571D01*
X56780476Y-128834476D01*
X56223333Y-129267810D02*
X56347143Y-129205905D01*
X56594762Y-129205905D01*
X56718571Y-129267810D01*
X56780476Y-129329714D01*
X56842381Y-129453524D01*
X56842381Y-129824952D01*
X56780476Y-129948762D01*
X56718571Y-130010667D01*
X56594762Y-130072571D01*
X56347143Y-130072571D01*
X56223333Y-130010667D01*
X55109048Y-129267810D02*
X55232858Y-129205905D01*
X55480477Y-129205905D01*
X55604286Y-129267810D01*
X55666191Y-129391619D01*
X55666191Y-129886857D01*
X55604286Y-130010667D01*
X55480477Y-130072571D01*
X55232858Y-130072571D01*
X55109048Y-130010667D01*
X55047143Y-129886857D01*
X55047143Y-129763048D01*
X55666191Y-129639238D01*
D11*
X35210000Y-161960000D02*
X35910000Y-161960000D01*
X35910000Y-163160000D02*
X35210000Y-163160000D01*
X35210000Y-154340000D02*
X35910000Y-154340000D01*
X35910000Y-155540000D02*
X35210000Y-155540000D01*
X35210000Y-160055000D02*
X35910000Y-160055000D01*
X35910000Y-161255000D02*
X35210000Y-161255000D01*
X35210000Y-158150000D02*
X35910000Y-158150000D01*
X35910000Y-159350000D02*
X35210000Y-159350000D01*
D15*
X59944000Y-152400000D02*
X61976000Y-152400000D01*
X62357000Y-152273000D02*
X59563000Y-152273000D01*
X59309000Y-152146000D02*
X62611000Y-152146000D01*
X62865000Y-152019000D02*
X59055000Y-152019000D01*
X62992000Y-151892000D02*
X58928000Y-151892000D01*
X58674000Y-151765000D02*
X63246000Y-151765000D01*
X64897000Y-148590000D02*
G75*
G03X64897000Y-148590000I-3937000J0D01*
G01*
X56769000Y-152781000D02*
X65151000Y-152781000D01*
X65151000Y-152781000D02*
X65151000Y-145161000D01*
X65151000Y-145161000D02*
X64389000Y-144399000D01*
X64389000Y-144399000D02*
X57531000Y-144399000D01*
X57531000Y-144399000D02*
X56769000Y-145161000D01*
X56769000Y-145161000D02*
X56769000Y-152781000D01*
X60960000Y-144907000D02*
X60960000Y-145669000D01*
X60579000Y-145288000D02*
X61341000Y-145288000D01*
D11*
X35210000Y-150530000D02*
X35910000Y-150530000D01*
X35910000Y-151730000D02*
X35210000Y-151730000D01*
X35210000Y-156245000D02*
X35910000Y-156245000D01*
X35910000Y-157445000D02*
X35210000Y-157445000D01*
X35210000Y-152435000D02*
X35910000Y-152435000D01*
X35910000Y-153635000D02*
X35210000Y-153635000D01*
D16*
X41203880Y-143205200D02*
X41203880Y-144005300D01*
X41203880Y-140004800D02*
X41203880Y-139204700D01*
X38806120Y-140004800D02*
X38806120Y-139204700D01*
X38806120Y-143205200D02*
X38806120Y-144005300D01*
X42204640Y-138305540D02*
X41104820Y-138305540D01*
X41704260Y-137706100D02*
X41704260Y-138904980D01*
X41203880Y-138805920D02*
X38806120Y-138805920D01*
X41203880Y-143205200D02*
X41203880Y-140004800D01*
X38806120Y-143205200D02*
X38806120Y-140004800D01*
D11*
X53625000Y-154340000D02*
X54325000Y-154340000D01*
X54325000Y-155540000D02*
X53625000Y-155540000D01*
X30480000Y-154305000D02*
X30480000Y-167005000D01*
X30480000Y-167005000D02*
X27940000Y-167005000D01*
X27940000Y-167005000D02*
X27940000Y-154305000D01*
X30480000Y-151765000D02*
X30480000Y-154305000D01*
X30480000Y-154305000D02*
X27940000Y-154305000D01*
X30480000Y-151765000D02*
X27940000Y-151765000D01*
X27940000Y-151765000D02*
X27940000Y-154305000D01*
X30480000Y-139065000D02*
X30480000Y-141605000D01*
X30480000Y-141605000D02*
X27940000Y-141605000D01*
X27940000Y-139065000D02*
X27940000Y-146685000D01*
X27940000Y-146685000D02*
X33020000Y-146685000D01*
X33020000Y-146685000D02*
X33020000Y-141605000D01*
X27940000Y-139065000D02*
X30480000Y-139065000D01*
X33020000Y-139065000D02*
X30480000Y-139065000D01*
X33020000Y-141605000D02*
X33020000Y-139065000D01*
X39370000Y-170180000D02*
X39370000Y-175260000D01*
X39370000Y-175260000D02*
X41910000Y-175260000D01*
X41910000Y-175260000D02*
X41910000Y-170180000D01*
X41910000Y-167640000D02*
X41910000Y-170180000D01*
X41910000Y-170180000D02*
X39370000Y-170180000D01*
X41910000Y-167640000D02*
X39370000Y-167640000D01*
X39370000Y-167640000D02*
X39370000Y-170180000D01*
X41910000Y-170180000D02*
X41910000Y-175260000D01*
X41910000Y-175260000D02*
X44450000Y-175260000D01*
X44450000Y-175260000D02*
X44450000Y-170180000D01*
X44450000Y-167640000D02*
X44450000Y-170180000D01*
X44450000Y-170180000D02*
X41910000Y-170180000D01*
X44450000Y-167640000D02*
X41910000Y-167640000D01*
X41910000Y-167640000D02*
X41910000Y-170180000D01*
X62230000Y-130810000D02*
X54610000Y-130810000D01*
X62230000Y-133350000D02*
X54610000Y-133350000D01*
X64770000Y-133350000D02*
X62230000Y-133350000D01*
X54610000Y-130810000D02*
X54610000Y-133350000D01*
X62230000Y-133350000D02*
X62230000Y-130810000D01*
X64770000Y-133350000D02*
X64770000Y-130810000D01*
X64770000Y-130810000D02*
X62230000Y-130810000D01*
D15*
X59182000Y-157988000D02*
X59055000Y-157988000D01*
X59055000Y-157988000D02*
X59055000Y-163322000D01*
X62865000Y-163322000D02*
X62865000Y-157988000D01*
X62865000Y-157988000D02*
X59182000Y-157988000D01*
X61468000Y-157988000D02*
X61468000Y-158496000D01*
X61468000Y-158496000D02*
X60452000Y-158496000D01*
X60452000Y-158496000D02*
X60452000Y-157988000D01*
X62865000Y-163322000D02*
X59055000Y-163322000D01*
D11*
X35060000Y-163790000D02*
X36060000Y-163790000D01*
X36060000Y-165140000D02*
X35060000Y-165140000D01*
X47030000Y-141105000D02*
X47030000Y-142105000D01*
X45680000Y-142105000D02*
X45680000Y-141105000D01*
X44490000Y-141105000D02*
X44490000Y-142105000D01*
X43140000Y-142105000D02*
X43140000Y-141105000D01*
X54475000Y-145455000D02*
X53475000Y-145455000D01*
X53475000Y-144105000D02*
X54475000Y-144105000D01*
X53475000Y-142200000D02*
X54475000Y-142200000D01*
X54475000Y-143550000D02*
X53475000Y-143550000D01*
X54475000Y-160695000D02*
X53475000Y-160695000D01*
X53475000Y-159345000D02*
X54475000Y-159345000D01*
X53475000Y-140295000D02*
X54475000Y-140295000D01*
X54475000Y-141645000D02*
X53475000Y-141645000D01*
X54475000Y-162600000D02*
X53475000Y-162600000D01*
X53475000Y-161250000D02*
X54475000Y-161250000D01*
D17*
X74930000Y-137795000D02*
X67310000Y-137795000D01*
X67310000Y-168275000D02*
X74930000Y-168275000D01*
X68580000Y-137795000D02*
X68580000Y-168275000D01*
X74930000Y-137795000D02*
X74930000Y-168275000D01*
X67310000Y-137795000D02*
X67310000Y-168275000D01*
D11*
X49530000Y-170180000D02*
X62230000Y-170180000D01*
X62230000Y-170180000D02*
X62230000Y-175260000D01*
X62230000Y-175260000D02*
X52070000Y-175260000D01*
X49530000Y-170180000D02*
X49530000Y-172720000D01*
X49530000Y-175260000D02*
X52070000Y-175260000D01*
X49530000Y-172720000D02*
X52070000Y-172720000D01*
X52070000Y-172720000D02*
X52070000Y-175260000D01*
X49530000Y-175260000D02*
X49530000Y-172720000D01*
X56750000Y-137125000D02*
X58300000Y-137125000D01*
X56750000Y-135925000D02*
X58300000Y-135925000D01*
D18*
X54635159Y-151731119D02*
X53335159Y-151731119D01*
X53335159Y-147981259D02*
X54635159Y-147981259D01*
D19*
X48971200Y-157581600D02*
X48971200Y-150393400D01*
X48336200Y-158191200D02*
X41275000Y-158191200D01*
X41224200Y-150368000D02*
X41224200Y-158089600D01*
X48971200Y-150368000D02*
X41351200Y-150368000D01*
X48961040Y-157607000D02*
X48376840Y-158191200D01*
X48403966Y-157165040D02*
G75*
G03X48403966Y-157165040I-479246J0D01*
G01*
D11*
X36115000Y-132410000D02*
X36115000Y-134110000D01*
X38215000Y-134110000D02*
X36115000Y-134110000D01*
X51315000Y-132410000D02*
X51315000Y-134110000D01*
X51315000Y-134110000D02*
X49415000Y-134110000D01*
X50315000Y-129560000D02*
X37315000Y-129560000D01*
X60706000Y-137287000D02*
X60071000Y-137287000D01*
X60071000Y-137287000D02*
X60071000Y-138303000D01*
X61849000Y-138303000D02*
X61849000Y-137287000D01*
X61849000Y-137287000D02*
X61214000Y-137287000D01*
X60706000Y-137160000D02*
X60706000Y-137287000D01*
X61214000Y-137287000D02*
X61214000Y-137160000D01*
X60071000Y-138303000D02*
X61849000Y-138303000D01*
X61214000Y-137160000D02*
X60706000Y-137160000D01*
X32853334Y-162917143D02*
X32805715Y-162964762D01*
X32662858Y-163012381D01*
X32567620Y-163012381D01*
X32424762Y-162964762D01*
X32329524Y-162869524D01*
X32281905Y-162774286D01*
X32234286Y-162583810D01*
X32234286Y-162440952D01*
X32281905Y-162250476D01*
X32329524Y-162155238D01*
X32424762Y-162060000D01*
X32567620Y-162012381D01*
X32662858Y-162012381D01*
X32805715Y-162060000D01*
X32853334Y-162107619D01*
X33805715Y-163012381D02*
X33234286Y-163012381D01*
X33520000Y-163012381D02*
X33520000Y-162012381D01*
X33424762Y-162155238D01*
X33329524Y-162250476D01*
X33234286Y-162298095D01*
X32853334Y-155297143D02*
X32805715Y-155344762D01*
X32662858Y-155392381D01*
X32567620Y-155392381D01*
X32424762Y-155344762D01*
X32329524Y-155249524D01*
X32281905Y-155154286D01*
X32234286Y-154963810D01*
X32234286Y-154820952D01*
X32281905Y-154630476D01*
X32329524Y-154535238D01*
X32424762Y-154440000D01*
X32567620Y-154392381D01*
X32662858Y-154392381D01*
X32805715Y-154440000D01*
X32853334Y-154487619D01*
X33234286Y-154487619D02*
X33281905Y-154440000D01*
X33377143Y-154392381D01*
X33615239Y-154392381D01*
X33710477Y-154440000D01*
X33758096Y-154487619D01*
X33805715Y-154582857D01*
X33805715Y-154678095D01*
X33758096Y-154820952D01*
X33186667Y-155392381D01*
X33805715Y-155392381D01*
X32853334Y-161139143D02*
X32805715Y-161186762D01*
X32662858Y-161234381D01*
X32567620Y-161234381D01*
X32424762Y-161186762D01*
X32329524Y-161091524D01*
X32281905Y-160996286D01*
X32234286Y-160805810D01*
X32234286Y-160662952D01*
X32281905Y-160472476D01*
X32329524Y-160377238D01*
X32424762Y-160282000D01*
X32567620Y-160234381D01*
X32662858Y-160234381D01*
X32805715Y-160282000D01*
X32853334Y-160329619D01*
X33186667Y-160234381D02*
X33805715Y-160234381D01*
X33472381Y-160615333D01*
X33615239Y-160615333D01*
X33710477Y-160662952D01*
X33758096Y-160710571D01*
X33805715Y-160805810D01*
X33805715Y-161043905D01*
X33758096Y-161139143D01*
X33710477Y-161186762D01*
X33615239Y-161234381D01*
X33329524Y-161234381D01*
X33234286Y-161186762D01*
X33186667Y-161139143D01*
X32853334Y-159107143D02*
X32805715Y-159154762D01*
X32662858Y-159202381D01*
X32567620Y-159202381D01*
X32424762Y-159154762D01*
X32329524Y-159059524D01*
X32281905Y-158964286D01*
X32234286Y-158773810D01*
X32234286Y-158630952D01*
X32281905Y-158440476D01*
X32329524Y-158345238D01*
X32424762Y-158250000D01*
X32567620Y-158202381D01*
X32662858Y-158202381D01*
X32805715Y-158250000D01*
X32853334Y-158297619D01*
X33710477Y-158535714D02*
X33710477Y-159202381D01*
X33472381Y-158154762D02*
X33234286Y-158869048D01*
X33853334Y-158869048D01*
X57364334Y-154154143D02*
X57316715Y-154201762D01*
X57173858Y-154249381D01*
X57078620Y-154249381D01*
X56935762Y-154201762D01*
X56840524Y-154106524D01*
X56792905Y-154011286D01*
X56745286Y-153820810D01*
X56745286Y-153677952D01*
X56792905Y-153487476D01*
X56840524Y-153392238D01*
X56935762Y-153297000D01*
X57078620Y-153249381D01*
X57173858Y-153249381D01*
X57316715Y-153297000D01*
X57364334Y-153344619D01*
X58269096Y-153249381D02*
X57792905Y-153249381D01*
X57745286Y-153725571D01*
X57792905Y-153677952D01*
X57888143Y-153630333D01*
X58126239Y-153630333D01*
X58221477Y-153677952D01*
X58269096Y-153725571D01*
X58316715Y-153820810D01*
X58316715Y-154058905D01*
X58269096Y-154154143D01*
X58221477Y-154201762D01*
X58126239Y-154249381D01*
X57888143Y-154249381D01*
X57792905Y-154201762D01*
X57745286Y-154154143D01*
X32853334Y-151487143D02*
X32805715Y-151534762D01*
X32662858Y-151582381D01*
X32567620Y-151582381D01*
X32424762Y-151534762D01*
X32329524Y-151439524D01*
X32281905Y-151344286D01*
X32234286Y-151153810D01*
X32234286Y-151010952D01*
X32281905Y-150820476D01*
X32329524Y-150725238D01*
X32424762Y-150630000D01*
X32567620Y-150582381D01*
X32662858Y-150582381D01*
X32805715Y-150630000D01*
X32853334Y-150677619D01*
X33710477Y-150582381D02*
X33520000Y-150582381D01*
X33424762Y-150630000D01*
X33377143Y-150677619D01*
X33281905Y-150820476D01*
X33234286Y-151010952D01*
X33234286Y-151391905D01*
X33281905Y-151487143D01*
X33329524Y-151534762D01*
X33424762Y-151582381D01*
X33615239Y-151582381D01*
X33710477Y-151534762D01*
X33758096Y-151487143D01*
X33805715Y-151391905D01*
X33805715Y-151153810D01*
X33758096Y-151058571D01*
X33710477Y-151010952D01*
X33615239Y-150963333D01*
X33424762Y-150963333D01*
X33329524Y-151010952D01*
X33281905Y-151058571D01*
X33234286Y-151153810D01*
X32853334Y-157329143D02*
X32805715Y-157376762D01*
X32662858Y-157424381D01*
X32567620Y-157424381D01*
X32424762Y-157376762D01*
X32329524Y-157281524D01*
X32281905Y-157186286D01*
X32234286Y-156995810D01*
X32234286Y-156852952D01*
X32281905Y-156662476D01*
X32329524Y-156567238D01*
X32424762Y-156472000D01*
X32567620Y-156424381D01*
X32662858Y-156424381D01*
X32805715Y-156472000D01*
X32853334Y-156519619D01*
X33186667Y-156424381D02*
X33853334Y-156424381D01*
X33424762Y-157424381D01*
X32853334Y-153519143D02*
X32805715Y-153566762D01*
X32662858Y-153614381D01*
X32567620Y-153614381D01*
X32424762Y-153566762D01*
X32329524Y-153471524D01*
X32281905Y-153376286D01*
X32234286Y-153185810D01*
X32234286Y-153042952D01*
X32281905Y-152852476D01*
X32329524Y-152757238D01*
X32424762Y-152662000D01*
X32567620Y-152614381D01*
X32662858Y-152614381D01*
X32805715Y-152662000D01*
X32853334Y-152709619D01*
X33424762Y-153042952D02*
X33329524Y-152995333D01*
X33281905Y-152947714D01*
X33234286Y-152852476D01*
X33234286Y-152804857D01*
X33281905Y-152709619D01*
X33329524Y-152662000D01*
X33424762Y-152614381D01*
X33615239Y-152614381D01*
X33710477Y-152662000D01*
X33758096Y-152709619D01*
X33805715Y-152804857D01*
X33805715Y-152852476D01*
X33758096Y-152947714D01*
X33710477Y-152995333D01*
X33615239Y-153042952D01*
X33424762Y-153042952D01*
X33329524Y-153090571D01*
X33281905Y-153138190D01*
X33234286Y-153233429D01*
X33234286Y-153423905D01*
X33281905Y-153519143D01*
X33329524Y-153566762D01*
X33424762Y-153614381D01*
X33615239Y-153614381D01*
X33710477Y-153566762D01*
X33758096Y-153519143D01*
X33805715Y-153423905D01*
X33805715Y-153233429D01*
X33758096Y-153138190D01*
X33710477Y-153090571D01*
X33615239Y-153042952D01*
X38203143Y-141898666D02*
X38250762Y-141946285D01*
X38298381Y-142089142D01*
X38298381Y-142184380D01*
X38250762Y-142327238D01*
X38155524Y-142422476D01*
X38060286Y-142470095D01*
X37869810Y-142517714D01*
X37726952Y-142517714D01*
X37536476Y-142470095D01*
X37441238Y-142422476D01*
X37346000Y-142327238D01*
X37298381Y-142184380D01*
X37298381Y-142089142D01*
X37346000Y-141946285D01*
X37393619Y-141898666D01*
X38298381Y-141422476D02*
X38298381Y-141232000D01*
X38250762Y-141136761D01*
X38203143Y-141089142D01*
X38060286Y-140993904D01*
X37869810Y-140946285D01*
X37488857Y-140946285D01*
X37393619Y-140993904D01*
X37346000Y-141041523D01*
X37298381Y-141136761D01*
X37298381Y-141327238D01*
X37346000Y-141422476D01*
X37393619Y-141470095D01*
X37488857Y-141517714D01*
X37726952Y-141517714D01*
X37822190Y-141470095D01*
X37869810Y-141422476D01*
X37917429Y-141327238D01*
X37917429Y-141136761D01*
X37869810Y-141041523D01*
X37822190Y-140993904D01*
X37726952Y-140946285D01*
D17*
X41813117Y-138886111D02*
X41813117Y-137724968D01*
X42393689Y-138305539D02*
X41232546Y-138305539D01*
D11*
X53332143Y-157202143D02*
X53284524Y-157249762D01*
X53141667Y-157297381D01*
X53046429Y-157297381D01*
X52903571Y-157249762D01*
X52808333Y-157154524D01*
X52760714Y-157059286D01*
X52713095Y-156868810D01*
X52713095Y-156725952D01*
X52760714Y-156535476D01*
X52808333Y-156440238D01*
X52903571Y-156345000D01*
X53046429Y-156297381D01*
X53141667Y-156297381D01*
X53284524Y-156345000D01*
X53332143Y-156392619D01*
X54284524Y-157297381D02*
X53713095Y-157297381D01*
X53998809Y-157297381D02*
X53998809Y-156297381D01*
X53903571Y-156440238D01*
X53808333Y-156535476D01*
X53713095Y-156583095D01*
X54903571Y-156297381D02*
X54998810Y-156297381D01*
X55094048Y-156345000D01*
X55141667Y-156392619D01*
X55189286Y-156487857D01*
X55236905Y-156678333D01*
X55236905Y-156916429D01*
X55189286Y-157106905D01*
X55141667Y-157202143D01*
X55094048Y-157249762D01*
X54998810Y-157297381D01*
X54903571Y-157297381D01*
X54808333Y-157249762D01*
X54760714Y-157202143D01*
X54713095Y-157106905D01*
X54665476Y-156916429D01*
X54665476Y-156678333D01*
X54713095Y-156487857D01*
X54760714Y-156392619D01*
X54808333Y-156345000D01*
X54903571Y-156297381D01*
D19*
X58311143Y-164836929D02*
X58202286Y-164782500D01*
X58093429Y-164673643D01*
X57930143Y-164510357D01*
X57821286Y-164455929D01*
X57712429Y-164455929D01*
X57766857Y-164728071D02*
X57658000Y-164673643D01*
X57549143Y-164564786D01*
X57494714Y-164347071D01*
X57494714Y-163966071D01*
X57549143Y-163748357D01*
X57658000Y-163639500D01*
X57766857Y-163585071D01*
X57984571Y-163585071D01*
X58093429Y-163639500D01*
X58202286Y-163748357D01*
X58256714Y-163966071D01*
X58256714Y-164347071D01*
X58202286Y-164564786D01*
X58093429Y-164673643D01*
X57984571Y-164728071D01*
X57766857Y-164728071D01*
X59345286Y-164728071D02*
X58692143Y-164728071D01*
X59018715Y-164728071D02*
X59018715Y-163585071D01*
X58909858Y-163748357D01*
X58801000Y-163857214D01*
X58692143Y-163911643D01*
D11*
X32853334Y-165044381D02*
X32520000Y-164568190D01*
X32281905Y-165044381D02*
X32281905Y-164044381D01*
X32662858Y-164044381D01*
X32758096Y-164092000D01*
X32805715Y-164139619D01*
X32853334Y-164234857D01*
X32853334Y-164377714D01*
X32805715Y-164472952D01*
X32758096Y-164520571D01*
X32662858Y-164568190D01*
X32281905Y-164568190D01*
X33805715Y-165044381D02*
X33234286Y-165044381D01*
X33520000Y-165044381D02*
X33520000Y-164044381D01*
X33424762Y-164187238D01*
X33329524Y-164282476D01*
X33234286Y-164330095D01*
X48458381Y-141644666D02*
X47982190Y-141978000D01*
X48458381Y-142216095D02*
X47458381Y-142216095D01*
X47458381Y-141835142D01*
X47506000Y-141739904D01*
X47553619Y-141692285D01*
X47648857Y-141644666D01*
X47791714Y-141644666D01*
X47886952Y-141692285D01*
X47934571Y-141739904D01*
X47982190Y-141835142D01*
X47982190Y-142216095D01*
X47553619Y-141263714D02*
X47506000Y-141216095D01*
X47458381Y-141120857D01*
X47458381Y-140882761D01*
X47506000Y-140787523D01*
X47553619Y-140739904D01*
X47648857Y-140692285D01*
X47744095Y-140692285D01*
X47886952Y-140739904D01*
X48458381Y-141311333D01*
X48458381Y-140692285D01*
X42870381Y-141644666D02*
X42394190Y-141978000D01*
X42870381Y-142216095D02*
X41870381Y-142216095D01*
X41870381Y-141835142D01*
X41918000Y-141739904D01*
X41965619Y-141692285D01*
X42060857Y-141644666D01*
X42203714Y-141644666D01*
X42298952Y-141692285D01*
X42346571Y-141739904D01*
X42394190Y-141835142D01*
X42394190Y-142216095D01*
X41870381Y-141311333D02*
X41870381Y-140692285D01*
X42251333Y-141025619D01*
X42251333Y-140882761D01*
X42298952Y-140787523D01*
X42346571Y-140739904D01*
X42441810Y-140692285D01*
X42679905Y-140692285D01*
X42775143Y-140739904D01*
X42822762Y-140787523D01*
X42870381Y-140882761D01*
X42870381Y-141168476D01*
X42822762Y-141263714D01*
X42775143Y-141311333D01*
X51395334Y-145486381D02*
X51062000Y-145010190D01*
X50823905Y-145486381D02*
X50823905Y-144486381D01*
X51204858Y-144486381D01*
X51300096Y-144534000D01*
X51347715Y-144581619D01*
X51395334Y-144676857D01*
X51395334Y-144819714D01*
X51347715Y-144914952D01*
X51300096Y-144962571D01*
X51204858Y-145010190D01*
X50823905Y-145010190D01*
X52300096Y-144486381D02*
X51823905Y-144486381D01*
X51776286Y-144962571D01*
X51823905Y-144914952D01*
X51919143Y-144867333D01*
X52157239Y-144867333D01*
X52252477Y-144914952D01*
X52300096Y-144962571D01*
X52347715Y-145057810D01*
X52347715Y-145295905D01*
X52300096Y-145391143D01*
X52252477Y-145438762D01*
X52157239Y-145486381D01*
X51919143Y-145486381D01*
X51823905Y-145438762D01*
X51776286Y-145391143D01*
X51395334Y-143454381D02*
X51062000Y-142978190D01*
X50823905Y-143454381D02*
X50823905Y-142454381D01*
X51204858Y-142454381D01*
X51300096Y-142502000D01*
X51347715Y-142549619D01*
X51395334Y-142644857D01*
X51395334Y-142787714D01*
X51347715Y-142882952D01*
X51300096Y-142930571D01*
X51204858Y-142978190D01*
X50823905Y-142978190D01*
X52252477Y-142454381D02*
X52062000Y-142454381D01*
X51966762Y-142502000D01*
X51919143Y-142549619D01*
X51823905Y-142692476D01*
X51776286Y-142882952D01*
X51776286Y-143263905D01*
X51823905Y-143359143D01*
X51871524Y-143406762D01*
X51966762Y-143454381D01*
X52157239Y-143454381D01*
X52252477Y-143406762D01*
X52300096Y-143359143D01*
X52347715Y-143263905D01*
X52347715Y-143025810D01*
X52300096Y-142930571D01*
X52252477Y-142882952D01*
X52157239Y-142835333D01*
X51966762Y-142835333D01*
X51871524Y-142882952D01*
X51823905Y-142930571D01*
X51776286Y-143025810D01*
X51268334Y-160599381D02*
X50935000Y-160123190D01*
X50696905Y-160599381D02*
X50696905Y-159599381D01*
X51077858Y-159599381D01*
X51173096Y-159647000D01*
X51220715Y-159694619D01*
X51268334Y-159789857D01*
X51268334Y-159932714D01*
X51220715Y-160027952D01*
X51173096Y-160075571D01*
X51077858Y-160123190D01*
X50696905Y-160123190D01*
X51601667Y-159599381D02*
X52268334Y-159599381D01*
X51839762Y-160599381D01*
X51395334Y-141422381D02*
X51062000Y-140946190D01*
X50823905Y-141422381D02*
X50823905Y-140422381D01*
X51204858Y-140422381D01*
X51300096Y-140470000D01*
X51347715Y-140517619D01*
X51395334Y-140612857D01*
X51395334Y-140755714D01*
X51347715Y-140850952D01*
X51300096Y-140898571D01*
X51204858Y-140946190D01*
X50823905Y-140946190D01*
X51966762Y-140850952D02*
X51871524Y-140803333D01*
X51823905Y-140755714D01*
X51776286Y-140660476D01*
X51776286Y-140612857D01*
X51823905Y-140517619D01*
X51871524Y-140470000D01*
X51966762Y-140422381D01*
X52157239Y-140422381D01*
X52252477Y-140470000D01*
X52300096Y-140517619D01*
X52347715Y-140612857D01*
X52347715Y-140660476D01*
X52300096Y-140755714D01*
X52252477Y-140803333D01*
X52157239Y-140850952D01*
X51966762Y-140850952D01*
X51871524Y-140898571D01*
X51823905Y-140946190D01*
X51776286Y-141041429D01*
X51776286Y-141231905D01*
X51823905Y-141327143D01*
X51871524Y-141374762D01*
X51966762Y-141422381D01*
X52157239Y-141422381D01*
X52252477Y-141374762D01*
X52300096Y-141327143D01*
X52347715Y-141231905D01*
X52347715Y-141041429D01*
X52300096Y-140946190D01*
X52252477Y-140898571D01*
X52157239Y-140850952D01*
X51268334Y-162377381D02*
X50935000Y-161901190D01*
X50696905Y-162377381D02*
X50696905Y-161377381D01*
X51077858Y-161377381D01*
X51173096Y-161425000D01*
X51220715Y-161472619D01*
X51268334Y-161567857D01*
X51268334Y-161710714D01*
X51220715Y-161805952D01*
X51173096Y-161853571D01*
X51077858Y-161901190D01*
X50696905Y-161901190D01*
X51744524Y-162377381D02*
X51935000Y-162377381D01*
X52030239Y-162329762D01*
X52077858Y-162282143D01*
X52173096Y-162139286D01*
X52220715Y-161948810D01*
X52220715Y-161567857D01*
X52173096Y-161472619D01*
X52125477Y-161425000D01*
X52030239Y-161377381D01*
X51839762Y-161377381D01*
X51744524Y-161425000D01*
X51696905Y-161472619D01*
X51649286Y-161567857D01*
X51649286Y-161805952D01*
X51696905Y-161901190D01*
X51744524Y-161948810D01*
X51839762Y-161996429D01*
X52030239Y-161996429D01*
X52125477Y-161948810D01*
X52173096Y-161901190D01*
X52220715Y-161805952D01*
D20*
X56485715Y-138329143D02*
X56485715Y-137429143D01*
X56700000Y-137429143D01*
X56828572Y-137472000D01*
X56914286Y-137557714D01*
X56957143Y-137643429D01*
X57000000Y-137814857D01*
X57000000Y-137943429D01*
X56957143Y-138114857D01*
X56914286Y-138200571D01*
X56828572Y-138286286D01*
X56700000Y-138329143D01*
X56485715Y-138329143D01*
X57857143Y-138329143D02*
X57342858Y-138329143D01*
X57600000Y-138329143D02*
X57600000Y-137429143D01*
X57514286Y-137557714D01*
X57428572Y-137643429D01*
X57342858Y-137686286D01*
D11*
X51522381Y-151883810D02*
X52522381Y-151217143D01*
X51522381Y-151217143D02*
X52522381Y-151883810D01*
X51522381Y-150979048D02*
X51522381Y-150407619D01*
X52522381Y-150693334D02*
X51522381Y-150693334D01*
X52236667Y-150121905D02*
X52236667Y-149645714D01*
X52522381Y-150217143D02*
X51522381Y-149883810D01*
X52522381Y-149550476D01*
X52522381Y-148740952D02*
X52522381Y-149217143D01*
X51522381Y-149217143D01*
X52522381Y-147883809D02*
X52522381Y-148455238D01*
X52522381Y-148169524D02*
X51522381Y-148169524D01*
X51665238Y-148264762D01*
X51760476Y-148360000D01*
X51808095Y-148455238D01*
D18*
X39140191Y-159832524D02*
X39140191Y-158562524D01*
X40204572Y-159711571D02*
X40156191Y-159772048D01*
X40011048Y-159832524D01*
X39914286Y-159832524D01*
X39769144Y-159772048D01*
X39672382Y-159651095D01*
X39624001Y-159530143D01*
X39575620Y-159288238D01*
X39575620Y-159106810D01*
X39624001Y-158864905D01*
X39672382Y-158743952D01*
X39769144Y-158623000D01*
X39914286Y-158562524D01*
X40011048Y-158562524D01*
X40156191Y-158623000D01*
X40204572Y-158683476D01*
X41172191Y-159832524D02*
X40591620Y-159832524D01*
X40881906Y-159832524D02*
X40881906Y-158562524D01*
X40785144Y-158743952D01*
X40688382Y-158864905D01*
X40591620Y-158925381D01*
D12*
X35653686Y-135800057D02*
X35653686Y-134600057D01*
X36110829Y-134600057D01*
X36225115Y-134657200D01*
X36282258Y-134714343D01*
X36339401Y-134828629D01*
X36339401Y-135000057D01*
X36282258Y-135114343D01*
X36225115Y-135171486D01*
X36110829Y-135228629D01*
X35653686Y-135228629D01*
X37425115Y-134600057D02*
X36853686Y-134600057D01*
X36796543Y-135171486D01*
X36853686Y-135114343D01*
X36967972Y-135057200D01*
X37253686Y-135057200D01*
X37367972Y-135114343D01*
X37425115Y-135171486D01*
X37482258Y-135285771D01*
X37482258Y-135571486D01*
X37425115Y-135685771D01*
X37367972Y-135742914D01*
X37253686Y-135800057D01*
X36967972Y-135800057D01*
X36853686Y-135742914D01*
X36796543Y-135685771D01*
D21*
X60760429Y-140244286D02*
X60687857Y-140208000D01*
X60615286Y-140135429D01*
X60506429Y-140026571D01*
X60433857Y-139990286D01*
X60361286Y-139990286D01*
X60397571Y-140171714D02*
X60325000Y-140135429D01*
X60252429Y-140062857D01*
X60216143Y-139917714D01*
X60216143Y-139663714D01*
X60252429Y-139518571D01*
X60325000Y-139446000D01*
X60397571Y-139409714D01*
X60542714Y-139409714D01*
X60615286Y-139446000D01*
X60687857Y-139518571D01*
X60724143Y-139663714D01*
X60724143Y-139917714D01*
X60687857Y-140062857D01*
X60615286Y-140135429D01*
X60542714Y-140171714D01*
X60397571Y-140171714D01*
X61014429Y-139482286D02*
X61050715Y-139446000D01*
X61123286Y-139409714D01*
X61304715Y-139409714D01*
X61377286Y-139446000D01*
X61413572Y-139482286D01*
X61449857Y-139554857D01*
X61449857Y-139627429D01*
X61413572Y-139736286D01*
X60978143Y-140171714D01*
X61449857Y-140171714D01*
%LPC*%
D11*
G36*
X53205384Y-148109944D02*
X53205384Y-151604981D01*
X54739541Y-151604981D01*
X54739541Y-148109944D01*
X53205384Y-148109944D01*
G37*
X53205384Y-148109944D02*
X53205384Y-151604981D01*
X54739541Y-151604981D01*
X54739541Y-148109944D01*
X53205384Y-148109944D01*
D22*
X34810000Y-162560000D03*
X36310000Y-162560000D03*
X34810000Y-154940000D03*
X36310000Y-154940000D03*
X34810000Y-160655000D03*
X36310000Y-160655000D03*
X34810000Y-158750000D03*
X36310000Y-158750000D03*
D23*
X60960000Y-145338800D03*
X60960000Y-151841200D03*
D22*
X34810000Y-151130000D03*
X36310000Y-151130000D03*
X34810000Y-156845000D03*
X36310000Y-156845000D03*
X34810000Y-153035000D03*
X36310000Y-153035000D03*
D24*
X40005000Y-142963900D03*
X40005000Y-140246100D03*
D22*
X53225000Y-154940000D03*
X54725000Y-154940000D03*
D25*
X29210000Y-153035000D03*
D26*
X29210000Y-155575000D03*
X29210000Y-158115000D03*
X29210000Y-160655000D03*
X29210000Y-163195000D03*
X29210000Y-165735000D03*
D27*
X29210000Y-140335000D03*
D28*
X31750000Y-140335000D03*
X29210000Y-142875000D03*
X31750000Y-142875000D03*
X29210000Y-145415000D03*
X31750000Y-145415000D03*
D25*
X40640000Y-168910000D03*
D26*
X40640000Y-171450000D03*
X40640000Y-173990000D03*
D25*
X43180000Y-168910000D03*
D26*
X43180000Y-171450000D03*
X43180000Y-173990000D03*
D29*
X63500000Y-132080000D03*
D30*
X60960000Y-132080000D03*
X58420000Y-132080000D03*
X55880000Y-132080000D03*
D31*
X63627000Y-158750000D03*
X58293000Y-158750000D03*
X63627000Y-160020000D03*
X63627000Y-161290000D03*
X63627000Y-162560000D03*
X58293000Y-160020000D03*
X58293000Y-161290000D03*
X58293000Y-162560000D03*
D32*
X36310000Y-164465000D03*
X34810000Y-164465000D03*
D33*
X46355000Y-142355000D03*
X46355000Y-140855000D03*
X43815000Y-142355000D03*
X43815000Y-140855000D03*
D32*
X53225000Y-144780000D03*
X54725000Y-144780000D03*
X54725000Y-142875000D03*
X53225000Y-142875000D03*
X53225000Y-160020000D03*
X54725000Y-160020000D03*
X54725000Y-140970000D03*
X53225000Y-140970000D03*
X53225000Y-161925000D03*
X54725000Y-161925000D03*
D34*
X71120000Y-145415000D03*
X71120000Y-150495000D03*
D35*
X71120000Y-140335000D03*
D34*
X71120000Y-155575000D03*
X71120000Y-160655000D03*
X71120000Y-165735000D03*
D27*
X50800000Y-173990000D03*
D28*
X50800000Y-171450000D03*
X53340000Y-173990000D03*
X53340000Y-171450000D03*
X55880000Y-173990000D03*
X55880000Y-171450000D03*
X58420000Y-173990000D03*
X58420000Y-171450000D03*
X60960000Y-173990000D03*
X60960000Y-171450000D03*
D36*
X56450000Y-136525000D03*
X57850000Y-136525000D03*
D37*
X53975000Y-148660000D03*
X53975000Y-149860000D03*
X53975000Y-151060000D03*
D38*
X49900840Y-151528780D03*
X49900840Y-152328880D03*
X49900840Y-153128980D03*
X49900840Y-153929080D03*
X49900840Y-154729180D03*
X49900840Y-155529280D03*
X49900840Y-156329380D03*
X49900840Y-157129480D03*
X40335200Y-157124400D03*
X40335200Y-151511000D03*
X40335200Y-152323800D03*
X40335200Y-153136600D03*
X40335200Y-153924000D03*
X40335200Y-154736800D03*
X40335200Y-155524200D03*
X40335200Y-156337000D03*
D39*
X47909480Y-159131000D03*
X47111920Y-159131000D03*
X46309280Y-159131000D03*
X45511720Y-159131000D03*
X44709080Y-159131000D03*
X43911520Y-159131000D03*
X43108880Y-159131000D03*
X42311320Y-159131000D03*
X47904400Y-149529800D03*
X47117000Y-149529800D03*
X46304200Y-149529800D03*
X45516800Y-149529800D03*
X44729400Y-149529800D03*
X43916600Y-149529800D03*
X43103800Y-149529800D03*
X42291000Y-149529800D03*
D40*
X48815000Y-134210000D03*
D41*
X51015000Y-130810000D03*
D40*
X47565000Y-134210000D03*
X46315000Y-134210000D03*
X45065000Y-134210000D03*
X43815000Y-134210000D03*
X42565000Y-134210000D03*
X41315000Y-134210000D03*
X40065000Y-134210000D03*
X38815000Y-134210000D03*
D41*
X36615000Y-130810000D03*
D42*
X61610240Y-138744960D03*
X60309760Y-138744960D03*
X60960000Y-136845040D03*
M02*
