G04 #@! TF.FileFunction,Soldermask,Top*
%FSLAX46Y46*%
G04 Gerber Fmt 4.6, Leading zero omitted, Abs format (unit mm)*
G04 Created by KiCad (PCBNEW (2014-11-27 BZR 5304)-product) date 12/4/2014 11:40:45 PM*
%MOMM*%
G01*
G04 APERTURE LIST*
%ADD10C,0.100000*%
%ADD11C,0.150000*%
%ADD12R,0.800000X0.750000*%
%ADD13R,2.400300X3.500120*%
%ADD14R,1.501140X1.950720*%
%ADD15R,2.032000X1.727200*%
%ADD16O,2.032000X1.727200*%
%ADD17R,1.727200X1.727200*%
%ADD18O,1.727200X1.727200*%
%ADD19R,1.727200X2.032000*%
%ADD20O,1.727200X2.032000*%
%ADD21R,1.399540X0.599440*%
%ADD22R,0.500000X0.900000*%
%ADD23R,0.900000X0.500000*%
%ADD24C,3.810000*%
%ADD25R,3.810000X3.810000*%
%ADD26R,0.600000X0.700000*%
%ADD27O,1.905000X0.450000*%
%ADD28R,1.998980X0.449580*%
%ADD29R,0.449580X1.998980*%
%ADD30R,0.700000X1.700000*%
%ADD31R,1.000000X2.600000*%
%ADD32R,0.599440X1.000760*%
G04 APERTURE END LIST*
D10*
D11*
G36*
X53205384Y-148109944D02*
X53205384Y-151604981D01*
X54739541Y-151604981D01*
X54739541Y-148109944D01*
X53205384Y-148109944D01*
G37*
X53205384Y-148109944D02*
X53205384Y-151604981D01*
X54739541Y-151604981D01*
X54739541Y-148109944D01*
X53205384Y-148109944D01*
D12*
X34810000Y-162560000D03*
X36310000Y-162560000D03*
X34810000Y-154940000D03*
X36310000Y-154940000D03*
X34810000Y-160655000D03*
X36310000Y-160655000D03*
X34810000Y-158750000D03*
X36310000Y-158750000D03*
D13*
X60960000Y-145338800D03*
X60960000Y-151841200D03*
D12*
X34810000Y-151130000D03*
X36310000Y-151130000D03*
X34810000Y-156845000D03*
X36310000Y-156845000D03*
X34810000Y-153035000D03*
X36310000Y-153035000D03*
D14*
X40005000Y-142963900D03*
X40005000Y-140246100D03*
D12*
X53225000Y-154940000D03*
X54725000Y-154940000D03*
D15*
X29210000Y-153035000D03*
D16*
X29210000Y-155575000D03*
X29210000Y-158115000D03*
X29210000Y-160655000D03*
X29210000Y-163195000D03*
X29210000Y-165735000D03*
D17*
X29210000Y-140335000D03*
D18*
X31750000Y-140335000D03*
X29210000Y-142875000D03*
X31750000Y-142875000D03*
X29210000Y-145415000D03*
X31750000Y-145415000D03*
D15*
X40640000Y-168910000D03*
D16*
X40640000Y-171450000D03*
X40640000Y-173990000D03*
D15*
X43180000Y-168910000D03*
D16*
X43180000Y-171450000D03*
X43180000Y-173990000D03*
D19*
X63500000Y-132080000D03*
D20*
X60960000Y-132080000D03*
X58420000Y-132080000D03*
X55880000Y-132080000D03*
D21*
X63627000Y-158750000D03*
X58293000Y-158750000D03*
X63627000Y-160020000D03*
X63627000Y-161290000D03*
X63627000Y-162560000D03*
X58293000Y-160020000D03*
X58293000Y-161290000D03*
X58293000Y-162560000D03*
D22*
X36310000Y-164465000D03*
X34810000Y-164465000D03*
D23*
X46355000Y-142355000D03*
X46355000Y-140855000D03*
X43815000Y-142355000D03*
X43815000Y-140855000D03*
D22*
X53225000Y-144780000D03*
X54725000Y-144780000D03*
X54725000Y-142875000D03*
X53225000Y-142875000D03*
X53225000Y-160020000D03*
X54725000Y-160020000D03*
X54725000Y-140970000D03*
X53225000Y-140970000D03*
X53225000Y-161925000D03*
X54725000Y-161925000D03*
D24*
X71120000Y-145415000D03*
X71120000Y-150495000D03*
D25*
X71120000Y-140335000D03*
D24*
X71120000Y-155575000D03*
X71120000Y-160655000D03*
X71120000Y-165735000D03*
D17*
X50800000Y-173990000D03*
D18*
X50800000Y-171450000D03*
X53340000Y-173990000D03*
X53340000Y-171450000D03*
X55880000Y-173990000D03*
X55880000Y-171450000D03*
X58420000Y-173990000D03*
X58420000Y-171450000D03*
X60960000Y-173990000D03*
X60960000Y-171450000D03*
D26*
X56450000Y-136525000D03*
X57850000Y-136525000D03*
D27*
X53975000Y-148660000D03*
X53975000Y-149860000D03*
X53975000Y-151060000D03*
D28*
X49900840Y-151528780D03*
X49900840Y-152328880D03*
X49900840Y-153128980D03*
X49900840Y-153929080D03*
X49900840Y-154729180D03*
X49900840Y-155529280D03*
X49900840Y-156329380D03*
X49900840Y-157129480D03*
X40335200Y-157124400D03*
X40335200Y-151511000D03*
X40335200Y-152323800D03*
X40335200Y-153136600D03*
X40335200Y-153924000D03*
X40335200Y-154736800D03*
X40335200Y-155524200D03*
X40335200Y-156337000D03*
D29*
X47909480Y-159131000D03*
X47111920Y-159131000D03*
X46309280Y-159131000D03*
X45511720Y-159131000D03*
X44709080Y-159131000D03*
X43911520Y-159131000D03*
X43108880Y-159131000D03*
X42311320Y-159131000D03*
X47904400Y-149529800D03*
X47117000Y-149529800D03*
X46304200Y-149529800D03*
X45516800Y-149529800D03*
X44729400Y-149529800D03*
X43916600Y-149529800D03*
X43103800Y-149529800D03*
X42291000Y-149529800D03*
D30*
X48815000Y-134210000D03*
D31*
X51015000Y-130810000D03*
D30*
X47565000Y-134210000D03*
X46315000Y-134210000D03*
X45065000Y-134210000D03*
X43815000Y-134210000D03*
X42565000Y-134210000D03*
X41315000Y-134210000D03*
X40065000Y-134210000D03*
X38815000Y-134210000D03*
D31*
X36615000Y-130810000D03*
D32*
X61610240Y-138744960D03*
X60309760Y-138744960D03*
X60960000Y-136845040D03*
M02*
